<svg id="Layer_2" data-name="Layer 2" xmlns="http://www.w3.org/2000/svg" viewBox="0 0 229.91 85.16"><defs><style>.cls-1,.cls-2,.cls-6,.cls-8{fill:#fff;}.cls-1,.cls-6,.cls-8{stroke:#fff;stroke-miterlimit:10;}.cls-3{fill:#d7282f;}.cls-4{fill:#6ab1e2;}.cls-5{fill:#323e48;}.cls-6{stroke-linecap:round;}.cls-6,.cls-8{stroke-width:3px;}.cls-7{fill:#a2ad00;}.cls-8{stroke-linecap:square;}</style></defs><line class="cls-1" x1="5.03" y1="79.92" x2="224.88" y2="79.92"/><path class="cls-2" d="M606.78,130.87s2.84-.57,2.81-2l-1.68-.19-2.72,1.17-.27,1.2Z" transform="translate(-485.08 -87.24)"/><path class="cls-2" d="M608.2,130.93l-1.47-.68a.35.35,0,0,1-.17-.46l1.71-3.71a.35.35,0,0,1,.46-.17l1.46.67a.34.34,0,0,1,.17.46l-1.7,3.72A.35.35,0,0,1,608.2,130.93Z" transform="translate(-485.08 -87.24)"/><path class="cls-3" d="M598.42,132.73a36.33,36.33,0,0,1-3-2.68l2-2.88c.31.33,2.39,3.07,2.39,3.07.39,0,6.32-1,6.32-1,0,.2.42,1.92.42,1.92C605.73,131.34,598.42,132.73,598.42,132.73Z" transform="translate(-485.08 -87.24)"/><path class="cls-2" d="M589.85,164.59l.55.92,2.7,1.07.07.61h-5.49l.35-2.62Z" transform="translate(-485.08 -87.24)"/><path class="cls-2" d="M594.85,124.69l-1.79-.09.43-2.79,1.83.17Z" transform="translate(-485.08 -87.24)"/><path class="cls-2" d="M597.29,120.88a2.63,2.63,0,1,0-2.86,2.89A2.9,2.9,0,0,0,597.29,120.88Z" transform="translate(-485.08 -87.24)"/><path class="cls-2" d="M591.92,118.57a1.35,1.35,0,1,0-2.25-1.39,1.35,1.35,0,1,0,2.25,1.39Z" transform="translate(-485.08 -87.24)"/><path class="cls-2" d="M589.93,164.65l-2.6,0s3.09-11.16,3.8-12.44a21.11,21.11,0,0,1,1.38-2.12l-1.69-8.33,5.6,7Z" transform="translate(-485.08 -87.24)"/><path class="cls-2" d="M591.81,136.82l-.4.36a5.1,5.1,0,0,0-.71,4.73l5.79,8.72a8.77,8.77,0,0,0-.69,2.74c-.14,1.53.41,11.34.41,11.34l1.74,0,1.71-13.95-4.13-14.31Z" transform="translate(-485.08 -87.24)"/><path class="cls-2" d="M597.83,164.65l.55,1,3.55,1.19.07.51-6.14,0,.62-2.69Z" transform="translate(-485.08 -87.24)"/><path class="cls-2" d="M593.51,123.46s-3.83.24-2.74-5.35a4.56,4.56,0,0,1,5.76-.2s-1.63,1.83-2.3,2.39c0,0-1.57,0-.54,1.31Z" transform="translate(-485.08 -87.24)"/><path class="cls-3" d="M597.5,126.76c-.46-.1-.55-.77-1.62-.83l.34-1.59a4.1,4.1,0,0,1-3.86-.54l-.73,2a9.81,9.81,0,0,0-1.79.72c-.15.21-3.46,8.25-3.46,8.25l.77,7.87s.64-1.38,1.58-1.3l.11-6.4,1.74-2.45.25,3s-3.15,13.83-3.22,15.11c0,0,13.33.73,14.13.73,0,0-3.36-20.52-3.39-21.55Z" transform="translate(-485.08 -87.24)"/><path class="cls-4" d="M590.75,138.7s-1.11-.69-1.31-.55a47,47,0,0,0-3.18,5.8,6,6,0,0,0,2.84,2.48l1.59-.14S591.09,140.5,590.75,138.7Z" transform="translate(-485.08 -87.24)"/><path class="cls-4" d="M596.16,125.88l-6.25,12.41.83.41,6.07-12.77Z" transform="translate(-485.08 -87.24)"/><path class="cls-5" d="M595.2,122.35a8.9,8.9,0,0,0,1-.16s.19-.22-.07-.32Z" transform="translate(-485.08 -87.24)"/><path class="cls-2" d="M710,172.19a5,5,0,1,0-5-5A5,5,0,0,0,710,172.19Z" transform="translate(-485.08 -87.24)"/><path class="cls-2" d="M490.11,172.4a5,5,0,1,0-5-5A5,5,0,0,0,490.11,172.4Z" transform="translate(-485.08 -87.24)"/><path class="cls-2" d="M569.12,104.09h13.45a.48.48,0,0,0,.47-.48v-11A4.56,4.56,0,0,0,578.48,88h-9.36a.47.47,0,0,0-.47.47v15.14A.48.48,0,0,0,569.12,104.09Z" transform="translate(-485.08 -87.24)"/><path class="cls-6" d="M568,165.39V88.74" transform="translate(-485.08 -87.24)"/><path class="cls-7" d="M570.16,96.21c3.18-.68,7-1.89,9.33-4.06V91.8a.61.61,0,0,0-.64-.69h-5.92a2.56,2.56,0,0,0-2.77,2.61v2.49Z" transform="translate(-485.08 -87.24)"/><path class="cls-7" d="M570.16,99.45v.29c0,.75.64.7.64.7h8a.63.63,0,0,0,.67-.7V96.22A30.32,30.32,0,0,1,570.16,99.45Z" transform="translate(-485.08 -87.24)"/><line class="cls-8" x1="82.92" y1="71.62" x2="82.92" y2="78.16"/></svg>