<svg id="Layer_1" data-name="Layer 1" xmlns="http://www.w3.org/2000/svg" viewBox="0 0 229.91 85.16"><defs><style>.cls-1,.cls-6,.cls-8{fill:none;stroke:#323e48;stroke-miterlimit:10;}.cls-2{fill:#323e48;}.cls-3{fill:#d7282f;}.cls-4{fill:#6ab1e2;}.cls-5{fill:#fff;}.cls-6{stroke-linecap:round;}.cls-6,.cls-8{stroke-width:3px;}.cls-7{fill:#eddb00;}.cls-8{stroke-linecap:square;}</style></defs><line class="cls-1" x1="5.03" y1="79.92" x2="224.88" y2="79.92"/><path class="cls-2" d="M221.85,134s2.84-.57,2.8-2l-1.67-.19-2.72,1.17-.27,1.2Z" transform="translate(-100.15 -90.33)"/><path class="cls-2" d="M223.26,134l-1.46-.68a.35.35,0,0,1-.17-.46l1.71-3.71a.35.35,0,0,1,.46-.17l1.46.67a.35.35,0,0,1,.17.46l-1.71,3.72A.35.35,0,0,1,223.26,134Z" transform="translate(-100.15 -90.33)"/><path class="cls-3" d="M213.49,135.82a36.33,36.33,0,0,1-3-2.68l2-2.88c.31.33,2.38,3.07,2.38,3.07.4,0,6.33-1,6.33-1,0,.2.42,1.92.42,1.92C220.8,134.43,213.49,135.82,213.49,135.82Z" transform="translate(-100.15 -90.33)"/><path class="cls-2" d="M204.92,167.68l.55.92,2.7,1.07.07.61h-5.49l.35-2.62Z" transform="translate(-100.15 -90.33)"/><path class="cls-2" d="M209.92,127.78l-1.79-.09.42-2.79,1.84.17Z" transform="translate(-100.15 -90.33)"/><path class="cls-2" d="M212.36,124a2.63,2.63,0,1,0-2.86,2.89A2.9,2.9,0,0,0,212.36,124Z" transform="translate(-100.15 -90.33)"/><path class="cls-2" d="M207,121.66a1.36,1.36,0,1,0-2,.7A1.52,1.52,0,0,0,207,121.66Z" transform="translate(-100.15 -90.33)"/><path class="cls-2" d="M205,167.74l-2.6,0s3.09-11.16,3.8-12.44a21.11,21.11,0,0,1,1.38-2.12l-1.69-8.33,5.59,7Z" transform="translate(-100.15 -90.33)"/><path class="cls-2" d="M206.88,139.91l-.4.36a5.13,5.13,0,0,0-.72,4.73l5.8,8.72a8.77,8.77,0,0,0-.69,2.74c-.14,1.53.41,11.34.41,11.34l1.74,0,1.71-13.95-4.13-14.31Z" transform="translate(-100.15 -90.33)"/><path class="cls-2" d="M212.9,167.74l.55,1L217,170l.07.51-6.14,0,.62-2.69Z" transform="translate(-100.15 -90.33)"/><path class="cls-2" d="M208.58,126.55s-3.83.24-2.74-5.35a4.56,4.56,0,0,1,5.76-.2s-1.63,1.83-2.31,2.39c0,0-1.56,0-.54,1.31Z" transform="translate(-100.15 -90.33)"/><path class="cls-3" d="M212.56,129.85c-.45-.1-.54-.77-1.62-.83l.35-1.59a4.1,4.1,0,0,1-3.86-.54l-.73,2a9.81,9.81,0,0,0-1.79.72c-.15.21-3.46,8.25-3.46,8.25l.77,7.87s.64-1.38,1.58-1.3l.11-6.4,1.74-2.45.25,3s-3.15,13.83-3.22,15.11c0,0,13.33.73,14.12.73,0,0-3.35-20.52-3.38-21.55Z" transform="translate(-100.15 -90.33)"/><path class="cls-4" d="M205.82,141.79s-1.11-.69-1.31-.55a47,47,0,0,0-3.18,5.8,5.94,5.94,0,0,0,2.84,2.48l1.59-.14S206.16,143.59,205.82,141.79Z" transform="translate(-100.15 -90.33)"/><path class="cls-4" d="M211.23,129,205,141.38l.83.41L211.88,129Z" transform="translate(-100.15 -90.33)"/><path class="cls-5" d="M210.27,125.44a8.9,8.9,0,0,0,1-.16s.19-.22-.07-.32Z" transform="translate(-100.15 -90.33)"/><path class="cls-2" d="M325,175.28a5,5,0,1,0-5-5A5,5,0,0,0,325,175.28Z" transform="translate(-100.15 -90.33)"/><path class="cls-2" d="M105.18,175.49a5,5,0,1,0-5-5A5,5,0,0,0,105.18,175.49Z" transform="translate(-100.15 -90.33)"/><path class="cls-2" d="M184.19,107.18h13.44a.48.48,0,0,0,.48-.48v-11a4.56,4.56,0,0,0-4.56-4.56h-9.36a.47.47,0,0,0-.47.47V106.7A.48.48,0,0,0,184.19,107.18Z" transform="translate(-100.15 -90.33)"/><path class="cls-6" d="M183.07,168.48V91.83" transform="translate(-100.15 -90.33)"/><path class="cls-7" d="M185.23,99.3c3.18-.68,7-1.89,9.33-4.06v-.35a.61.61,0,0,0-.64-.69H188a2.56,2.56,0,0,0-2.77,2.61V99.3Z" transform="translate(-100.15 -90.33)"/><path class="cls-7" d="M185.23,102.54v.29c0,.75.64.7.64.7h8a.63.63,0,0,0,.67-.7V99.31A30.32,30.32,0,0,1,185.23,102.54Z" transform="translate(-100.15 -90.33)"/><line class="cls-8" x1="82.92" y1="71.62" x2="82.92" y2="78.16"/></svg>