<svg width="832" height="86" viewBox="0 0 832 86" fill="none"
  xmlns="http://www.w3.org/2000/svg">
  <g clip-path="url(#clip0)">
    <path d="M5.03246 85.0882C7.81181 85.0882 10.0649 82.8351 10.0649 80.0558C10.0649 77.2764 7.81181 75.0233 5.03246 75.0233C2.25311 75.0233 0 77.2764 0 80.0558C0 82.8351 2.25311 85.0882 5.03246 85.0882Z" fill="#c1c1c1"/>
    <path d="M826.672 85.0882C829.452 85.0882 831.705 82.8351 831.705 80.0558C831.705 77.2764 829.452 75.0233 826.672 75.0233C823.893 75.0233 821.64 77.2764 821.64 80.0558C821.64 82.8351 823.893 85.0882 826.672 85.0882Z" fill="#c1c1c1"/>
    <path d="M826.672 80.0558H294.934H294.926C291.453 80.0558 288.502 79.1791 285.645 78.3361C282.863 77.51 279.989 76.6586 276.693 76.6586C273.397 76.6586 270.505 77.51 267.707 78.3361C264.832 79.1791 261.865 80.0558 258.392 80.0558C254.944 80.0558 252.011 79.1875 249.178 78.353C246.363 77.5184 243.446 76.6586 240.032 76.6586C236.635 76.6586 233.778 77.51 231.004 78.3445C228.18 79.1875 225.264 80.0642 221.732 80.0642C218.2 80.0642 215.283 79.1959 212.459 78.3445C209.694 77.5184 206.828 76.6586 203.431 76.6586C200.026 76.6586 197.134 77.5184 194.336 78.3445C191.503 79.1875 188.57 80.0558 185.071 80.0558C181.573 80.0558 178.648 79.1791 175.824 78.3361C173.059 77.51 170.193 76.6586 166.83 76.6586C163.45 76.6586 160.516 77.5184 157.684 78.353C154.835 79.1875 151.884 80.0558 148.47 80.0558H148.437C144.964 80.0558 142.013 79.1791 139.156 78.3361C136.374 77.51 133.499 76.6586 130.203 76.6586C126.907 76.6586 124.016 77.51 121.217 78.3361C118.343 79.1791 115.376 80.0558 111.903 80.0558C108.455 80.0558 105.522 79.1875 102.689 78.353C99.8737 77.5184 96.9571 76.6586 93.5431 76.6586C90.1459 76.6586 87.2883 77.51 84.515 78.3445C81.6911 79.1875 78.7744 80.0642 75.2424 80.0642C71.7105 80.0642 68.7938 79.1959 65.9699 78.3445C63.205 77.5184 60.3389 76.6586 56.9418 76.6586C53.5363 76.6586 50.6449 77.5184 47.8463 78.3445C45.014 79.1875 42.0805 80.0558 38.5822 80.0558C35.0839 80.0558 32.1588 79.1791 29.3349 78.3361C26.57 77.51 23.704 76.6586 20.3406 76.6586C16.9603 76.6586 14.0268 77.5184 11.1945 78.353C8.34527 79.1875 5.39492 80.0558 1.98093 80.0558" stroke="#c1c1c1" stroke-miterlimit="10"/>
    <path d="M127.236 47.5093H184.077C184.077 47.5093 170.278 41.617 164.579 41.617H128.635L127.236 47.5093ZM129.192 47.3575L129.908 43.2692C129.908 43.2692 148.243 43.109 154.186 43.2776C157.945 43.3872 164.942 44.3229 168.238 46.3713C168.668 46.641 170.025 47.3575 170.025 47.3575H129.192V47.3575Z" fill="#DBF3F6"/>
    <path d="M82.3234 69.5188H200.211C200.329 69.3081 200.557 69.1648 200.818 69.1648H207.857C208.118 69.1648 208.337 69.3081 208.464 69.5188H210.841C210.959 69.3081 211.186 69.1648 211.448 69.1648H218.486C218.748 69.1648 218.967 69.3081 219.093 69.5188H221.563C221.69 69.3165 221.976 69.1648 222.305 69.1648H226.832C226.857 69.1648 226.891 69.1732 226.916 69.1732C226.891 66.4758 225.18 64.0733 222.625 63.1714L199.275 53.2329C197.581 52.4911 195.752 52.1118 193.906 52.1118H85.0798L84.3802 54.4215H86.555L82.3234 69.5188ZM193.012 56.7733C193.012 56.7733 203.119 61.477 203.971 61.8985C204.721 62.2778 205.724 62.6319 206.264 63.1882C206.778 63.7109 206.567 64.9584 205.598 65.0006C203.667 65.1017 197.876 65.0006 197.876 65.0006C197.126 65.0006 196.435 64.537 196.055 63.7783L192.742 57.1526C192.624 56.9335 192.81 56.6806 193.012 56.7733ZM108.025 57.2116C108.025 56.8239 108.295 56.5036 108.632 56.5036H187.499C187.727 56.5036 187.929 56.6469 188.03 56.8829L191.36 64.2756C191.571 64.7477 191.284 65.3125 190.829 65.3125H108.632C108.295 65.3125 108.025 64.9922 108.025 64.6044V57.2116ZM99.6124 56.5036H103.364V64.773H99.6124V56.5036ZM92.5569 56.5036H96.308V64.773H92.5569V56.5036Z" fill="#DBF3F6"/>
    <path d="M80.3255 69.1817H200.683C200.354 69.2407 200.11 69.5273 200.11 69.8729V70.1764C200.11 70.5641 200.422 70.876 200.81 70.876H207.848C208.236 70.876 208.548 70.5641 208.548 70.1764V69.8729C208.548 69.5273 208.303 69.2407 207.975 69.1817H211.296C210.967 69.2407 210.723 69.5273 210.723 69.8729V70.1764C210.723 70.5641 211.035 70.876 211.422 70.876H218.461C218.849 70.876 219.161 70.5641 219.161 70.1764V69.8729C219.161 69.5273 218.916 69.2407 218.588 69.1817H222.111C221.74 69.2407 221.462 69.4852 221.462 69.7718V70.2775C221.462 70.6147 221.833 70.8845 222.28 70.8845H226.554C226.672 70.8845 226.79 70.8592 226.891 70.8255V71.2722L220.265 80.5026H76.9284L80.3255 69.1817Z" fill="#5FD0DF"/>
    <path d="M139.56 35.4127V42.2576H168.077L171.07 35.4127H139.56ZM144.112 36.8795H169.047L167.462 40.4536C167.462 40.4536 149.204 39.99 147.113 39.1892C145.292 38.498 144.112 36.8795 144.112 36.8795Z" fill="#DBF3F6"/>
    <path d="M88.7551 46.7336L129.301 46.7589L129.2 47.3574H170.033C170.033 47.3574 169.477 47.0623 168.971 46.7842L182.307 46.7926L202.285 54.5225C202.285 54.5225 86.6225 54.0757 86.9934 54.0757L88.7551 46.7336Z" fill="#DBF3F6"/>
    <path d="M129.192 47.3574L129.293 46.7589L168.954 46.7842C169.468 47.0624 170.016 47.3574 170.016 47.3574H129.192Z" fill="#DBF3F6"/>
    <path d="M500.498 17.3987H513.943C514.205 17.3987 514.415 17.188 514.415 16.9267V5.87547C514.415 3.35503 512.375 1.31506 509.855 1.31506H500.498C500.237 1.31506 500.026 1.5258 500.026 1.78712V16.9267C500.026 17.188 500.237 17.3987 500.498 17.3987Z" fill="#c1c1c1"/>
    <path d="M499.377 78.707V2.04834" stroke="#c1c1c1" stroke-width="3.2793" stroke-miterlimit="10" stroke-linecap="round"/>
    <path d="M501.535 9.52531C504.721 8.84252 508.489 7.63708 510.866 5.46225V5.11664C510.866 4.37484 510.226 4.42541 510.226 4.42541H504.308C501.476 4.42541 501.535 7.03015 501.535 7.03015V9.52531V9.52531Z" fill="#EDDB00"/>
    <path d="M501.535 12.7623V13.0573C501.535 13.7991 502.176 13.7485 502.176 13.7485H510.201C510.201 13.7485 510.867 13.7991 510.867 13.0573V9.53375C508.355 11.1017 504.662 12.1216 501.535 12.7623Z" fill="#EDDB00"/>
    <path d="M698.56 80.334C701.814 80.334 704.452 77.6959 704.452 74.4417C704.452 71.1875 701.814 68.5494 698.56 68.5494C695.305 68.5494 692.667 71.1875 692.667 74.4417C692.667 77.6959 695.305 80.334 698.56 80.334Z" fill="#0C0A05"/>
    <path d="M715.697 48.8074C710.757 42.8477 703.609 41.3893 698.501 41.3893L569.494 41.7855V75.5376L718.563 75.1414C720.595 75.1414 722.238 73.4976 722.238 71.4661V70.0078C722.238 70.0078 722.837 57.4308 715.697 48.8074Z" fill="#c1c1c1"/>
    <path d="M722.297 70.0078V71.4661C722.297 73.4976 720.654 75.1414 718.622 75.1414L566.283 75.5376V64.4358L720.595 64.0649L720.746 64.3431C721.716 66.0796 722.297 68.01 722.297 70.0078Z" fill="#A8AD00"/>
    <path d="M535.987 80.6628C539.241 80.6628 541.879 78.0247 541.879 74.7705C541.879 71.5163 539.241 68.8782 535.987 68.8782C532.732 68.8782 530.094 71.5163 530.094 74.7705C530.094 78.0247 532.732 80.6628 535.987 80.6628Z" fill="#0C0A05"/>
    <path d="M512.316 70.3365V71.7948C512.316 73.8264 513.96 75.4701 515.992 75.4701H571.45V41.7181H536.046C527.372 42.4093 520.805 45.5282 518.124 49.0265C518.124 49.0265 513.143 54.9188 512.316 70.3365Z" fill="#c1c1c1"/>
    <path d="M515.671 75.4702H576.87V64.3684L512.839 64.3937C512.839 64.3937 511.693 70.9351 512.595 73.3965C512.595 73.3965 513.21 75.3606 515.671 75.4702Z" fill="#A8AD00"/>
    <path d="M548.243 50.6534H535.388V60.8785H548.243V50.6534Z" fill="#E9F7F9"/>
    <path d="M563.383 50.6534H550.528V60.8785H563.383V50.6534Z" fill="#E9F7F9"/>
    <path d="M686.795 60.886L699.65 60.886L699.65 50.6609L686.795 50.6609L686.795 60.886Z" fill="#E9F7F9"/>
    <path d="M671.654 60.886L684.509 60.886L684.509 50.6609L671.654 50.6609L671.654 60.886Z" fill="#E9F7F9"/>
    <path d="M656.513 60.886L669.368 60.886L669.368 50.6609L656.513 50.6609L656.513 60.886Z" fill="#E9F7F9"/>
    <path d="M626.23 60.886L639.086 60.886L639.086 50.6609L626.23 50.6609L626.23 60.886Z" fill="#E9F7F9"/>
    <path d="M641.437 75.459L654.326 75.459L654.326 41.7407L641.437 41.7407L641.437 75.459Z" fill="#A6ACB1" stroke="#c1c1c1" stroke-width="0.3887" stroke-miterlimit="10"/>
    <path d="M580.636 75.459L593.525 75.459L593.525 41.7407L580.636 41.7407L580.636 75.459Z" fill="#A6ACB1" stroke="#c1c1c1" stroke-width="0.3887" stroke-miterlimit="10"/>
    <path d="M611.09 60.886L623.945 60.886L623.945 50.6609L611.09 50.6609L611.09 60.886Z" fill="#E9F7F9"/>
    <path d="M595.948 60.886L608.804 60.886L608.804 50.6609L595.948 50.6609L595.948 60.886Z" fill="#E9F7F9"/>
    <path d="M565.666 60.886L578.522 60.886L578.522 50.6609L565.666 50.6609L565.666 60.886Z" fill="#E9F7F9"/>
    <path d="M702.294 60.887H717.088C717.594 60.887 717.948 60.2547 717.695 59.867L713.977 51.8842C713.514 51.1845 712.527 50.6534 711.609 50.6534L702.294 50.7715C701.931 50.7715 701.636 51.0328 701.636 51.3531V60.3138C701.636 60.6256 701.931 60.887 702.294 60.887Z" fill="#E9F7F9"/>
    <path d="M719.263 52.3731H719.431C719.743 52.3731 720.005 52.1202 720.005 51.7999V47.4755C720.005 47.1636 719.752 46.9023 719.431 46.9023H719.263C718.951 46.9023 718.69 47.1552 718.69 47.4755V51.7999C718.69 52.1202 718.951 52.3731 719.263 52.3731Z" fill="#c1c1c1"/>
    <path d="M719.752 49.389V47.5598C719.752 46.0172 718.496 44.7612 716.953 44.7612H710.917" stroke="#c1c1c1" stroke-width="0.4674" stroke-miterlimit="10"/>
    <path d="M717.231 63.8626C717.231 63.8626 721.227 68.3472 721.412 73.759C721.412 73.759 722.188 72.9919 722.34 71.8792C722.449 71.0615 723.241 69.6622 721.766 63.8373L717.231 63.8626Z" fill="#c1c1c1"/>
    <path d="M719.507 64.9838C719.759 64.9838 719.962 64.78 719.962 64.5286C719.962 64.2772 719.759 64.0734 719.507 64.0734C719.256 64.0734 719.052 64.2772 719.052 64.5286C719.052 64.78 719.256 64.9838 719.507 64.9838Z" fill="#FAE96B"/>
    <path d="M343.765 38.4095C343.765 38.4095 346.997 37.7638 346.96 36.1297L345.056 35.9175L341.951 37.255L341.642 38.6185L343.765 38.4095Z" fill="#c1c1c1"/>
    <path d="M344.983 37.7839L343.314 37.0168C343.12 36.9241 343.028 36.6965 343.12 36.4942L345.068 32.2625C345.16 32.0686 345.388 31.9759 345.59 32.0686L347.259 32.8357C347.453 32.9284 347.546 33.156 347.453 33.3583L345.506 37.59C345.413 37.7839 345.177 37.8766 344.983 37.7839Z" fill="#c1c1c1"/>
    <path d="M334.239 40.5307C333.406 40.0176 330.79 37.4803 330.79 37.4803L333.076 34.192C333.432 34.5702 335.796 37.6993 335.796 37.6993C336.245 37.6636 343.002 36.5262 343.002 36.5262C342.993 36.753 343.478 38.7044 343.478 38.7044C342.566 38.949 334.239 40.5307 334.239 40.5307Z" fill="#D7282F"/>
    <path d="M324.48 76.2793L325.104 77.3246L328.181 78.5469L328.265 79.2381H322.01L322.406 76.2625L324.48 76.2793Z" fill="#c1c1c1"/>
    <path d="M330.17 31.3749L328.138 31.2653L328.619 28.0958L330.709 28.2896L330.17 31.3749Z" fill="#c1c1c1"/>
    <path d="M328.02 31.2822C328.02 31.2822 326.528 31.4423 326.326 33.9965C326.284 34.5023 326.579 39.0205 326.579 39.0205L325.947 46.1857L330.946 46.388L332.792 39.3324L333.238 38.9109C333.837 38.3462 333.972 37.4526 333.584 36.7277L330.676 31.3749L328.02 31.2822Z" fill="#c1c1c1"/>
    <path d="M332.956 27.0327C333.138 25.0672 331.975 23.3525 330.357 23.2027C328.739 23.0529 327.28 24.5247 327.098 26.4902C326.916 28.4556 328.08 30.1704 329.698 30.3202C331.315 30.47 332.774 28.9981 332.956 27.0327Z" fill="#c1c1c1"/>
    <path d="M326.838 24.4005C327.377 23.5241 327.239 22.4597 326.529 22.0231C325.819 21.5865 324.807 21.9431 324.268 22.8195C323.729 23.6959 323.867 24.7602 324.577 25.1968C325.287 25.6334 326.299 25.2769 326.838 24.4005Z" fill="#c1c1c1"/>
    <path d="M324.573 76.3804L321.606 76.4057C321.606 76.4057 325.129 63.9384 325.938 62.5138C326.689 61.1988 327.506 60.1451 327.506 60.1451L325.584 50.8388L331.957 58.6446L324.573 76.3804Z" fill="#c1c1c1"/>
    <path d="M326.714 45.191L326.259 45.604C325.112 47.1551 324.8 49.1698 325.441 50.9906L332.041 60.9206C332.041 60.9206 331.426 62.1935 331.257 64.0395C331.097 65.7845 331.721 76.9621 331.721 76.9621L333.71 76.979L335.658 61.0976L330.954 44.7864L326.714 45.191Z" fill="#c1c1c1"/>
    <path d="M333.567 76.8947L334.191 77.9484L338.237 79.1791L338.321 79.7017L331.325 79.6596L332.033 76.8862L333.567 76.8947Z" fill="#c1c1c1"/>
    <path d="M328.653 29.9672C328.653 29.9672 324.286 30.2454 325.525 23.8726C325.525 23.8726 328.644 21.0655 332.092 23.645C332.092 23.645 330.229 25.7355 329.462 26.3762C329.462 26.3762 327.683 26.334 328.847 27.8682L328.653 29.9672Z" fill="#c1c1c1"/>
    <path d="M333.188 33.7352C332.674 33.6172 332.564 32.8501 331.342 32.7826L331.738 30.9787C331.738 30.9787 329.243 31.9565 327.338 30.3549L326.503 32.5888C326.503 32.5888 324.649 33.1788 324.472 33.4149C324.295 33.6509 320.527 42.8138 320.527 42.8138L321.403 51.7745C321.403 51.7745 322.137 50.1982 323.199 50.2909L323.325 43.0077L325.315 40.2175L325.593 43.6062C325.593 43.6062 322.002 59.3611 321.926 60.8194C321.926 60.8194 337.107 61.654 338.018 61.654C338.018 61.654 334.199 38.2787 334.157 37.0986L333.188 33.7352Z" fill="#D7282F"/>
    <path d="M325.5 47.3321C325.5 47.3321 324.244 46.5482 324.008 46.6999C323.772 46.8601 320.704 52.2803 320.392 53.3087C320.392 53.3087 321.648 55.5088 323.62 56.1411L325.433 55.9809C325.416 55.9809 325.888 49.3805 325.5 47.3321Z" fill="#c1c1c1"/>
    <path d="M331.662 32.7237L324.547 46.8601L325.492 47.3322L332.412 32.7827L331.662 32.7237Z" fill="#c1c1c1"/>
    <path d="M330.575 28.3402L331.788 28.0115C331.788 28.0115 331.949 28.2222 331.772 28.4161C331.611 28.61 330.575 28.3402 330.575 28.3402Z" fill="white"/>
    <path d="M330.591 28.3486C330.591 28.3486 331.426 28.7363 331.662 28.7785C331.662 28.7785 331.974 28.6773 331.78 28.4244L330.591 28.3486Z" fill="white"/>
    <path d="M391.572 79.2381C393.9 79.2381 395.787 77.3511 395.787 75.0233C395.787 72.6956 393.9 70.8085 391.572 70.8085C389.244 70.8085 387.357 72.6956 387.357 75.0233C387.357 77.3511 389.244 79.2381 391.572 79.2381Z" fill="#23201B"/>
    <path d="M426.976 79.2381C429.304 79.2381 431.191 77.3511 431.191 75.0233C431.191 72.6956 429.304 70.8085 426.976 70.8085C424.648 70.8085 422.761 72.6956 422.761 75.0233C422.761 77.3511 424.648 79.2381 426.976 79.2381Z" fill="#23201B"/>
    <path d="M415.644 55.6353L414.644 58.6353H418.644L417.644 55.6353H415.644Z" fill="white" stroke="black"/>
    <path fill-rule="evenodd" clip-rule="evenodd" d="M397.372 76.1127C397.236 76.8416 397.733 77.6353 398.475 77.6353H420.074C420.815 77.6353 421.312 76.8416 421.176 76.1127C421.11 75.7596 421.076 75.3955 421.076 75.0233C421.076 71.7644 423.717 69.1226 426.976 69.1226C430.235 69.1226 432.877 71.7644 432.877 75.0233C432.877 75.3955 432.843 75.7596 432.777 76.1127C432.641 76.8416 433.137 77.6353 433.879 77.6353H448.666C449.219 77.6353 449.666 77.1875 449.666 76.6353V69.5495C449.666 69.2843 449.565 69.0266 449.355 68.8647C447.44 67.3892 441.507 65.4071 433.283 64.6459C433.206 64.6388 433.129 64.6235 433.057 64.5966C432.493 64.387 431.748 63.9562 430.771 63.3919C426.388 60.859 417.348 55.6353 399.166 55.6353C391.276 55.6353 384.431 57.0083 383.751 58.6167C383.509 59.1892 383.741 60.0136 383.276 60.4265L380.002 63.3369C379.789 63.5267 379.666 63.7987 379.666 64.0843V69.1353C379.666 69.6875 379.219 70.1353 378.666 70.1353H378.602C378.076 70.1353 377.636 70.5428 377.646 71.0692C377.693 73.7029 378.619 77.6353 382.166 77.6353H384.669C385.411 77.6353 385.908 76.8416 385.772 76.1127C385.706 75.7596 385.671 75.3955 385.671 75.0233C385.671 71.7644 388.313 69.1226 391.572 69.1226C394.831 69.1226 397.473 71.7644 397.473 75.0233C397.473 75.3955 397.438 75.7597 397.372 76.1127ZM397.166 58.7227C397.166 58.1506 396.686 57.6936 396.115 57.7385C386.726 58.4785 386.869 62.3346 388.383 64.723C388.551 64.9889 388.852 65.1341 389.167 65.1341H396.166C396.719 65.1341 397.166 64.6864 397.166 64.1341V58.7227ZM399.166 64.1341C399.166 64.6864 399.614 65.1341 400.166 65.1341H413.166C413.719 65.1341 414.166 64.6864 414.166 64.1341V59.7455C414.166 59.2625 413.822 58.8479 413.346 58.7669C409.786 58.1618 405.719 57.755 401.166 57.6352C400.823 57.6262 400.487 57.62 400.159 57.6166C399.61 57.611 399.166 58.0582 399.166 58.6077V64.1341ZM427.78 63.6356C428.525 64.1237 428.143 65.1341 427.252 65.1341H417.166C416.614 65.1341 416.166 64.6864 416.166 64.1341V60.5483C416.166 59.911 416.755 59.4359 417.375 59.5835C421.974 60.6788 425.468 62.1217 427.78 63.6356Z" fill="#056BC8"/>
    <path d="M774.822 74.0285L775.446 75.0822L778.523 76.2961L778.607 76.9873H772.361L772.748 74.0117L774.822 74.0285Z" fill="#c1c1c1"/>
    <path d="M780.512 29.1326L778.481 29.0146L778.961 25.845L781.052 26.0389L780.512 29.1326Z" fill="#c1c1c1"/>
    <path d="M778.363 29.0398C778.363 29.0398 776.871 29.2 776.668 31.7541C776.626 32.2599 776.921 36.7782 776.921 36.7782L776.289 43.9433L781.288 44.1456L783.134 37.0901L783.58 36.6686C784.179 36.1038 784.314 35.2103 783.926 34.4853L781.018 29.1325L778.363 29.0398Z" fill="#c1c1c1"/>
    <path d="M783.294 24.798C783.476 22.8325 782.312 21.1178 780.695 20.968C779.077 20.8182 777.618 22.2901 777.436 24.2555C777.254 26.221 778.418 27.9358 780.036 28.0856C781.653 28.2354 783.112 26.7635 783.294 24.798Z" fill="#c1c1c1"/>
    <path d="M777.206 22.1533C777.745 21.2769 777.606 20.2125 776.897 19.776C776.187 19.3394 775.174 19.6959 774.635 20.5723C774.096 21.4487 774.235 22.5131 774.945 22.9497C775.654 23.3863 776.667 23.0297 777.206 22.1533Z" fill="#c1c1c1"/>
    <path d="M774.915 74.1381L771.948 74.1634C771.948 74.1634 775.471 61.696 776.281 60.2714C777.031 58.9564 777.848 57.9027 777.848 57.9027L775.926 48.5964L782.299 56.4022L774.915 74.1381Z" fill="#c1c1c1"/>
    <path d="M777.064 42.9486L776.609 43.3617C775.463 44.9127 775.151 46.9274 775.792 48.7482L782.392 58.6782C782.392 58.6782 781.777 59.9511 781.608 61.7972C781.448 63.5421 782.072 74.7197 782.072 74.7197L784.061 74.7366L786.008 58.8553L781.305 42.544L777.064 42.9486Z" fill="#c1c1c1"/>
    <path d="M783.909 74.6439L784.533 75.6976L788.588 76.9367L788.672 77.4509L781.675 77.4088L782.384 74.6354L783.909 74.6439Z" fill="#c1c1c1"/>
    <path d="M779.003 27.7164C779.003 27.7164 774.637 27.9946 775.876 21.6218C775.876 21.6218 778.995 18.8148 782.443 21.3942C782.443 21.3942 780.58 23.4847 779.813 24.1254C779.813 24.1254 778.034 24.0832 779.197 25.6174L779.003 27.7164Z" fill="#c1c1c1"/>
    <path d="M782.088 28.7279L781.692 30.5318C781.692 30.5318 783.53 32.8753 784.373 34.9827C785.216 37.0901 786.48 61.5359 786.48 61.5359C785.578 61.5359 769.621 59.4285 769.621 59.4285C769.697 57.9786 775.1 47.2056 775.1 47.2056L775.657 37.9667L775.943 32.8753C776.12 32.6393 776.854 30.3379 776.854 30.3379L777.688 28.1041C779.593 29.7057 782.088 28.7279 782.088 28.7279Z" fill="#D7282F"/>
    <path d="M789.491 46.3958C789.491 46.3958 792.495 47.7539 793.416 46.4036L791.992 45.1225L788.689 44.401L787.644 45.3294L789.491 46.3958Z" fill="#c1c1c1"/>
    <path d="M780.512 42.5712C780.134 41.6689 779.486 38.083 779.486 38.083L783.26 36.7417C783.329 37.2565 783.427 41.1769 783.427 41.1769C783.813 41.4092 789.968 44.4208 789.968 44.4208C789.829 44.5999 789.086 46.4684 789.086 46.4684C788.203 46.1363 780.512 42.5712 780.512 42.5712Z" fill="#D7282F"/>
    <path d="M780.925 26.098L782.139 25.7693C782.139 25.7693 782.299 25.98 782.122 26.1739C781.954 26.3678 780.925 26.098 780.925 26.098Z" fill="white"/>
    <path d="M780.934 26.098C780.934 26.098 781.768 26.4857 782.004 26.5279C782.004 26.5279 782.316 26.4267 782.122 26.1738L780.934 26.098Z" fill="white"/>
    <rect x="768.778" y="76.7092" width="27.8176" height="1.68592" fill="#37424A"/>
    <rect x="790.249" y="46.1894" width="1.68592" height="31.1114" transform="rotate(-12.2756 790.249 46.1894)" fill="#37424A"/>
    <path d="M767.935 80.081C769.332 80.081 770.464 78.9488 770.464 77.5521C770.464 76.1555 769.332 75.0233 767.935 75.0233C766.539 75.0233 765.406 76.1555 765.406 77.5521C765.406 78.9488 766.539 80.081 767.935 80.081Z" fill="#c1c1c1"/>
    <path d="M797.439 80.081C798.835 80.081 799.968 78.9488 799.968 77.5521C799.968 76.1555 798.835 75.0233 797.439 75.0233C796.042 75.0233 794.91 76.1555 794.91 77.5521C794.91 78.9488 796.042 80.081 797.439 80.081Z" fill="#c1c1c1"/>
  </g>
  <defs>
    <clipPath id="clip0">
      <rect width="832" height="85.1388" fill="white"/>
    </clipPath>
  </defs>
</svg>
