<svg width="551" height="205" viewBox="0 0 551 205" fill="none" xmlns="http://www.w3.org/2000/svg">
<g clip-path="url(#clip0)">
<path d="M12.0549 192.386H538.945" stroke="white" stroke-width="2" stroke-miterlimit="10"/>
<path d="M291.665 104.029C291.665 104.029 298.471 102.657 298.399 99.2142L294.373 98.7568L287.854 101.573L287.207 104.462L291.665 104.029Z" fill="white"/>
<path d="M295.068 104.173L291.545 102.536C291.346 102.442 291.192 102.273 291.116 102.066C291.04 101.859 291.048 101.63 291.138 101.429L295.236 92.4979C295.33 92.2982 295.498 92.1434 295.704 92.0669C295.91 91.9904 296.138 91.9982 296.338 92.0886L299.837 93.7015C299.938 93.7456 300.029 93.8096 300.104 93.8898C300.179 93.9699 300.238 94.0646 300.276 94.168C300.314 94.2714 300.331 94.3815 300.325 94.4916C300.32 94.6017 300.293 94.7096 300.245 94.8088L296.17 103.764C296.077 103.963 295.909 104.118 295.702 104.195C295.496 104.271 295.269 104.263 295.068 104.173V104.173Z" fill="#A0A0A0"/>
<path d="M271.629 108.504C269.116 106.489 266.716 104.335 264.44 102.053L269.233 95.1201C269.976 95.9145 274.961 102.51 274.961 102.51C275.895 102.51 290.107 100.103 290.107 100.103C290.107 100.585 291.114 104.725 291.114 104.725C289.149 105.158 271.629 108.504 271.629 108.504Z" fill="#D7282F"/>
<path d="M251.091 185.199L252.409 187.414L258.88 189.99L259.047 191.458H245.89L246.729 185.151L251.091 185.199Z" fill="black"/>
<path d="M263.074 89.1516L258.784 88.9349L259.814 82.2188L264.2 82.628L263.074 89.1516Z" fill="white"/>
<path d="M268.921 79.9796C268.798 78.7867 268.34 77.6535 267.601 76.7119C266.861 75.7703 265.871 75.059 264.745 74.6608C263.618 74.2627 262.403 74.194 261.239 74.4629C260.075 74.7318 259.012 75.3271 258.172 76.1795C257.332 77.0319 256.751 78.1064 256.495 79.278C256.24 80.4495 256.321 81.6698 256.729 82.7968C257.137 83.9239 257.855 84.9113 258.8 85.6442C259.746 86.3771 260.878 86.8252 262.067 86.9365C263.89 86.9112 265.629 86.1679 266.911 84.8666C268.194 83.5654 268.915 81.8103 268.921 79.9796V79.9796Z" fill="white"/>
<path d="M256.052 74.4188C256.381 74.0679 256.629 73.6478 256.776 73.1889C256.924 72.7301 256.968 72.2439 256.906 71.7658C256.843 71.2876 256.676 70.8295 256.415 70.4245C256.154 70.0195 255.807 69.6779 255.398 69.4245C254.99 69.171 254.53 69.0121 254.053 68.9591C253.576 68.9062 253.093 68.9605 252.639 69.1184C252.186 69.2762 251.773 69.5334 251.43 69.8714C251.088 70.2095 250.824 70.6198 250.659 71.0727C250.33 71.4236 250.082 71.8437 249.935 72.3026C249.787 72.7614 249.743 73.2476 249.805 73.7257C249.868 74.2039 250.036 74.662 250.296 75.067C250.557 75.4719 250.904 75.8136 251.313 76.067C251.721 76.3205 252.181 76.4794 252.658 76.5324C253.135 76.5853 253.618 76.5309 254.072 76.3731C254.526 76.2153 254.939 75.9581 255.281 75.6201C255.624 75.282 255.887 74.8717 256.052 74.4188V74.4188Z" fill="#AD9A9A"/>
<path d="M251.282 185.343H245.051C245.051 185.343 252.457 158.478 254.158 155.397C255.158 153.631 256.263 151.927 257.466 150.293L253.415 130.241L266.836 147.092L251.282 185.343Z" fill="#A6C2B8"/>
<path d="M270.216 185.344L271.534 187.751L280.042 190.616L280.209 191.843H265.494L266.98 185.368L270.216 185.344Z" fill="black"/>
<path d="M255.788 118.351L254.829 119.217C253.641 120.831 252.864 122.713 252.567 124.698C252.271 126.683 252.463 128.71 253.128 130.603L267.004 151.595C266.102 153.689 265.543 155.916 265.35 158.19C265.015 161.873 266.333 185.488 266.333 185.488H270.503L274.601 151.907L264.703 117.46L255.788 118.351Z" fill="#A6C2B8"/>
<path d="M259.862 86.1901C259.862 86.1901 250.683 86.7678 253.296 73.3114C255.19 71.6469 257.597 70.69 260.112 70.6023C262.628 70.5146 265.096 71.3014 267.1 72.8299C267.1 72.8299 263.194 77.2352 261.588 78.5832C261.588 78.5832 257.825 78.5832 260.294 81.7367L259.862 86.1901Z" fill="#AD9A9A"/>
<path d="M269.425 94.1332C268.322 93.8925 268.107 92.2796 265.542 92.1352L266.357 88.3077C264.829 88.8791 263.183 89.0594 261.568 88.8325C259.953 88.6056 258.42 87.9785 257.106 87.0078L255.357 91.8223C253.874 92.257 252.437 92.8376 251.067 93.5555C250.707 94.061 242.775 113.415 242.775 113.415L244.62 132.36C244.62 132.36 246.154 129.038 248.407 129.231L248.67 113.824L252.84 107.927L253.44 115.148C253.44 115.148 245.89 148.44 245.722 151.522C245.722 151.522 277.669 153.279 279.586 153.279C279.586 153.279 271.534 103.883 271.462 101.403L269.425 94.1332Z" fill="#D7282F"/>
<path d="M253.248 122.877C253.248 122.877 250.588 121.216 250.108 121.553C247.245 126.021 244.698 130.687 242.487 135.515C244.058 138.188 246.445 140.281 249.293 141.485L253.104 141.148C253.104 141.148 254.063 127.21 253.248 122.877Z" fill="#6AB1E2"/>
<path d="M266.213 92.0146L251.234 121.888L253.224 122.875L267.771 92.135L266.213 92.0146Z" fill="#6AB1E2"/>
<path d="M263.913 83.5177C264.718 83.4352 265.518 83.3066 266.309 83.1326C266.309 83.1326 266.765 82.603 266.141 82.3623L263.913 83.5177Z" fill="#323E48"/>
<path d="M539.041 204.495C541.411 204.495 543.728 203.789 545.698 202.467C547.669 201.144 549.205 199.264 550.112 197.065C551.019 194.866 551.256 192.446 550.794 190.111C550.331 187.776 549.19 185.631 547.514 183.948C545.838 182.265 543.703 181.119 541.379 180.654C539.054 180.19 536.645 180.428 534.455 181.339C532.266 182.25 530.394 183.793 529.078 185.772C527.761 187.751 527.058 190.079 527.058 192.459C527.058 195.651 528.321 198.713 530.568 200.97C532.815 203.227 535.863 204.495 539.041 204.495V204.495Z" fill="white"/>
<path d="M12.055 205C14.425 205 16.7418 204.294 18.7124 202.972C20.683 201.649 22.2189 199.769 23.1258 197.57C24.0328 195.371 24.27 192.951 23.8077 190.616C23.3453 188.281 22.2041 186.136 20.5282 184.453C18.8524 182.77 16.7172 181.623 14.3928 181.159C12.0683 180.695 9.65896 180.933 7.46936 181.844C5.27976 182.755 3.40822 184.298 2.09151 186.277C0.774808 188.256 0.0720215 190.583 0.0720215 192.964C0.0720215 196.156 1.33453 199.218 3.58177 201.475C5.82901 203.732 8.8769 205 12.055 205V205Z" fill="white"/>
<g clip-path="url(#clip1)">
<path d="M144.53 37.12L142.33 32.99C142.33 32.99 139.85 18.12 158.58 6C158.57 6 146.73 18.67 144.53 37.12Z" fill="#D1D4D7"/>
<path d="M144.66 37.1204L142.32 33.1304C142.32 33.1304 124 24.7304 105 33.5404C105 33.5404 121.53 28.8604 144.66 37.1204Z" fill="#D1D4D7"/>
<path d="M141.23 34.0899C142.451 34.0899 143.44 33.1005 143.44 31.8799C143.44 30.6594 142.451 29.6699 141.23 29.6699C140.009 29.6699 139.02 30.6594 139.02 31.8799C139.02 33.1005 140.009 34.0899 141.23 34.0899Z" fill="#D1D4D7"/>
</g>
<g clip-path="url(#clip2)">
<path d="M406.911 70L408.307 67.3458C408.307 67.3458 409.881 57.7892 397.994 50C398 50 405.515 58.1427 406.911 70Z" fill="#D1D4D7"/>
<path d="M406.828 69.9997L408.314 67.4354C408.314 67.4354 419.941 62.037 432 67.6989C432 67.6989 421.509 64.6912 406.828 69.9997Z" fill="#D1D4D7"/>
<path d="M409.005 68.0525C408.231 68.0525 407.603 67.4166 407.603 66.6322C407.603 65.8478 408.231 65.2119 409.005 65.2119C409.78 65.2119 410.408 65.8478 410.408 66.6322C410.408 67.4166 409.78 68.0525 409.005 68.0525Z" fill="#D1D4D7"/>
</g>
</g>
<defs>
<clipPath id="clip0">
<rect width="551" height="205" fill="white"/>
</clipPath>
<clipPath id="clip1">
<rect width="53.57" height="31.12" fill="white" transform="translate(105 6)"/>
</clipPath>
<clipPath id="clip2">
<rect width="34" height="20" fill="white" transform="matrix(-1 0 0 1 432 50)"/>
</clipPath>
</defs>
</svg>
