<svg width="464" height="286" viewBox="0 0 464 286" fill="none" xmlns="http://www.w3.org/2000/svg">
<rect width="464" height="286" rx="2" fill="#E5E5E5"/>
<rect x="12" y="12" width="441" height="80" rx="2" fill="#F8F8F8"/>
<rect x="12" y="104" width="441" height="79" rx="2" fill="#F8F8F8"/>
<rect x="12" y="195" width="441" height="79" rx="2" fill="#F8F8F8"/>
<path fill-rule="evenodd" clip-rule="evenodd" d="M66.896 57.7644C67.04 57.7644 67.168 57.7294 67.213 57.5934C67.258 57.4574 67.211 57.3644 67.097 57.2784L66.063 56.4994C66.004 56.4564 65.934 56.4324 65.862 56.4324H65.196C65.053 56.4324 64.926 56.5244 64.88 56.6594C64.835 56.7954 64.881 56.9454 64.996 57.0314L65.946 57.7014C66.0342 57.7673 66.1344 57.7658 66.2061 57.7647C66.2148 57.7645 66.2232 57.7644 66.231 57.7644H66.896ZM69.659 57.9914C69.698 58.0314 69.729 58.0654 69.75 58.1004C69.905 58.3064 70 58.5574 70 58.8344C70 59.3274 69.591 59.9814 69.1 60.7364C68.992 60.9014 68.809 61.0014 68.611 61.0014H56V55.0004H60.402L62.102 53.8334L60.4 52.4004H61.364L62.858 53.5794C62.939 53.6384 63 53.7294 63 53.8544C63 53.9774 62.952 54.0344 62.851 54.1104L61.557 55.0004H65.096C65.336 55.0004 65.736 55.0964 66.095 55.3324C67.192 56.0554 69.216 57.5464 69.531 57.8604C69.5477 57.8775 69.563 57.8931 69.5774 57.9078C69.5941 57.9247 69.6095 57.9403 69.624 57.9554C69.636 57.9664 69.648 57.9794 69.659 57.9914ZM69.0001 63.0007H56.0001V62.0007H69.0001V63.0007Z" fill="#00367F"/>
<path fill-rule="evenodd" clip-rule="evenodd" d="M68.5611 149.533C68.6661 149.533 68.7661 149.485 68.8331 149.402C68.9001 149.32 68.9251 149.211 68.9021 149.107L68.5931 147.707C68.5571 147.546 68.4161 147.432 68.2511 147.432H68.0851H67.1591H66.8101C66.6161 147.432 66.4591 147.589 66.4591 147.782V149.183C66.4591 149.377 66.6161 149.533 66.8101 149.533H67.1591H68.5611ZM65.4101 149.532C65.6031 149.532 65.7601 149.376 65.7601 149.182V147.782C65.7601 147.589 65.6031 147.432 65.4101 147.432H63.3101C63.1161 147.432 62.9591 147.589 62.9591 147.782V149.182C62.9591 149.376 63.1161 149.532 63.3101 149.532H65.4101ZM61.8991 149.532C62.0921 149.532 62.2501 149.376 62.2501 149.182V147.782C62.2501 147.589 62.0921 147.432 61.8991 147.432H59.7991C59.6051 147.432 59.4491 147.589 59.4491 147.782V149.182C59.4491 149.376 59.6051 149.532 59.7991 149.532H61.8991ZM58.4001 149.533C58.5931 149.533 58.7501 149.377 58.7501 149.182V147.782C58.7501 147.589 58.5931 147.432 58.4001 147.432H58.1871H57.6591C57.4951 147.432 57.3521 147.546 57.3171 147.707L57.0081 149.107C56.9851 149.211 57.0101 149.32 57.0771 149.402C57.1431 149.485 57.2441 149.533 57.3501 149.533H58.0341H58.0351H58.4001ZM68.7211 146C68.8841 146 69.0261 146.113 69.0621 146.273L69.9911 150.381C70.0161 150.503 69.9891 150.63 69.9171 150.732L69.1051 151.855C69.0391 151.945 68.9341 152 68.8211 152H62.5771H62.0861H61.4141H57.1791C57.0661 152 56.9611 151.945 56.8951 151.855L56.0831 150.732C56.0111 150.63 55.9841 150.503 56.0091 150.381L56.9381 146.273C56.9741 146.113 57.1161 146 57.2791 146H62.4061L64.1051 144.834L62.4041 143.4H63.3681L64.8621 144.579C64.9431 144.639 65.0041 144.73 65.0041 144.855C65.0041 144.977 64.9551 145.035 64.8541 145.11L63.5661 146H68.7211ZM69.0001 154.001H57.0001V153.001H69.0001V154.001Z" fill="#78469A"/>
<path fill-rule="evenodd" clip-rule="evenodd" d="M56.656 238.79C56.656 238.592 56.814 238.432 57.006 238.432H57.707C57.9 238.432 58.055 238.592 58.055 238.79V240.222C58.055 240.419 57.9 240.58 57.707 240.58H57.006C56.814 240.58 56.656 240.419 56.656 240.222V238.79ZM58.756 238.79C58.756 238.592 58.913 238.432 59.106 238.432H61.906C62.099 238.432 62.257 238.592 62.257 238.79V240.222C62.257 240.419 62.099 240.58 61.906 240.58H59.106C58.913 240.58 58.756 240.419 58.756 240.222V238.79ZM62.956 238.79C62.956 238.592 63.113 238.432 63.306 238.432H66.106C66.299 238.432 66.456 238.592 66.456 238.79V240.222C66.456 240.419 66.299 240.58 66.106 240.58H63.306C63.113 240.58 62.956 240.419 62.956 240.222V238.79ZM67.156 238.79C67.156 238.592 67.314 238.432 67.506 238.432H68.593C68.77 238.432 68.918 238.565 68.939 238.744L69.125 240.175C69.138 240.278 69.107 240.38 69.04 240.458C68.974 240.536 68.878 240.58 68.778 240.58H67.506C67.314 240.58 67.156 240.419 67.156 240.222V238.79ZM69.995 241.595L69.296 237.299C69.266 237.127 69.122 237 68.95 237H56.7C56.349 237 56 237.358 56 237.717V241.571V241.814V242.642C56 242.821 56.128 243 56.3 243H57.847C58.083 242.282 58.753 241.8 59.55 241.8C60.348 241.8 61.017 242.282 61.253 243H64.797C65.032 242.282 65.702 241.8 66.5 241.8C67.297 241.8 67.967 242.282 68.203 243H69.65C69.843 243 70 242.839 70 242.642V241.814V241.654C70 241.634 69.998 241.615 69.995 241.595ZM58.5501 243.8C58.5501 243.249 58.9981 242.8 59.5501 242.8C60.1021 242.8 60.5501 243.249 60.5501 243.8C60.5501 244.352 60.1021 244.8 59.5501 244.8C58.9981 244.8 58.5501 244.352 58.5501 243.8ZM66.4998 242.8C65.9478 242.8 65.4998 243.249 65.4998 243.8C65.4998 244.352 65.9478 244.8 66.4998 244.8C67.0518 244.8 67.4998 244.352 67.4998 243.8C67.4998 243.249 67.0518 242.8 66.4998 242.8Z" fill="#D83755"/>
<path fill-rule="evenodd" clip-rule="evenodd" d="M138.896 57.7644C139.04 57.7644 139.168 57.7294 139.213 57.5934C139.258 57.4574 139.211 57.3644 139.097 57.2784L138.063 56.4994C138.004 56.4564 137.934 56.4324 137.862 56.4324H137.196C137.053 56.4324 136.926 56.5244 136.88 56.6594C136.835 56.7954 136.881 56.9454 136.996 57.0314L137.946 57.7014C138.034 57.7673 138.134 57.7658 138.206 57.7647C138.215 57.7645 138.223 57.7644 138.231 57.7644H138.896ZM141.659 57.9914C141.698 58.0314 141.729 58.0654 141.75 58.1004C141.905 58.3064 142 58.5574 142 58.8344C142 59.3274 141.591 59.9814 141.1 60.7364C140.992 60.9014 140.809 61.0014 140.611 61.0014H128V55.0004H132.402L134.102 53.8334L132.4 52.4004H133.364L134.858 53.5794C134.939 53.6384 135 53.7294 135 53.8544C135 53.9774 134.952 54.0344 134.851 54.1104L133.557 55.0004H137.096C137.336 55.0004 137.736 55.0964 138.095 55.3324C139.192 56.0554 141.216 57.5464 141.531 57.8604C141.548 57.8775 141.563 57.8931 141.577 57.9078C141.594 57.9247 141.609 57.9403 141.624 57.9554C141.636 57.9664 141.648 57.9794 141.659 57.9914ZM141 63.0007H128V62.0007H141V63.0007Z" fill="#00367F"/>
<path fill-rule="evenodd" clip-rule="evenodd" d="M139.561 149.533C139.666 149.533 139.766 149.485 139.833 149.402C139.9 149.32 139.925 149.211 139.902 149.107L139.593 147.707C139.557 147.546 139.416 147.432 139.251 147.432H139.085H138.159H137.81C137.616 147.432 137.459 147.589 137.459 147.782V149.183C137.459 149.377 137.616 149.533 137.81 149.533H138.159H139.561ZM136.41 149.532C136.603 149.532 136.76 149.376 136.76 149.182V147.782C136.76 147.589 136.603 147.432 136.41 147.432H134.31C134.116 147.432 133.959 147.589 133.959 147.782V149.182C133.959 149.376 134.116 149.532 134.31 149.532H136.41ZM132.899 149.532C133.092 149.532 133.25 149.376 133.25 149.182V147.782C133.25 147.589 133.092 147.432 132.899 147.432H130.799C130.605 147.432 130.449 147.589 130.449 147.782V149.182C130.449 149.376 130.605 149.532 130.799 149.532H132.899ZM129.4 149.533C129.593 149.533 129.75 149.377 129.75 149.182V147.782C129.75 147.589 129.593 147.432 129.4 147.432H129.187H128.659C128.495 147.432 128.352 147.546 128.317 147.707L128.008 149.107C127.985 149.211 128.01 149.32 128.077 149.402C128.143 149.485 128.244 149.533 128.35 149.533H129.034H129.035H129.4ZM139.721 146C139.884 146 140.026 146.113 140.062 146.273L140.991 150.381C141.016 150.503 140.989 150.63 140.917 150.732L140.105 151.855C140.039 151.945 139.934 152 139.821 152H133.577H133.086H132.414H128.179C128.066 152 127.961 151.945 127.895 151.855L127.083 150.732C127.011 150.63 126.984 150.503 127.009 150.381L127.938 146.273C127.974 146.113 128.116 146 128.279 146H133.406L135.105 144.834L133.404 143.4H134.368L135.862 144.579C135.943 144.639 136.004 144.73 136.004 144.855C136.004 144.977 135.955 145.035 135.854 145.11L134.566 146H139.721ZM140 154.001H128V153.001H140V154.001Z" fill="#78469A"/>
<path fill-rule="evenodd" clip-rule="evenodd" d="M128.656 238.79C128.656 238.592 128.814 238.432 129.006 238.432H129.707C129.9 238.432 130.055 238.592 130.055 238.79V240.222C130.055 240.419 129.9 240.58 129.707 240.58H129.006C128.814 240.58 128.656 240.419 128.656 240.222V238.79ZM130.756 238.79C130.756 238.592 130.913 238.432 131.106 238.432H133.906C134.099 238.432 134.257 238.592 134.257 238.79V240.222C134.257 240.419 134.099 240.58 133.906 240.58H131.106C130.913 240.58 130.756 240.419 130.756 240.222V238.79ZM134.956 238.79C134.956 238.592 135.113 238.432 135.306 238.432H138.106C138.299 238.432 138.456 238.592 138.456 238.79V240.222C138.456 240.419 138.299 240.58 138.106 240.58H135.306C135.113 240.58 134.956 240.419 134.956 240.222V238.79ZM139.156 238.79C139.156 238.592 139.314 238.432 139.506 238.432H140.593C140.77 238.432 140.918 238.565 140.939 238.744L141.125 240.175C141.138 240.278 141.107 240.38 141.04 240.458C140.974 240.536 140.878 240.58 140.778 240.58H139.506C139.314 240.58 139.156 240.419 139.156 240.222V238.79ZM141.995 241.595L141.296 237.299C141.266 237.127 141.122 237 140.95 237H128.7C128.349 237 128 237.358 128 237.717V241.571V241.814V242.642C128 242.821 128.128 243 128.3 243H129.847C130.083 242.282 130.753 241.8 131.55 241.8C132.348 241.8 133.017 242.282 133.253 243H136.797C137.032 242.282 137.702 241.8 138.5 241.8C139.297 241.8 139.967 242.282 140.203 243H141.65C141.843 243 142 242.839 142 242.642V241.814V241.654C142 241.634 141.998 241.615 141.995 241.595ZM130.55 243.8C130.55 243.249 130.998 242.8 131.55 242.8C132.102 242.8 132.55 243.249 132.55 243.8C132.55 244.352 132.102 244.8 131.55 244.8C130.998 244.8 130.55 244.352 130.55 243.8ZM138.5 242.8C137.948 242.8 137.5 243.249 137.5 243.8C137.5 244.352 137.948 244.8 138.5 244.8C139.052 244.8 139.5 244.352 139.5 243.8C139.5 243.249 139.052 242.8 138.5 242.8Z" fill="#D83755"/>
<path fill-rule="evenodd" clip-rule="evenodd" d="M234.896 57.7644C235.04 57.7644 235.168 57.7294 235.213 57.5934C235.258 57.4574 235.211 57.3644 235.097 57.2784L234.063 56.4994C234.004 56.4564 233.934 56.4324 233.862 56.4324H233.196C233.053 56.4324 232.926 56.5244 232.88 56.6594C232.835 56.7954 232.881 56.9454 232.996 57.0314L233.946 57.7014C234.034 57.7673 234.134 57.7658 234.206 57.7647C234.215 57.7645 234.223 57.7644 234.231 57.7644H234.896ZM237.659 57.9914C237.698 58.0314 237.729 58.0654 237.75 58.1004C237.905 58.3064 238 58.5574 238 58.8344C238 59.3274 237.591 59.9814 237.1 60.7364C236.992 60.9014 236.809 61.0014 236.611 61.0014H224V55.0004H228.402L230.102 53.8334L228.4 52.4004H229.364L230.858 53.5794C230.939 53.6384 231 53.7294 231 53.8544C231 53.9774 230.952 54.0344 230.851 54.1104L229.557 55.0004H233.096C233.336 55.0004 233.736 55.0964 234.095 55.3324C235.192 56.0554 237.216 57.5464 237.531 57.8604C237.548 57.8775 237.563 57.8931 237.577 57.9078C237.594 57.9247 237.609 57.9403 237.624 57.9554C237.636 57.9664 237.648 57.9794 237.659 57.9914ZM237 63.0007H224V62.0007H237V63.0007Z" fill="#00367F"/>
<path fill-rule="evenodd" clip-rule="evenodd" d="M237.561 149.533C237.666 149.533 237.766 149.485 237.833 149.402C237.9 149.32 237.925 149.211 237.902 149.107L237.593 147.707C237.557 147.546 237.416 147.432 237.251 147.432H237.085H236.159H235.81C235.616 147.432 235.459 147.589 235.459 147.782V149.183C235.459 149.377 235.616 149.533 235.81 149.533H236.159H237.561ZM234.41 149.532C234.603 149.532 234.76 149.376 234.76 149.182V147.782C234.76 147.589 234.603 147.432 234.41 147.432H232.31C232.116 147.432 231.959 147.589 231.959 147.782V149.182C231.959 149.376 232.116 149.532 232.31 149.532H234.41ZM230.899 149.532C231.092 149.532 231.25 149.376 231.25 149.182V147.782C231.25 147.589 231.092 147.432 230.899 147.432H228.799C228.605 147.432 228.449 147.589 228.449 147.782V149.182C228.449 149.376 228.605 149.532 228.799 149.532H230.899ZM227.4 149.533C227.593 149.533 227.75 149.377 227.75 149.182V147.782C227.75 147.589 227.593 147.432 227.4 147.432H227.187H226.659C226.495 147.432 226.352 147.546 226.317 147.707L226.008 149.107C225.985 149.211 226.01 149.32 226.077 149.402C226.143 149.485 226.244 149.533 226.35 149.533H227.034H227.035H227.4ZM237.721 146C237.884 146 238.026 146.113 238.062 146.273L238.991 150.381C239.016 150.503 238.989 150.63 238.917 150.732L238.105 151.855C238.039 151.945 237.934 152 237.821 152H231.577H231.086H230.414H226.179C226.066 152 225.961 151.945 225.895 151.855L225.083 150.732C225.011 150.63 224.984 150.503 225.009 150.381L225.938 146.273C225.974 146.113 226.116 146 226.279 146H231.406L233.105 144.834L231.404 143.4H232.368L233.862 144.579C233.943 144.639 234.004 144.73 234.004 144.855C234.004 144.977 233.955 145.035 233.854 145.11L232.566 146H237.721ZM238 154.001H226V153.001H238V154.001Z" fill="#78469A"/>
<path fill-rule="evenodd" clip-rule="evenodd" d="M225.656 238.79C225.656 238.592 225.814 238.432 226.006 238.432H226.707C226.9 238.432 227.055 238.592 227.055 238.79V240.222C227.055 240.419 226.9 240.58 226.707 240.58H226.006C225.814 240.58 225.656 240.419 225.656 240.222V238.79ZM227.756 238.79C227.756 238.592 227.913 238.432 228.106 238.432H230.906C231.099 238.432 231.257 238.592 231.257 238.79V240.222C231.257 240.419 231.099 240.58 230.906 240.58H228.106C227.913 240.58 227.756 240.419 227.756 240.222V238.79ZM231.956 238.79C231.956 238.592 232.113 238.432 232.306 238.432H235.106C235.299 238.432 235.456 238.592 235.456 238.79V240.222C235.456 240.419 235.299 240.58 235.106 240.58H232.306C232.113 240.58 231.956 240.419 231.956 240.222V238.79ZM236.156 238.79C236.156 238.592 236.314 238.432 236.506 238.432H237.593C237.77 238.432 237.918 238.565 237.939 238.744L238.125 240.175C238.138 240.278 238.107 240.38 238.04 240.458C237.974 240.536 237.878 240.58 237.778 240.58H236.506C236.314 240.58 236.156 240.419 236.156 240.222V238.79ZM238.995 241.595L238.296 237.299C238.266 237.127 238.122 237 237.95 237H225.7C225.349 237 225 237.358 225 237.717V241.571V241.814V242.642C225 242.821 225.128 243 225.3 243H226.847C227.083 242.282 227.753 241.8 228.55 241.8C229.348 241.8 230.017 242.282 230.253 243H233.797C234.032 242.282 234.702 241.8 235.5 241.8C236.297 241.8 236.967 242.282 237.203 243H238.65C238.843 243 239 242.839 239 242.642V241.814V241.654C239 241.634 238.998 241.615 238.995 241.595ZM227.55 243.8C227.55 243.249 227.998 242.8 228.55 242.8C229.102 242.8 229.55 243.249 229.55 243.8C229.55 244.352 229.102 244.8 228.55 244.8C227.998 244.8 227.55 244.352 227.55 243.8ZM235.5 242.8C234.948 242.8 234.5 243.249 234.5 243.8C234.5 244.352 234.948 244.8 235.5 244.8C236.052 244.8 236.5 244.352 236.5 243.8C236.5 243.249 236.052 242.8 235.5 242.8Z" fill="#D83755"/>
<path fill-rule="evenodd" clip-rule="evenodd" d="M338.896 57.7644C339.04 57.7644 339.168 57.7294 339.213 57.5934C339.258 57.4574 339.211 57.3644 339.097 57.2784L338.063 56.4994C338.004 56.4564 337.934 56.4324 337.862 56.4324H337.196C337.053 56.4324 336.926 56.5244 336.88 56.6594C336.835 56.7954 336.881 56.9454 336.996 57.0314L337.946 57.7014C338.034 57.7673 338.134 57.7658 338.206 57.7647C338.215 57.7645 338.223 57.7644 338.231 57.7644H338.896ZM341.659 57.9914C341.698 58.0314 341.729 58.0654 341.75 58.1004C341.905 58.3064 342 58.5574 342 58.8344C342 59.3274 341.591 59.9814 341.1 60.7364C340.992 60.9014 340.809 61.0014 340.611 61.0014H328V55.0004H332.402L334.102 53.8334L332.4 52.4004H333.364L334.858 53.5794C334.939 53.6384 335 53.7294 335 53.8544C335 53.9774 334.952 54.0344 334.851 54.1104L333.557 55.0004H337.096C337.336 55.0004 337.736 55.0964 338.095 55.3324C339.192 56.0554 341.216 57.5464 341.531 57.8604C341.548 57.8775 341.563 57.8931 341.577 57.9078C341.594 57.9247 341.609 57.9403 341.624 57.9554C341.636 57.9664 341.648 57.9794 341.659 57.9914ZM341 63.0007H328V62.0007H341V63.0007Z" fill="#00367F"/>
<path fill-rule="evenodd" clip-rule="evenodd" d="M341.561 149.533C341.666 149.533 341.766 149.485 341.833 149.402C341.9 149.32 341.925 149.211 341.902 149.107L341.593 147.707C341.557 147.546 341.416 147.432 341.251 147.432H341.085H340.159H339.81C339.616 147.432 339.459 147.589 339.459 147.782V149.183C339.459 149.377 339.616 149.533 339.81 149.533H340.159H341.561ZM338.41 149.532C338.603 149.532 338.76 149.376 338.76 149.182V147.782C338.76 147.589 338.603 147.432 338.41 147.432H336.31C336.116 147.432 335.959 147.589 335.959 147.782V149.182C335.959 149.376 336.116 149.532 336.31 149.532H338.41ZM334.899 149.532C335.092 149.532 335.25 149.376 335.25 149.182V147.782C335.25 147.589 335.092 147.432 334.899 147.432H332.799C332.605 147.432 332.449 147.589 332.449 147.782V149.182C332.449 149.376 332.605 149.532 332.799 149.532H334.899ZM331.4 149.533C331.593 149.533 331.75 149.377 331.75 149.182V147.782C331.75 147.589 331.593 147.432 331.4 147.432H331.187H330.659C330.495 147.432 330.352 147.546 330.317 147.707L330.008 149.107C329.985 149.211 330.01 149.32 330.077 149.402C330.143 149.485 330.244 149.533 330.35 149.533H331.034H331.035H331.4ZM341.721 146C341.884 146 342.026 146.113 342.062 146.273L342.991 150.381C343.016 150.503 342.989 150.63 342.917 150.732L342.105 151.855C342.039 151.945 341.934 152 341.821 152H335.577H335.086H334.414H330.179C330.066 152 329.961 151.945 329.895 151.855L329.083 150.732C329.011 150.63 328.984 150.503 329.009 150.381L329.938 146.273C329.974 146.113 330.116 146 330.279 146H335.406L337.105 144.834L335.404 143.4H336.368L337.862 144.579C337.943 144.639 338.004 144.73 338.004 144.855C338.004 144.977 337.955 145.035 337.854 145.11L336.566 146H341.721ZM342 154.001H330V153.001H342V154.001Z" fill="#78469A"/>
<path fill-rule="evenodd" clip-rule="evenodd" d="M329.656 238.79C329.656 238.592 329.814 238.432 330.006 238.432H330.707C330.9 238.432 331.055 238.592 331.055 238.79V240.222C331.055 240.419 330.9 240.58 330.707 240.58H330.006C329.814 240.58 329.656 240.419 329.656 240.222V238.79ZM331.756 238.79C331.756 238.592 331.913 238.432 332.106 238.432H334.906C335.099 238.432 335.257 238.592 335.257 238.79V240.222C335.257 240.419 335.099 240.58 334.906 240.58H332.106C331.913 240.58 331.756 240.419 331.756 240.222V238.79ZM335.956 238.79C335.956 238.592 336.113 238.432 336.306 238.432H339.106C339.299 238.432 339.456 238.592 339.456 238.79V240.222C339.456 240.419 339.299 240.58 339.106 240.58H336.306C336.113 240.58 335.956 240.419 335.956 240.222V238.79ZM340.156 238.79C340.156 238.592 340.314 238.432 340.506 238.432H341.593C341.77 238.432 341.918 238.565 341.939 238.744L342.125 240.175C342.138 240.278 342.107 240.38 342.04 240.458C341.974 240.536 341.878 240.58 341.778 240.58H340.506C340.314 240.58 340.156 240.419 340.156 240.222V238.79ZM342.995 241.595L342.296 237.299C342.266 237.127 342.122 237 341.95 237H329.7C329.349 237 329 237.358 329 237.717V241.571V241.814V242.642C329 242.821 329.128 243 329.3 243H330.847C331.083 242.282 331.753 241.8 332.55 241.8C333.348 241.8 334.017 242.282 334.253 243H337.797C338.032 242.282 338.702 241.8 339.5 241.8C340.297 241.8 340.967 242.282 341.203 243H342.65C342.843 243 343 242.839 343 242.642V241.814V241.654C343 241.634 342.998 241.615 342.995 241.595ZM331.55 243.8C331.55 243.249 331.998 242.8 332.55 242.8C333.102 242.8 333.55 243.249 333.55 243.8C333.55 244.352 333.102 244.8 332.55 244.8C331.998 244.8 331.55 244.352 331.55 243.8ZM339.5 242.8C338.948 242.8 338.5 243.249 338.5 243.8C338.5 244.352 338.948 244.8 339.5 244.8C340.052 244.8 340.5 244.352 340.5 243.8C340.5 243.249 340.052 242.8 339.5 242.8Z" fill="#D83755"/>
<path fill-rule="evenodd" clip-rule="evenodd" d="M392.896 57.7644C393.04 57.7644 393.168 57.7294 393.213 57.5934C393.258 57.4574 393.211 57.3644 393.097 57.2784L392.063 56.4994C392.004 56.4564 391.934 56.4324 391.862 56.4324H391.196C391.053 56.4324 390.926 56.5244 390.88 56.6594C390.835 56.7954 390.881 56.9454 390.996 57.0314L391.946 57.7014C392.034 57.7673 392.134 57.7658 392.206 57.7647C392.215 57.7645 392.223 57.7644 392.231 57.7644H392.896ZM395.659 57.9914C395.698 58.0314 395.729 58.0654 395.75 58.1004C395.905 58.3064 396 58.5574 396 58.8344C396 59.3274 395.591 59.9814 395.1 60.7364C394.992 60.9014 394.809 61.0014 394.611 61.0014H382V55.0004H386.402L388.102 53.8334L386.4 52.4004H387.364L388.858 53.5794C388.939 53.6384 389 53.7294 389 53.8544C389 53.9774 388.952 54.0344 388.851 54.1104L387.557 55.0004H391.096C391.336 55.0004 391.736 55.0964 392.095 55.3324C393.192 56.0554 395.216 57.5464 395.531 57.8604C395.548 57.8775 395.563 57.8931 395.577 57.9078C395.594 57.9247 395.609 57.9403 395.624 57.9554C395.636 57.9664 395.648 57.9794 395.659 57.9914ZM395 63.0007H382V62.0007H395V63.0007Z" fill="#00367F"/>
<path fill-rule="evenodd" clip-rule="evenodd" d="M393.561 149.533C393.666 149.533 393.766 149.485 393.833 149.402C393.9 149.32 393.925 149.211 393.902 149.107L393.593 147.707C393.557 147.546 393.416 147.432 393.251 147.432H393.085H392.159H391.81C391.616 147.432 391.459 147.589 391.459 147.782V149.183C391.459 149.377 391.616 149.533 391.81 149.533H392.159H393.561ZM390.41 149.532C390.603 149.532 390.76 149.376 390.76 149.182V147.782C390.76 147.589 390.603 147.432 390.41 147.432H388.31C388.116 147.432 387.959 147.589 387.959 147.782V149.182C387.959 149.376 388.116 149.532 388.31 149.532H390.41ZM386.899 149.532C387.092 149.532 387.25 149.376 387.25 149.182V147.782C387.25 147.589 387.092 147.432 386.899 147.432H384.799C384.605 147.432 384.449 147.589 384.449 147.782V149.182C384.449 149.376 384.605 149.532 384.799 149.532H386.899ZM383.4 149.533C383.593 149.533 383.75 149.377 383.75 149.182V147.782C383.75 147.589 383.593 147.432 383.4 147.432H383.187H382.659C382.495 147.432 382.352 147.546 382.317 147.707L382.008 149.107C381.985 149.211 382.01 149.32 382.077 149.402C382.143 149.485 382.244 149.533 382.35 149.533H383.034H383.035H383.4ZM393.721 146C393.884 146 394.026 146.113 394.062 146.273L394.991 150.381C395.016 150.503 394.989 150.63 394.917 150.732L394.105 151.855C394.039 151.945 393.934 152 393.821 152H387.577H387.086H386.414H382.179C382.066 152 381.961 151.945 381.895 151.855L381.083 150.732C381.011 150.63 380.984 150.503 381.009 150.381L381.938 146.273C381.974 146.113 382.116 146 382.279 146H387.406L389.105 144.834L387.404 143.4H388.368L389.862 144.579C389.943 144.639 390.004 144.73 390.004 144.855C390.004 144.977 389.955 145.035 389.854 145.11L388.566 146H393.721ZM394 154.001H382V153.001H394V154.001Z" fill="#78469A"/>
<path fill-rule="evenodd" clip-rule="evenodd" d="M381.656 238.79C381.656 238.592 381.814 238.432 382.006 238.432H382.707C382.9 238.432 383.055 238.592 383.055 238.79V240.222C383.055 240.419 382.9 240.58 382.707 240.58H382.006C381.814 240.58 381.656 240.419 381.656 240.222V238.79ZM383.756 238.79C383.756 238.592 383.913 238.432 384.106 238.432H386.906C387.099 238.432 387.257 238.592 387.257 238.79V240.222C387.257 240.419 387.099 240.58 386.906 240.58H384.106C383.913 240.58 383.756 240.419 383.756 240.222V238.79ZM387.956 238.79C387.956 238.592 388.113 238.432 388.306 238.432H391.106C391.299 238.432 391.456 238.592 391.456 238.79V240.222C391.456 240.419 391.299 240.58 391.106 240.58H388.306C388.113 240.58 387.956 240.419 387.956 240.222V238.79ZM392.156 238.79C392.156 238.592 392.314 238.432 392.506 238.432H393.593C393.77 238.432 393.918 238.565 393.939 238.744L394.125 240.175C394.138 240.278 394.107 240.38 394.04 240.458C393.974 240.536 393.878 240.58 393.778 240.58H392.506C392.314 240.58 392.156 240.419 392.156 240.222V238.79ZM394.995 241.595L394.296 237.299C394.266 237.127 394.122 237 393.95 237H381.7C381.349 237 381 237.358 381 237.717V241.571V241.814V242.642C381 242.821 381.128 243 381.3 243H382.847C383.083 242.282 383.753 241.8 384.55 241.8C385.348 241.8 386.017 242.282 386.253 243H389.797C390.032 242.282 390.702 241.8 391.5 241.8C392.297 241.8 392.967 242.282 393.203 243H394.65C394.843 243 395 242.839 395 242.642V241.814V241.654C395 241.634 394.998 241.615 394.995 241.595ZM383.55 243.8C383.55 243.249 383.998 242.8 384.55 242.8C385.102 242.8 385.55 243.249 385.55 243.8C385.55 244.352 385.102 244.8 384.55 244.8C383.998 244.8 383.55 244.352 383.55 243.8ZM391.5 242.8C390.948 242.8 390.5 243.249 390.5 243.8C390.5 244.352 390.948 244.8 391.5 244.8C392.052 244.8 392.5 244.352 392.5 243.8C392.5 243.249 392.052 242.8 391.5 242.8Z" fill="#D83755"/>
<rect x="28" y="74" width="409" height="2" rx="0.5" fill="#00367F"/>
<rect x="28" y="165" width="409" height="2" rx="0.5" fill="#78469A"/>
<path d="M55.8848 42H61.7559V40.7461H57.9297V40.623L59.623 38.9824C61.1641 37.5 61.627 36.7383 61.627 35.7773V35.7598C61.627 34.3359 60.4434 33.334 58.7969 33.334C57.0332 33.334 55.8027 34.4355 55.8027 36.0117L55.8086 36.0293L57.2148 36.0352L57.2207 36.0117C57.2207 35.1387 57.8242 34.5469 58.7207 34.5469C59.5996 34.5469 60.1328 35.1094 60.1328 35.8887V35.9062C60.1328 36.5566 59.8105 36.9844 58.6621 38.1445L55.8848 40.9805V42ZM66.6602 42.2109C68.4941 42.2109 69.8008 40.957 69.8008 39.2402V39.2285C69.8008 37.623 68.6641 36.4395 67.041 36.4395C65.8809 36.4395 65.1426 37.0312 64.832 37.6992H64.7148C64.7441 35.9883 65.3008 34.5762 66.6953 34.5762C67.4395 34.5762 67.9609 34.9629 68.1836 35.5547L68.207 35.6133H69.6895L69.6777 35.5488C69.4082 34.2539 68.248 33.334 66.6953 33.334C64.5684 33.334 63.2852 35.0215 63.2852 37.8691V37.8809C63.2852 40.9277 64.8555 42.2109 66.6602 42.2109ZM64.9785 39.2578V39.2461C64.9785 38.291 65.7109 37.5996 66.666 37.5996C67.627 37.5996 68.3242 38.3027 68.3242 39.2812V39.293C68.3242 40.2363 67.5859 40.9805 66.6484 40.9805C65.7109 40.9805 64.9785 40.2246 64.9785 39.2578Z" fill="black"/>
<path d="M62.8848 124.334C61.0508 124.334 59.7441 125.588 59.7441 127.305V127.316C59.7441 128.922 60.8809 130.105 62.5039 130.105C63.6641 130.105 64.4023 129.514 64.7129 128.846H64.8301C64.8008 130.557 64.2441 131.969 62.8496 131.969C62.1055 131.969 61.584 131.582 61.3613 130.99L61.3438 130.932H59.8555L59.8672 130.996C60.1367 132.291 61.2969 133.211 62.8496 133.211C64.9766 133.211 66.2598 131.523 66.2598 128.676V128.664C66.2598 125.617 64.6895 124.334 62.8848 124.334ZM62.8789 128.945C61.918 128.945 61.2207 128.242 61.2207 127.264V127.252C61.2207 126.309 61.9648 125.564 62.8965 125.564C63.834 125.564 64.5664 126.32 64.5664 127.287V127.299C64.5664 128.254 63.834 128.945 62.8789 128.945Z" fill="black"/>
<path d="M231.885 124.334C230.051 124.334 228.744 125.588 228.744 127.305V127.316C228.744 128.922 229.881 130.105 231.504 130.105C232.664 130.105 233.402 129.514 233.713 128.846H233.83C233.801 130.557 233.244 131.969 231.85 131.969C231.105 131.969 230.584 131.582 230.361 130.99L230.344 130.932H228.855L228.867 130.996C229.137 132.291 230.297 133.211 231.85 133.211C233.977 133.211 235.26 131.523 235.26 128.676V128.664C235.26 125.617 233.689 124.334 231.885 124.334ZM231.879 128.945C230.918 128.945 230.221 128.242 230.221 127.264V127.252C230.221 126.309 230.965 125.564 231.896 125.564C232.834 125.564 233.566 126.32 233.566 127.287V127.299C233.566 128.254 232.834 128.945 231.879 128.945Z" fill="black"/>
<path d="M387.885 124.334C386.051 124.334 384.744 125.588 384.744 127.305V127.316C384.744 128.922 385.881 130.105 387.504 130.105C388.664 130.105 389.402 129.514 389.713 128.846H389.83C389.801 130.557 389.244 131.969 387.85 131.969C387.105 131.969 386.584 131.582 386.361 130.99L386.344 130.932H384.855L384.867 130.996C385.137 132.291 386.297 133.211 387.85 133.211C389.977 133.211 391.26 131.523 391.26 128.676V128.664C391.26 125.617 389.689 124.334 387.885 124.334ZM387.879 128.945C386.918 128.945 386.221 128.242 386.221 127.264V127.252C386.221 126.309 386.965 125.564 387.896 125.564C388.834 125.564 389.566 126.32 389.566 127.287V127.299C389.566 128.254 388.834 128.945 387.879 128.945Z" fill="black"/>
<path d="M127.885 224H133.756V222.746H129.93V222.623L131.623 220.982C133.164 219.5 133.627 218.738 133.627 217.777V217.76C133.627 216.336 132.443 215.334 130.797 215.334C129.033 215.334 127.803 216.436 127.803 218.012L127.809 218.029L129.215 218.035L129.221 218.012C129.221 217.139 129.824 216.547 130.721 216.547C131.6 216.547 132.133 217.109 132.133 217.889V217.906C132.133 218.557 131.811 218.984 130.662 220.145L127.885 222.98V224ZM138.484 224.211C140.312 224.211 141.596 223.01 141.596 221.252V221.24C141.596 219.623 140.453 218.451 138.877 218.451C138.08 218.451 137.424 218.791 137.072 219.359H136.973L137.207 216.787H141.104V215.545H136.029L135.619 220.496H136.914C137.014 220.309 137.154 220.145 137.307 220.016C137.617 219.734 138.027 219.594 138.502 219.594C139.469 219.594 140.16 220.285 140.16 221.27V221.281C140.16 222.277 139.48 222.975 138.49 222.975C137.623 222.975 136.984 222.424 136.873 221.732L136.867 221.691H135.473L135.479 221.768C135.59 223.156 136.756 224.211 138.484 224.211Z" fill="black"/>
<path d="M55.8848 224H61.7559V222.746H57.9297V222.623L59.623 220.982C61.1641 219.5 61.627 218.738 61.627 217.777V217.76C61.627 216.336 60.4434 215.334 58.7969 215.334C57.0332 215.334 55.8027 216.436 55.8027 218.012L55.8086 218.029L57.2148 218.035L57.2207 218.012C57.2207 217.139 57.8242 216.547 58.7207 216.547C59.5996 216.547 60.1328 217.109 60.1328 217.889V217.906C60.1328 218.557 59.8105 218.984 58.6621 220.145L55.8848 222.98V224ZM63.4316 224H69.3027V222.746H65.4766V222.623L67.1699 220.982C68.7109 219.5 69.1738 218.738 69.1738 217.777V217.76C69.1738 216.336 67.9902 215.334 66.3438 215.334C64.5801 215.334 63.3496 216.436 63.3496 218.012L63.3555 218.029L64.7617 218.035L64.7676 218.012C64.7676 217.139 65.3711 216.547 66.2676 216.547C67.1465 216.547 67.6797 217.109 67.6797 217.889V217.906C67.6797 218.557 67.3574 218.984 66.209 220.145L63.4316 222.98V224Z" fill="black"/>
<path d="M231.953 224H233.465V215.545H231.959L229.75 217.098V218.521L231.854 217.033H231.953V224Z" fill="black"/>
<path d="M331.953 224H333.465V215.545H331.959L329.75 217.098V218.521L331.854 217.033H331.953V224ZM335.814 224H341.686V222.746H337.859V222.623L339.553 220.982C341.094 219.5 341.557 218.738 341.557 217.777V217.76C341.557 216.336 340.373 215.334 338.727 215.334C336.963 215.334 335.732 216.436 335.732 218.012L335.738 218.029L337.145 218.035L337.15 218.012C337.15 217.139 337.754 216.547 338.65 216.547C339.529 216.547 340.062 217.109 340.062 217.889V217.906C340.062 218.557 339.74 218.984 338.592 220.145L335.814 222.98V224Z" fill="black"/>
<path d="M383.953 224H385.465V215.545H383.959L381.75 217.098V218.521L383.854 217.033H383.953V224ZM390.914 224.211C392.924 224.211 394.143 222.506 394.143 219.775V219.764C394.143 217.033 392.924 215.334 390.914 215.334C388.904 215.334 387.697 217.033 387.697 219.764V219.775C387.697 222.506 388.904 224.211 390.914 224.211ZM390.914 222.986C389.836 222.986 389.221 221.779 389.221 219.775V219.764C389.221 217.76 389.836 216.564 390.914 216.564C391.992 216.564 392.619 217.76 392.619 219.764V219.775C392.619 221.779 391.992 222.986 390.914 222.986Z" fill="black"/>
<path d="M328.885 42H334.756V40.7461H330.93V40.623L332.623 38.9824C334.164 37.5 334.627 36.7383 334.627 35.7773V35.7598C334.627 34.3359 333.443 33.334 331.797 33.334C330.033 33.334 328.803 34.4355 328.803 36.0117L328.809 36.0293L330.215 36.0352L330.221 36.0117C330.221 35.1387 330.824 34.5469 331.721 34.5469C332.6 34.5469 333.133 35.1094 333.133 35.8887V35.9062C333.133 36.5566 332.811 36.9844 331.662 38.1445L328.885 40.9805V42ZM338.5 42H340.012V33.5449H338.506L336.297 35.0977V36.5215L338.4 35.0332H338.5V42Z" fill="black"/>
<path d="M127.885 42H133.756V40.7461H129.93V40.623L131.623 38.9824C133.164 37.5 133.627 36.7383 133.627 35.7773V35.7598C133.627 34.3359 132.443 33.334 130.797 33.334C129.033 33.334 127.803 34.4355 127.803 36.0117L127.809 36.0293L129.215 36.0352L129.221 36.0117C129.221 35.1387 129.824 34.5469 130.721 34.5469C131.6 34.5469 132.133 35.1094 132.133 35.8887V35.9062C132.133 36.5566 131.811 36.9844 130.662 38.1445L127.885 40.9805V42ZM138.66 42.2109C140.494 42.2109 141.801 40.957 141.801 39.2402V39.2285C141.801 37.623 140.664 36.4395 139.041 36.4395C137.881 36.4395 137.143 37.0312 136.832 37.6992H136.715C136.744 35.9883 137.301 34.5762 138.695 34.5762C139.439 34.5762 139.961 34.9629 140.184 35.5547L140.207 35.6133H141.689L141.678 35.5488C141.408 34.2539 140.248 33.334 138.695 33.334C136.568 33.334 135.285 35.0215 135.285 37.8691V37.8809C135.285 40.9277 136.855 42.2109 138.66 42.2109ZM136.979 39.2578V39.2461C136.979 38.291 137.711 37.5996 138.666 37.5996C139.627 37.5996 140.324 38.3027 140.324 39.2812V39.293C140.324 40.2363 139.586 40.9805 138.648 40.9805C137.711 40.9805 136.979 40.2246 136.979 39.2578Z" fill="black"/>
<path d="M133.885 124.334C132.051 124.334 130.744 125.588 130.744 127.305V127.316C130.744 128.922 131.881 130.105 133.504 130.105C134.664 130.105 135.402 129.514 135.713 128.846H135.83C135.801 130.557 135.244 131.969 133.85 131.969C133.105 131.969 132.584 131.582 132.361 130.99L132.344 130.932H130.855L130.867 130.996C131.137 132.291 132.297 133.211 133.85 133.211C135.977 133.211 137.26 131.523 137.26 128.676V128.664C137.26 125.617 135.689 124.334 133.885 124.334ZM133.879 128.945C132.918 128.945 132.221 128.242 132.221 127.264V127.252C132.221 126.309 132.965 125.564 133.896 125.564C134.834 125.564 135.566 126.32 135.566 127.287V127.299C135.566 128.254 134.834 128.945 133.879 128.945Z" fill="black"/>
<path d="M335.885 124.334C334.051 124.334 332.744 125.588 332.744 127.305V127.316C332.744 128.922 333.881 130.105 335.504 130.105C336.664 130.105 337.402 129.514 337.713 128.846H337.83C337.801 130.557 337.244 131.969 335.85 131.969C335.105 131.969 334.584 131.582 334.361 130.99L334.344 130.932H332.855L332.867 130.996C333.137 132.291 334.297 133.211 335.85 133.211C337.977 133.211 339.26 131.523 339.26 128.676V128.664C339.26 125.617 337.689 124.334 335.885 124.334ZM335.879 128.945C334.918 128.945 334.221 128.242 334.221 127.264V127.252C334.221 126.309 334.965 125.564 335.896 125.564C336.834 125.564 337.566 126.32 337.566 127.287V127.299C337.566 128.254 336.834 128.945 335.879 128.945Z" fill="black"/>
<path d="M381.885 42H387.756V40.7461H383.93V40.623L385.623 38.9824C387.164 37.5 387.627 36.7383 387.627 35.7773V35.7598C387.627 34.3359 386.443 33.334 384.797 33.334C383.033 33.334 381.803 34.4355 381.803 36.0117L381.809 36.0293L383.215 36.0352L383.221 36.0117C383.221 35.1387 383.824 34.5469 384.721 34.5469C385.6 34.5469 386.133 35.1094 386.133 35.8887V35.9062C386.133 36.5566 385.811 36.9844 384.662 38.1445L381.885 40.9805V42ZM392.66 42.2109C394.494 42.2109 395.801 40.957 395.801 39.2402V39.2285C395.801 37.623 394.664 36.4395 393.041 36.4395C391.881 36.4395 391.143 37.0312 390.832 37.6992H390.715C390.744 35.9883 391.301 34.5762 392.695 34.5762C393.439 34.5762 393.961 34.9629 394.184 35.5547L394.207 35.6133H395.689L395.678 35.5488C395.408 34.2539 394.248 33.334 392.695 33.334C390.568 33.334 389.285 35.0215 389.285 37.8691V37.8809C389.285 40.9277 390.855 42.2109 392.66 42.2109ZM390.979 39.2578V39.2461C390.979 38.291 391.711 37.5996 392.666 37.5996C393.627 37.5996 394.324 38.3027 394.324 39.2812V39.293C394.324 40.2363 393.586 40.9805 392.648 40.9805C391.711 40.9805 390.979 40.2246 390.979 39.2578Z" fill="black"/>
<path d="M223.885 42H229.756V40.7461H225.93V40.623L227.623 38.9824C229.164 37.5 229.627 36.7383 229.627 35.7773V35.7598C229.627 34.3359 228.443 33.334 226.797 33.334C225.033 33.334 223.803 34.4355 223.803 36.0117L223.809 36.0293L225.215 36.0352L225.221 36.0117C225.221 35.1387 225.824 34.5469 226.721 34.5469C227.6 34.5469 228.133 35.1094 228.133 35.8887V35.9062C228.133 36.5566 227.811 36.9844 226.662 38.1445L223.885 40.9805V42ZM234.484 42.2109C236.312 42.2109 237.596 41.0098 237.596 39.252V39.2402C237.596 37.623 236.453 36.4512 234.877 36.4512C234.08 36.4512 233.424 36.791 233.072 37.3594H232.973L233.207 34.7871H237.104V33.5449H232.029L231.619 38.4961H232.914C233.014 38.3086 233.154 38.1445 233.307 38.0156C233.617 37.7344 234.027 37.5938 234.502 37.5938C235.469 37.5938 236.16 38.2852 236.16 39.2695V39.2812C236.16 40.2773 235.48 40.9746 234.49 40.9746C233.623 40.9746 232.984 40.4238 232.873 39.7324L232.867 39.6914H231.473L231.479 39.7676C231.59 41.1562 232.756 42.2109 234.484 42.2109Z" fill="black"/>
<rect x="28" y="256" width="16" height="2" rx="0.5" fill="#D83755"/>
<rect x="90" y="256" width="16" height="2" rx="0.5" fill="#D83755"/>
<rect x="152" y="256" width="16" height="2" rx="0.5" fill="#D83755"/>
<rect x="214" y="256" width="16" height="2" rx="0.5" fill="#D83755"/>
<rect x="276" y="256" width="16" height="2" rx="0.5" fill="#D83755"/>
<rect x="359" y="256" width="16" height="2" rx="0.5" fill="#D83755"/>
<rect x="49" y="256" width="16" height="2" rx="0.5" fill="#D83755"/>
<rect x="111" y="256" width="16" height="2" rx="0.5" fill="#D83755"/>
<rect x="173" y="256" width="16" height="2" rx="0.5" fill="#D83755"/>
<rect x="235" y="256" width="16" height="2" rx="0.5" fill="#D83755"/>
<rect x="297" y="256" width="16" height="2" rx="0.5" fill="#D83755"/>
<rect x="380" y="256" width="16" height="2" rx="0.5" fill="#D83755"/>
<rect x="69" y="256" width="16" height="2" rx="0.5" fill="#D83755"/>
<rect x="131" y="256" width="16" height="2" rx="0.5" fill="#D83755"/>
<rect x="193" y="256" width="16" height="2" rx="0.5" fill="#D83755"/>
<rect x="256" y="256" width="16" height="2" rx="0.5" fill="#D83755"/>
<rect x="338" y="256" width="16" height="2" rx="0.5" fill="#D83755"/>
<rect x="318" y="256" width="16" height="2" rx="0.5" fill="#D83755"/>
<rect x="400" y="256" width="16" height="2" rx="0.5" fill="#D83755"/>
<rect x="421" y="256" width="16" height="2" rx="0.5" fill="#D83755"/>
</svg>
