<svg width="464" height="286" viewBox="0 0 464 286" fill="none" xmlns="http://www.w3.org/2000/svg">
<rect width="464" height="286" rx="2" fill="#00252C"/>
<rect x="12" y="12" width="139" height="262" rx="2" fill="#00323A"/>
<rect x="24" y="56" width="25" height="11" rx="1" fill="#3B6167"/>
<rect x="24" y="115" width="25" height="11" rx="1" fill="#3B6167"/>
<rect x="24" y="174" width="25" height="11" rx="1" fill="#3B6167"/>
<rect x="24" y="233" width="25" height="11" rx="1" fill="#3B6167"/>
<rect x="55" y="56" width="25" height="11" rx="1" fill="#3B6167"/>
<rect x="55" y="115" width="25" height="11" rx="1" fill="#3B6167"/>
<rect x="55" y="174" width="25" height="11" rx="1" fill="#3B6167"/>
<rect x="55" y="233" width="25" height="11" rx="1" fill="#3B6167"/>
<rect x="86" y="56" width="25" height="11" rx="1" fill="#3B6167"/>
<rect x="86" y="115" width="25" height="11" rx="1" fill="#3B6167"/>
<rect x="86" y="174" width="25" height="11" rx="1" fill="#3B6167"/>
<rect x="86" y="233" width="25" height="11" rx="1" fill="#3B6167"/>
<rect x="117" y="56" width="24" height="11" rx="1" fill="#3B6167"/>
<rect x="117" y="115" width="24" height="11" rx="1" fill="#3B6167"/>
<rect x="117" y="174" width="24" height="11" rx="1" fill="#3B6167"/>
<rect x="117" y="233" width="24" height="11" rx="1" fill="#3B6167"/>
<path d="M49.043 42H50.5547V38.8184H52.2305L53.8887 42H55.6172L53.7715 38.5898C54.7734 38.2266 55.3652 37.3008 55.3652 36.1816V36.1699C55.3652 34.5586 54.2754 33.5449 52.459 33.5449H49.043V42ZM50.5547 37.6582V34.7695H52.2715C53.2324 34.7695 53.8125 35.3203 53.8125 36.2051V36.2168C53.8125 37.125 53.2559 37.6582 52.3008 37.6582H50.5547ZM59.1094 42H60.6211V33.5449H59.1152L56.9062 35.0977V36.5215L59.0098 35.0332H59.1094V42ZM66.0703 42.2109C68.0801 42.2109 69.2988 40.5059 69.2988 37.7754V37.7637C69.2988 35.0332 68.0801 33.334 66.0703 33.334C64.0605 33.334 62.8535 35.0332 62.8535 37.7637V37.7754C62.8535 40.5059 64.0605 42.2109 66.0703 42.2109ZM66.0703 40.9863C64.9922 40.9863 64.377 39.7793 64.377 37.7754V37.7637C64.377 35.7598 64.9922 34.5645 66.0703 34.5645C67.1484 34.5645 67.7754 35.7598 67.7754 37.7637V37.7754C67.7754 39.7793 67.1484 40.9863 66.0703 40.9863ZM76.4121 42H77.9238V34.8164H80.5312V33.5449H73.8105V34.8164H76.4121V42ZM83.5898 42.1289C85.5059 42.1289 86.6719 40.875 86.6719 38.8008V38.7891C86.6719 36.7266 85.5 35.4727 83.5898 35.4727C81.6855 35.4727 80.5078 36.7324 80.5078 38.7891V38.8008C80.5078 40.875 81.668 42.1289 83.5898 42.1289ZM83.5898 40.9453C82.5762 40.9453 81.9961 40.1543 81.9961 38.8066V38.7949C81.9961 37.4473 82.5762 36.6504 83.5898 36.6504C84.5977 36.6504 85.1777 37.4473 85.1777 38.7949V38.8066C85.1777 40.1543 84.6035 40.9453 83.5898 40.9453ZM90.8906 44.25C92.7598 44.25 93.9434 43.3184 93.9434 41.8418V35.5957H92.4844V36.6504H92.4082C92.0449 35.9238 91.3535 35.4902 90.4688 35.4902C88.8164 35.4902 87.8086 36.7676 87.8086 38.6191V38.6309C87.8086 40.4473 88.8164 41.7012 90.4395 41.7012C91.3242 41.7012 92.0215 41.3262 92.3906 40.6406H92.4902V41.8652C92.4902 42.6855 91.9102 43.1484 90.9141 43.1484C90.0996 43.1484 89.6133 42.8613 89.5137 42.4512L89.5078 42.4336H88.0488L88.043 42.4512C88.1895 43.5293 89.2031 44.25 90.8906 44.25ZM90.8906 40.541C89.877 40.541 89.3027 39.7617 89.3027 38.6309V38.6191C89.3027 37.4883 89.877 36.7031 90.8906 36.7031C91.8984 36.7031 92.5137 37.4883 92.5137 38.6191V38.6309C92.5137 39.7617 91.9043 40.541 90.8906 40.541ZM98.4727 42.1289C100.213 42.1289 101.068 41.127 101.273 40.3008L101.291 40.248H99.9023L99.8848 40.2891C99.7441 40.582 99.293 40.9805 98.502 40.9805C97.5117 40.9805 96.8906 40.3125 96.873 39.1641H101.35V38.6836C101.35 36.75 100.225 35.4727 98.4023 35.4727C96.5801 35.4727 95.4141 36.791 95.4141 38.8066V38.8125C95.4141 40.8516 96.5684 42.1289 98.4727 42.1289ZM98.4199 36.6152C99.2344 36.6152 99.8262 37.1367 99.9258 38.1855H96.8848C96.9961 37.166 97.6055 36.6152 98.4199 36.6152ZM105.328 42.0293C105.609 42.0293 105.879 42.0059 106.09 41.9648V40.8398C105.914 40.8574 105.803 40.8633 105.598 40.8633C104.988 40.8633 104.736 40.5938 104.736 39.9551V36.7266H106.09V35.5957H104.736V34.0254H103.254V35.5957H102.258V36.7266H103.254V40.3008C103.254 41.5371 103.857 42.0293 105.328 42.0293Z" fill="white"/>
<path d="M49.043 101H54.4336V99.7285H50.5547V92.5449H49.043V101ZM55.9043 101H61.7754V99.7461H57.9492V99.623L59.6426 97.9824C61.1836 96.5 61.6465 95.7383 61.6465 94.7773V94.7598C61.6465 93.3359 60.4629 92.334 58.8164 92.334C57.0527 92.334 55.8223 93.4355 55.8223 95.0117L55.8281 95.0293L57.2344 95.0352L57.2402 95.0117C57.2402 94.1387 57.8438 93.5469 58.7402 93.5469C59.6191 93.5469 60.1523 94.1094 60.1523 94.8887V94.9062C60.1523 95.5566 59.8301 95.9844 58.6816 97.1445L55.9043 99.9805V101ZM68.9121 101H70.4238V93.8164H73.0312V92.5449H66.3105V93.8164H68.9121V101ZM76.0898 101.129C78.0059 101.129 79.1719 99.875 79.1719 97.8008V97.7891C79.1719 95.7266 78 94.4727 76.0898 94.4727C74.1855 94.4727 73.0078 95.7324 73.0078 97.7891V97.8008C73.0078 99.875 74.168 101.129 76.0898 101.129ZM76.0898 99.9453C75.0762 99.9453 74.4961 99.1543 74.4961 97.8066V97.7949C74.4961 96.4473 75.0762 95.6504 76.0898 95.6504C77.0977 95.6504 77.6777 96.4473 77.6777 97.7949V97.8066C77.6777 99.1543 77.1035 99.9453 76.0898 99.9453ZM83.3906 103.25C85.2598 103.25 86.4434 102.318 86.4434 100.842V94.5957H84.9844V95.6504H84.9082C84.5449 94.9238 83.8535 94.4902 82.9688 94.4902C81.3164 94.4902 80.3086 95.7676 80.3086 97.6191V97.6309C80.3086 99.4473 81.3164 100.701 82.9395 100.701C83.8242 100.701 84.5215 100.326 84.8906 99.6406H84.9902V100.865C84.9902 101.686 84.4102 102.148 83.4141 102.148C82.5996 102.148 82.1133 101.861 82.0137 101.451L82.0078 101.434H80.5488L80.543 101.451C80.6895 102.529 81.7031 103.25 83.3906 103.25ZM83.3906 99.541C82.377 99.541 81.8027 98.7617 81.8027 97.6309V97.6191C81.8027 96.4883 82.377 95.7031 83.3906 95.7031C84.3984 95.7031 85.0137 96.4883 85.0137 97.6191V97.6309C85.0137 98.7617 84.4043 99.541 83.3906 99.541ZM90.9727 101.129C92.7129 101.129 93.5684 100.127 93.7734 99.3008L93.791 99.248H92.4023L92.3848 99.2891C92.2441 99.582 91.793 99.9805 91.002 99.9805C90.0117 99.9805 89.3906 99.3125 89.373 98.1641H93.8496V97.6836C93.8496 95.75 92.7246 94.4727 90.9023 94.4727C89.0801 94.4727 87.9141 95.791 87.9141 97.8066V97.8125C87.9141 99.8516 89.0684 101.129 90.9727 101.129ZM90.9199 95.6152C91.7344 95.6152 92.3262 96.1367 92.4258 97.1855H89.3848C89.4961 96.166 90.1055 95.6152 90.9199 95.6152ZM97.8281 101.029C98.1094 101.029 98.3789 101.006 98.5898 100.965V99.8398C98.4141 99.8574 98.3027 99.8633 98.0977 99.8633C97.4883 99.8633 97.2363 99.5938 97.2363 98.9551V95.7266H98.5898V94.5957H97.2363V93.0254H95.7539V94.5957H94.7578V95.7266H95.7539V99.3008C95.7539 100.537 96.3574 101.029 97.8281 101.029Z" fill="white"/>
<path d="M49.043 160H54.4336V158.729H50.5547V151.545H49.043V160ZM57.2578 160H58.7695V151.545H57.2637L55.0547 153.098V154.521L57.1582 153.033H57.2578V160ZM61.1191 160H66.9902V158.746H63.1641V158.623L64.8574 156.982C66.3984 155.5 66.8613 154.738 66.8613 153.777V153.76C66.8613 152.336 65.6777 151.334 64.0312 151.334C62.2676 151.334 61.0371 152.436 61.0371 154.012L61.043 154.029L62.4492 154.035L62.4551 154.012C62.4551 153.139 63.0586 152.547 63.9551 152.547C64.834 152.547 65.3672 153.109 65.3672 153.889V153.906C65.3672 154.557 65.0449 154.984 63.8965 156.145L61.1191 158.98V160ZM74.127 160H75.6387V152.816H78.2461V151.545H71.5254V152.816H74.127V160ZM81.3047 160.129C83.2207 160.129 84.3867 158.875 84.3867 156.801V156.789C84.3867 154.727 83.2148 153.473 81.3047 153.473C79.4004 153.473 78.2227 154.732 78.2227 156.789V156.801C78.2227 158.875 79.3828 160.129 81.3047 160.129ZM81.3047 158.945C80.291 158.945 79.7109 158.154 79.7109 156.807V156.795C79.7109 155.447 80.291 154.65 81.3047 154.65C82.3125 154.65 82.8926 155.447 82.8926 156.795V156.807C82.8926 158.154 82.3184 158.945 81.3047 158.945ZM88.6055 162.25C90.4746 162.25 91.6582 161.318 91.6582 159.842V153.596H90.1992V154.65H90.123C89.7598 153.924 89.0684 153.49 88.1836 153.49C86.5312 153.49 85.5234 154.768 85.5234 156.619V156.631C85.5234 158.447 86.5312 159.701 88.1543 159.701C89.0391 159.701 89.7363 159.326 90.1055 158.641H90.2051V159.865C90.2051 160.686 89.625 161.148 88.6289 161.148C87.8145 161.148 87.3281 160.861 87.2285 160.451L87.2227 160.434H85.7637L85.7578 160.451C85.9043 161.529 86.918 162.25 88.6055 162.25ZM88.6055 158.541C87.5918 158.541 87.0176 157.762 87.0176 156.631V156.619C87.0176 155.488 87.5918 154.703 88.6055 154.703C89.6133 154.703 90.2285 155.488 90.2285 156.619V156.631C90.2285 157.762 89.6191 158.541 88.6055 158.541ZM96.1875 160.129C97.9277 160.129 98.7832 159.127 98.9883 158.301L99.0059 158.248H97.6172L97.5996 158.289C97.459 158.582 97.0078 158.98 96.2168 158.98C95.2266 158.98 94.6055 158.312 94.5879 157.164H99.0645V156.684C99.0645 154.75 97.9395 153.473 96.1172 153.473C94.2949 153.473 93.1289 154.791 93.1289 156.807V156.812C93.1289 158.852 94.2832 160.129 96.1875 160.129ZM96.1348 154.615C96.9492 154.615 97.541 155.137 97.6406 156.186H94.5996C94.7109 155.166 95.3203 154.615 96.1348 154.615ZM103.043 160.029C103.324 160.029 103.594 160.006 103.805 159.965V158.84C103.629 158.857 103.518 158.863 103.312 158.863C102.703 158.863 102.451 158.594 102.451 157.955V154.727H103.805V153.596H102.451V152.025H100.969V153.596H99.9727V154.727H100.969V158.301C100.969 159.537 101.572 160.029 103.043 160.029Z" fill="white"/>
<path d="M49.043 219H54.4336V217.729H50.5547V210.545H49.043V219ZM57.2578 219H58.7695V210.545H57.2637L55.0547 212.098V213.521L57.1582 212.033H57.2578V219ZM61.1191 219H66.9902V217.746H63.1641V217.623L64.8574 215.982C66.3984 214.5 66.8613 213.738 66.8613 212.777V212.76C66.8613 211.336 65.6777 210.334 64.0312 210.334C62.2676 210.334 61.0371 211.436 61.0371 213.012L61.043 213.029L62.4492 213.035L62.4551 213.012C62.4551 212.139 63.0586 211.547 63.9551 211.547C64.834 211.547 65.3672 212.109 65.3672 212.889V212.906C65.3672 213.557 65.0449 213.984 63.8965 215.145L61.1191 217.98V219ZM74.127 219H75.6387V211.816H78.2461V210.545H71.5254V211.816H74.127V219ZM81.3047 219.129C83.2207 219.129 84.3867 217.875 84.3867 215.801V215.789C84.3867 213.727 83.2148 212.473 81.3047 212.473C79.4004 212.473 78.2227 213.732 78.2227 215.789V215.801C78.2227 217.875 79.3828 219.129 81.3047 219.129ZM81.3047 217.945C80.291 217.945 79.7109 217.154 79.7109 215.807V215.795C79.7109 214.447 80.291 213.65 81.3047 213.65C82.3125 213.65 82.8926 214.447 82.8926 215.795V215.807C82.8926 217.154 82.3184 217.945 81.3047 217.945ZM88.6055 221.25C90.4746 221.25 91.6582 220.318 91.6582 218.842V212.596H90.1992V213.65H90.123C89.7598 212.924 89.0684 212.49 88.1836 212.49C86.5312 212.49 85.5234 213.768 85.5234 215.619V215.631C85.5234 217.447 86.5312 218.701 88.1543 218.701C89.0391 218.701 89.7363 218.326 90.1055 217.641H90.2051V218.865C90.2051 219.686 89.625 220.148 88.6289 220.148C87.8145 220.148 87.3281 219.861 87.2285 219.451L87.2227 219.434H85.7637L85.7578 219.451C85.9043 220.529 86.918 221.25 88.6055 221.25ZM88.6055 217.541C87.5918 217.541 87.0176 216.762 87.0176 215.631V215.619C87.0176 214.488 87.5918 213.703 88.6055 213.703C89.6133 213.703 90.2285 214.488 90.2285 215.619V215.631C90.2285 216.762 89.6191 217.541 88.6055 217.541ZM96.1875 219.129C97.9277 219.129 98.7832 218.127 98.9883 217.301L99.0059 217.248H97.6172L97.5996 217.289C97.459 217.582 97.0078 217.98 96.2168 217.98C95.2266 217.98 94.6055 217.312 94.5879 216.164H99.0645V215.684C99.0645 213.75 97.9395 212.473 96.1172 212.473C94.2949 212.473 93.1289 213.791 93.1289 215.807V215.812C93.1289 217.852 94.2832 219.129 96.1875 219.129ZM96.1348 213.615C96.9492 213.615 97.541 214.137 97.6406 215.186H94.5996C94.7109 214.166 95.3203 213.615 96.1348 213.615ZM103.043 219.029C103.324 219.029 103.594 219.006 103.805 218.965V217.84C103.629 217.857 103.518 217.863 103.312 217.863C102.703 217.863 102.451 217.594 102.451 216.955V213.727H103.805V212.596H102.451V211.025H100.969V212.596H99.9727V213.727H100.969V217.301C100.969 218.537 101.572 219.029 103.043 219.029Z" fill="white"/>
<path fill-rule="evenodd" clip-rule="evenodd" d="M35.8959 37.7639C36.0399 37.7639 36.1679 37.7289 36.2129 37.5929C36.2579 37.4569 36.2109 37.3639 36.0969 37.2779L35.0629 36.4989C35.0039 36.4559 34.9339 36.4319 34.8619 36.4319H34.1959C34.0529 36.4319 33.9259 36.5239 33.8799 36.6589C33.8349 36.7949 33.8809 36.9449 33.9959 37.0309L34.9459 37.7009C35.0341 37.7669 35.1343 37.7653 35.206 37.7642C35.2147 37.764 35.223 37.7639 35.2309 37.7639H35.8959ZM38.6589 37.9909C38.6979 38.0309 38.7289 38.0649 38.7499 38.0999C38.9049 38.3059 38.9999 38.5569 38.9999 38.8339C38.9999 39.3269 38.5909 39.9809 38.0999 40.7359C37.9919 40.9009 37.8089 41.0009 37.6109 41.0009H24.9999V34.9999H29.4019L31.1019 33.8329L29.3999 32.3999H30.3639L31.8579 33.5789C31.9389 33.6379 31.9999 33.7289 31.9999 33.8539C31.9999 33.9769 31.9519 34.0339 31.8509 34.1099L30.5569 34.9999H34.0959C34.3359 34.9999 34.7359 35.0959 35.0949 35.3319C36.1919 36.0549 38.2159 37.5459 38.5309 37.8599C38.5475 37.877 38.5629 37.8926 38.5773 37.9073C38.594 37.9242 38.6094 37.9399 38.6239 37.9549C38.6359 37.9659 38.6479 37.9789 38.6589 37.9909ZM38 43.0002H25V42.0002H38V43.0002Z" fill="#5EA3F1"/>
<path fill-rule="evenodd" clip-rule="evenodd" d="M35.8959 96.7639C36.0399 96.7639 36.1679 96.7289 36.2129 96.5929C36.2579 96.4569 36.2109 96.3639 36.0969 96.2779L35.0629 95.4989C35.0039 95.4559 34.9339 95.4319 34.8619 95.4319H34.1959C34.0529 95.4319 33.9259 95.5239 33.8799 95.6589C33.8349 95.7949 33.8809 95.9449 33.9959 96.0309L34.9459 96.7009C35.0341 96.7669 35.1343 96.7653 35.206 96.7642C35.2147 96.764 35.223 96.7639 35.2309 96.7639H35.8959ZM38.6589 96.9909C38.6979 97.0309 38.7289 97.0649 38.7499 97.0999C38.9049 97.3059 38.9999 97.5569 38.9999 97.8339C38.9999 98.3269 38.5909 98.9809 38.0999 99.7359C37.9919 99.9009 37.8089 100.001 37.6109 100.001H24.9999V93.9999H29.4019L31.1019 92.8329L29.3999 91.3999H30.3639L31.8579 92.5789C31.9389 92.6379 31.9999 92.7289 31.9999 92.8539C31.9999 92.9769 31.9519 93.0339 31.8509 93.1099L30.5569 93.9999H34.0959C34.3359 93.9999 34.7359 94.0959 35.0949 94.3319C36.1919 95.0549 38.2159 96.5459 38.5309 96.8599C38.5475 96.877 38.5629 96.8926 38.5773 96.9073C38.594 96.9242 38.6094 96.9399 38.6239 96.9549C38.6359 96.9659 38.6479 96.9789 38.6589 96.9909ZM38 102H25V101H38V102Z" fill="#5EA3F1"/>
<path fill-rule="evenodd" clip-rule="evenodd" d="M35.8959 155.764C36.0399 155.764 36.1679 155.729 36.2129 155.593C36.2579 155.457 36.2109 155.364 36.0969 155.278L35.0629 154.499C35.0039 154.456 34.9339 154.432 34.8619 154.432H34.1959C34.0529 154.432 33.9259 154.524 33.8799 154.659C33.8349 154.795 33.8809 154.945 33.9959 155.031L34.9459 155.701C35.0341 155.767 35.1343 155.765 35.206 155.764C35.2147 155.764 35.223 155.764 35.2309 155.764H35.8959ZM38.6589 155.991C38.6979 156.031 38.7289 156.065 38.7499 156.1C38.9049 156.306 38.9999 156.557 38.9999 156.834C38.9999 157.327 38.5909 157.981 38.0999 158.736C37.9919 158.901 37.8089 159.001 37.6109 159.001H24.9999V153H29.4019L31.1019 151.833L29.3999 150.4H30.3639L31.8579 151.579C31.9389 151.638 31.9999 151.729 31.9999 151.854C31.9999 151.977 31.9519 152.034 31.8509 152.11L30.5569 153H34.0959C34.3359 153 34.7359 153.096 35.0949 153.332C36.1919 154.055 38.2159 155.546 38.5309 155.86C38.5475 155.877 38.5629 155.893 38.5773 155.907C38.594 155.924 38.6094 155.94 38.6239 155.955C38.6359 155.966 38.6479 155.979 38.6589 155.991ZM38 161H25V160H38V161Z" fill="#5EA3F1"/>
<path fill-rule="evenodd" clip-rule="evenodd" d="M35.8959 214.764C36.0399 214.764 36.1679 214.729 36.2129 214.593C36.2579 214.457 36.2109 214.364 36.0969 214.278L35.0629 213.499C35.0039 213.456 34.9339 213.432 34.8619 213.432H34.1959C34.0529 213.432 33.9259 213.524 33.8799 213.659C33.8349 213.795 33.8809 213.945 33.9959 214.031L34.9459 214.701C35.0341 214.767 35.1343 214.765 35.206 214.764C35.2147 214.764 35.223 214.764 35.2309 214.764H35.8959ZM38.6589 214.991C38.6979 215.031 38.7289 215.065 38.7499 215.1C38.9049 215.306 38.9999 215.557 38.9999 215.834C38.9999 216.327 38.5909 216.981 38.0999 217.736C37.9919 217.901 37.8089 218.001 37.6109 218.001H24.9999V212H29.4019L31.1019 210.833L29.3999 209.4H30.3639L31.8579 210.579C31.9389 210.638 31.9999 210.729 31.9999 210.854C31.9999 210.977 31.9519 211.034 31.8509 211.11L30.5569 212H34.0959C34.3359 212 34.7359 212.096 35.0949 212.332C36.1919 213.055 38.2159 214.546 38.5309 214.86C38.5475 214.877 38.5629 214.893 38.5773 214.907C38.594 214.924 38.6094 214.94 38.6239 214.955C38.6359 214.966 38.6479 214.979 38.6589 214.991ZM38 220H25V219H38V220Z" fill="#5EA3F1"/>
<rect x="162" y="169" width="140" height="105" rx="2" fill="#00323A"/>
<rect x="174" y="213" width="25" height="11" rx="1" fill="#3B6167"/>
<rect x="205" y="213" width="25" height="11" rx="1" fill="#3B6167"/>
<rect x="236" y="213" width="25" height="11" rx="1" fill="#3B6167"/>
<rect x="267" y="213" width="24" height="11" rx="1" fill="#3B6167"/>
<path d="M201.943 199.17C203.818 199.17 205.102 198.133 205.102 196.645V196.633C205.102 195.461 204.275 194.723 203.033 194.605V194.576C204.047 194.365 204.803 193.668 204.803 192.619V192.607C204.803 191.283 203.672 190.375 201.932 190.375C200.227 190.375 199.072 191.336 198.943 192.801L198.938 192.865H200.344L200.35 192.807C200.426 192.051 201.041 191.576 201.932 191.576C202.834 191.576 203.355 192.033 203.355 192.807V192.818C203.355 193.557 202.734 194.084 201.803 194.084H200.836V195.209H201.832C202.916 195.209 203.572 195.701 203.572 196.592V196.604C203.572 197.389 202.922 197.934 201.943 197.934C200.953 197.934 200.291 197.424 200.209 196.709L200.203 196.645H198.762L198.768 196.715C198.879 198.162 200.092 199.17 201.943 199.17ZM210.094 199H213.709C215.514 199 216.615 198.086 216.615 196.604V196.592C216.615 195.496 215.83 194.676 214.693 194.57V194.465C215.543 194.33 216.199 193.545 216.199 192.66V192.648C216.199 191.354 215.232 190.545 213.627 190.545H210.094V199ZM213.258 191.723C214.172 191.723 214.705 192.162 214.705 192.912V192.924C214.705 193.691 214.137 194.107 213.064 194.107H211.605V191.723H213.258ZM213.305 195.18C214.459 195.18 215.068 195.631 215.068 196.486V196.498C215.068 197.359 214.477 197.822 213.363 197.822H211.605V195.18H213.305ZM219.855 199.105C220.699 199.105 221.379 198.742 221.73 198.121H221.83V199H223.271V194.623C223.271 193.27 222.346 192.473 220.699 192.473C219.176 192.473 218.145 193.188 218.004 194.266L217.998 194.318H219.375L219.381 194.295C219.527 193.873 219.961 193.633 220.629 193.633C221.414 193.633 221.83 193.984 221.83 194.623V195.174L220.184 195.273C218.625 195.367 217.752 196.035 217.752 197.178V197.189C217.752 198.355 218.637 199.105 219.855 199.105ZM219.193 197.119V197.107C219.193 196.58 219.574 196.281 220.389 196.229L221.83 196.135V196.65C221.83 197.412 221.18 197.986 220.301 197.986C219.656 197.986 219.193 197.664 219.193 197.119ZM225.023 199H226.482V195.268C226.482 194.307 227.021 193.697 227.889 193.697C228.773 193.697 229.178 194.201 229.178 195.197V199H230.637V194.857C230.637 193.334 229.857 192.473 228.428 192.473C227.502 192.473 226.887 192.889 226.582 193.574H226.482V192.596H225.023V199ZM235.102 199.129C236.842 199.129 237.697 198.127 237.902 197.301L237.92 197.248H236.531L236.514 197.289C236.373 197.582 235.922 197.98 235.131 197.98C234.141 197.98 233.52 197.312 233.502 196.164H237.979V195.684C237.979 193.75 236.854 192.473 235.031 192.473C233.209 192.473 232.043 193.791 232.043 195.807V195.812C232.043 197.852 233.197 199.129 235.102 199.129ZM235.049 193.615C235.863 193.615 236.455 194.137 236.555 195.186H233.514C233.625 194.166 234.234 193.615 235.049 193.615ZM239.438 199H240.896V195.268C240.896 194.307 241.436 193.697 242.303 193.697C243.188 193.697 243.592 194.201 243.592 195.197V199H245.051V194.857C245.051 193.334 244.271 192.473 242.842 192.473C241.916 192.473 241.301 192.889 240.996 193.574H240.896V192.596H239.438V199Z" fill="white"/>
<path fill-rule="evenodd" clip-rule="evenodd" d="M182 188C178.14 188 175 191.141 175 195C175 198.859 178.14 202 182 202C185.861 202 189 198.859 189 195C189 191.141 185.861 188 182 188ZM182 189C185.309 189 188 191.691 188 195C188 198.309 185.309 201 182 201C178.692 201 176 198.309 176 195C176 191.691 178.692 189 182 189ZM179.004 193.167V192H184.999V193.167H182.584V199H181.417V193.167H179.004Z" fill="#E28F27"/>
<rect x="162" y="12" width="140" height="146" rx="2" fill="#00323A"/>
<rect x="174" y="56" width="25" height="11" rx="1" fill="#3B6167"/>
<rect x="174" y="115" width="25" height="11" rx="1" fill="#3B6167"/>
<rect x="205" y="56" width="25" height="11" rx="1" fill="#3B6167"/>
<rect x="205" y="115" width="25" height="11" rx="1" fill="#3B6167"/>
<rect x="236" y="56" width="25" height="11" rx="1" fill="#3B6167"/>
<rect x="236" y="115" width="25" height="11" rx="1" fill="#3B6167"/>
<rect x="267" y="56" width="24" height="11" rx="1" fill="#3B6167"/>
<rect x="267" y="115" width="24" height="11" rx="1" fill="#3B6167"/>
<path d="M199.043 42H202.658C204.463 42 205.564 41.0859 205.564 39.6035V39.5918C205.564 38.4961 204.779 37.6758 203.643 37.5703V37.4648C204.492 37.3301 205.148 36.5449 205.148 35.6602V35.6484C205.148 34.3535 204.182 33.5449 202.576 33.5449H199.043V42ZM202.207 34.7227C203.121 34.7227 203.654 35.1621 203.654 35.9121V35.9238C203.654 36.6914 203.086 37.1074 202.014 37.1074H200.555V34.7227H202.207ZM202.254 38.1797C203.408 38.1797 204.018 38.6309 204.018 39.4863V39.498C204.018 40.3594 203.426 40.8223 202.312 40.8223H200.555V38.1797H202.254ZM209.121 42H210.633V33.5449H209.127L206.918 35.0977V36.5215L209.021 35.0332H209.121V42ZM216.34 42H219.955C221.76 42 222.861 41.0859 222.861 39.6035V39.5918C222.861 38.4961 222.076 37.6758 220.939 37.5703V37.4648C221.789 37.3301 222.445 36.5449 222.445 35.6602V35.6484C222.445 34.3535 221.479 33.5449 219.873 33.5449H216.34V42ZM219.504 34.7227C220.418 34.7227 220.951 35.1621 220.951 35.9121V35.9238C220.951 36.6914 220.383 37.1074 219.311 37.1074H217.852V34.7227H219.504ZM219.551 38.1797C220.705 38.1797 221.314 38.6309 221.314 39.4863V39.498C221.314 40.3594 220.723 40.8223 219.609 40.8223H217.852V38.1797H219.551ZM226.945 34.7285C227.719 34.7285 228.352 34.1309 228.352 33.375V33.3691C228.352 32.6133 227.719 32.0215 226.945 32.0215C226.166 32.0215 225.533 32.6133 225.533 33.3691V33.375C225.533 34.1309 226.166 34.7285 226.945 34.7285ZM226.945 34.0371C226.57 34.0371 226.266 33.7441 226.266 33.375V33.3691C226.266 33.0059 226.564 32.7188 226.945 32.7188C227.32 32.7188 227.625 33.0059 227.625 33.3691V33.375C227.625 33.7441 227.32 34.0371 226.945 34.0371ZM226.102 42.1055C226.945 42.1055 227.625 41.7422 227.977 41.1211H228.076V42H229.518V37.623C229.518 36.2695 228.592 35.4727 226.945 35.4727C225.422 35.4727 224.391 36.1875 224.25 37.2656L224.244 37.3184H225.621L225.627 37.2949C225.773 36.873 226.207 36.6328 226.875 36.6328C227.66 36.6328 228.076 36.9844 228.076 37.623V38.1738L226.43 38.2734C224.871 38.3672 223.998 39.0352 223.998 40.1777V40.1895C223.998 41.3555 224.883 42.1055 226.102 42.1055ZM225.439 40.1191V40.1074C225.439 39.5801 225.82 39.2812 226.635 39.2285L228.076 39.1348V39.6504C228.076 40.4121 227.426 40.9863 226.547 40.9863C225.902 40.9863 225.439 40.6641 225.439 40.1191ZM233.789 42.0293C234.07 42.0293 234.34 42.0059 234.551 41.9648V40.8398C234.375 40.8574 234.264 40.8633 234.059 40.8633C233.449 40.8633 233.197 40.5938 233.197 39.9551V36.7266H234.551V35.5957H233.197V34.0254H231.715V35.5957H230.719V36.7266H231.715V40.3008C231.715 41.5371 232.318 42.0293 233.789 42.0293ZM238.688 42.1289C240.428 42.1289 241.283 41.127 241.488 40.3008L241.506 40.248H240.117L240.1 40.2891C239.959 40.582 239.508 40.9805 238.717 40.9805C237.727 40.9805 237.105 40.3125 237.088 39.1641H241.564V38.6836C241.564 36.75 240.439 35.4727 238.617 35.4727C236.795 35.4727 235.629 36.791 235.629 38.8066V38.8125C235.629 40.8516 236.783 42.1289 238.688 42.1289ZM238.635 36.6152C239.449 36.6152 240.041 37.1367 240.141 38.1855H237.1C237.211 37.166 237.82 36.6152 238.635 36.6152ZM243.023 42H244.482V38.2676C244.482 37.3066 245.021 36.6973 245.889 36.6973C246.773 36.6973 247.178 37.2012 247.178 38.1973V42H248.637V37.8574C248.637 36.334 247.857 35.4727 246.428 35.4727C245.502 35.4727 244.887 35.8887 244.582 36.5742H244.482V35.5957H243.023V42Z" fill="white"/>
<path d="M199.043 101H202.658C204.463 101 205.564 100.086 205.564 98.6035V98.5918C205.564 97.4961 204.779 96.6758 203.643 96.5703V96.4648C204.492 96.3301 205.148 95.5449 205.148 94.6602V94.6484C205.148 93.3535 204.182 92.5449 202.576 92.5449H199.043V101ZM202.207 93.7227C203.121 93.7227 203.654 94.1621 203.654 94.9121V94.9238C203.654 95.6914 203.086 96.1074 202.014 96.1074H200.555V93.7227H202.207ZM202.254 97.1797C203.408 97.1797 204.018 97.6309 204.018 98.4863V98.498C204.018 99.3594 203.426 99.8223 202.312 99.8223H200.555V97.1797H202.254ZM207.053 101H212.924V99.7461H209.098V99.623L210.791 97.9824C212.332 96.5 212.795 95.7383 212.795 94.7773V94.7598C212.795 93.3359 211.611 92.334 209.965 92.334C208.201 92.334 206.971 93.4355 206.971 95.0117L206.977 95.0293L208.383 95.0352L208.389 95.0117C208.389 94.1387 208.992 93.5469 209.889 93.5469C210.768 93.5469 211.301 94.1094 211.301 94.8887V94.9062C211.301 95.5566 210.979 95.9844 209.83 97.1445L207.053 99.9805V101ZM217.957 101H221.572C223.377 101 224.479 100.086 224.479 98.6035V98.5918C224.479 97.4961 223.693 96.6758 222.557 96.5703V96.4648C223.406 96.3301 224.062 95.5449 224.062 94.6602V94.6484C224.062 93.3535 223.096 92.5449 221.49 92.5449H217.957V101ZM221.121 93.7227C222.035 93.7227 222.568 94.1621 222.568 94.9121V94.9238C222.568 95.6914 222 96.1074 220.928 96.1074H219.469V93.7227H221.121ZM221.168 97.1797C222.322 97.1797 222.932 97.6309 222.932 98.4863V98.498C222.932 99.3594 222.34 99.8223 221.227 99.8223H219.469V97.1797H221.168ZM228.562 93.7285C229.336 93.7285 229.969 93.1309 229.969 92.375V92.3691C229.969 91.6133 229.336 91.0215 228.562 91.0215C227.783 91.0215 227.15 91.6133 227.15 92.3691V92.375C227.15 93.1309 227.783 93.7285 228.562 93.7285ZM228.562 93.0371C228.188 93.0371 227.883 92.7441 227.883 92.375V92.3691C227.883 92.0059 228.182 91.7188 228.562 91.7188C228.938 91.7188 229.242 92.0059 229.242 92.3691V92.375C229.242 92.7441 228.938 93.0371 228.562 93.0371ZM227.719 101.105C228.562 101.105 229.242 100.742 229.594 100.121H229.693V101H231.135V96.623C231.135 95.2695 230.209 94.4727 228.562 94.4727C227.039 94.4727 226.008 95.1875 225.867 96.2656L225.861 96.3184H227.238L227.244 96.2949C227.391 95.873 227.824 95.6328 228.492 95.6328C229.277 95.6328 229.693 95.9844 229.693 96.623V97.1738L228.047 97.2734C226.488 97.3672 225.615 98.0352 225.615 99.1777V99.1895C225.615 100.355 226.5 101.105 227.719 101.105ZM227.057 99.1191V99.1074C227.057 98.5801 227.438 98.2812 228.252 98.2285L229.693 98.1348V98.6504C229.693 99.4121 229.043 99.9863 228.164 99.9863C227.52 99.9863 227.057 99.6641 227.057 99.1191ZM235.406 101.029C235.688 101.029 235.957 101.006 236.168 100.965V99.8398C235.992 99.8574 235.881 99.8633 235.676 99.8633C235.066 99.8633 234.814 99.5938 234.814 98.9551V95.7266H236.168V94.5957H234.814V93.0254H233.332V94.5957H232.336V95.7266H233.332V99.3008C233.332 100.537 233.936 101.029 235.406 101.029ZM240.305 101.129C242.045 101.129 242.9 100.127 243.105 99.3008L243.123 99.248H241.734L241.717 99.2891C241.576 99.582 241.125 99.9805 240.334 99.9805C239.344 99.9805 238.723 99.3125 238.705 98.1641H243.182V97.6836C243.182 95.75 242.057 94.4727 240.234 94.4727C238.412 94.4727 237.246 95.791 237.246 97.8066V97.8125C237.246 99.8516 238.4 101.129 240.305 101.129ZM240.252 95.6152C241.066 95.6152 241.658 96.1367 241.758 97.1855H238.717C238.828 96.166 239.438 95.6152 240.252 95.6152ZM244.641 101H246.1V97.2676C246.1 96.3066 246.639 95.6973 247.506 95.6973C248.391 95.6973 248.795 96.2012 248.795 97.1973V101H250.254V96.8574C250.254 95.334 249.475 94.4727 248.045 94.4727C247.119 94.4727 246.504 94.8887 246.199 95.5742H246.1V94.5957H244.641V101Z" fill="white"/>
<path fill-rule="evenodd" clip-rule="evenodd" d="M184.202 37.4593L186.135 37.4583C186.244 37.4583 186.346 37.3943 186.293 37.2293L186.1 36.4493C186.073 36.3373 185.971 36.2583 185.856 36.2583H184.202C184.091 36.2583 184 36.3483 184 36.4593V37.2583C184 37.3693 184.091 37.4593 184.202 37.4593ZM183.397 37.4583C183.509 37.4583 183.601 37.3673 183.601 37.2543V36.4613C183.601 36.3493 183.509 36.2583 183.397 36.2583H182.004C181.892 36.2583 181.8 36.3493 181.8 36.4613V37.2543C181.8 37.3673 181.892 37.4583 182.004 37.4583H183.397ZM181.197 37.4583C181.307 37.4583 181.397 37.3683 181.397 37.2583V36.4583C181.397 36.3473 181.307 36.2583 181.197 36.2583H179.747C179.651 36.2583 179.562 36.3123 179.519 36.3993L179.138 37.1793C179.035 37.3603 179.147 37.4583 179.271 37.4583H181.197ZM188.087 37.4583H188.749C188.939 37.4583 189.059 37.6613 188.968 37.8273L187.358 40.7903L187.348 40.7845C186.953 40.5689 186.403 40.2693 185.513 40.2693C184.814 40.2693 184.464 40.4525 184.113 40.6357C183.763 40.819 183.413 41.0023 182.712 41.0023C182.013 41.0023 181.663 40.8192 181.314 40.636C180.963 40.4527 180.613 40.2693 179.912 40.2693C179.213 40.2693 178.863 40.4525 178.513 40.6357C178.164 40.819 177.814 41.0023 177.113 41.0023C176.495 41.0023 176.151 40.8593 175.837 40.7003L177.333 37.6533C177.392 37.5343 177.514 37.4583 177.647 37.4583H177.75H177.986H178.315C178.336 37.4583 178.355 37.4443 178.362 37.4243L179.46 35.1993C179.52 35.0793 179.643 35.0023 179.778 35.0023H181.556H183.169C183.19 35.0023 183.215 34.9883 183.215 34.9483V34.4853C183.215 34.3153 183.31 34.1593 183.459 34.0833L184.672 33.3773C184.875 33.2773 185.016 33.3893 185.089 33.5753L185.43 34.3993C185.437 34.4203 185.455 34.4333 185.476 34.4343H186.031C186.18 34.4343 186.313 34.5313 186.361 34.6763L187.268 37.4213C187.275 37.4433 187.295 37.4583 187.318 37.4583H187.857H188.087ZM181.105 42.5775C181.483 42.7764 181.913 43.0022 182.736 43.0022C183.559 43.0022 183.989 42.7764 184.367 42.5775L184.368 42.5772C184.698 42.4042 184.959 42.2682 185.536 42.2682C185.948 42.2682 186.199 42.3372 186.429 42.4402L186.908 41.5602C186.582 41.4052 186.178 41.2682 185.536 41.2682C184.713 41.2682 184.282 41.4932 183.903 41.6922L183.902 41.6925C183.573 41.8653 183.312 42.0022 182.736 42.0022C182.16 42.0022 181.899 41.8653 181.57 41.6925L181.569 41.6922C181.19 41.4932 180.759 41.2682 179.936 41.2682C179.113 41.2682 178.683 41.4932 178.303 41.6922L178.301 41.6934C177.972 41.8658 177.712 42.0022 177.135 42.0022C176.395 42.0022 175.698 41.5672 175.644 41.5333L175.642 41.5322L175.446 41.4242L175 42.3172L175.129 42.3892C175.167 42.4142 176.084 43.0022 177.135 43.0022C177.956 43.0022 178.385 42.7776 178.764 42.579L178.768 42.5772C179.098 42.4042 179.359 42.2682 179.936 42.2682C180.513 42.2682 180.774 42.4042 181.104 42.5772L181.105 42.5775Z" fill="#8CDCFD"/>
<path fill-rule="evenodd" clip-rule="evenodd" d="M184.202 96.4593L186.135 96.4583C186.244 96.4583 186.346 96.3943 186.293 96.2293L186.1 95.4493C186.073 95.3373 185.971 95.2583 185.856 95.2583H184.202C184.091 95.2583 184 95.3483 184 95.4593V96.2583C184 96.3693 184.091 96.4593 184.202 96.4593ZM183.397 96.4583C183.509 96.4583 183.601 96.3673 183.601 96.2543V95.4613C183.601 95.3493 183.509 95.2583 183.397 95.2583H182.004C181.892 95.2583 181.8 95.3493 181.8 95.4613V96.2543C181.8 96.3673 181.892 96.4583 182.004 96.4583H183.397ZM181.197 96.4583C181.307 96.4583 181.397 96.3683 181.397 96.2583V95.4583C181.397 95.3473 181.307 95.2583 181.197 95.2583H179.747C179.651 95.2583 179.562 95.3123 179.519 95.3993L179.138 96.1793C179.035 96.3603 179.147 96.4583 179.271 96.4583H181.197ZM188.087 96.4583H188.749C188.939 96.4583 189.059 96.6613 188.968 96.8273L187.358 99.7903L187.348 99.7845C186.953 99.5689 186.403 99.2693 185.513 99.2693C184.814 99.2693 184.464 99.4525 184.113 99.6357C183.763 99.819 183.413 100.002 182.712 100.002C182.013 100.002 181.663 99.8192 181.314 99.636C180.963 99.4527 180.613 99.2693 179.912 99.2693C179.213 99.2693 178.863 99.4525 178.513 99.6357C178.164 99.819 177.814 100.002 177.113 100.002C176.495 100.002 176.151 99.8593 175.837 99.7003L177.333 96.6533C177.392 96.5343 177.514 96.4583 177.647 96.4583H177.75H177.986H178.315C178.336 96.4583 178.355 96.4443 178.362 96.4243L179.46 94.1993C179.52 94.0793 179.643 94.0023 179.778 94.0023H181.556H183.169C183.19 94.0023 183.215 93.9883 183.215 93.9483V93.4853C183.215 93.3153 183.31 93.1593 183.459 93.0833L184.672 92.3773C184.875 92.2773 185.016 92.3893 185.089 92.5753L185.43 93.3993C185.437 93.4203 185.455 93.4333 185.476 93.4343H186.031C186.18 93.4343 186.313 93.5313 186.361 93.6763L187.268 96.4213C187.275 96.4433 187.295 96.4583 187.318 96.4583H187.857H188.087ZM181.105 101.577C181.483 101.776 181.913 102.002 182.736 102.002C183.559 102.002 183.989 101.776 184.367 101.577L184.368 101.577C184.698 101.404 184.959 101.268 185.536 101.268C185.948 101.268 186.199 101.337 186.429 101.44L186.908 100.56C186.582 100.405 186.178 100.268 185.536 100.268C184.713 100.268 184.282 100.493 183.903 100.692L183.902 100.692C183.573 100.865 183.312 101.002 182.736 101.002C182.16 101.002 181.899 100.865 181.57 100.692L181.569 100.692C181.19 100.493 180.759 100.268 179.936 100.268C179.113 100.268 178.683 100.493 178.303 100.692L178.301 100.693C177.972 100.866 177.712 101.002 177.135 101.002C176.395 101.002 175.698 100.567 175.644 100.533L175.642 100.532L175.446 100.424L175 101.317L175.129 101.389C175.167 101.414 176.084 102.002 177.135 102.002C177.956 102.002 178.385 101.778 178.764 101.579L178.768 101.577C179.098 101.404 179.359 101.268 179.936 101.268C180.513 101.268 180.774 101.404 181.104 101.577L181.105 101.577Z" fill="#8CDCFD"/>
<rect x="314" y="12" width="139" height="262" rx="2" fill="#00323A"/>
<rect x="326" y="56" width="25" height="11" rx="1" fill="#3B6167"/>
<rect x="326" y="115" width="25" height="11" rx="1" fill="#3B6167"/>
<rect x="326" y="174" width="25" height="11" rx="1" fill="#3B6167"/>
<rect x="326" y="233" width="25" height="11" rx="1" fill="#3B6167"/>
<rect x="357" y="56" width="25" height="11" rx="1" fill="#3B6167"/>
<rect x="357" y="115" width="25" height="11" rx="1" fill="#3B6167"/>
<rect x="357" y="174" width="25" height="11" rx="1" fill="#3B6167"/>
<rect x="357" y="233" width="25" height="11" rx="1" fill="#3B6167"/>
<rect x="388" y="56" width="25" height="11" rx="1" fill="#3B6167"/>
<rect x="388" y="115" width="25" height="11" rx="1" fill="#3B6167"/>
<rect x="388" y="174" width="25" height="11" rx="1" fill="#3B6167"/>
<rect x="388" y="233" width="25" height="11" rx="1" fill="#3B6167"/>
<rect x="419" y="56" width="24" height="11" rx="1" fill="#3B6167"/>
<rect x="419" y="115" width="24" height="11" rx="1" fill="#3B6167"/>
<rect x="419" y="174" width="24" height="11" rx="1" fill="#3B6167"/>
<rect x="419" y="233" width="24" height="11" rx="1" fill="#3B6167"/>
<path d="M350.885 42H356.756V40.7461H352.93V40.623L354.623 38.9824C356.164 37.5 356.627 36.7383 356.627 35.7773V35.7598C356.627 34.3359 355.443 33.334 353.797 33.334C352.033 33.334 350.803 34.4355 350.803 36.0117L350.809 36.0293L352.215 36.0352L352.221 36.0117C352.221 35.1387 352.824 34.5469 353.721 34.5469C354.6 34.5469 355.133 35.1094 355.133 35.8887V35.9062C355.133 36.5566 354.811 36.9844 353.662 38.1445L350.885 40.9805V42ZM361.531 42.2109C363.541 42.2109 364.76 40.5059 364.76 37.7754V37.7637C364.76 35.0332 363.541 33.334 361.531 33.334C359.521 33.334 358.314 35.0332 358.314 37.7637V37.7754C358.314 40.5059 359.521 42.2109 361.531 42.2109ZM361.531 40.9863C360.453 40.9863 359.838 39.7793 359.838 37.7754V37.7637C359.838 35.7598 360.453 34.5645 361.531 34.5645C362.609 34.5645 363.236 35.7598 363.236 37.7637V37.7754C363.236 39.7793 362.609 40.9863 361.531 40.9863ZM369.77 42H373.385C375.189 42 376.291 41.0859 376.291 39.6035V39.5918C376.291 38.4961 375.506 37.6758 374.369 37.5703V37.4648C375.219 37.3301 375.875 36.5449 375.875 35.6602V35.6484C375.875 34.3535 374.908 33.5449 373.303 33.5449H369.77V42ZM372.934 34.7227C373.848 34.7227 374.381 35.1621 374.381 35.9121V35.9238C374.381 36.6914 373.812 37.1074 372.74 37.1074H371.281V34.7227H372.934ZM372.98 38.1797C374.135 38.1797 374.744 38.6309 374.744 39.4863V39.498C374.744 40.3594 374.152 40.8223 373.039 40.8223H371.281V38.1797H372.98ZM379.906 42.1289C380.832 42.1289 381.482 41.7129 381.781 41.0273H381.881V42H383.34V35.5957H381.881V39.3281C381.881 40.2891 381.377 40.8984 380.434 40.8984C379.555 40.8984 379.186 40.3945 379.186 39.4043V35.5957H377.727V39.7383C377.727 41.2617 378.465 42.1289 379.906 42.1289ZM387.541 42.1289C389.117 42.1289 390.26 41.3145 390.26 40.0957V40.084C390.26 39.1523 389.668 38.6191 388.414 38.3379L387.377 38.1094C386.686 37.9512 386.416 37.7227 386.416 37.3477V37.3418C386.416 36.8613 386.885 36.5449 387.535 36.5449C388.221 36.5449 388.643 36.873 388.748 37.2773L388.754 37.2949H390.125V37.2832C390.031 36.2461 389.1 35.4727 387.541 35.4727C386.029 35.4727 384.975 36.2695 384.975 37.4238V37.4297C384.975 38.373 385.555 38.9473 386.773 39.2168L387.811 39.4512C388.514 39.6094 388.795 39.8555 388.795 40.2305V40.2422C388.795 40.7227 388.291 41.0508 387.564 41.0508C386.838 41.0508 386.41 40.7402 386.258 40.2949L386.252 40.2832H384.805V40.2949C384.928 41.3789 385.912 42.1289 387.541 42.1289ZM394.033 42.1289C395.609 42.1289 396.752 41.3145 396.752 40.0957V40.084C396.752 39.1523 396.16 38.6191 394.906 38.3379L393.869 38.1094C393.178 37.9512 392.908 37.7227 392.908 37.3477V37.3418C392.908 36.8613 393.377 36.5449 394.027 36.5449C394.713 36.5449 395.135 36.873 395.24 37.2773L395.246 37.2949H396.617V37.2832C396.523 36.2461 395.592 35.4727 394.033 35.4727C392.521 35.4727 391.467 36.2695 391.467 37.4238V37.4297C391.467 38.373 392.047 38.9473 393.266 39.2168L394.303 39.4512C395.006 39.6094 395.287 39.8555 395.287 40.2305V40.2422C395.287 40.7227 394.783 41.0508 394.057 41.0508C393.33 41.0508 392.902 40.7402 392.75 40.2949L392.744 40.2832H391.297V40.2949C391.42 41.3789 392.404 42.1289 394.033 42.1289ZM400.965 42.1289C402.705 42.1289 403.561 41.127 403.766 40.3008L403.783 40.248H402.395L402.377 40.2891C402.236 40.582 401.785 40.9805 400.994 40.9805C400.004 40.9805 399.383 40.3125 399.365 39.1641H403.842V38.6836C403.842 36.75 402.717 35.4727 400.895 35.4727C399.072 35.4727 397.906 36.791 397.906 38.8066V38.8125C397.906 40.8516 399.061 42.1289 400.965 42.1289ZM400.912 36.6152C401.727 36.6152 402.318 37.1367 402.418 38.1855H399.377C399.488 37.166 400.098 36.6152 400.912 36.6152ZM405.301 42H406.76V38.2676C406.76 37.3066 407.299 36.6973 408.166 36.6973C409.051 36.6973 409.455 37.2012 409.455 38.1973V42H410.914V37.8574C410.914 36.334 410.135 35.4727 408.705 35.4727C407.779 35.4727 407.164 35.8887 406.859 36.5742H406.76V35.5957H405.301V42Z" fill="white"/>
<path d="M354.113 101.211C355.947 101.211 357.254 99.957 357.254 98.2402V98.2285C357.254 96.623 356.117 95.4395 354.494 95.4395C353.334 95.4395 352.596 96.0312 352.285 96.6992H352.168C352.197 94.9883 352.754 93.5762 354.148 93.5762C354.893 93.5762 355.414 93.9629 355.637 94.5547L355.66 94.6133H357.143L357.131 94.5488C356.861 93.2539 355.701 92.334 354.148 92.334C352.021 92.334 350.738 94.0215 350.738 96.8691V96.8809C350.738 99.9277 352.309 101.211 354.113 101.211ZM352.432 98.2578V98.2461C352.432 97.291 353.164 96.5996 354.119 96.5996C355.08 96.5996 355.777 97.3027 355.777 98.2812V98.293C355.777 99.2363 355.039 99.9805 354.102 99.9805C353.164 99.9805 352.432 99.2246 352.432 98.2578ZM361.988 101.211C363.998 101.211 365.217 99.5059 365.217 96.7754V96.7637C365.217 94.0332 363.998 92.334 361.988 92.334C359.979 92.334 358.771 94.0332 358.771 96.7637V96.7754C358.771 99.5059 359.979 101.211 361.988 101.211ZM361.988 99.9863C360.91 99.9863 360.295 98.7793 360.295 96.7754V96.7637C360.295 94.7598 360.91 93.5645 361.988 93.5645C363.066 93.5645 363.693 94.7598 363.693 96.7637V96.7754C363.693 98.7793 363.066 99.9863 361.988 99.9863ZM370.227 101H373.842C375.646 101 376.748 100.086 376.748 98.6035V98.5918C376.748 97.4961 375.963 96.6758 374.826 96.5703V96.4648C375.676 96.3301 376.332 95.5449 376.332 94.6602V94.6484C376.332 93.3535 375.365 92.5449 373.76 92.5449H370.227V101ZM373.391 93.7227C374.305 93.7227 374.838 94.1621 374.838 94.9121V94.9238C374.838 95.6914 374.27 96.1074 373.197 96.1074H371.738V93.7227H373.391ZM373.438 97.1797C374.592 97.1797 375.201 97.6309 375.201 98.4863V98.498C375.201 99.3594 374.609 99.8223 373.496 99.8223H371.738V97.1797H373.438ZM380.363 101.129C381.289 101.129 381.939 100.713 382.238 100.027H382.338V101H383.797V94.5957H382.338V98.3281C382.338 99.2891 381.834 99.8984 380.891 99.8984C380.012 99.8984 379.643 99.3945 379.643 98.4043V94.5957H378.184V98.7383C378.184 100.262 378.922 101.129 380.363 101.129ZM387.998 101.129C389.574 101.129 390.717 100.314 390.717 99.0957V99.084C390.717 98.1523 390.125 97.6191 388.871 97.3379L387.834 97.1094C387.143 96.9512 386.873 96.7227 386.873 96.3477V96.3418C386.873 95.8613 387.342 95.5449 387.992 95.5449C388.678 95.5449 389.1 95.873 389.205 96.2773L389.211 96.2949H390.582V96.2832C390.488 95.2461 389.557 94.4727 387.998 94.4727C386.486 94.4727 385.432 95.2695 385.432 96.4238V96.4297C385.432 97.373 386.012 97.9473 387.23 98.2168L388.268 98.4512C388.971 98.6094 389.252 98.8555 389.252 99.2305V99.2422C389.252 99.7227 388.748 100.051 388.021 100.051C387.295 100.051 386.867 99.7402 386.715 99.2949L386.709 99.2832H385.262V99.2949C385.385 100.379 386.369 101.129 387.998 101.129ZM394.49 101.129C396.066 101.129 397.209 100.314 397.209 99.0957V99.084C397.209 98.1523 396.617 97.6191 395.363 97.3379L394.326 97.1094C393.635 96.9512 393.365 96.7227 393.365 96.3477V96.3418C393.365 95.8613 393.834 95.5449 394.484 95.5449C395.17 95.5449 395.592 95.873 395.697 96.2773L395.703 96.2949H397.074V96.2832C396.98 95.2461 396.049 94.4727 394.49 94.4727C392.979 94.4727 391.924 95.2695 391.924 96.4238V96.4297C391.924 97.373 392.504 97.9473 393.723 98.2168L394.76 98.4512C395.463 98.6094 395.744 98.8555 395.744 99.2305V99.2422C395.744 99.7227 395.24 100.051 394.514 100.051C393.787 100.051 393.359 99.7402 393.207 99.2949L393.201 99.2832H391.754V99.2949C391.877 100.379 392.861 101.129 394.49 101.129ZM401.422 101.129C403.162 101.129 404.018 100.127 404.223 99.3008L404.24 99.248H402.852L402.834 99.2891C402.693 99.582 402.242 99.9805 401.451 99.9805C400.461 99.9805 399.84 99.3125 399.822 98.1641H404.299V97.6836C404.299 95.75 403.174 94.4727 401.352 94.4727C399.529 94.4727 398.363 95.791 398.363 97.8066V97.8125C398.363 99.8516 399.518 101.129 401.422 101.129ZM401.369 95.6152C402.184 95.6152 402.775 96.1367 402.875 97.1855H399.834C399.945 96.166 400.555 95.6152 401.369 95.6152ZM405.758 101H407.217V97.2676C407.217 96.3066 407.756 95.6973 408.623 95.6973C409.508 95.6973 409.912 96.2012 409.912 97.1973V101H411.371V96.8574C411.371 95.334 410.592 94.4727 409.162 94.4727C408.236 94.4727 407.621 94.8887 407.316 95.5742H407.217V94.5957H405.758V101Z" fill="white"/>
<path d="M352.953 160H354.465V151.545H352.959L350.75 153.098V154.521L352.854 153.033H352.953V160ZM357.184 160H358.766L362.381 152.805V151.545H356.498V152.781H360.857V152.875L357.184 160ZM369.377 160H370.889V152.816H373.496V151.545H366.775V152.816H369.377V160ZM374.176 160H375.635V156.279C375.635 155.365 376.273 154.785 377.246 154.785C377.498 154.785 377.738 154.82 377.973 154.867V153.561C377.832 153.52 377.604 153.49 377.381 153.49C376.537 153.49 375.951 153.895 375.734 154.58H375.635V153.596H374.176V160ZM379.918 152.523C380.393 152.523 380.785 152.143 380.785 151.662C380.785 151.188 380.393 150.801 379.918 150.801C379.438 150.801 379.045 151.188 379.045 151.662C379.045 152.143 379.438 152.523 379.918 152.523ZM379.186 160H380.645V153.596H379.186V160ZM382.496 160H383.955V157.75L384.465 157.229L386.521 160H388.279L385.525 156.303L388.104 153.596H386.416L384.055 156.221H383.955V151.117H382.496V160ZM389.457 160H390.916V157.75L391.426 157.229L393.482 160H395.24L392.486 156.303L395.064 153.596H393.377L391.016 156.221H390.916V151.117H389.457V160ZM398.75 160.129C400.49 160.129 401.346 159.127 401.551 158.301L401.568 158.248H400.18L400.162 158.289C400.021 158.582 399.57 158.98 398.779 158.98C397.789 158.98 397.168 158.312 397.15 157.164H401.627V156.684C401.627 154.75 400.502 153.473 398.68 153.473C396.857 153.473 395.691 154.791 395.691 156.807V156.812C395.691 158.852 396.846 160.129 398.75 160.129ZM398.697 154.615C399.512 154.615 400.104 155.137 400.203 156.186H397.162C397.273 155.166 397.883 154.615 398.697 154.615ZM403.086 160H404.545V156.268C404.545 155.307 405.084 154.697 405.951 154.697C406.836 154.697 407.24 155.201 407.24 156.197V160H408.699V155.857C408.699 154.334 407.92 153.473 406.49 153.473C405.564 153.473 404.949 153.889 404.645 154.574H404.545V153.596H403.086V160Z" fill="white"/>
<path d="M352.953 219H354.465V210.545H352.959L350.75 212.098V213.521L352.854 212.033H352.953V219ZM359.973 219.17C361.918 219.17 363.271 218.162 363.271 216.715V216.703C363.271 215.619 362.486 214.781 361.355 214.553V214.518C362.322 214.26 362.967 213.551 362.967 212.643V212.631C362.967 211.33 361.725 210.375 359.973 210.375C358.221 210.375 356.979 211.33 356.979 212.631V212.643C356.979 213.551 357.623 214.26 358.59 214.518V214.553C357.465 214.781 356.674 215.619 356.674 216.703V216.715C356.674 218.162 358.027 219.17 359.973 219.17ZM359.973 214.037C359.088 214.037 358.473 213.521 358.473 212.783V212.771C358.473 212.033 359.088 211.518 359.973 211.518C360.857 211.518 361.473 212.033 361.473 212.771V212.783C361.473 213.521 360.857 214.037 359.973 214.037ZM359.973 218.016C358.959 218.016 358.238 217.43 358.238 216.615V216.604C358.238 215.783 358.947 215.191 359.973 215.191C360.992 215.191 361.707 215.783 361.707 216.604V216.615C361.707 217.43 360.986 218.016 359.973 218.016ZM370.361 219H371.873V211.816H374.48V210.545H367.76V211.816H370.361V219ZM375.16 219H376.619V215.279C376.619 214.365 377.258 213.785 378.23 213.785C378.482 213.785 378.723 213.82 378.957 213.867V212.561C378.816 212.52 378.588 212.49 378.365 212.49C377.521 212.49 376.936 212.895 376.719 213.58H376.619V212.596H375.16V219ZM380.902 211.523C381.377 211.523 381.77 211.143 381.77 210.662C381.77 210.188 381.377 209.801 380.902 209.801C380.422 209.801 380.029 210.188 380.029 210.662C380.029 211.143 380.422 211.523 380.902 211.523ZM380.17 219H381.629V212.596H380.17V219ZM383.48 219H384.939V216.75L385.449 216.229L387.506 219H389.264L386.51 215.303L389.088 212.596H387.4L385.039 215.221H384.939V210.117H383.48V219ZM390.441 219H391.9V216.75L392.41 216.229L394.467 219H396.225L393.471 215.303L396.049 212.596H394.361L392 215.221H391.9V210.117H390.441V219ZM399.734 219.129C401.475 219.129 402.33 218.127 402.535 217.301L402.553 217.248H401.164L401.146 217.289C401.006 217.582 400.555 217.98 399.764 217.98C398.773 217.98 398.152 217.312 398.135 216.164H402.611V215.684C402.611 213.75 401.486 212.473 399.664 212.473C397.842 212.473 396.676 213.791 396.676 215.807V215.812C396.676 217.852 397.83 219.129 399.734 219.129ZM399.682 213.615C400.496 213.615 401.088 214.137 401.188 215.186H398.146C398.258 214.166 398.867 213.615 399.682 213.615ZM404.07 219H405.529V215.268C405.529 214.307 406.068 213.697 406.936 213.697C407.82 213.697 408.225 214.201 408.225 215.197V219H409.684V214.857C409.684 213.334 408.904 212.473 407.475 212.473C406.549 212.473 405.934 212.889 405.629 213.574H405.529V212.596H404.07V219Z" fill="white"/>
<path fill-rule="evenodd" clip-rule="evenodd" d="M327.656 36.7895C327.656 36.5915 327.814 36.4315 328.006 36.4315H328.707C328.9 36.4315 329.055 36.5915 329.055 36.7895V38.2215C329.055 38.4185 328.9 38.5795 328.707 38.5795H328.006C327.814 38.5795 327.656 38.4185 327.656 38.2215V36.7895ZM329.756 36.7895C329.756 36.5915 329.913 36.4315 330.106 36.4315H332.906C333.099 36.4315 333.257 36.5915 333.257 36.7895V38.2215C333.257 38.4185 333.099 38.5795 332.906 38.5795H330.106C329.913 38.5795 329.756 38.4185 329.756 38.2215V36.7895ZM333.956 36.7895C333.956 36.5915 334.113 36.4315 334.306 36.4315H337.106C337.299 36.4315 337.456 36.5915 337.456 36.7895V38.2215C337.456 38.4185 337.299 38.5795 337.106 38.5795H334.306C334.113 38.5795 333.956 38.4185 333.956 38.2215V36.7895ZM338.156 36.7895C338.156 36.5915 338.314 36.4315 338.506 36.4315H339.593C339.77 36.4315 339.918 36.5645 339.939 36.7435L340.125 38.1745C340.138 38.2775 340.107 38.3795 340.04 38.4575C339.974 38.5355 339.878 38.5795 339.778 38.5795H338.506C338.314 38.5795 338.156 38.4185 338.156 38.2215V36.7895ZM340.995 39.5945L340.296 35.2985C340.266 35.1265 340.122 34.9995 339.95 34.9995H327.7C327.349 34.9995 327 35.3575 327 35.7165V39.5705V39.8135V40.6415C327 40.8205 327.128 40.9995 327.3 40.9995H328.847C329.083 40.2815 329.753 39.7995 330.55 39.7995C331.348 39.7995 332.017 40.2815 332.253 40.9995H335.797C336.032 40.2815 336.702 39.7995 337.5 39.7995C338.297 39.7995 338.967 40.2815 339.203 40.9995H340.65C340.843 40.9995 341 40.8385 341 40.6415V39.8135V39.6535C341 39.6335 340.998 39.6145 340.995 39.5945ZM329.55 41.7998C329.55 41.2488 329.998 40.7998 330.55 40.7998C331.102 40.7998 331.55 41.2488 331.55 41.7998C331.55 42.3518 331.102 42.7998 330.55 42.7998C329.998 42.7998 329.55 42.3518 329.55 41.7998ZM337.5 40.7998C336.948 40.7998 336.5 41.2488 336.5 41.7998C336.5 42.3518 336.948 42.7998 337.5 42.7998C338.052 42.7998 338.5 42.3518 338.5 41.7998C338.5 41.2488 338.052 40.7998 337.5 40.7998Z" fill="#D83755"/>
<path fill-rule="evenodd" clip-rule="evenodd" d="M327.656 95.7895C327.656 95.5915 327.814 95.4315 328.006 95.4315H328.707C328.9 95.4315 329.055 95.5915 329.055 95.7895V97.2215C329.055 97.4185 328.9 97.5795 328.707 97.5795H328.006C327.814 97.5795 327.656 97.4185 327.656 97.2215V95.7895ZM329.756 95.7895C329.756 95.5915 329.913 95.4315 330.106 95.4315H332.906C333.099 95.4315 333.257 95.5915 333.257 95.7895V97.2215C333.257 97.4185 333.099 97.5795 332.906 97.5795H330.106C329.913 97.5795 329.756 97.4185 329.756 97.2215V95.7895ZM333.956 95.7895C333.956 95.5915 334.113 95.4315 334.306 95.4315H337.106C337.299 95.4315 337.456 95.5915 337.456 95.7895V97.2215C337.456 97.4185 337.299 97.5795 337.106 97.5795H334.306C334.113 97.5795 333.956 97.4185 333.956 97.2215V95.7895ZM338.156 95.7895C338.156 95.5915 338.314 95.4315 338.506 95.4315H339.593C339.77 95.4315 339.918 95.5645 339.939 95.7435L340.125 97.1745C340.138 97.2775 340.107 97.3795 340.04 97.4575C339.974 97.5355 339.878 97.5795 339.778 97.5795H338.506C338.314 97.5795 338.156 97.4185 338.156 97.2215V95.7895ZM340.995 98.5945L340.296 94.2985C340.266 94.1265 340.122 93.9995 339.95 93.9995H327.7C327.349 93.9995 327 94.3575 327 94.7165V98.5705V98.8135V99.6415C327 99.8205 327.128 99.9995 327.3 99.9995H328.847C329.083 99.2815 329.753 98.7995 330.55 98.7995C331.348 98.7995 332.017 99.2815 332.253 99.9995H335.797C336.032 99.2815 336.702 98.7995 337.5 98.7995C338.297 98.7995 338.967 99.2815 339.203 99.9995H340.65C340.843 99.9995 341 99.8385 341 99.6415V98.8135V98.6535C341 98.6335 340.998 98.6145 340.995 98.5945ZM329.55 100.8C329.55 100.249 329.998 99.7998 330.55 99.7998C331.102 99.7998 331.55 100.249 331.55 100.8C331.55 101.352 331.102 101.8 330.55 101.8C329.998 101.8 329.55 101.352 329.55 100.8ZM337.5 99.7998C336.948 99.7998 336.5 100.249 336.5 100.8C336.5 101.352 336.948 101.8 337.5 101.8C338.052 101.8 338.5 101.352 338.5 100.8C338.5 100.249 338.052 99.7998 337.5 99.7998Z" fill="#D83755"/>
<path fill-rule="evenodd" clip-rule="evenodd" d="M339.561 156.533C339.666 156.533 339.766 156.485 339.833 156.402C339.9 156.32 339.925 156.211 339.902 156.107L339.593 154.707C339.557 154.546 339.416 154.432 339.251 154.432H339.085H338.159H337.81C337.616 154.432 337.459 154.589 337.459 154.782V156.183C337.459 156.377 337.616 156.533 337.81 156.533H338.159H339.561ZM336.41 156.532C336.603 156.532 336.76 156.376 336.76 156.182V154.782C336.76 154.589 336.603 154.432 336.41 154.432H334.31C334.116 154.432 333.959 154.589 333.959 154.782V156.182C333.959 156.376 334.116 156.532 334.31 156.532H336.41ZM332.899 156.532C333.092 156.532 333.25 156.376 333.25 156.182V154.782C333.25 154.589 333.092 154.432 332.899 154.432H330.799C330.605 154.432 330.449 154.589 330.449 154.782V156.182C330.449 156.376 330.605 156.532 330.799 156.532H332.899ZM329.4 156.533C329.593 156.533 329.75 156.377 329.75 156.182V154.782C329.75 154.589 329.593 154.432 329.4 154.432H329.187H328.659C328.495 154.432 328.352 154.546 328.317 154.707L328.008 156.107C327.985 156.211 328.01 156.32 328.077 156.402C328.143 156.485 328.244 156.533 328.35 156.533H329.034H329.035H329.4ZM339.721 153C339.884 153 340.026 153.113 340.062 153.273L340.991 157.381C341.016 157.503 340.989 157.63 340.917 157.732L340.105 158.855C340.039 158.945 339.934 159 339.821 159H333.577H333.086H332.414H328.179C328.066 159 327.961 158.945 327.895 158.855L327.083 157.732C327.011 157.63 326.984 157.503 327.009 157.381L327.938 153.273C327.974 153.113 328.116 153 328.279 153H333.406L335.105 151.834L333.404 150.4H334.368L335.862 151.579C335.943 151.639 336.004 151.73 336.004 151.855C336.004 151.977 335.955 152.035 335.854 152.11L334.566 153H339.721ZM340 161H328V160H340V161Z" fill="#9D79E1"/>
<path fill-rule="evenodd" clip-rule="evenodd" d="M339.561 215.533C339.666 215.533 339.766 215.485 339.833 215.402C339.9 215.32 339.925 215.211 339.902 215.107L339.593 213.707C339.557 213.546 339.416 213.432 339.251 213.432H339.085H338.159H337.81C337.616 213.432 337.459 213.589 337.459 213.782V215.183C337.459 215.377 337.616 215.533 337.81 215.533H338.159H339.561ZM336.41 215.532C336.603 215.532 336.76 215.376 336.76 215.182V213.782C336.76 213.589 336.603 213.432 336.41 213.432H334.31C334.116 213.432 333.959 213.589 333.959 213.782V215.182C333.959 215.376 334.116 215.532 334.31 215.532H336.41ZM332.899 215.532C333.092 215.532 333.25 215.376 333.25 215.182V213.782C333.25 213.589 333.092 213.432 332.899 213.432H330.799C330.605 213.432 330.449 213.589 330.449 213.782V215.182C330.449 215.376 330.605 215.532 330.799 215.532H332.899ZM329.4 215.533C329.593 215.533 329.75 215.377 329.75 215.182V213.782C329.75 213.589 329.593 213.432 329.4 213.432H329.187H328.659C328.495 213.432 328.352 213.546 328.317 213.707L328.008 215.107C327.985 215.211 328.01 215.32 328.077 215.402C328.143 215.485 328.244 215.533 328.35 215.533H329.034H329.035H329.4ZM339.721 212C339.884 212 340.026 212.113 340.062 212.273L340.991 216.381C341.016 216.503 340.989 216.63 340.917 216.732L340.105 217.855C340.039 217.945 339.934 218 339.821 218H333.577H333.086H332.414H328.179C328.066 218 327.961 217.945 327.895 217.855L327.083 216.732C327.011 216.63 326.984 216.503 327.009 216.381L327.938 212.273C327.974 212.113 328.116 212 328.279 212H333.406L335.105 210.834L333.404 209.4H334.368L335.862 210.579C335.943 210.639 336.004 210.73 336.004 210.855C336.004 210.977 335.955 211.035 335.854 211.11L334.566 212H339.721ZM340 220H328V219H340V220Z" fill="#9D79E1"/>
</svg>
