<svg width="464" height="286" viewBox="0 0 464 286" fill="none" xmlns="http://www.w3.org/2000/svg">
<rect width="464" height="286" rx="2" fill="#00252C"/>
<rect x="12" y="12" width="441" height="80" rx="2" fill="#00323A"/>
<rect x="12" y="104" width="441" height="79" rx="2" fill="#00323A"/>
<rect x="12" y="195" width="441" height="79" rx="2" fill="#00323A"/>
<path fill-rule="evenodd" clip-rule="evenodd" d="M66.8959 57.7639C67.0399 57.7639 67.1679 57.7289 67.2129 57.5929C67.2579 57.4569 67.2109 57.3639 67.0969 57.2779L66.0629 56.4989C66.0039 56.4559 65.9339 56.4319 65.8619 56.4319H65.1959C65.0529 56.4319 64.9259 56.5239 64.8799 56.6589C64.8349 56.7949 64.8809 56.9449 64.9959 57.0309L65.9459 57.7009C66.0341 57.7669 66.1343 57.7653 66.206 57.7642C66.2147 57.764 66.2231 57.7639 66.2309 57.7639H66.8959ZM69.6589 57.9909C69.6979 58.0309 69.7289 58.0649 69.7499 58.0999C69.9049 58.3059 69.9999 58.5569 69.9999 58.8339C69.9999 59.3269 69.5909 59.9809 69.0999 60.7359C68.9919 60.9009 68.8089 61.0009 68.6109 61.0009H55.9999V54.9999H60.4019L62.1019 53.8329L60.3999 52.3999H61.3639L62.8579 53.5789C62.9389 53.6379 62.9999 53.7289 62.9999 53.8539C62.9999 53.9769 62.9519 54.0339 62.8509 54.1099L61.5569 54.9999H65.0959C65.3359 54.9999 65.7359 55.0959 66.0949 55.3319C67.1919 56.0549 69.2159 57.5459 69.5309 57.8599C69.5476 57.877 69.5629 57.8926 69.5773 57.9073C69.594 57.9242 69.6094 57.9399 69.6239 57.9549C69.6359 57.9659 69.6479 57.9789 69.6589 57.9909ZM69 63.0002H56V62.0002H69V63.0002Z" fill="#5EA3F1"/>
<path fill-rule="evenodd" clip-rule="evenodd" d="M68.561 149.533C68.666 149.533 68.766 149.485 68.833 149.402C68.9 149.32 68.925 149.211 68.902 149.107L68.593 147.707C68.557 147.546 68.416 147.432 68.251 147.432H68.085H67.159H66.81C66.616 147.432 66.459 147.589 66.459 147.782V149.183C66.459 149.377 66.616 149.533 66.81 149.533H67.159H68.561ZM65.41 149.532C65.603 149.532 65.76 149.376 65.76 149.182V147.782C65.76 147.589 65.603 147.432 65.41 147.432H63.31C63.116 147.432 62.959 147.589 62.959 147.782V149.182C62.959 149.376 63.116 149.532 63.31 149.532H65.41ZM61.899 149.532C62.092 149.532 62.25 149.376 62.25 149.182V147.782C62.25 147.589 62.092 147.432 61.899 147.432H59.799C59.605 147.432 59.449 147.589 59.449 147.782V149.182C59.449 149.376 59.605 149.532 59.799 149.532H61.899ZM58.4 149.533C58.593 149.533 58.75 149.377 58.75 149.182V147.782C58.75 147.589 58.593 147.432 58.4 147.432H58.187H57.659C57.495 147.432 57.352 147.546 57.317 147.707L57.008 149.107C56.985 149.211 57.01 149.32 57.077 149.402C57.143 149.485 57.244 149.533 57.35 149.533H58.034H58.035H58.4ZM68.721 146C68.884 146 69.026 146.113 69.062 146.273L69.991 150.381C70.016 150.503 69.989 150.63 69.917 150.732L69.105 151.855C69.039 151.945 68.934 152 68.821 152H62.577H62.086H61.414H57.179C57.066 152 56.961 151.945 56.895 151.855L56.083 150.732C56.011 150.63 55.984 150.503 56.009 150.381L56.938 146.273C56.974 146.113 57.116 146 57.279 146H62.406L64.105 144.834L62.404 143.4H63.368L64.862 144.579C64.943 144.639 65.004 144.73 65.004 144.855C65.004 144.977 64.955 145.035 64.854 145.11L63.566 146H68.721ZM69 154H57V153H69V154Z" fill="#9D79E1"/>
<path fill-rule="evenodd" clip-rule="evenodd" d="M56.6562 238.79C56.6562 238.592 56.8142 238.432 57.0062 238.432H57.7072C57.9002 238.432 58.0552 238.592 58.0552 238.79V240.222C58.0552 240.419 57.9002 240.58 57.7072 240.58H57.0062C56.8142 240.58 56.6562 240.419 56.6562 240.222V238.79ZM58.7562 238.79C58.7562 238.592 58.9132 238.432 59.1062 238.432H61.9062C62.0992 238.432 62.2572 238.592 62.2572 238.79V240.222C62.2572 240.419 62.0992 240.58 61.9062 240.58H59.1062C58.9132 240.58 58.7562 240.419 58.7562 240.222V238.79ZM62.9562 238.79C62.9562 238.592 63.1132 238.432 63.3062 238.432H66.1062C66.2992 238.432 66.4562 238.592 66.4562 238.79V240.222C66.4562 240.419 66.2992 240.58 66.1062 240.58H63.3062C63.1132 240.58 62.9562 240.419 62.9562 240.222V238.79ZM67.1562 238.79C67.1562 238.592 67.3142 238.432 67.5062 238.432H68.5932C68.7702 238.432 68.9182 238.565 68.9392 238.744L69.1252 240.175C69.1382 240.278 69.1072 240.38 69.0402 240.458C68.9742 240.536 68.8782 240.58 68.7782 240.58H67.5062C67.3142 240.58 67.1562 240.419 67.1562 240.222V238.79ZM69.9952 241.595L69.2962 237.299C69.2662 237.127 69.1222 237 68.9502 237H56.7002C56.3492 237 56.0002 237.358 56.0002 237.717V241.571V241.814V242.642C56.0002 242.821 56.1282 243 56.3002 243H57.8472C58.0832 242.282 58.7532 241.8 59.5502 241.8C60.3482 241.8 61.0172 242.282 61.2532 243H64.7972C65.0322 242.282 65.7022 241.8 66.5002 241.8C67.2972 241.8 67.9672 242.282 68.2032 243H69.6502C69.8432 243 70.0002 242.839 70.0002 242.642V241.814V241.654C70.0002 241.634 69.9982 241.615 69.9952 241.595ZM58.5503 243.8C58.5503 243.249 58.9983 242.8 59.5503 242.8C60.1023 242.8 60.5503 243.249 60.5503 243.8C60.5503 244.352 60.1023 244.8 59.5503 244.8C58.9983 244.8 58.5503 244.352 58.5503 243.8ZM66.5 242.8C65.948 242.8 65.5 243.249 65.5 243.8C65.5 244.352 65.948 244.8 66.5 244.8C67.052 244.8 67.5 244.352 67.5 243.8C67.5 243.249 67.052 242.8 66.5 242.8Z" fill="#D83755"/>
<path fill-rule="evenodd" clip-rule="evenodd" d="M137.896 57.7639C138.04 57.7639 138.168 57.7289 138.213 57.5929C138.258 57.4569 138.211 57.3639 138.097 57.2779L137.063 56.4989C137.004 56.4559 136.934 56.4319 136.862 56.4319H136.196C136.053 56.4319 135.926 56.5239 135.88 56.6589C135.835 56.7949 135.881 56.9449 135.996 57.0309L136.946 57.7009C137.034 57.7669 137.134 57.7653 137.206 57.7642C137.215 57.764 137.223 57.7639 137.231 57.7639H137.896ZM140.659 57.9909C140.698 58.0309 140.729 58.0649 140.75 58.0999C140.905 58.3059 141 58.5569 141 58.8339C141 59.3269 140.591 59.9809 140.1 60.7359C139.992 60.9009 139.809 61.0009 139.611 61.0009H127V54.9999H131.402L133.102 53.8329L131.4 52.3999H132.364L133.858 53.5789C133.939 53.6379 134 53.7289 134 53.8539C134 53.9769 133.952 54.0339 133.851 54.1099L132.557 54.9999H136.096C136.336 54.9999 136.736 55.0959 137.095 55.3319C138.192 56.0549 140.216 57.5459 140.531 57.8599C140.548 57.877 140.563 57.8926 140.577 57.9073C140.594 57.9242 140.609 57.9399 140.624 57.9549C140.636 57.9659 140.648 57.9789 140.659 57.9909ZM140 63.0002H127V62.0002H140V63.0002Z" fill="#5EA3F1"/>
<path fill-rule="evenodd" clip-rule="evenodd" d="M139.561 149.533C139.666 149.533 139.766 149.485 139.833 149.402C139.9 149.32 139.925 149.211 139.902 149.107L139.593 147.707C139.557 147.546 139.416 147.432 139.251 147.432H139.085H138.159H137.81C137.616 147.432 137.459 147.589 137.459 147.782V149.183C137.459 149.377 137.616 149.533 137.81 149.533H138.159H139.561ZM136.41 149.532C136.603 149.532 136.76 149.376 136.76 149.182V147.782C136.76 147.589 136.603 147.432 136.41 147.432H134.31C134.116 147.432 133.959 147.589 133.959 147.782V149.182C133.959 149.376 134.116 149.532 134.31 149.532H136.41ZM132.899 149.532C133.092 149.532 133.25 149.376 133.25 149.182V147.782C133.25 147.589 133.092 147.432 132.899 147.432H130.799C130.605 147.432 130.449 147.589 130.449 147.782V149.182C130.449 149.376 130.605 149.532 130.799 149.532H132.899ZM129.4 149.533C129.593 149.533 129.75 149.377 129.75 149.182V147.782C129.75 147.589 129.593 147.432 129.4 147.432H129.187H128.659C128.495 147.432 128.352 147.546 128.317 147.707L128.008 149.107C127.985 149.211 128.01 149.32 128.077 149.402C128.143 149.485 128.244 149.533 128.35 149.533H129.034H129.035H129.4ZM139.721 146C139.884 146 140.026 146.113 140.062 146.273L140.991 150.381C141.016 150.503 140.989 150.63 140.917 150.732L140.105 151.855C140.039 151.945 139.934 152 139.821 152H133.577H133.086H132.414H128.179C128.066 152 127.961 151.945 127.895 151.855L127.083 150.732C127.011 150.63 126.984 150.503 127.009 150.381L127.938 146.273C127.974 146.113 128.116 146 128.279 146H133.406L135.105 144.834L133.404 143.4H134.368L135.862 144.579C135.943 144.639 136.004 144.73 136.004 144.855C136.004 144.977 135.955 145.035 135.854 145.11L134.566 146H139.721ZM140 154H128V153H140V154Z" fill="#9D79E1"/>
<path fill-rule="evenodd" clip-rule="evenodd" d="M127.656 238.79C127.656 238.592 127.814 238.432 128.006 238.432H128.707C128.9 238.432 129.055 238.592 129.055 238.79V240.222C129.055 240.419 128.9 240.58 128.707 240.58H128.006C127.814 240.58 127.656 240.419 127.656 240.222V238.79ZM129.756 238.79C129.756 238.592 129.913 238.432 130.106 238.432H132.906C133.099 238.432 133.257 238.592 133.257 238.79V240.222C133.257 240.419 133.099 240.58 132.906 240.58H130.106C129.913 240.58 129.756 240.419 129.756 240.222V238.79ZM133.956 238.79C133.956 238.592 134.113 238.432 134.306 238.432H137.106C137.299 238.432 137.456 238.592 137.456 238.79V240.222C137.456 240.419 137.299 240.58 137.106 240.58H134.306C134.113 240.58 133.956 240.419 133.956 240.222V238.79ZM138.156 238.79C138.156 238.592 138.314 238.432 138.506 238.432H139.593C139.77 238.432 139.918 238.565 139.939 238.744L140.125 240.175C140.138 240.278 140.107 240.38 140.04 240.458C139.974 240.536 139.878 240.58 139.778 240.58H138.506C138.314 240.58 138.156 240.419 138.156 240.222V238.79ZM140.995 241.595L140.296 237.299C140.266 237.127 140.122 237 139.95 237H127.7C127.349 237 127 237.358 127 237.717V241.571V241.814V242.642C127 242.821 127.128 243 127.3 243H128.847C129.083 242.282 129.753 241.8 130.55 241.8C131.348 241.8 132.017 242.282 132.253 243H135.797C136.032 242.282 136.702 241.8 137.5 241.8C138.297 241.8 138.967 242.282 139.203 243H140.65C140.843 243 141 242.839 141 242.642V241.814V241.654C141 241.634 140.998 241.615 140.995 241.595ZM129.55 243.8C129.55 243.249 129.998 242.8 130.55 242.8C131.102 242.8 131.55 243.249 131.55 243.8C131.55 244.352 131.102 244.8 130.55 244.8C129.998 244.8 129.55 244.352 129.55 243.8ZM137.5 242.8C136.948 242.8 136.5 243.249 136.5 243.8C136.5 244.352 136.948 244.8 137.5 244.8C138.052 244.8 138.5 244.352 138.5 243.8C138.5 243.249 138.052 242.8 137.5 242.8Z" fill="#D83755"/>
<path fill-rule="evenodd" clip-rule="evenodd" d="M235.896 57.7639C236.04 57.7639 236.168 57.7289 236.213 57.5929C236.258 57.4569 236.211 57.3639 236.097 57.2779L235.063 56.4989C235.004 56.4559 234.934 56.4319 234.862 56.4319H234.196C234.053 56.4319 233.926 56.5239 233.88 56.6589C233.835 56.7949 233.881 56.9449 233.996 57.0309L234.946 57.7009C235.034 57.7669 235.134 57.7653 235.206 57.7642C235.215 57.764 235.223 57.7639 235.231 57.7639H235.896ZM238.659 57.9909C238.698 58.0309 238.729 58.0649 238.75 58.0999C238.905 58.3059 239 58.5569 239 58.8339C239 59.3269 238.591 59.9809 238.1 60.7359C237.992 60.9009 237.809 61.0009 237.611 61.0009H225V54.9999H229.402L231.102 53.8329L229.4 52.3999H230.364L231.858 53.5789C231.939 53.6379 232 53.7289 232 53.8539C232 53.9769 231.952 54.0339 231.851 54.1099L230.557 54.9999H234.096C234.336 54.9999 234.736 55.0959 235.095 55.3319C236.192 56.0549 238.216 57.5459 238.531 57.8599C238.548 57.877 238.563 57.8926 238.577 57.9073C238.594 57.9242 238.609 57.9399 238.624 57.9549C238.636 57.9659 238.648 57.9789 238.659 57.9909ZM238 63.0002H225V62.0002H238V63.0002Z" fill="#5EA3F1"/>
<path fill-rule="evenodd" clip-rule="evenodd" d="M237.561 149.533C237.666 149.533 237.766 149.485 237.833 149.402C237.9 149.32 237.925 149.211 237.902 149.107L237.593 147.707C237.557 147.546 237.416 147.432 237.251 147.432H237.085H236.159H235.81C235.616 147.432 235.459 147.589 235.459 147.782V149.183C235.459 149.377 235.616 149.533 235.81 149.533H236.159H237.561ZM234.41 149.532C234.603 149.532 234.76 149.376 234.76 149.182V147.782C234.76 147.589 234.603 147.432 234.41 147.432H232.31C232.116 147.432 231.959 147.589 231.959 147.782V149.182C231.959 149.376 232.116 149.532 232.31 149.532H234.41ZM230.899 149.532C231.092 149.532 231.25 149.376 231.25 149.182V147.782C231.25 147.589 231.092 147.432 230.899 147.432H228.799C228.605 147.432 228.449 147.589 228.449 147.782V149.182C228.449 149.376 228.605 149.532 228.799 149.532H230.899ZM227.4 149.533C227.593 149.533 227.75 149.377 227.75 149.182V147.782C227.75 147.589 227.593 147.432 227.4 147.432H227.187H226.659C226.495 147.432 226.352 147.546 226.317 147.707L226.008 149.107C225.985 149.211 226.01 149.32 226.077 149.402C226.143 149.485 226.244 149.533 226.35 149.533H227.034H227.035H227.4ZM237.721 146C237.884 146 238.026 146.113 238.062 146.273L238.991 150.381C239.016 150.503 238.989 150.63 238.917 150.732L238.105 151.855C238.039 151.945 237.934 152 237.821 152H231.577H231.086H230.414H226.179C226.066 152 225.961 151.945 225.895 151.855L225.083 150.732C225.011 150.63 224.984 150.503 225.009 150.381L225.938 146.273C225.974 146.113 226.116 146 226.279 146H231.406L233.105 144.834L231.404 143.4H232.368L233.862 144.579C233.943 144.639 234.004 144.73 234.004 144.855C234.004 144.977 233.955 145.035 233.854 145.11L232.566 146H237.721ZM238 154H226V153H238V154Z" fill="#9D79E1"/>
<path fill-rule="evenodd" clip-rule="evenodd" d="M225.656 238.79C225.656 238.592 225.814 238.432 226.006 238.432H226.707C226.9 238.432 227.055 238.592 227.055 238.79V240.222C227.055 240.419 226.9 240.58 226.707 240.58H226.006C225.814 240.58 225.656 240.419 225.656 240.222V238.79ZM227.756 238.79C227.756 238.592 227.913 238.432 228.106 238.432H230.906C231.099 238.432 231.257 238.592 231.257 238.79V240.222C231.257 240.419 231.099 240.58 230.906 240.58H228.106C227.913 240.58 227.756 240.419 227.756 240.222V238.79ZM231.956 238.79C231.956 238.592 232.113 238.432 232.306 238.432H235.106C235.299 238.432 235.456 238.592 235.456 238.79V240.222C235.456 240.419 235.299 240.58 235.106 240.58H232.306C232.113 240.58 231.956 240.419 231.956 240.222V238.79ZM236.156 238.79C236.156 238.592 236.314 238.432 236.506 238.432H237.593C237.77 238.432 237.918 238.565 237.939 238.744L238.125 240.175C238.138 240.278 238.107 240.38 238.04 240.458C237.974 240.536 237.878 240.58 237.778 240.58H236.506C236.314 240.58 236.156 240.419 236.156 240.222V238.79ZM238.995 241.595L238.296 237.299C238.266 237.127 238.122 237 237.95 237H225.7C225.349 237 225 237.358 225 237.717V241.571V241.814V242.642C225 242.821 225.128 243 225.3 243H226.847C227.083 242.282 227.753 241.8 228.55 241.8C229.348 241.8 230.017 242.282 230.253 243H233.797C234.032 242.282 234.702 241.8 235.5 241.8C236.297 241.8 236.967 242.282 237.203 243H238.65C238.843 243 239 242.839 239 242.642V241.814V241.654C239 241.634 238.998 241.615 238.995 241.595ZM227.55 243.8C227.55 243.249 227.998 242.8 228.55 242.8C229.102 242.8 229.55 243.249 229.55 243.8C229.55 244.352 229.102 244.8 228.55 244.8C227.998 244.8 227.55 244.352 227.55 243.8ZM235.5 242.8C234.948 242.8 234.5 243.249 234.5 243.8C234.5 244.352 234.948 244.8 235.5 244.8C236.052 244.8 236.5 244.352 236.5 243.8C236.5 243.249 236.052 242.8 235.5 242.8Z" fill="#D83755"/>
<path fill-rule="evenodd" clip-rule="evenodd" d="M339.896 57.7639C340.04 57.7639 340.168 57.7289 340.213 57.5929C340.258 57.4569 340.211 57.3639 340.097 57.2779L339.063 56.4989C339.004 56.4559 338.934 56.4319 338.862 56.4319H338.196C338.053 56.4319 337.926 56.5239 337.88 56.6589C337.835 56.7949 337.881 56.9449 337.996 57.0309L338.946 57.7009C339.034 57.7669 339.134 57.7653 339.206 57.7642C339.215 57.764 339.223 57.7639 339.231 57.7639H339.896ZM342.659 57.9909C342.698 58.0309 342.729 58.0649 342.75 58.0999C342.905 58.3059 343 58.5569 343 58.8339C343 59.3269 342.591 59.9809 342.1 60.7359C341.992 60.9009 341.809 61.0009 341.611 61.0009H329V54.9999H333.402L335.102 53.8329L333.4 52.3999H334.364L335.858 53.5789C335.939 53.6379 336 53.7289 336 53.8539C336 53.9769 335.952 54.0339 335.851 54.1099L334.557 54.9999H338.096C338.336 54.9999 338.736 55.0959 339.095 55.3319C340.192 56.0549 342.216 57.5459 342.531 57.8599C342.548 57.877 342.563 57.8926 342.577 57.9073C342.594 57.9242 342.609 57.9399 342.624 57.9549C342.636 57.9659 342.648 57.9789 342.659 57.9909ZM342 63.0002H329V62.0002H342V63.0002Z" fill="#5EA3F1"/>
<path fill-rule="evenodd" clip-rule="evenodd" d="M341.561 149.533C341.666 149.533 341.766 149.485 341.833 149.402C341.9 149.32 341.925 149.211 341.902 149.107L341.593 147.707C341.557 147.546 341.416 147.432 341.251 147.432H341.085H340.159H339.81C339.616 147.432 339.459 147.589 339.459 147.782V149.183C339.459 149.377 339.616 149.533 339.81 149.533H340.159H341.561ZM338.41 149.532C338.603 149.532 338.76 149.376 338.76 149.182V147.782C338.76 147.589 338.603 147.432 338.41 147.432H336.31C336.116 147.432 335.959 147.589 335.959 147.782V149.182C335.959 149.376 336.116 149.532 336.31 149.532H338.41ZM334.899 149.532C335.092 149.532 335.25 149.376 335.25 149.182V147.782C335.25 147.589 335.092 147.432 334.899 147.432H332.799C332.605 147.432 332.449 147.589 332.449 147.782V149.182C332.449 149.376 332.605 149.532 332.799 149.532H334.899ZM331.4 149.533C331.593 149.533 331.75 149.377 331.75 149.182V147.782C331.75 147.589 331.593 147.432 331.4 147.432H331.187H330.659C330.495 147.432 330.352 147.546 330.317 147.707L330.008 149.107C329.985 149.211 330.01 149.32 330.077 149.402C330.143 149.485 330.244 149.533 330.35 149.533H331.034H331.035H331.4ZM341.721 146C341.884 146 342.026 146.113 342.062 146.273L342.991 150.381C343.016 150.503 342.989 150.63 342.917 150.732L342.105 151.855C342.039 151.945 341.934 152 341.821 152H335.577H335.086H334.414H330.179C330.066 152 329.961 151.945 329.895 151.855L329.083 150.732C329.011 150.63 328.984 150.503 329.009 150.381L329.938 146.273C329.974 146.113 330.116 146 330.279 146H335.406L337.105 144.834L335.404 143.4H336.368L337.862 144.579C337.943 144.639 338.004 144.73 338.004 144.855C338.004 144.977 337.955 145.035 337.854 145.11L336.566 146H341.721ZM342 154H330V153H342V154Z" fill="#9D79E1"/>
<path fill-rule="evenodd" clip-rule="evenodd" d="M329.656 238.79C329.656 238.592 329.814 238.432 330.006 238.432H330.707C330.9 238.432 331.055 238.592 331.055 238.79V240.222C331.055 240.419 330.9 240.58 330.707 240.58H330.006C329.814 240.58 329.656 240.419 329.656 240.222V238.79ZM331.756 238.79C331.756 238.592 331.913 238.432 332.106 238.432H334.906C335.099 238.432 335.257 238.592 335.257 238.79V240.222C335.257 240.419 335.099 240.58 334.906 240.58H332.106C331.913 240.58 331.756 240.419 331.756 240.222V238.79ZM335.956 238.79C335.956 238.592 336.113 238.432 336.306 238.432H339.106C339.299 238.432 339.456 238.592 339.456 238.79V240.222C339.456 240.419 339.299 240.58 339.106 240.58H336.306C336.113 240.58 335.956 240.419 335.956 240.222V238.79ZM340.156 238.79C340.156 238.592 340.314 238.432 340.506 238.432H341.593C341.77 238.432 341.918 238.565 341.939 238.744L342.125 240.175C342.138 240.278 342.107 240.38 342.04 240.458C341.974 240.536 341.878 240.58 341.778 240.58H340.506C340.314 240.58 340.156 240.419 340.156 240.222V238.79ZM342.995 241.595L342.296 237.299C342.266 237.127 342.122 237 341.95 237H329.7C329.349 237 329 237.358 329 237.717V241.571V241.814V242.642C329 242.821 329.128 243 329.3 243H330.847C331.083 242.282 331.753 241.8 332.55 241.8C333.348 241.8 334.017 242.282 334.253 243H337.797C338.032 242.282 338.702 241.8 339.5 241.8C340.297 241.8 340.967 242.282 341.203 243H342.65C342.843 243 343 242.839 343 242.642V241.814V241.654C343 241.634 342.998 241.615 342.995 241.595ZM331.55 243.8C331.55 243.249 331.998 242.8 332.55 242.8C333.102 242.8 333.55 243.249 333.55 243.8C333.55 244.352 333.102 244.8 332.55 244.8C331.998 244.8 331.55 244.352 331.55 243.8ZM339.5 242.8C338.948 242.8 338.5 243.249 338.5 243.8C338.5 244.352 338.948 244.8 339.5 244.8C340.052 244.8 340.5 244.352 340.5 243.8C340.5 243.249 340.052 242.8 339.5 242.8Z" fill="#D83755"/>
<path fill-rule="evenodd" clip-rule="evenodd" d="M391.896 57.7639C392.04 57.7639 392.168 57.7289 392.213 57.5929C392.258 57.4569 392.211 57.3639 392.097 57.2779L391.063 56.4989C391.004 56.4559 390.934 56.4319 390.862 56.4319H390.196C390.053 56.4319 389.926 56.5239 389.88 56.6589C389.835 56.7949 389.881 56.9449 389.996 57.0309L390.946 57.7009C391.034 57.7669 391.134 57.7653 391.206 57.7642C391.215 57.764 391.223 57.7639 391.231 57.7639H391.896ZM394.659 57.9909C394.698 58.0309 394.729 58.0649 394.75 58.0999C394.905 58.3059 395 58.5569 395 58.8339C395 59.3269 394.591 59.9809 394.1 60.7359C393.992 60.9009 393.809 61.0009 393.611 61.0009H381V54.9999H385.402L387.102 53.8329L385.4 52.3999H386.364L387.858 53.5789C387.939 53.6379 388 53.7289 388 53.8539C388 53.9769 387.952 54.0339 387.851 54.1099L386.557 54.9999H390.096C390.336 54.9999 390.736 55.0959 391.095 55.3319C392.192 56.0549 394.216 57.5459 394.531 57.8599C394.548 57.877 394.563 57.8926 394.577 57.9073C394.594 57.9242 394.609 57.9399 394.624 57.9549C394.636 57.9659 394.648 57.9789 394.659 57.9909ZM394 63.0002H381V62.0002H394V63.0002Z" fill="#5EA3F1"/>
<path fill-rule="evenodd" clip-rule="evenodd" d="M393.561 149.533C393.666 149.533 393.766 149.485 393.833 149.402C393.9 149.32 393.925 149.211 393.902 149.107L393.593 147.707C393.557 147.546 393.416 147.432 393.251 147.432H393.085H392.159H391.81C391.616 147.432 391.459 147.589 391.459 147.782V149.183C391.459 149.377 391.616 149.533 391.81 149.533H392.159H393.561ZM390.41 149.532C390.603 149.532 390.76 149.376 390.76 149.182V147.782C390.76 147.589 390.603 147.432 390.41 147.432H388.31C388.116 147.432 387.959 147.589 387.959 147.782V149.182C387.959 149.376 388.116 149.532 388.31 149.532H390.41ZM386.899 149.532C387.092 149.532 387.25 149.376 387.25 149.182V147.782C387.25 147.589 387.092 147.432 386.899 147.432H384.799C384.605 147.432 384.449 147.589 384.449 147.782V149.182C384.449 149.376 384.605 149.532 384.799 149.532H386.899ZM383.4 149.533C383.593 149.533 383.75 149.377 383.75 149.182V147.782C383.75 147.589 383.593 147.432 383.4 147.432H383.187H382.659C382.495 147.432 382.352 147.546 382.317 147.707L382.008 149.107C381.985 149.211 382.01 149.32 382.077 149.402C382.143 149.485 382.244 149.533 382.35 149.533H383.034H383.035H383.4ZM393.721 146C393.884 146 394.026 146.113 394.062 146.273L394.991 150.381C395.016 150.503 394.989 150.63 394.917 150.732L394.105 151.855C394.039 151.945 393.934 152 393.821 152H387.577H387.086H386.414H382.179C382.066 152 381.961 151.945 381.895 151.855L381.083 150.732C381.011 150.63 380.984 150.503 381.009 150.381L381.938 146.273C381.974 146.113 382.116 146 382.279 146H387.406L389.105 144.834L387.404 143.4H388.368L389.862 144.579C389.943 144.639 390.004 144.73 390.004 144.855C390.004 144.977 389.955 145.035 389.854 145.11L388.566 146H393.721ZM394 154H382V153H394V154Z" fill="#9D79E1"/>
<path fill-rule="evenodd" clip-rule="evenodd" d="M381.656 238.79C381.656 238.592 381.814 238.432 382.006 238.432H382.707C382.9 238.432 383.055 238.592 383.055 238.79V240.222C383.055 240.419 382.9 240.58 382.707 240.58H382.006C381.814 240.58 381.656 240.419 381.656 240.222V238.79ZM383.756 238.79C383.756 238.592 383.913 238.432 384.106 238.432H386.906C387.099 238.432 387.257 238.592 387.257 238.79V240.222C387.257 240.419 387.099 240.58 386.906 240.58H384.106C383.913 240.58 383.756 240.419 383.756 240.222V238.79ZM387.956 238.79C387.956 238.592 388.113 238.432 388.306 238.432H391.106C391.299 238.432 391.456 238.592 391.456 238.79V240.222C391.456 240.419 391.299 240.58 391.106 240.58H388.306C388.113 240.58 387.956 240.419 387.956 240.222V238.79ZM392.156 238.79C392.156 238.592 392.314 238.432 392.506 238.432H393.593C393.77 238.432 393.918 238.565 393.939 238.744L394.125 240.175C394.138 240.278 394.107 240.38 394.04 240.458C393.974 240.536 393.878 240.58 393.778 240.58H392.506C392.314 240.58 392.156 240.419 392.156 240.222V238.79ZM394.995 241.595L394.296 237.299C394.266 237.127 394.122 237 393.95 237H381.7C381.349 237 381 237.358 381 237.717V241.571V241.814V242.642C381 242.821 381.128 243 381.3 243H382.847C383.083 242.282 383.753 241.8 384.55 241.8C385.348 241.8 386.017 242.282 386.253 243H389.797C390.032 242.282 390.702 241.8 391.5 241.8C392.297 241.8 392.967 242.282 393.203 243H394.65C394.843 243 395 242.839 395 242.642V241.814V241.654C395 241.634 394.998 241.615 394.995 241.595ZM383.55 243.8C383.55 243.249 383.998 242.8 384.55 242.8C385.102 242.8 385.55 243.249 385.55 243.8C385.55 244.352 385.102 244.8 384.55 244.8C383.998 244.8 383.55 244.352 383.55 243.8ZM391.5 242.8C390.948 242.8 390.5 243.249 390.5 243.8C390.5 244.352 390.948 244.8 391.5 244.8C392.052 244.8 392.5 244.352 392.5 243.8C392.5 243.249 392.052 242.8 391.5 242.8Z" fill="#D83755"/>
<rect x="28" y="74" width="409" height="2" rx="0.5" fill="#5EA3F1"/>
<rect x="28" y="165" width="409" height="2" rx="0.5" fill="#9D79E1"/>
<path d="M53.043 42H54.5547V38.8184H56.2305L57.8887 42H59.6172L57.7715 38.5898C58.7734 38.2266 59.3652 37.3008 59.3652 36.1816V36.1699C59.3652 34.5586 58.2754 33.5449 56.459 33.5449H53.043V42ZM54.5547 37.6582V34.7695H56.2715C57.2324 34.7695 57.8125 35.3203 57.8125 36.2051V36.2168C57.8125 37.125 57.2559 37.6582 56.3008 37.6582H54.5547ZM63.1094 42H64.6211V33.5449H63.1152L60.9062 35.0977V36.5215L63.0098 35.0332H63.1094V42ZM70.0703 42.2109C72.0801 42.2109 73.2988 40.5059 73.2988 37.7754V37.7637C73.2988 35.0332 72.0801 33.334 70.0703 33.334C68.0605 33.334 66.8535 35.0332 66.8535 37.7637V37.7754C66.8535 40.5059 68.0605 42.2109 70.0703 42.2109ZM70.0703 40.9863C68.9922 40.9863 68.377 39.7793 68.377 37.7754V37.7637C68.377 35.7598 68.9922 34.5645 70.0703 34.5645C71.1484 34.5645 71.7754 35.7598 71.7754 37.7637V37.7754C71.7754 39.7793 71.1484 40.9863 70.0703 40.9863Z" fill="white"/>
<path d="M58.9531 133H60.4648V124.545H58.959L56.75 126.098V127.521L58.8535 126.033H58.9531V133ZM63.1836 133H64.7656L68.3809 125.805V124.545H62.498V125.781H66.8574V125.875L63.1836 133Z" fill="white"/>
<path d="M227.953 133H229.465V124.545H227.959L225.75 126.098V127.521L227.854 126.033H227.953V133ZM232.184 133H233.766L237.381 125.805V124.545H231.498V125.781H235.857V125.875L232.184 133Z" fill="white"/>
<path d="M383.953 133H385.465V124.545H383.959L381.75 126.098V127.521L383.854 126.033H383.953V133ZM388.184 133H389.766L393.381 125.805V124.545H387.498V125.781H391.857V125.875L388.184 133Z" fill="white"/>
<path d="M56.8848 224H62.7559V222.746H58.9297V222.623L60.623 220.982C62.1641 219.5 62.627 218.738 62.627 217.777V217.76C62.627 216.336 61.4434 215.334 59.7969 215.334C58.0332 215.334 56.8027 216.436 56.8027 218.012L56.8086 218.029L58.2148 218.035L58.2207 218.012C58.2207 217.139 58.8242 216.547 59.7207 216.547C60.5996 216.547 61.1328 217.109 61.1328 217.889V217.906C61.1328 218.557 60.8105 218.984 59.6621 220.145L56.8848 222.98V224ZM67.5312 224.211C69.541 224.211 70.7598 222.506 70.7598 219.775V219.764C70.7598 217.033 69.541 215.334 67.5312 215.334C65.5215 215.334 64.3145 217.033 64.3145 219.764V219.775C64.3145 222.506 65.5215 224.211 67.5312 224.211ZM67.5312 222.986C66.4531 222.986 65.8379 221.779 65.8379 219.775V219.764C65.8379 217.76 66.4531 216.564 67.5312 216.564C68.6094 216.564 69.2363 217.76 69.2363 219.764V219.775C69.2363 221.779 68.6094 222.986 67.5312 222.986Z" fill="white"/>
<path d="M127.885 224H133.756V222.746H129.93V222.623L131.623 220.982C133.164 219.5 133.627 218.738 133.627 217.777V217.76C133.627 216.336 132.443 215.334 130.797 215.334C129.033 215.334 127.803 216.436 127.803 218.012L127.809 218.029L129.215 218.035L129.221 218.012C129.221 217.139 129.824 216.547 130.721 216.547C131.6 216.547 132.133 217.109 132.133 217.889V217.906C132.133 218.557 131.811 218.984 130.662 220.145L127.885 222.98V224ZM138.531 224.211C140.541 224.211 141.76 222.506 141.76 219.775V219.764C141.76 217.033 140.541 215.334 138.531 215.334C136.521 215.334 135.314 217.033 135.314 219.764V219.775C135.314 222.506 136.521 224.211 138.531 224.211ZM138.531 222.986C137.453 222.986 136.838 221.779 136.838 219.775V219.764C136.838 217.76 137.453 216.564 138.531 216.564C139.609 216.564 140.236 217.76 140.236 219.764V219.775C140.236 221.779 139.609 222.986 138.531 222.986Z" fill="white"/>
<path d="M225.885 224H231.756V222.746H227.93V222.623L229.623 220.982C231.164 219.5 231.627 218.738 231.627 217.777V217.76C231.627 216.336 230.443 215.334 228.797 215.334C227.033 215.334 225.803 216.436 225.803 218.012L225.809 218.029L227.215 218.035L227.221 218.012C227.221 217.139 227.824 216.547 228.721 216.547C229.6 216.547 230.133 217.109 230.133 217.889V217.906C230.133 218.557 229.811 218.984 228.662 220.145L225.885 222.98V224ZM236.531 224.211C238.541 224.211 239.76 222.506 239.76 219.775V219.764C239.76 217.033 238.541 215.334 236.531 215.334C234.521 215.334 233.314 217.033 233.314 219.764V219.775C233.314 222.506 234.521 224.211 236.531 224.211ZM236.531 222.986C235.453 222.986 234.838 221.779 234.838 219.775V219.764C234.838 217.76 235.453 216.564 236.531 216.564C237.609 216.564 238.236 217.76 238.236 219.764V219.775C238.236 221.779 237.609 222.986 236.531 222.986Z" fill="white"/>
<path d="M329.885 224H335.756V222.746H331.93V222.623L333.623 220.982C335.164 219.5 335.627 218.738 335.627 217.777V217.76C335.627 216.336 334.443 215.334 332.797 215.334C331.033 215.334 329.803 216.436 329.803 218.012L329.809 218.029L331.215 218.035L331.221 218.012C331.221 217.139 331.824 216.547 332.721 216.547C333.6 216.547 334.133 217.109 334.133 217.889V217.906C334.133 218.557 333.811 218.984 332.662 220.145L329.885 222.98V224ZM340.531 224.211C342.541 224.211 343.76 222.506 343.76 219.775V219.764C343.76 217.033 342.541 215.334 340.531 215.334C338.521 215.334 337.314 217.033 337.314 219.764V219.775C337.314 222.506 338.521 224.211 340.531 224.211ZM340.531 222.986C339.453 222.986 338.838 221.779 338.838 219.775V219.764C338.838 217.76 339.453 216.564 340.531 216.564C341.609 216.564 342.236 217.76 342.236 219.764V219.775C342.236 221.779 341.609 222.986 340.531 222.986Z" fill="white"/>
<path d="M381.885 224H387.756V222.746H383.93V222.623L385.623 220.982C387.164 219.5 387.627 218.738 387.627 217.777V217.76C387.627 216.336 386.443 215.334 384.797 215.334C383.033 215.334 381.803 216.436 381.803 218.012L381.809 218.029L383.215 218.035L383.221 218.012C383.221 217.139 383.824 216.547 384.721 216.547C385.6 216.547 386.133 217.109 386.133 217.889V217.906C386.133 218.557 385.811 218.984 384.662 220.145L381.885 222.98V224ZM392.531 224.211C394.541 224.211 395.76 222.506 395.76 219.775V219.764C395.76 217.033 394.541 215.334 392.531 215.334C390.521 215.334 389.314 217.033 389.314 219.764V219.775C389.314 222.506 390.521 224.211 392.531 224.211ZM392.531 222.986C391.453 222.986 390.838 221.779 390.838 219.775V219.764C390.838 217.76 391.453 216.564 392.531 216.564C393.609 216.564 394.236 217.76 394.236 219.764V219.775C394.236 221.779 393.609 222.986 392.531 222.986Z" fill="white"/>
<path d="M326.043 42H327.555V38.8184H329.23L330.889 42H332.617L330.771 38.5898C331.773 38.2266 332.365 37.3008 332.365 36.1816V36.1699C332.365 34.5586 331.275 33.5449 329.459 33.5449H326.043V42ZM327.555 37.6582V34.7695H329.271C330.232 34.7695 330.812 35.3203 330.812 36.2051V36.2168C330.812 37.125 330.256 37.6582 329.301 37.6582H327.555ZM336.109 42H337.621V33.5449H336.115L333.906 35.0977V36.5215L336.01 35.0332H336.109V42ZM343.07 42.2109C345.08 42.2109 346.299 40.5059 346.299 37.7754V37.7637C346.299 35.0332 345.08 33.334 343.07 33.334C341.061 33.334 339.854 35.0332 339.854 37.7637V37.7754C339.854 40.5059 341.061 42.2109 343.07 42.2109ZM343.07 40.9863C341.992 40.9863 341.377 39.7793 341.377 37.7754V37.7637C341.377 35.7598 341.992 34.5645 343.07 34.5645C344.148 34.5645 344.775 35.7598 344.775 37.7637V37.7754C344.775 39.7793 344.148 40.9863 343.07 40.9863Z" fill="white"/>
<path d="M128.043 42H133.434V40.7285H129.555V33.5449H128.043V42ZM134.904 42H140.775V40.7461H136.949V40.623L138.643 38.9824C140.184 37.5 140.646 36.7383 140.646 35.7773V35.7598C140.646 34.3359 139.463 33.334 137.816 33.334C136.053 33.334 134.822 34.4355 134.822 36.0117L134.828 36.0293L136.234 36.0352L136.24 36.0117C136.24 35.1387 136.844 34.5469 137.74 34.5469C138.619 34.5469 139.152 35.1094 139.152 35.8887V35.9062C139.152 36.5566 138.83 36.9844 137.682 38.1445L134.904 40.9805V42Z" fill="white"/>
<path d="M129.953 133H131.465V124.545H129.959L127.75 126.098V127.521L129.854 126.033H129.953V133ZM136.973 133.17C138.918 133.17 140.271 132.162 140.271 130.715V130.703C140.271 129.619 139.486 128.781 138.355 128.553V128.518C139.322 128.26 139.967 127.551 139.967 126.643V126.631C139.967 125.33 138.725 124.375 136.973 124.375C135.221 124.375 133.979 125.33 133.979 126.631V126.643C133.979 127.551 134.623 128.26 135.59 128.518V128.553C134.465 128.781 133.674 129.619 133.674 130.703V130.715C133.674 132.162 135.027 133.17 136.973 133.17ZM136.973 128.037C136.088 128.037 135.473 127.521 135.473 126.783V126.771C135.473 126.033 136.088 125.518 136.973 125.518C137.857 125.518 138.473 126.033 138.473 126.771V126.783C138.473 127.521 137.857 128.037 136.973 128.037ZM136.973 132.016C135.959 132.016 135.238 131.43 135.238 130.615V130.604C135.238 129.783 135.947 129.191 136.973 129.191C137.992 129.191 138.707 129.783 138.707 130.604V130.615C138.707 131.43 137.986 132.016 136.973 132.016Z" fill="white"/>
<path d="M331.953 133H333.465V124.545H331.959L329.75 126.098V127.521L331.854 126.033H331.953V133ZM338.973 133.17C340.918 133.17 342.271 132.162 342.271 130.715V130.703C342.271 129.619 341.486 128.781 340.355 128.553V128.518C341.322 128.26 341.967 127.551 341.967 126.643V126.631C341.967 125.33 340.725 124.375 338.973 124.375C337.221 124.375 335.979 125.33 335.979 126.631V126.643C335.979 127.551 336.623 128.26 337.59 128.518V128.553C336.465 128.781 335.674 129.619 335.674 130.703V130.715C335.674 132.162 337.027 133.17 338.973 133.17ZM338.973 128.037C338.088 128.037 337.473 127.521 337.473 126.783V126.771C337.473 126.033 338.088 125.518 338.973 125.518C339.857 125.518 340.473 126.033 340.473 126.771V126.783C340.473 127.521 339.857 128.037 338.973 128.037ZM338.973 132.016C337.959 132.016 337.238 131.43 337.238 130.615V130.604C337.238 129.783 337.947 129.191 338.973 129.191C339.992 129.191 340.707 129.783 340.707 130.604V130.615C340.707 131.43 339.986 132.016 338.973 132.016Z" fill="white"/>
<path d="M382.043 42H387.434V40.7285H383.555V33.5449H382.043V42ZM388.904 42H394.775V40.7461H390.949V40.623L392.643 38.9824C394.184 37.5 394.646 36.7383 394.646 35.7773V35.7598C394.646 34.3359 393.463 33.334 391.816 33.334C390.053 33.334 388.822 34.4355 388.822 36.0117L388.828 36.0293L390.234 36.0352L390.24 36.0117C390.24 35.1387 390.844 34.5469 391.74 34.5469C392.619 34.5469 393.152 35.1094 393.152 35.8887V35.9062C393.152 36.5566 392.83 36.9844 391.682 38.1445L388.904 40.9805V42Z" fill="white"/>
<path d="M222.043 42H227.434V40.7285H223.555V33.5449H222.043V42ZM230.258 42H231.77V33.5449H230.264L228.055 35.0977V36.5215L230.158 35.0332H230.258V42ZM234.119 42H239.99V40.7461H236.164V40.623L237.857 38.9824C239.398 37.5 239.861 36.7383 239.861 35.7773V35.7598C239.861 34.3359 238.678 33.334 237.031 33.334C235.268 33.334 234.037 34.4355 234.037 36.0117L234.043 36.0293L235.449 36.0352L235.455 36.0117C235.455 35.1387 236.059 34.5469 236.955 34.5469C237.834 34.5469 238.367 35.1094 238.367 35.8887V35.9062C238.367 36.5566 238.045 36.9844 236.896 38.1445L234.119 40.9805V42Z" fill="white"/>
<rect x="28" y="256" width="16" height="2" rx="0.5" fill="#D83755"/>
<rect x="90" y="256" width="16" height="2" rx="0.5" fill="#D83755"/>
<rect x="152" y="256" width="16" height="2" rx="0.5" fill="#D83755"/>
<rect x="214" y="256" width="16" height="2" rx="0.5" fill="#D83755"/>
<rect x="276" y="256" width="16" height="2" rx="0.5" fill="#D83755"/>
<rect x="359" y="256" width="16" height="2" rx="0.5" fill="#D83755"/>
<rect x="49" y="256" width="16" height="2" rx="0.5" fill="#D83755"/>
<rect x="111" y="256" width="16" height="2" rx="0.5" fill="#D83755"/>
<rect x="173" y="256" width="16" height="2" rx="0.5" fill="#D83755"/>
<rect x="235" y="256" width="16" height="2" rx="0.5" fill="#D83755"/>
<rect x="297" y="256" width="16" height="2" rx="0.5" fill="#D83755"/>
<rect x="380" y="256" width="16" height="2" rx="0.5" fill="#D83755"/>
<rect x="69" y="256" width="16" height="2" rx="0.5" fill="#D83755"/>
<rect x="131" y="256" width="16" height="2" rx="0.5" fill="#D83755"/>
<rect x="193" y="256" width="16" height="2" rx="0.5" fill="#D83755"/>
<rect x="256" y="256" width="16" height="2" rx="0.5" fill="#D83755"/>
<rect x="338" y="256" width="16" height="2" rx="0.5" fill="#D83755"/>
<rect x="318" y="256" width="16" height="2" rx="0.5" fill="#D83755"/>
<rect x="400" y="256" width="16" height="2" rx="0.5" fill="#D83755"/>
<rect x="421" y="256" width="16" height="2" rx="0.5" fill="#D83755"/>
</svg>
