<svg id="trondelag_logo" data-name="trondelag logo"
	xmlns="http://www.w3.org/2000/svg" viewBox="0 0 1920.04 588.9">
	<defs>
		<style>.cls-1{fill:#00252c;}</style>
	</defs>
	<path class="cls-1" d="M623.19,245.68V79.09H589.11V54.83h95.45v24.3H650.48V245.68Zm68.08,0V109.34h27.25v18a41.46,41.46,0,0,1,12.1-14.12,28.5,28.5,0,0,1,17.61-6l4.37.43v30.14a41.28,41.28,0,0,0-15.12-3A18.85,18.85,0,0,0,723.72,140a18,18,0,0,0-5.23,13.54v92.19Zm89.27,23.64-8-2.74,9-25.45Q765.27,230.66,765.27,198v-40.9a88.64,88.64,0,0,1,2.13-20.54A44.88,44.88,0,0,1,774.22,121,29.28,29.28,0,0,1,787,110.93a48.39,48.39,0,0,1,19.24-3.61A49.59,49.59,0,0,1,827,111.58l8.74-24.84L845,89.85l-9.78,27.36q11.91,11.91,11.91,39.71v41q0,24.07-9.49,36.86t-31.4,12.77A48.15,48.15,0,0,1,789.38,245Zm11.91-60.49,25.27-71.26A11.44,11.44,0,0,0,806.1,130a13.86,13.86,0,0,0-5.06.87,12.66,12.66,0,0,0-3.61,2.09,9,9,0,0,0-2.38,3.61c-.65,1.59-1.12,3-1.48,4.19a25.68,25.68,0,0,0-.76,5.23c0,2.28-.21,4.08-.25,5.38s0,3.29,0,5.92Zm13.65,16.38a13.83,13.83,0,0,0,5-.86,12.69,12.69,0,0,0,3.61-2.1,9,9,0,0,0,2.38-3.61,37.29,37.29,0,0,0,1.48-4.18,25.1,25.1,0,0,0,.8-5.09c0-2.28.21-4.08.25-5.38s0-3.29,0-5.92v-37.9L797.4,222.25a12.84,12.84,0,0,0,8.7,3Zm67,20.47V109.34h27.26V124q6.06-5.52,9.89-8.48A43.55,43.55,0,0,1,920.85,110a39.59,39.59,0,0,1,14.44-2.6,17.7,17.7,0,0,1,14.08,6.39,23.28,23.28,0,0,1,5.41,15.66v116.2H927.71V143.45a20.27,20.27,0,0,0-2-10.39,8.94,8.94,0,0,0-8.2-3.25,17.92,17.92,0,0,0-7,1.44,27.13,27.13,0,0,0-5.16,2.67q-1.7,1.23-4.91,3.9V245.68Zm137.65,1.91a25.46,25.46,0,0,1-15.82-5.12,32.87,32.87,0,0,1-10.43-13.86A90.37,90.37,0,0,1,979,210.56a134.29,134.29,0,0,1-2.24-20.29q-.22-5,0-24.51.21-7,.65-12.71t1.44-11.87a74.43,74.43,0,0,1,2.56-10.83,47.8,47.8,0,0,1,4.05-9.31,27.23,27.23,0,0,1,5.95-7.22,26.4,26.4,0,0,1,8.2-4.59,31.63,31.63,0,0,1,10.83-1.69,28.8,28.8,0,0,1,8.55,1.22,25.87,25.87,0,0,1,7.62,3.83,64.31,64.31,0,0,1,5.81,4.62q2.16,2,5.7,5.77V54.9h27.26V245.68h-27.26V233.34a64.57,64.57,0,0,1-13,10.32A27.36,27.36,0,0,1,1010.74,247.59Zm6.82-22.38A54.39,54.39,0,0,0,1038,221V135.22a39.33,39.33,0,0,0-20.62-5.27,11.52,11.52,0,0,0-6.82,2,11.79,11.79,0,0,0-4.15,5.74,41.88,41.88,0,0,0-2,7.79,69.17,69.17,0,0,0-.76,9.43q-.43,23.85,0,37.79a117.6,117.6,0,0,0,.76,12.16,63,63,0,0,0,2.09,10.29,16.9,16.9,0,0,0,4.23,7.44,9.28,9.28,0,0,0,6.67,2.67Zm111.58,22.38A40.16,40.16,0,0,1,1112,244.2a31.27,31.27,0,0,1-11.62-8.88,43.35,43.35,0,0,1-7-14,96.33,96.33,0,0,1-3.61-17.15q-1-8.59-1.22-20-.33-9,0-18a181.25,181.25,0,0,1,1.44-18.91,79,79,0,0,1,3.79-15.92,38.72,38.72,0,0,1,7.22-12.78,31.59,31.59,0,0,1,11.62-8.05,43.07,43.07,0,0,1,16.79-3,47,47,0,0,1,15.38,2.31,27.25,27.25,0,0,1,11.08,6.93,45.3,45.3,0,0,1,7.22,10.29,49.12,49.12,0,0,1,4.51,13.82,147.73,147.73,0,0,1,2.09,15.81q.58,7.77.58,18v3.21h-54.54V197.2s.21,5.56.36,8.27a39,39,0,0,0,1.15,7.51,33.36,33.36,0,0,0,2.35,6.42,10.51,10.51,0,0,0,9.78,6,13.59,13.59,0,0,0,7-1.66,9.82,9.82,0,0,0,4.12-4.95,31.47,31.47,0,0,0,1.87-6.6,60.83,60.83,0,0,0,.65-8.31V198h27v5.45q-1,21.66-10.83,33T1129.14,247.59Zm-13.43-83.71h27v-8.19a83.73,83.73,0,0,0-.65-9.49,44.79,44.79,0,0,0-1.87-8.09,12.47,12.47,0,0,0-4.12-6.17,12,12,0,0,0-13.79,0,12.94,12.94,0,0,0-4.15,6.46,48.67,48.67,0,0,0-1.88,8.26,87.08,87.08,0,0,0-.64,9.68Zm75.51,81.8V54.83h27.26V245.68Zm76.31,1.91a24,24,0,0,1-19.34-9.85,34.49,34.49,0,0,1-8-22.2,46.47,46.47,0,0,1,3.36-18,57.55,57.55,0,0,1,7.22-13,44.29,44.29,0,0,1,12.45-10,130.1,130.1,0,0,1,13.22-7.22Q1281,165.4,1292,161l2.89-1.19v-9.6a36,36,0,0,0-2.89-16,12.92,12.92,0,0,0-20.82-.87,27.63,27.63,0,0,0-3.61,13.36v3.61h-27.26a44.87,44.87,0,0,1,10.83-31.19q10.83-11.62,29.93-11.62a38.89,38.89,0,0,1,30.07,11.62,43.88,43.88,0,0,1,10.83,31v61.36a132.54,132.54,0,0,0,3.61,34.08h-27.19l-3.61-20.47q-2.13,4.26-3.61,6.61a61.25,61.25,0,0,1-3.89,5.81,24.52,24.52,0,0,1-5.13,5.34,25,25,0,0,1-6.39,3.25,24.52,24.52,0,0,1-8.27,1.44Zm13.65-22.38a10.28,10.28,0,0,0,5.59-1.69,17.88,17.88,0,0,0,4.08-3.32q1.38-1.59,3.4-4.26a4,4,0,0,1,.54-.76V177.53q-1.69,1.16-5.63,3.61t-6.28,4a68.18,68.18,0,0,0-5.64,4.25,29,29,0,0,0-5.12,5.2,26.81,26.81,0,0,0-3.21,6.14,20.93,20.93,0,0,0-1.38,7.54q0,17,13.65,17Zm109.19,61.26h-8.3l-8.73-.25a79.93,79.93,0,0,1-9.28-.8q-3.61-.57-8.52-1.48a32.32,32.32,0,0,1-7.94-2.38,41.81,41.81,0,0,1-6-3.61,13.06,13.06,0,0,1-4.3-4.94,14.52,14.52,0,0,1-1.44-6.54,29.41,29.41,0,0,1,5.7-18.05,40.79,40.79,0,0,1,14.77-12,27.81,27.81,0,0,1-9.6-4.54,9,9,0,0,1-4-7.22,19,19,0,0,1,.44-3.83c.26-1.22.59-2.42,1-3.61a22.86,22.86,0,0,1,1.7-3.61l1.87-3.36a36.92,36.92,0,0,1,2.32-3.39l2.16-3c.4-.54,1.16-1.48,2.31-2.88s1.77-2.17,1.91-2.39a61.37,61.37,0,0,1-13.5-41.51,67,67,0,0,1,4.48-25.27,39.27,39.27,0,0,1,13.57-17.69,38.13,38.13,0,0,1,22.53-6.64,37.38,37.38,0,0,1,13.21,2.13,28.59,28.59,0,0,1,9.2,5.38,42.81,42.81,0,0,1,7,8.56q8.09-15,23-16h2.13V130h-8.63a24.57,24.57,0,0,0-5.24.9,10.29,10.29,0,0,0-4.58,2.49,53,53,0,0,1,3.36,11,62.13,62.13,0,0,1,1.44,12.75,68.51,68.51,0,0,1-4.3,25.27A37.88,37.88,0,0,1,1406.22,200a38.83,38.83,0,0,1-22.85,6.6L1369.62,205a12.91,12.91,0,0,1-1.08,1.88c-.58.9-1,1.62-1.34,2.2a12.11,12.11,0,0,0-.9,2.17,8.41,8.41,0,0,0-.44,2.49,5.63,5.63,0,0,0,2.68,4.69,18.8,18.8,0,0,0,7.22,2.82c3.12.6,6.12,1,9,1.33s6.08.52,9.64.69,6,.38,7.22.58q6.06.85,10.83,2a58.77,58.77,0,0,1,9.67,3.25,27.77,27.77,0,0,1,8.16,5.13,23.05,23.05,0,0,1,5.74,7.68,26.34,26.34,0,0,1,2.1,10.83,32.53,32.53,0,0,1-2.6,13.32,27.69,27.69,0,0,1-7,9.71,36.71,36.71,0,0,1-10.54,6.36,58.62,58.62,0,0,1-13,3.61A95.21,95.21,0,0,1,1390.37,286.47Zm0-20.14h5.17s3.28-.22,5.27-.43a26.63,26.63,0,0,0,5.16-1,25.21,25.21,0,0,0,4.15-1.76,8,8,0,0,0,3-2.82,7.61,7.61,0,0,0,1.09-4q0-11.4-21.66-14l-22.49-2.67a23.83,23.83,0,0,0-7.22,8.63,25.28,25.28,0,0,0-2.93,11.84,4.08,4.08,0,0,0,1.16,2.92,7.4,7.4,0,0,0,3.61,1.88c1.52.43,3.08.79,4.69,1.08a42,42,0,0,0,5.71.54h11.11ZM1383.55,186q17,0,17-28.88a72.75,72.75,0,0,0-.76-10.83,46.28,46.28,0,0,0-2.56-9.67,16.66,16.66,0,0,0-5.34-7.47,13.3,13.3,0,0,0-8.41-2.71,13.46,13.46,0,0,0-8.52,2.71,16.29,16.29,0,0,0-5.27,7.47,48.21,48.21,0,0,0-2.49,9.67,71.44,71.44,0,0,0-.76,10.83q0,28.92,17.07,28.92ZM604,495V379H590.34V358.67H604v-5.24a140.54,140.54,0,0,1,.65-14.65,50.86,50.86,0,0,1,2.6-11.63,21.14,21.14,0,0,1,14.43-14.44,40.65,40.65,0,0,1,13.36-2A141.12,141.12,0,0,1,651.85,312v20.47l-4.37-.58a38.81,38.81,0,0,0-4.94-.5,9.21,9.21,0,0,0-9,4.33,28.54,28.54,0,0,0-2.23,12.74v10.22h20.46V379H631.28V494.9Zm63.82,34.07V508.62a62.63,62.63,0,0,0,13-1.09,13.37,13.37,0,0,0,7.22-3.61,12.9,12.9,0,0,0,3.14-5.95,45.93,45.93,0,0,0,.68-9l-30.9-130.17h27.26q15.87,87.65,17.14,95.44,2.24-14.43,5.06-30.28t6.39-35.16q3.6-19.24,5.48-30H749.5l-34.12,143a30.6,30.6,0,0,1-14.44,21q-10.82,6.21-30.57,6.25ZM762.2,495V304.12h27.26V495Zm51.55,0V304.12h27.33V409l34.07-50.53h27.29L871.87,406.1,902.44,495H875.19l-20.47-65.95-13.64,18.05v47.72ZM953,496.92a40.27,40.27,0,0,1-17.18-3.39,31.22,31.22,0,0,1-11.63-8.88,43.52,43.52,0,0,1-7-14,95,95,0,0,1-3.61-17.15q-1-8.59-1.23-20-.33-9,0-18.05a187.07,187.07,0,0,1,1.44-18.92,80.22,80.22,0,0,1,3.9-16,38.62,38.62,0,0,1,7.22-12.78,31.59,31.59,0,0,1,11.62-8.05,42.71,42.71,0,0,1,16.79-3A47,47,0,0,1,968.72,359a27.25,27.25,0,0,1,11.08,6.93A44.63,44.63,0,0,1,987,376.17a49.22,49.22,0,0,1,4.44,13.69,147.06,147.06,0,0,1,2.09,15.81q.59,7.75.58,18v3.22H939.44v19.35s.22,5.55.36,8.26a38.81,38.81,0,0,0,1.16,7.73,33.33,33.33,0,0,0,2.34,6.42,10.52,10.52,0,0,0,9.79,6,13.5,13.5,0,0,0,7.11-1.77,9.75,9.75,0,0,0,4.11-4.95,30.9,30.9,0,0,0,1.88-6.6,62.44,62.44,0,0,0,.65-8.3v-5.74h27v5.45q-1,21.66-10.83,33T953,496.92Zm-13.43-83.71h27V405a86.12,86.12,0,0,0-.65-9.5,44.71,44.71,0,0,0-1.88-8.08,12.52,12.52,0,0,0-4.11-6.18,12,12,0,0,0-13.79,0,12.88,12.88,0,0,0-4.15,6.47,47.73,47.73,0,0,0-1.88,8.26,86.93,86.93,0,0,0-.65,9.68Zm109.92,83.71a36.81,36.81,0,0,1-27-10,52,52,0,0,1-13.9-26l20.47-6.82q7.21,20.46,20.46,20.47a12.42,12.42,0,0,0,13.65-13.65,20.52,20.52,0,0,0-6.82-15.77l-27.26-20.47a78.54,78.54,0,0,1-7.65-5.81,56.32,56.32,0,0,1-6.28-6.64,28.3,28.3,0,0,1-4.84-8.85,33.16,33.16,0,0,1-1.66-10.83q0-17.47,11.12-26.75a45.13,45.13,0,0,1,29.78-9.27,43.2,43.2,0,0,1,16,2.81,33.23,33.23,0,0,1,12,7.94,47.46,47.46,0,0,1,8,11.34,62.9,62.9,0,0,1,5,13.9L1070,399.35a65,65,0,0,0-3-7,47.81,47.81,0,0,0-4-6.32,18.14,18.14,0,0,0-5.92-5.27,15.45,15.45,0,0,0-7.58-1.87A12.43,12.43,0,0,0,1036,392.74a14.43,14.43,0,0,0,6.83,11.52l27.25,20.47a78.33,78.33,0,0,1,7.83,7,63.86,63.86,0,0,1,6.36,7.76,33.75,33.75,0,0,1,4.69,9.86,40.89,40.89,0,0,1,1.59,11.59q0,17.46-11.12,26.74a45.11,45.11,0,0,1-30,9.28ZM1107,495V304.12h27.25V409l34.08-50.53h27.25L1165,406.1l30.57,88.73h-27.25l-20.43-65.77-13.65,18.05v47.72Zm170.31-10.87q-9.49,12.78-31.41,12.78t-31.4-12.78q-9.49-12.78-9.5-36.85v-40.9q0-24.08,9.5-36.86t31.4-12.78q21.94,0,31.41,12.78t9.49,36.86v40.9Q1286.78,471.36,1277.32,484.14Zm-36.5-10.43a15.37,15.37,0,0,0,10.11,0,12.66,12.66,0,0,0,3.61-2.09,8.94,8.94,0,0,0,2.38-3.61,40.3,40.3,0,0,0,1.48-4.19,25,25,0,0,0,.76-5.23c0-2.28.22-4.08.25-5.38s0-3.29,0-5.92V400.47s0-3.11-.25-5.38a24.91,24.91,0,0,0-.76-5.23c-.36-1.2-.86-2.6-1.48-4.19a8.94,8.94,0,0,0-2.38-3.61,12.46,12.46,0,0,0-3.61-2.1,15.5,15.5,0,0,0-10.11,0,12.46,12.46,0,0,0-3.61,2.1,8.94,8.94,0,0,0-2.38,3.61c-.65,1.59-1.12,3-1.48,4.19a24.91,24.91,0,0,0-.76,5.23c0,2.27-.21,4.08-.25,5.38s0,3.28,0,5.92v46.82s0,3.1.25,5.38a25,25,0,0,0,.76,5.23c.36,1.2.85,2.6,1.48,4.19a8.94,8.94,0,0,0,2.38,3.61,12.31,12.31,0,0,0,3.61,2.05Zm68.33,21.3V358.67h27.26v15.45q14.43-17.37,34-17.37a20.43,20.43,0,0,1,14.44,4.3,23.87,23.87,0,0,1,6.17,13.68,51.23,51.23,0,0,1,14.44-13.43,38.22,38.22,0,0,1,19.6-4.58,24.92,24.92,0,0,1,6.14.68,27.26,27.26,0,0,1,4.72,1.66,9.89,9.89,0,0,1,3.61,2.93,38.08,38.08,0,0,1,2.57,3.61,15.83,15.83,0,0,1,1.69,4.73c.46,2.07.8,3.77,1,5.12s.4,3.34.55,6,.21,4.68.21,6.17V494.94h-27.25V388.45a25.63,25.63,0,0,0-.69-4.44,6.28,6.28,0,0,0-2.09-3.61,6.16,6.16,0,0,0-4.08-1.37,22.07,22.07,0,0,0-8.3,1.66,33.82,33.82,0,0,0-6.46,3.21c-1.52,1-3.42,2.47-5.71,4.29V494.94H1363.7V389.64a28.27,28.27,0,0,0-.36-3.9,11.92,11.92,0,0,0-1-3.61,6.74,6.74,0,0,0-2-2.13,5.93,5.93,0,0,0-3.4-.94,32.51,32.51,0,0,0-20.47,8.63V495Zm160,0V358.67h27.25v15.45q14.44-17.37,34-17.37a20.5,20.5,0,0,1,14.44,4.3,23.87,23.87,0,0,1,6.17,13.68,51.23,51.23,0,0,1,14.44-13.43,38.24,38.24,0,0,1,19.6-4.58,24.87,24.87,0,0,1,6.14.68,26.85,26.85,0,0,1,4.76,1.66,10,10,0,0,1,3.61,2.93,35.14,35.14,0,0,1,2.56,3.61,16.23,16.23,0,0,1,1.7,4.73c.47,2.05.79,3.61,1,5.12s.4,3.32.54,6,.22,4.69.22,6.17V494.94h-27.25V388.45a25.48,25.48,0,0,0-.69-4.44,5.56,5.56,0,0,0-6-4.84,22.26,22.26,0,0,0-8.3,1.66,34.42,34.42,0,0,0-6.46,3.21c-1.52,1-3.43,2.46-5.71,4.3V495.08H1523.9V389.64a28.27,28.27,0,0,0-.36-3.9,11.64,11.64,0,0,0-1-3.61,6.43,6.43,0,0,0-2-2.13,5.93,5.93,0,0,0-3.4-.94,32.46,32.46,0,0,0-20.46,8.63V495Zm179.87,1.91a18.06,18.06,0,0,1-14.44-6.35,23.28,23.28,0,0,1-5.41-15.7V358.67h27.25V466.56a9.46,9.46,0,0,0,2.6,6.93,9,9,0,0,0,6.75,2.67,17.91,17.91,0,0,0,4.37-.54,14.09,14.09,0,0,0,4.19-1.87l3.24-2.13a36.52,36.52,0,0,0,3.36-2.71l2.71-2.35V358.67H1711V495h-27.25V480.32l-5.92,5.12c-1.23,1.08-3.14,2.49-5.71,4.3a36.37,36.37,0,0,1-6.75,3.93,46.42,46.42,0,0,1-7.22,2.24,39.5,39.5,0,0,1-9.13,1Zm85.62-1.91V358.67h27.26v14.69q6.1-5.52,9.92-8.48a43.81,43.81,0,0,1,10.62-5.53,40,40,0,0,1,14.44-2.6,17.72,17.72,0,0,1,14.18,6.39,23.38,23.38,0,0,1,5.42,15.67V495h-27.26V392.74a20.27,20.27,0,0,0-2-10.39,9,9,0,0,0-8.19-3.25,18,18,0,0,0-7,1.44,27.13,27.13,0,0,0-5.16,2.67c-1.16.82-2.79,2.12-4.91,3.9V495Zm144.21,1.91a40.28,40.28,0,0,1-17.21-3.39,31.22,31.22,0,0,1-11.63-8.88,43.32,43.32,0,0,1-7-14,95,95,0,0,1-3.61-17.15q-1-8.59-1.23-20-.29-9,0-18.05a187.07,187.07,0,0,1,1.44-18.92,79.54,79.54,0,0,1,3.9-16,38.62,38.62,0,0,1,7.22-12.78,31.59,31.59,0,0,1,11.62-8.05,42.71,42.71,0,0,1,16.79-3,47.12,47.12,0,0,1,15.41,2.31,27.29,27.29,0,0,1,11.09,6.93,44.89,44.89,0,0,1,7.21,10.28,48.89,48.89,0,0,1,4.44,13.69,147.08,147.08,0,0,1,2.1,15.81q.57,7.75.58,18v3.22h-54.58v19.35s.21,5.55.36,8.26a38.14,38.14,0,0,0,1.19,7.73,32.45,32.45,0,0,0,2.34,6.42,10.52,10.52,0,0,0,9.79,6,13.58,13.58,0,0,0,7.22-1.66,9.93,9.93,0,0,0,4.11-4.95,30.9,30.9,0,0,0,1.88-6.6,64.13,64.13,0,0,0,.61-8.31v-5.74H1920v5.46q-1,21.64-10.83,33T1878.88,496.92Zm-13.42-83.71h27.07V405a88.63,88.63,0,0,0-.65-9.5,44.81,44.81,0,0,0-1.84-8.08,12.47,12.47,0,0,0-4.12-6.18,12,12,0,0,0-13.79,0,13,13,0,0,0-4.15,6.47,48.57,48.57,0,0,0-1.84,8.26,86.93,86.93,0,0,0-.65,9.68Z"/>
	<path class="cls-1" d="M0,0V105.37C0,288.78,40.21,440.72,236.48,586.48l3.24,2.42,3.25-2.42C439.2,440.72,479.41,288.78,479.41,105.37V0ZM265.07,255.21h85.87A311.89,311.89,0,0,1,452,270.52h.36C428.05,376.86,373,463.75,279.11,543.78c-4.62-10.22-14-37.55-14-90Zm-136.42,0h85.88V453.75c0,52.2-9.5,79.7-14.12,90C106.56,463.78,51.4,377,27.15,270.7A308.23,308.23,0,0,1,128.65,255.21Zm-12.92-50.54A302.13,302.13,0,0,1,14.44,188.29c-2.46-25.6-3.61-52.71-3.61-82.92V10.83H193.59c20.94,52.59,20.94,88.69,20.94,134.39v59.45ZM270.48,551.21c-10,8.23-20.32,16.39-30.79,24.22-10.47-7.83-20.76-15.95-30.68-24.15,5.19-10.25,16.35-39,16.35-97.24V244.35H128.65A321.84,321.84,0,0,0,24.73,260.23a573.68,573.68,0,0,1-9.28-60.1,313.14,313.14,0,0,0,100.32,15.45H225.39V145.26c0-44,0-82-20.1-134.36h68.84C254,63.28,254,101.15,254,145.29v70.29H363.68A312.66,312.66,0,0,0,464,200.05c-2.2,20.83-5.31,41-9.24,59.93a321.17,321.17,0,0,0-103.82-15.63H254.2V453.93c0,58.08,11.12,86.92,16.28,97.17ZM468.55,10.83v94.54c0,30.21-1.12,57.32-3.4,83a301.88,301.88,0,0,1-101.47,16.43h-98.8V145.29c0-45.7,0-81.83,20.94-134.39Z"/>
</svg>