<svg width="344" height="212" viewBox="0 0 344 212" fill="none" xmlns="http://www.w3.org/2000/svg">
<rect width="344" height="212" rx="2" fill="#00252C"/>
<rect x="8" y="8" width="104" height="196" rx="2" fill="#00323A"/>
<rect x="16" y="44" width="18" height="8" rx="1" fill="white" fill-opacity="0.23"/>
<rect x="16" y="96" width="18" height="8" rx="1" fill="white" fill-opacity="0.23"/>
<rect x="16" y="148" width="18" height="8" rx="1" fill="white" fill-opacity="0.23"/>
<rect x="39" y="44" width="18" height="8" rx="1" fill="white" fill-opacity="0.23"/>
<rect x="39" y="96" width="18" height="8" rx="1" fill="white" fill-opacity="0.23"/>
<rect x="39" y="148" width="18" height="8" rx="1" fill="white" fill-opacity="0.23"/>
<rect x="62" y="44" width="18" height="8" rx="1" fill="white" fill-opacity="0.23"/>
<rect x="62" y="96" width="18" height="8" rx="1" fill="white" fill-opacity="0.23"/>
<rect x="62" y="148" width="18" height="8" rx="1" fill="white" fill-opacity="0.23"/>
<rect x="85" y="44" width="18" height="8" rx="1" fill="white" fill-opacity="0.23"/>
<rect x="85" y="96" width="18" height="8" rx="1" fill="white" fill-opacity="0.23"/>
<rect x="85" y="148" width="18" height="8" rx="1" fill="white" fill-opacity="0.23"/>
<rect x="120" y="140" width="104" height="64" rx="2" fill="#00323A"/>
<rect x="128" y="176" width="18" height="8" rx="1" fill="white" fill-opacity="0.23"/>
<rect x="151" y="176" width="18" height="8" rx="1" fill="white" fill-opacity="0.23"/>
<rect x="174" y="176" width="18" height="8" rx="1" fill="white" fill-opacity="0.23"/>
<rect x="197" y="176" width="18" height="8" rx="1" fill="white" fill-opacity="0.23"/>
<path d="M155.943 166.17C157.818 166.17 159.102 165.133 159.102 163.645V163.633C159.102 162.461 158.275 161.723 157.033 161.605V161.576C158.047 161.365 158.803 160.668 158.803 159.619V159.607C158.803 158.283 157.672 157.375 155.932 157.375C154.227 157.375 153.072 158.336 152.943 159.801L152.938 159.865H154.344L154.35 159.807C154.426 159.051 155.041 158.576 155.932 158.576C156.834 158.576 157.355 159.033 157.355 159.807V159.818C157.355 160.557 156.734 161.084 155.803 161.084H154.836V162.209H155.832C156.916 162.209 157.572 162.701 157.572 163.592V163.604C157.572 164.389 156.922 164.934 155.943 164.934C154.953 164.934 154.291 164.424 154.209 163.709L154.203 163.645H152.762L152.768 163.715C152.879 165.162 154.092 166.17 155.943 166.17ZM164.094 166H167.709C169.514 166 170.615 165.086 170.615 163.604V163.592C170.615 162.496 169.83 161.676 168.693 161.57V161.465C169.543 161.33 170.199 160.545 170.199 159.66V159.648C170.199 158.354 169.232 157.545 167.627 157.545H164.094V166ZM167.258 158.723C168.172 158.723 168.705 159.162 168.705 159.912V159.924C168.705 160.691 168.137 161.107 167.064 161.107H165.605V158.723H167.258ZM167.305 162.18C168.459 162.18 169.068 162.631 169.068 163.486V163.498C169.068 164.359 168.477 164.822 167.363 164.822H165.605V162.18H167.305ZM173.855 166.105C174.699 166.105 175.379 165.742 175.73 165.121H175.83V166H177.271V161.623C177.271 160.27 176.346 159.473 174.699 159.473C173.176 159.473 172.145 160.188 172.004 161.266L171.998 161.318H173.375L173.381 161.295C173.527 160.873 173.961 160.633 174.629 160.633C175.414 160.633 175.83 160.984 175.83 161.623V162.174L174.184 162.273C172.625 162.367 171.752 163.035 171.752 164.178V164.189C171.752 165.355 172.637 166.105 173.855 166.105ZM173.193 164.119V164.107C173.193 163.58 173.574 163.281 174.389 163.229L175.83 163.135V163.65C175.83 164.412 175.18 164.986 174.301 164.986C173.656 164.986 173.193 164.664 173.193 164.119ZM179.023 166H180.482V162.268C180.482 161.307 181.021 160.697 181.889 160.697C182.773 160.697 183.178 161.201 183.178 162.197V166H184.637V161.857C184.637 160.334 183.857 159.473 182.428 159.473C181.502 159.473 180.887 159.889 180.582 160.574H180.482V159.596H179.023V166ZM189.102 166.129C190.842 166.129 191.697 165.127 191.902 164.301L191.92 164.248H190.531L190.514 164.289C190.373 164.582 189.922 164.98 189.131 164.98C188.141 164.98 187.52 164.312 187.502 163.164H191.979V162.684C191.979 160.75 190.854 159.473 189.031 159.473C187.209 159.473 186.043 160.791 186.043 162.807V162.812C186.043 164.852 187.197 166.129 189.102 166.129ZM189.049 160.615C189.863 160.615 190.455 161.137 190.555 162.186H187.514C187.625 161.166 188.234 160.615 189.049 160.615ZM193.438 166H194.896V162.268C194.896 161.307 195.436 160.697 196.303 160.697C197.188 160.697 197.592 161.201 197.592 162.197V166H199.051V161.857C199.051 160.334 198.271 159.473 196.842 159.473C195.916 159.473 195.301 159.889 194.996 160.574H194.896V159.596H193.438V166Z" fill="white"/>
<path fill-rule="evenodd" clip-rule="evenodd" d="M136 155C132.14 155 129 158.141 129 162C129 165.859 132.14 169 136 169C139.861 169 143 165.859 143 162C143 158.141 139.861 155 136 155ZM136 156C139.309 156 142 158.691 142 162C142 165.309 139.309 168 136 168C132.692 168 130 165.309 130 162C130 158.691 132.692 156 136 156ZM133.004 160.167V159H138.999V160.167H136.584V166H135.417V160.167H133.004Z" fill="#E28F27"/>
<rect x="120" y="8" width="104" height="124" rx="2" fill="#00323A"/>
<rect x="128" y="44" width="18" height="8" rx="1" fill="white" fill-opacity="0.23"/>
<rect x="128" y="96" width="18" height="8" rx="1" fill="white" fill-opacity="0.23"/>
<rect x="151" y="44" width="18" height="8" rx="1" fill="white" fill-opacity="0.23"/>
<rect x="151" y="96" width="18" height="8" rx="1" fill="white" fill-opacity="0.23"/>
<rect x="174" y="44" width="18" height="8" rx="1" fill="white" fill-opacity="0.23"/>
<rect x="174" y="96" width="18" height="8" rx="1" fill="white" fill-opacity="0.23"/>
<rect x="197" y="44" width="18" height="8" rx="1" fill="white" fill-opacity="0.23"/>
<rect x="197" y="96" width="18" height="8" rx="1" fill="white" fill-opacity="0.23"/>
<path d="M153.043 34H156.658C158.463 34 159.564 33.0859 159.564 31.6035V31.5918C159.564 30.4961 158.779 29.6758 157.643 29.5703V29.4648C158.492 29.3301 159.148 28.5449 159.148 27.6602V27.6484C159.148 26.3535 158.182 25.5449 156.576 25.5449H153.043V34ZM156.207 26.7227C157.121 26.7227 157.654 27.1621 157.654 27.9121V27.9238C157.654 28.6914 157.086 29.1074 156.014 29.1074H154.555V26.7227H156.207ZM156.254 30.1797C157.408 30.1797 158.018 30.6309 158.018 31.4863V31.498C158.018 32.3594 157.426 32.8223 156.312 32.8223H154.555V30.1797H156.254ZM163.121 34H164.633V25.5449H163.127L160.918 27.0977V28.5215L163.021 27.0332H163.121V34ZM170.34 34H173.955C175.76 34 176.861 33.0859 176.861 31.6035V31.5918C176.861 30.4961 176.076 29.6758 174.939 29.5703V29.4648C175.789 29.3301 176.445 28.5449 176.445 27.6602V27.6484C176.445 26.3535 175.479 25.5449 173.873 25.5449H170.34V34ZM173.504 26.7227C174.418 26.7227 174.951 27.1621 174.951 27.9121V27.9238C174.951 28.6914 174.383 29.1074 173.311 29.1074H171.852V26.7227H173.504ZM173.551 30.1797C174.705 30.1797 175.314 30.6309 175.314 31.4863V31.498C175.314 32.3594 174.723 32.8223 173.609 32.8223H171.852V30.1797H173.551ZM180.945 26.7285C181.719 26.7285 182.352 26.1309 182.352 25.375V25.3691C182.352 24.6133 181.719 24.0215 180.945 24.0215C180.166 24.0215 179.533 24.6133 179.533 25.3691V25.375C179.533 26.1309 180.166 26.7285 180.945 26.7285ZM180.945 26.0371C180.57 26.0371 180.266 25.7441 180.266 25.375V25.3691C180.266 25.0059 180.564 24.7188 180.945 24.7188C181.32 24.7188 181.625 25.0059 181.625 25.3691V25.375C181.625 25.7441 181.32 26.0371 180.945 26.0371ZM180.102 34.1055C180.945 34.1055 181.625 33.7422 181.977 33.1211H182.076V34H183.518V29.623C183.518 28.2695 182.592 27.4727 180.945 27.4727C179.422 27.4727 178.391 28.1875 178.25 29.2656L178.244 29.3184H179.621L179.627 29.2949C179.773 28.873 180.207 28.6328 180.875 28.6328C181.66 28.6328 182.076 28.9844 182.076 29.623V30.1738L180.43 30.2734C178.871 30.3672 177.998 31.0352 177.998 32.1777V32.1895C177.998 33.3555 178.883 34.1055 180.102 34.1055ZM179.439 32.1191V32.1074C179.439 31.5801 179.82 31.2812 180.635 31.2285L182.076 31.1348V31.6504C182.076 32.4121 181.426 32.9863 180.547 32.9863C179.902 32.9863 179.439 32.6641 179.439 32.1191ZM187.789 34.0293C188.07 34.0293 188.34 34.0059 188.551 33.9648V32.8398C188.375 32.8574 188.264 32.8633 188.059 32.8633C187.449 32.8633 187.197 32.5938 187.197 31.9551V28.7266H188.551V27.5957H187.197V26.0254H185.715V27.5957H184.719V28.7266H185.715V32.3008C185.715 33.5371 186.318 34.0293 187.789 34.0293ZM192.688 34.1289C194.428 34.1289 195.283 33.127 195.488 32.3008L195.506 32.248H194.117L194.1 32.2891C193.959 32.582 193.508 32.9805 192.717 32.9805C191.727 32.9805 191.105 32.3125 191.088 31.1641H195.564V30.6836C195.564 28.75 194.439 27.4727 192.617 27.4727C190.795 27.4727 189.629 28.791 189.629 30.8066V30.8125C189.629 32.8516 190.783 34.1289 192.688 34.1289ZM192.635 28.6152C193.449 28.6152 194.041 29.1367 194.141 30.1855H191.1C191.211 29.166 191.82 28.6152 192.635 28.6152ZM197.023 34H198.482V30.2676C198.482 29.3066 199.021 28.6973 199.889 28.6973C200.773 28.6973 201.178 29.2012 201.178 30.1973V34H202.637V29.8574C202.637 28.334 201.857 27.4727 200.428 27.4727C199.502 27.4727 198.887 27.8887 198.582 28.5742H198.482V27.5957H197.023V34Z" fill="white"/>
<path d="M153.043 86H156.658C158.463 86 159.564 85.0859 159.564 83.6035V83.5918C159.564 82.4961 158.779 81.6758 157.643 81.5703V81.4648C158.492 81.3301 159.148 80.5449 159.148 79.6602V79.6484C159.148 78.3535 158.182 77.5449 156.576 77.5449H153.043V86ZM156.207 78.7227C157.121 78.7227 157.654 79.1621 157.654 79.9121V79.9238C157.654 80.6914 157.086 81.1074 156.014 81.1074H154.555V78.7227H156.207ZM156.254 82.1797C157.408 82.1797 158.018 82.6309 158.018 83.4863V83.498C158.018 84.3594 157.426 84.8223 156.312 84.8223H154.555V82.1797H156.254ZM161.053 86H166.924V84.7461H163.098V84.623L164.791 82.9824C166.332 81.5 166.795 80.7383 166.795 79.7773V79.7598C166.795 78.3359 165.611 77.334 163.965 77.334C162.201 77.334 160.971 78.4355 160.971 80.0117L160.977 80.0293L162.383 80.0352L162.389 80.0117C162.389 79.1387 162.992 78.5469 163.889 78.5469C164.768 78.5469 165.301 79.1094 165.301 79.8887V79.9062C165.301 80.5566 164.979 80.9844 163.83 82.1445L161.053 84.9805V86ZM171.957 86H175.572C177.377 86 178.479 85.0859 178.479 83.6035V83.5918C178.479 82.4961 177.693 81.6758 176.557 81.5703V81.4648C177.406 81.3301 178.062 80.5449 178.062 79.6602V79.6484C178.062 78.3535 177.096 77.5449 175.49 77.5449H171.957V86ZM175.121 78.7227C176.035 78.7227 176.568 79.1621 176.568 79.9121V79.9238C176.568 80.6914 176 81.1074 174.928 81.1074H173.469V78.7227H175.121ZM175.168 82.1797C176.322 82.1797 176.932 82.6309 176.932 83.4863V83.498C176.932 84.3594 176.34 84.8223 175.227 84.8223H173.469V82.1797H175.168ZM182.562 78.7285C183.336 78.7285 183.969 78.1309 183.969 77.375V77.3691C183.969 76.6133 183.336 76.0215 182.562 76.0215C181.783 76.0215 181.15 76.6133 181.15 77.3691V77.375C181.15 78.1309 181.783 78.7285 182.562 78.7285ZM182.562 78.0371C182.188 78.0371 181.883 77.7441 181.883 77.375V77.3691C181.883 77.0059 182.182 76.7188 182.562 76.7188C182.938 76.7188 183.242 77.0059 183.242 77.3691V77.375C183.242 77.7441 182.938 78.0371 182.562 78.0371ZM181.719 86.1055C182.562 86.1055 183.242 85.7422 183.594 85.1211H183.693V86H185.135V81.623C185.135 80.2695 184.209 79.4727 182.562 79.4727C181.039 79.4727 180.008 80.1875 179.867 81.2656L179.861 81.3184H181.238L181.244 81.2949C181.391 80.873 181.824 80.6328 182.492 80.6328C183.277 80.6328 183.693 80.9844 183.693 81.623V82.1738L182.047 82.2734C180.488 82.3672 179.615 83.0352 179.615 84.1777V84.1895C179.615 85.3555 180.5 86.1055 181.719 86.1055ZM181.057 84.1191V84.1074C181.057 83.5801 181.438 83.2812 182.252 83.2285L183.693 83.1348V83.6504C183.693 84.4121 183.043 84.9863 182.164 84.9863C181.52 84.9863 181.057 84.6641 181.057 84.1191ZM189.406 86.0293C189.688 86.0293 189.957 86.0059 190.168 85.9648V84.8398C189.992 84.8574 189.881 84.8633 189.676 84.8633C189.066 84.8633 188.814 84.5938 188.814 83.9551V80.7266H190.168V79.5957H188.814V78.0254H187.332V79.5957H186.336V80.7266H187.332V84.3008C187.332 85.5371 187.936 86.0293 189.406 86.0293ZM194.305 86.1289C196.045 86.1289 196.9 85.127 197.105 84.3008L197.123 84.248H195.734L195.717 84.2891C195.576 84.582 195.125 84.9805 194.334 84.9805C193.344 84.9805 192.723 84.3125 192.705 83.1641H197.182V82.6836C197.182 80.75 196.057 79.4727 194.234 79.4727C192.412 79.4727 191.246 80.791 191.246 82.8066V82.8125C191.246 84.8516 192.4 86.1289 194.305 86.1289ZM194.252 80.6152C195.066 80.6152 195.658 81.1367 195.758 82.1855H192.717C192.828 81.166 193.438 80.6152 194.252 80.6152ZM198.641 86H200.1V82.2676C200.1 81.3066 200.639 80.6973 201.506 80.6973C202.391 80.6973 202.795 81.2012 202.795 82.1973V86H204.254V81.8574C204.254 80.334 203.475 79.4727 202.045 79.4727C201.119 79.4727 200.504 79.8887 200.199 80.5742H200.1V79.5957H198.641V86Z" fill="white"/>
<path fill-rule="evenodd" clip-rule="evenodd" d="M138.202 29.4593L140.135 29.4583C140.244 29.4583 140.346 29.3943 140.293 29.2293L140.1 28.4493C140.073 28.3373 139.971 28.2583 139.856 28.2583H138.202C138.091 28.2583 138 28.3483 138 28.4593V29.2583C138 29.3693 138.091 29.4593 138.202 29.4593ZM137.397 29.4583C137.509 29.4583 137.601 29.3673 137.601 29.2543V28.4613C137.601 28.3493 137.509 28.2583 137.397 28.2583H136.004C135.892 28.2583 135.8 28.3493 135.8 28.4613V29.2543C135.8 29.3673 135.892 29.4583 136.004 29.4583H137.397ZM135.197 29.4583C135.307 29.4583 135.397 29.3683 135.397 29.2583V28.4583C135.397 28.3473 135.307 28.2583 135.197 28.2583H133.747C133.651 28.2583 133.562 28.3123 133.519 28.3993L133.138 29.1793C133.035 29.3603 133.147 29.4583 133.271 29.4583H135.197ZM142.087 29.4583H142.749C142.939 29.4583 143.059 29.6613 142.968 29.8273L141.358 32.7903L141.348 32.7845C140.953 32.5689 140.403 32.2693 139.513 32.2693C138.814 32.2693 138.464 32.4525 138.113 32.6357C137.763 32.819 137.413 33.0023 136.712 33.0023C136.013 33.0023 135.663 32.8192 135.314 32.636C134.963 32.4527 134.613 32.2693 133.912 32.2693C133.213 32.2693 132.863 32.4525 132.513 32.6357C132.164 32.819 131.814 33.0023 131.113 33.0023C130.495 33.0023 130.151 32.8593 129.837 32.7003L131.333 29.6533C131.392 29.5343 131.514 29.4583 131.647 29.4583H131.75H131.986H132.315C132.336 29.4583 132.355 29.4443 132.362 29.4243L133.46 27.1993C133.52 27.0793 133.643 27.0023 133.778 27.0023H135.556H137.169C137.19 27.0023 137.215 26.9883 137.215 26.9483V26.4853C137.215 26.3153 137.31 26.1593 137.459 26.0833L138.672 25.3773C138.875 25.2773 139.016 25.3893 139.089 25.5753L139.43 26.3993C139.437 26.4203 139.455 26.4333 139.476 26.4343H140.031C140.18 26.4343 140.313 26.5313 140.361 26.6763L141.268 29.4213C141.275 29.4433 141.295 29.4583 141.318 29.4583H141.857H142.087ZM135.105 34.5775C135.483 34.7764 135.913 35.0022 136.736 35.0022C137.559 35.0022 137.989 34.7764 138.367 34.5775L138.368 34.5772C138.698 34.4042 138.959 34.2682 139.536 34.2682C139.948 34.2682 140.199 34.3372 140.429 34.4402L140.908 33.5602C140.582 33.4052 140.178 33.2682 139.536 33.2682C138.713 33.2682 138.282 33.4932 137.903 33.6922L137.902 33.6925C137.573 33.8653 137.312 34.0022 136.736 34.0022C136.16 34.0022 135.899 33.8653 135.57 33.6925L135.569 33.6922C135.19 33.4932 134.759 33.2682 133.936 33.2682C133.113 33.2682 132.683 33.4932 132.303 33.6922L132.301 33.6934C131.972 33.8658 131.712 34.0022 131.135 34.0022C130.395 34.0022 129.698 33.5672 129.644 33.5333L129.642 33.5322L129.446 33.4242L129 34.3172L129.129 34.3892C129.167 34.4142 130.084 35.0022 131.135 35.0022C131.956 35.0022 132.385 34.7776 132.764 34.579L132.768 34.5772C133.098 34.4042 133.359 34.2682 133.936 34.2682C134.513 34.2682 134.774 34.4042 135.104 34.5772L135.105 34.5775Z" fill="#8CDCFD"/>
<path fill-rule="evenodd" clip-rule="evenodd" d="M138.202 81.4593L140.135 81.4583C140.244 81.4583 140.346 81.3943 140.293 81.2293L140.1 80.4493C140.073 80.3373 139.971 80.2583 139.856 80.2583H138.202C138.091 80.2583 138 80.3483 138 80.4593V81.2583C138 81.3693 138.091 81.4593 138.202 81.4593ZM137.397 81.4583C137.509 81.4583 137.601 81.3673 137.601 81.2543V80.4613C137.601 80.3493 137.509 80.2583 137.397 80.2583H136.004C135.892 80.2583 135.8 80.3493 135.8 80.4613V81.2543C135.8 81.3673 135.892 81.4583 136.004 81.4583H137.397ZM135.197 81.4583C135.307 81.4583 135.397 81.3683 135.397 81.2583V80.4583C135.397 80.3473 135.307 80.2583 135.197 80.2583H133.747C133.651 80.2583 133.562 80.3123 133.519 80.3993L133.138 81.1793C133.035 81.3603 133.147 81.4583 133.271 81.4583H135.197ZM142.087 81.4583H142.749C142.939 81.4583 143.059 81.6613 142.968 81.8273L141.358 84.7903L141.348 84.7845C140.953 84.5689 140.403 84.2693 139.513 84.2693C138.814 84.2693 138.464 84.4525 138.113 84.6357C137.763 84.819 137.413 85.0023 136.712 85.0023C136.013 85.0023 135.663 84.8192 135.314 84.636C134.963 84.4527 134.613 84.2693 133.912 84.2693C133.213 84.2693 132.863 84.4525 132.513 84.6357C132.164 84.819 131.814 85.0023 131.113 85.0023C130.495 85.0023 130.151 84.8593 129.837 84.7003L131.333 81.6533C131.392 81.5343 131.514 81.4583 131.647 81.4583H131.75H131.986H132.315C132.336 81.4583 132.355 81.4443 132.362 81.4243L133.46 79.1993C133.52 79.0793 133.643 79.0023 133.778 79.0023H135.556H137.169C137.19 79.0023 137.215 78.9883 137.215 78.9483V78.4853C137.215 78.3153 137.31 78.1593 137.459 78.0833L138.672 77.3773C138.875 77.2773 139.016 77.3893 139.089 77.5753L139.43 78.3993C139.437 78.4203 139.455 78.4333 139.476 78.4343H140.031C140.18 78.4343 140.313 78.5313 140.361 78.6763L141.268 81.4213C141.275 81.4433 141.295 81.4583 141.318 81.4583H141.857H142.087ZM135.105 86.5775C135.483 86.7764 135.913 87.0022 136.736 87.0022C137.559 87.0022 137.989 86.7764 138.367 86.5775L138.368 86.5772C138.698 86.4042 138.959 86.2682 139.536 86.2682C139.948 86.2682 140.199 86.3372 140.429 86.4402L140.908 85.5602C140.582 85.4052 140.178 85.2682 139.536 85.2682C138.713 85.2682 138.282 85.4932 137.903 85.6922L137.902 85.6925C137.573 85.8653 137.312 86.0022 136.736 86.0022C136.16 86.0022 135.899 85.8653 135.57 85.6925L135.569 85.6922C135.19 85.4932 134.759 85.2682 133.936 85.2682C133.113 85.2682 132.683 85.4932 132.303 85.6922L132.301 85.6934C131.972 85.8658 131.712 86.0022 131.135 86.0022C130.395 86.0022 129.698 85.5672 129.644 85.5333L129.642 85.5322L129.446 85.4242L129 86.3172L129.129 86.3892C129.167 86.4142 130.084 87.0022 131.135 87.0022C131.956 87.0022 132.385 86.7776 132.764 86.579L132.768 86.5772C133.098 86.4042 133.359 86.2682 133.936 86.2682C134.513 86.2682 134.774 86.4042 135.104 86.5772L135.105 86.5775Z" fill="#8CDCFD"/>
<rect x="232" y="8" width="104" height="196" rx="2" fill="#00323A"/>
<path d="M41.043 34H42.5547V30.8184H44.2305L45.8887 34H47.6172L45.7715 30.5898C46.7734 30.2266 47.3652 29.3008 47.3652 28.1816V28.1699C47.3652 26.5586 46.2754 25.5449 44.459 25.5449H41.043V34ZM42.5547 29.6582V26.7695H44.2715C45.2324 26.7695 45.8125 27.3203 45.8125 28.2051V28.2168C45.8125 29.125 45.2559 29.6582 44.3008 29.6582H42.5547ZM51.1094 34H52.6211V25.5449H51.1152L48.9062 27.0977V28.5215L51.0098 27.0332H51.1094V34ZM58.0703 34.2109C60.0801 34.2109 61.2988 32.5059 61.2988 29.7754V29.7637C61.2988 27.0332 60.0801 25.334 58.0703 25.334C56.0605 25.334 54.8535 27.0332 54.8535 29.7637V29.7754C54.8535 32.5059 56.0605 34.2109 58.0703 34.2109ZM58.0703 32.9863C56.9922 32.9863 56.377 31.7793 56.377 29.7754V29.7637C56.377 27.7598 56.9922 26.5645 58.0703 26.5645C59.1484 26.5645 59.7754 27.7598 59.7754 29.7637V29.7754C59.7754 31.7793 59.1484 32.9863 58.0703 32.9863ZM68.4121 34H69.9238V26.8164H72.5312V25.5449H65.8105V26.8164H68.4121V34ZM75.5898 34.1289C77.5059 34.1289 78.6719 32.875 78.6719 30.8008V30.7891C78.6719 28.7266 77.5 27.4727 75.5898 27.4727C73.6855 27.4727 72.5078 28.7324 72.5078 30.7891V30.8008C72.5078 32.875 73.668 34.1289 75.5898 34.1289ZM75.5898 32.9453C74.5762 32.9453 73.9961 32.1543 73.9961 30.8066V30.7949C73.9961 29.4473 74.5762 28.6504 75.5898 28.6504C76.5977 28.6504 77.1777 29.4473 77.1777 30.7949V30.8066C77.1777 32.1543 76.6035 32.9453 75.5898 32.9453ZM82.8906 36.25C84.7598 36.25 85.9434 35.3184 85.9434 33.8418V27.5957H84.4844V28.6504H84.4082C84.0449 27.9238 83.3535 27.4902 82.4688 27.4902C80.8164 27.4902 79.8086 28.7676 79.8086 30.6191V30.6309C79.8086 32.4473 80.8164 33.7012 82.4395 33.7012C83.3242 33.7012 84.0215 33.3262 84.3906 32.6406H84.4902V33.8652C84.4902 34.6855 83.9102 35.1484 82.9141 35.1484C82.0996 35.1484 81.6133 34.8613 81.5137 34.4512L81.5078 34.4336H80.0488L80.043 34.4512C80.1895 35.5293 81.2031 36.25 82.8906 36.25ZM82.8906 32.541C81.877 32.541 81.3027 31.7617 81.3027 30.6309V30.6191C81.3027 29.4883 81.877 28.7031 82.8906 28.7031C83.8984 28.7031 84.5137 29.4883 84.5137 30.6191V30.6309C84.5137 31.7617 83.9043 32.541 82.8906 32.541ZM90.4727 34.1289C92.2129 34.1289 93.0684 33.127 93.2734 32.3008L93.291 32.248H91.9023L91.8848 32.2891C91.7441 32.582 91.293 32.9805 90.502 32.9805C89.5117 32.9805 88.8906 32.3125 88.873 31.1641H93.3496V30.6836C93.3496 28.75 92.2246 27.4727 90.4023 27.4727C88.5801 27.4727 87.4141 28.791 87.4141 30.8066V30.8125C87.4141 32.8516 88.5684 34.1289 90.4727 34.1289ZM90.4199 28.6152C91.2344 28.6152 91.8262 29.1367 91.9258 30.1855H88.8848C88.9961 29.166 89.6055 28.6152 90.4199 28.6152ZM97.3281 34.0293C97.6094 34.0293 97.8789 34.0059 98.0898 33.9648V32.8398C97.9141 32.8574 97.8027 32.8633 97.5977 32.8633C96.9883 32.8633 96.7363 32.5938 96.7363 31.9551V28.7266H98.0898V27.5957H96.7363V26.0254H95.2539V27.5957H94.2578V28.7266H95.2539V32.3008C95.2539 33.5371 95.8574 34.0293 97.3281 34.0293Z" fill="white"/>
<path d="M41.043 86H46.4336V84.7285H42.5547V77.5449H41.043V86ZM47.9043 86H53.7754V84.7461H49.9492V84.623L51.6426 82.9824C53.1836 81.5 53.6465 80.7383 53.6465 79.7773V79.7598C53.6465 78.3359 52.4629 77.334 50.8164 77.334C49.0527 77.334 47.8223 78.4355 47.8223 80.0117L47.8281 80.0293L49.2344 80.0352L49.2402 80.0117C49.2402 79.1387 49.8438 78.5469 50.7402 78.5469C51.6191 78.5469 52.1523 79.1094 52.1523 79.8887V79.9062C52.1523 80.5566 51.8301 80.9844 50.6816 82.1445L47.9043 84.9805V86ZM60.9121 86H62.4238V78.8164H65.0312V77.5449H58.3105V78.8164H60.9121V86ZM68.0898 86.1289C70.0059 86.1289 71.1719 84.875 71.1719 82.8008V82.7891C71.1719 80.7266 70 79.4727 68.0898 79.4727C66.1855 79.4727 65.0078 80.7324 65.0078 82.7891V82.8008C65.0078 84.875 66.168 86.1289 68.0898 86.1289ZM68.0898 84.9453C67.0762 84.9453 66.4961 84.1543 66.4961 82.8066V82.7949C66.4961 81.4473 67.0762 80.6504 68.0898 80.6504C69.0977 80.6504 69.6777 81.4473 69.6777 82.7949V82.8066C69.6777 84.1543 69.1035 84.9453 68.0898 84.9453ZM75.3906 88.25C77.2598 88.25 78.4434 87.3184 78.4434 85.8418V79.5957H76.9844V80.6504H76.9082C76.5449 79.9238 75.8535 79.4902 74.9688 79.4902C73.3164 79.4902 72.3086 80.7676 72.3086 82.6191V82.6309C72.3086 84.4473 73.3164 85.7012 74.9395 85.7012C75.8242 85.7012 76.5215 85.3262 76.8906 84.6406H76.9902V85.8652C76.9902 86.6855 76.4102 87.1484 75.4141 87.1484C74.5996 87.1484 74.1133 86.8613 74.0137 86.4512L74.0078 86.4336H72.5488L72.543 86.4512C72.6895 87.5293 73.7031 88.25 75.3906 88.25ZM75.3906 84.541C74.377 84.541 73.8027 83.7617 73.8027 82.6309V82.6191C73.8027 81.4883 74.377 80.7031 75.3906 80.7031C76.3984 80.7031 77.0137 81.4883 77.0137 82.6191V82.6309C77.0137 83.7617 76.4043 84.541 75.3906 84.541ZM82.9727 86.1289C84.7129 86.1289 85.5684 85.127 85.7734 84.3008L85.791 84.248H84.4023L84.3848 84.2891C84.2441 84.582 83.793 84.9805 83.002 84.9805C82.0117 84.9805 81.3906 84.3125 81.373 83.1641H85.8496V82.6836C85.8496 80.75 84.7246 79.4727 82.9023 79.4727C81.0801 79.4727 79.9141 80.791 79.9141 82.8066V82.8125C79.9141 84.8516 81.0684 86.1289 82.9727 86.1289ZM82.9199 80.6152C83.7344 80.6152 84.3262 81.1367 84.4258 82.1855H81.3848C81.4961 81.166 82.1055 80.6152 82.9199 80.6152ZM89.8281 86.0293C90.1094 86.0293 90.3789 86.0059 90.5898 85.9648V84.8398C90.4141 84.8574 90.3027 84.8633 90.0977 84.8633C89.4883 84.8633 89.2363 84.5938 89.2363 83.9551V80.7266H90.5898V79.5957H89.2363V78.0254H87.7539V79.5957H86.7578V80.7266H87.7539V84.3008C87.7539 85.5371 88.3574 86.0293 89.8281 86.0293Z" fill="white"/>
<path d="M41.043 138H46.4336V136.729H42.5547V129.545H41.043V138ZM49.2578 138H50.7695V129.545H49.2637L47.0547 131.098V132.521L49.1582 131.033H49.2578V138ZM55.1875 138H56.6992V129.545H55.1934L52.9844 131.098V132.521L55.0879 131.033H55.1875V138ZM64.5098 138H66.0215V130.816H68.6289V129.545H61.9082V130.816H64.5098V138ZM71.6875 138.129C73.6035 138.129 74.7695 136.875 74.7695 134.801V134.789C74.7695 132.727 73.5977 131.473 71.6875 131.473C69.7832 131.473 68.6055 132.732 68.6055 134.789V134.801C68.6055 136.875 69.7656 138.129 71.6875 138.129ZM71.6875 136.945C70.6738 136.945 70.0938 136.154 70.0938 134.807V134.795C70.0938 133.447 70.6738 132.65 71.6875 132.65C72.6953 132.65 73.2754 133.447 73.2754 134.795V134.807C73.2754 136.154 72.7012 136.945 71.6875 136.945ZM78.9883 140.25C80.8574 140.25 82.041 139.318 82.041 137.842V131.596H80.582V132.65H80.5059C80.1426 131.924 79.4512 131.49 78.5664 131.49C76.9141 131.49 75.9062 132.768 75.9062 134.619V134.631C75.9062 136.447 76.9141 137.701 78.5371 137.701C79.4219 137.701 80.1191 137.326 80.4883 136.641H80.5879V137.865C80.5879 138.686 80.0078 139.148 79.0117 139.148C78.1973 139.148 77.7109 138.861 77.6113 138.451L77.6055 138.434H76.1465L76.1406 138.451C76.2871 139.529 77.3008 140.25 78.9883 140.25ZM78.9883 136.541C77.9746 136.541 77.4004 135.762 77.4004 134.631V134.619C77.4004 133.488 77.9746 132.703 78.9883 132.703C79.9961 132.703 80.6113 133.488 80.6113 134.619V134.631C80.6113 135.762 80.002 136.541 78.9883 136.541ZM86.5703 138.129C88.3105 138.129 89.166 137.127 89.3711 136.301L89.3887 136.248H88L87.9824 136.289C87.8418 136.582 87.3906 136.98 86.5996 136.98C85.6094 136.98 84.9883 136.312 84.9707 135.164H89.4473V134.684C89.4473 132.75 88.3223 131.473 86.5 131.473C84.6777 131.473 83.5117 132.791 83.5117 134.807V134.812C83.5117 136.852 84.666 138.129 86.5703 138.129ZM86.5176 132.615C87.332 132.615 87.9238 133.137 88.0234 134.186H84.9824C85.0938 133.166 85.7031 132.615 86.5176 132.615ZM93.4258 138.029C93.707 138.029 93.9766 138.006 94.1875 137.965V136.84C94.0117 136.857 93.9004 136.863 93.6953 136.863C93.0859 136.863 92.834 136.594 92.834 135.955V132.727H94.1875V131.596H92.834V130.025H91.3516V131.596H90.3555V132.727H91.3516V136.301C91.3516 137.537 91.9551 138.029 93.4258 138.029Z" fill="white"/>
<path fill-rule="evenodd" clip-rule="evenodd" d="M27.8959 29.7639C28.0399 29.7639 28.1679 29.7289 28.2129 29.5929C28.2579 29.4569 28.2109 29.3639 28.0969 29.2779L27.0629 28.4989C27.0039 28.4559 26.9339 28.4319 26.8619 28.4319H26.1959C26.0529 28.4319 25.9259 28.5239 25.8799 28.6589C25.8349 28.7949 25.8809 28.9449 25.9959 29.0309L26.9459 29.7009C27.0341 29.7669 27.1343 29.7653 27.206 29.7642C27.2147 29.764 27.223 29.7639 27.2309 29.7639H27.8959ZM30.6589 29.9909C30.6979 30.0309 30.7289 30.0649 30.7499 30.0999C30.9049 30.3059 30.9999 30.5569 30.9999 30.8339C30.9999 31.3269 30.5909 31.9809 30.0999 32.7359C29.9919 32.9009 29.8089 33.0009 29.6109 33.0009H16.9999V26.9999H21.4019L23.1019 25.8329L21.3999 24.3999H22.3639L23.8579 25.5789C23.9389 25.6379 23.9999 25.7289 23.9999 25.8539C23.9999 25.9769 23.9519 26.0339 23.8509 26.1099L22.5569 26.9999H26.0959C26.3359 26.9999 26.7359 27.0959 27.0949 27.3319C28.1919 28.0549 30.2159 29.5459 30.5309 29.8599C30.5475 29.877 30.5629 29.8926 30.5773 29.9073C30.594 29.9242 30.6094 29.9399 30.6239 29.9549C30.6359 29.9659 30.6479 29.9789 30.6589 29.9909ZM30 35.0002H17V34.0002H30V35.0002Z" fill="#5EA3F1"/>
<path fill-rule="evenodd" clip-rule="evenodd" d="M27.8959 81.7639C28.0399 81.7639 28.1679 81.7289 28.2129 81.5929C28.2579 81.4569 28.2109 81.3639 28.0969 81.2779L27.0629 80.4989C27.0039 80.4559 26.9339 80.4319 26.8619 80.4319H26.1959C26.0529 80.4319 25.9259 80.5239 25.8799 80.6589C25.8349 80.7949 25.8809 80.9449 25.9959 81.0309L26.9459 81.7009C27.0341 81.7669 27.1343 81.7653 27.206 81.7642C27.2147 81.764 27.223 81.7639 27.2309 81.7639H27.8959ZM30.6589 81.9909C30.6979 82.0309 30.7289 82.0649 30.7499 82.0999C30.9049 82.3059 30.9999 82.5569 30.9999 82.8339C30.9999 83.3269 30.5909 83.9809 30.0999 84.7359C29.9919 84.9009 29.8089 85.0009 29.6109 85.0009H16.9999V78.9999H21.4019L23.1019 77.8329L21.3999 76.3999H22.3639L23.8579 77.5789C23.9389 77.6379 23.9999 77.7289 23.9999 77.8539C23.9999 77.9769 23.9519 78.0339 23.8509 78.1099L22.5569 78.9999H26.0959C26.3359 78.9999 26.7359 79.0959 27.0949 79.3319C28.1919 80.0549 30.2159 81.5459 30.5309 81.8599C30.5475 81.877 30.5629 81.8926 30.5773 81.9073C30.594 81.9242 30.6094 81.9399 30.6239 81.9549C30.6359 81.9659 30.6479 81.9789 30.6589 81.9909ZM30 87.0002H17V86.0002H30V87.0002Z" fill="#5EA3F1"/>
<path fill-rule="evenodd" clip-rule="evenodd" d="M27.8959 133.764C28.0399 133.764 28.1679 133.729 28.2129 133.593C28.2579 133.457 28.2109 133.364 28.0969 133.278L27.0629 132.499C27.0039 132.456 26.9339 132.432 26.8619 132.432H26.1959C26.0529 132.432 25.9259 132.524 25.8799 132.659C25.8349 132.795 25.8809 132.945 25.9959 133.031L26.9459 133.701C27.0341 133.767 27.1343 133.765 27.206 133.764C27.2147 133.764 27.223 133.764 27.2309 133.764H27.8959ZM30.6589 133.991C30.6979 134.031 30.7289 134.065 30.7499 134.1C30.9049 134.306 30.9999 134.557 30.9999 134.834C30.9999 135.327 30.5909 135.981 30.0999 136.736C29.9919 136.901 29.8089 137.001 29.6109 137.001H16.9999V131H21.4019L23.1019 129.833L21.3999 128.4H22.3639L23.8579 129.579C23.9389 129.638 23.9999 129.729 23.9999 129.854C23.9999 129.977 23.9519 130.034 23.8509 130.11L22.5569 131H26.0959C26.3359 131 26.7359 131.096 27.0949 131.332C28.1919 132.055 30.2159 133.546 30.5309 133.86C30.5475 133.877 30.5629 133.893 30.5773 133.907C30.594 133.924 30.6094 133.94 30.6239 133.955C30.6359 133.966 30.6479 133.979 30.6589 133.991ZM30 139H17V138H30V139Z" fill="#5EA3F1"/>
<rect x="240" y="44" width="18" height="8" rx="1" fill="white" fill-opacity="0.23"/>
<rect x="240" y="96" width="18" height="8" rx="1" fill="white" fill-opacity="0.23"/>
<rect x="240" y="148" width="18" height="8" rx="1" fill="white" fill-opacity="0.23"/>
<rect x="263" y="44" width="18" height="8" rx="1" fill="white" fill-opacity="0.23"/>
<rect x="263" y="96" width="18" height="8" rx="1" fill="white" fill-opacity="0.23"/>
<rect x="263" y="148" width="18" height="8" rx="1" fill="white" fill-opacity="0.23"/>
<rect x="286" y="44" width="18" height="8" rx="1" fill="white" fill-opacity="0.23"/>
<rect x="286" y="96" width="18" height="8" rx="1" fill="white" fill-opacity="0.23"/>
<rect x="286" y="148" width="18" height="8" rx="1" fill="white" fill-opacity="0.23"/>
<rect x="309" y="44" width="18" height="8" rx="1" fill="white" fill-opacity="0.23"/>
<rect x="309" y="96" width="18" height="8" rx="1" fill="white" fill-opacity="0.23"/>
<rect x="309" y="148" width="18" height="8" rx="1" fill="white" fill-opacity="0.23"/>
<path d="M264.885 34H270.756V32.7461H266.93V32.623L268.623 30.9824C270.164 29.5 270.627 28.7383 270.627 27.7773V27.7598C270.627 26.3359 269.443 25.334 267.797 25.334C266.033 25.334 264.803 26.4355 264.803 28.0117L264.809 28.0293L266.215 28.0352L266.221 28.0117C266.221 27.1387 266.824 26.5469 267.721 26.5469C268.6 26.5469 269.133 27.1094 269.133 27.8887V27.9062C269.133 28.5566 268.811 28.9844 267.662 30.1445L264.885 32.9805V34ZM275.531 34.2109C277.541 34.2109 278.76 32.5059 278.76 29.7754V29.7637C278.76 27.0332 277.541 25.334 275.531 25.334C273.521 25.334 272.314 27.0332 272.314 29.7637V29.7754C272.314 32.5059 273.521 34.2109 275.531 34.2109ZM275.531 32.9863C274.453 32.9863 273.838 31.7793 273.838 29.7754V29.7637C273.838 27.7598 274.453 26.5645 275.531 26.5645C276.609 26.5645 277.236 27.7598 277.236 29.7637V29.7754C277.236 31.7793 276.609 32.9863 275.531 32.9863ZM283.77 34H287.385C289.189 34 290.291 33.0859 290.291 31.6035V31.5918C290.291 30.4961 289.506 29.6758 288.369 29.5703V29.4648C289.219 29.3301 289.875 28.5449 289.875 27.6602V27.6484C289.875 26.3535 288.908 25.5449 287.303 25.5449H283.77V34ZM286.934 26.7227C287.848 26.7227 288.381 27.1621 288.381 27.9121V27.9238C288.381 28.6914 287.812 29.1074 286.74 29.1074H285.281V26.7227H286.934ZM286.98 30.1797C288.135 30.1797 288.744 30.6309 288.744 31.4863V31.498C288.744 32.3594 288.152 32.8223 287.039 32.8223H285.281V30.1797H286.98ZM293.906 34.1289C294.832 34.1289 295.482 33.7129 295.781 33.0273H295.881V34H297.34V27.5957H295.881V31.3281C295.881 32.2891 295.377 32.8984 294.434 32.8984C293.555 32.8984 293.186 32.3945 293.186 31.4043V27.5957H291.727V31.7383C291.727 33.2617 292.465 34.1289 293.906 34.1289ZM301.541 34.1289C303.117 34.1289 304.26 33.3145 304.26 32.0957V32.084C304.26 31.1523 303.668 30.6191 302.414 30.3379L301.377 30.1094C300.686 29.9512 300.416 29.7227 300.416 29.3477V29.3418C300.416 28.8613 300.885 28.5449 301.535 28.5449C302.221 28.5449 302.643 28.873 302.748 29.2773L302.754 29.2949H304.125V29.2832C304.031 28.2461 303.1 27.4727 301.541 27.4727C300.029 27.4727 298.975 28.2695 298.975 29.4238V29.4297C298.975 30.373 299.555 30.9473 300.773 31.2168L301.811 31.4512C302.514 31.6094 302.795 31.8555 302.795 32.2305V32.2422C302.795 32.7227 302.291 33.0508 301.564 33.0508C300.838 33.0508 300.41 32.7402 300.258 32.2949L300.252 32.2832H298.805V32.2949C298.928 33.3789 299.912 34.1289 301.541 34.1289ZM308.033 34.1289C309.609 34.1289 310.752 33.3145 310.752 32.0957V32.084C310.752 31.1523 310.16 30.6191 308.906 30.3379L307.869 30.1094C307.178 29.9512 306.908 29.7227 306.908 29.3477V29.3418C306.908 28.8613 307.377 28.5449 308.027 28.5449C308.713 28.5449 309.135 28.873 309.24 29.2773L309.246 29.2949H310.617V29.2832C310.523 28.2461 309.592 27.4727 308.033 27.4727C306.521 27.4727 305.467 28.2695 305.467 29.4238V29.4297C305.467 30.373 306.047 30.9473 307.266 31.2168L308.303 31.4512C309.006 31.6094 309.287 31.8555 309.287 32.2305V32.2422C309.287 32.7227 308.783 33.0508 308.057 33.0508C307.33 33.0508 306.902 32.7402 306.75 32.2949L306.744 32.2832H305.297V32.2949C305.42 33.3789 306.404 34.1289 308.033 34.1289ZM314.965 34.1289C316.705 34.1289 317.561 33.127 317.766 32.3008L317.783 32.248H316.395L316.377 32.2891C316.236 32.582 315.785 32.9805 314.994 32.9805C314.004 32.9805 313.383 32.3125 313.365 31.1641H317.842V30.6836C317.842 28.75 316.717 27.4727 314.895 27.4727C313.072 27.4727 311.906 28.791 311.906 30.8066V30.8125C311.906 32.8516 313.061 34.1289 314.965 34.1289ZM314.912 28.6152C315.727 28.6152 316.318 29.1367 316.418 30.1855H313.377C313.488 29.166 314.098 28.6152 314.912 28.6152ZM319.301 34H320.76V30.2676C320.76 29.3066 321.299 28.6973 322.166 28.6973C323.051 28.6973 323.455 29.2012 323.455 30.1973V34H324.914V29.8574C324.914 28.334 324.135 27.4727 322.705 27.4727C321.779 27.4727 321.164 27.8887 320.859 28.5742H320.76V27.5957H319.301V34Z" fill="white"/>
<path d="M266.953 86H268.465V77.5449H266.959L264.75 79.0977V80.5215L266.854 79.0332H266.953V86ZM271.184 86H272.766L276.381 78.8047V77.5449H270.498V78.7812H274.857V78.875L271.184 86ZM283.377 86H284.889V78.8164H287.496V77.5449H280.775V78.8164H283.377V86ZM288.176 86H289.635V82.2793C289.635 81.3652 290.273 80.7852 291.246 80.7852C291.498 80.7852 291.738 80.8203 291.973 80.8672V79.5605C291.832 79.5195 291.604 79.4902 291.381 79.4902C290.537 79.4902 289.951 79.8945 289.734 80.5801H289.635V79.5957H288.176V86ZM293.918 78.5234C294.393 78.5234 294.785 78.1426 294.785 77.6621C294.785 77.1875 294.393 76.8008 293.918 76.8008C293.438 76.8008 293.045 77.1875 293.045 77.6621C293.045 78.1426 293.438 78.5234 293.918 78.5234ZM293.186 86H294.645V79.5957H293.186V86ZM296.496 86H297.955V83.75L298.465 83.2285L300.521 86H302.279L299.525 82.3027L302.104 79.5957H300.416L298.055 82.2207H297.955V77.1172H296.496V86ZM303.457 86H304.916V83.75L305.426 83.2285L307.482 86H309.24L306.486 82.3027L309.064 79.5957H307.377L305.016 82.2207H304.916V77.1172H303.457V86ZM312.75 86.1289C314.49 86.1289 315.346 85.127 315.551 84.3008L315.568 84.248H314.18L314.162 84.2891C314.021 84.582 313.57 84.9805 312.779 84.9805C311.789 84.9805 311.168 84.3125 311.15 83.1641H315.627V82.6836C315.627 80.75 314.502 79.4727 312.68 79.4727C310.857 79.4727 309.691 80.791 309.691 82.8066V82.8125C309.691 84.8516 310.846 86.1289 312.75 86.1289ZM312.697 80.6152C313.512 80.6152 314.104 81.1367 314.203 82.1855H311.162C311.273 81.166 311.883 80.6152 312.697 80.6152ZM317.086 86H318.545V82.2676C318.545 81.3066 319.084 80.6973 319.951 80.6973C320.836 80.6973 321.24 81.2012 321.24 82.1973V86H322.699V81.8574C322.699 80.334 321.92 79.4727 320.49 79.4727C319.564 79.4727 318.949 79.8887 318.645 80.5742H318.545V79.5957H317.086V86Z" fill="white"/>
<path d="M266.953 138H268.465V129.545H266.959L264.75 131.098V132.521L266.854 131.033H266.953V138ZM273.973 138.17C275.918 138.17 277.271 137.162 277.271 135.715V135.703C277.271 134.619 276.486 133.781 275.355 133.553V133.518C276.322 133.26 276.967 132.551 276.967 131.643V131.631C276.967 130.33 275.725 129.375 273.973 129.375C272.221 129.375 270.979 130.33 270.979 131.631V131.643C270.979 132.551 271.623 133.26 272.59 133.518V133.553C271.465 133.781 270.674 134.619 270.674 135.703V135.715C270.674 137.162 272.027 138.17 273.973 138.17ZM273.973 133.037C273.088 133.037 272.473 132.521 272.473 131.783V131.771C272.473 131.033 273.088 130.518 273.973 130.518C274.857 130.518 275.473 131.033 275.473 131.771V131.783C275.473 132.521 274.857 133.037 273.973 133.037ZM273.973 137.016C272.959 137.016 272.238 136.43 272.238 135.615V135.604C272.238 134.783 272.947 134.191 273.973 134.191C274.992 134.191 275.707 134.783 275.707 135.604V135.615C275.707 136.43 274.986 137.016 273.973 137.016ZM284.361 138H285.873V130.816H288.48V129.545H281.76V130.816H284.361V138ZM289.16 138H290.619V134.279C290.619 133.365 291.258 132.785 292.23 132.785C292.482 132.785 292.723 132.82 292.957 132.867V131.561C292.816 131.52 292.588 131.49 292.365 131.49C291.521 131.49 290.936 131.895 290.719 132.58H290.619V131.596H289.16V138ZM294.902 130.523C295.377 130.523 295.77 130.143 295.77 129.662C295.77 129.188 295.377 128.801 294.902 128.801C294.422 128.801 294.029 129.188 294.029 129.662C294.029 130.143 294.422 130.523 294.902 130.523ZM294.17 138H295.629V131.596H294.17V138ZM297.48 138H298.939V135.75L299.449 135.229L301.506 138H303.264L300.51 134.303L303.088 131.596H301.4L299.039 134.221H298.939V129.117H297.48V138ZM304.441 138H305.9V135.75L306.41 135.229L308.467 138H310.225L307.471 134.303L310.049 131.596H308.361L306 134.221H305.9V129.117H304.441V138ZM313.734 138.129C315.475 138.129 316.33 137.127 316.535 136.301L316.553 136.248H315.164L315.146 136.289C315.006 136.582 314.555 136.98 313.764 136.98C312.773 136.98 312.152 136.312 312.135 135.164H316.611V134.684C316.611 132.75 315.486 131.473 313.664 131.473C311.842 131.473 310.676 132.791 310.676 134.807V134.812C310.676 136.852 311.83 138.129 313.734 138.129ZM313.682 132.615C314.496 132.615 315.088 133.137 315.188 134.186H312.146C312.258 133.166 312.867 132.615 313.682 132.615ZM318.07 138H319.529V134.268C319.529 133.307 320.068 132.697 320.936 132.697C321.82 132.697 322.225 133.201 322.225 134.197V138H323.684V133.857C323.684 132.334 322.904 131.473 321.475 131.473C320.549 131.473 319.934 131.889 319.629 132.574H319.529V131.596H318.07V138Z" fill="white"/>
<path fill-rule="evenodd" clip-rule="evenodd" d="M241.656 28.7895C241.656 28.5915 241.814 28.4315 242.006 28.4315H242.707C242.9 28.4315 243.055 28.5915 243.055 28.7895V30.2215C243.055 30.4185 242.9 30.5795 242.707 30.5795H242.006C241.814 30.5795 241.656 30.4185 241.656 30.2215V28.7895ZM243.756 28.7895C243.756 28.5915 243.913 28.4315 244.106 28.4315H246.906C247.099 28.4315 247.257 28.5915 247.257 28.7895V30.2215C247.257 30.4185 247.099 30.5795 246.906 30.5795H244.106C243.913 30.5795 243.756 30.4185 243.756 30.2215V28.7895ZM247.956 28.7895C247.956 28.5915 248.113 28.4315 248.306 28.4315H251.106C251.299 28.4315 251.456 28.5915 251.456 28.7895V30.2215C251.456 30.4185 251.299 30.5795 251.106 30.5795H248.306C248.113 30.5795 247.956 30.4185 247.956 30.2215V28.7895ZM252.156 28.7895C252.156 28.5915 252.314 28.4315 252.506 28.4315H253.593C253.77 28.4315 253.918 28.5645 253.939 28.7435L254.125 30.1745C254.138 30.2775 254.107 30.3795 254.04 30.4575C253.974 30.5355 253.878 30.5795 253.778 30.5795H252.506C252.314 30.5795 252.156 30.4185 252.156 30.2215V28.7895ZM254.995 31.5945L254.296 27.2985C254.266 27.1265 254.122 26.9995 253.95 26.9995H241.7C241.349 26.9995 241 27.3575 241 27.7165V31.5705V31.8135V32.6415C241 32.8205 241.128 32.9995 241.3 32.9995H242.847C243.083 32.2815 243.753 31.7995 244.55 31.7995C245.348 31.7995 246.017 32.2815 246.253 32.9995H249.797C250.032 32.2815 250.702 31.7995 251.5 31.7995C252.297 31.7995 252.967 32.2815 253.203 32.9995H254.65C254.843 32.9995 255 32.8385 255 32.6415V31.8135V31.6535C255 31.6335 254.998 31.6145 254.995 31.5945ZM243.55 33.7998C243.55 33.2488 243.998 32.7998 244.55 32.7998C245.102 32.7998 245.55 33.2488 245.55 33.7998C245.55 34.3518 245.102 34.7998 244.55 34.7998C243.998 34.7998 243.55 34.3518 243.55 33.7998ZM251.5 32.7998C250.948 32.7998 250.5 33.2488 250.5 33.7998C250.5 34.3518 250.948 34.7998 251.5 34.7998C252.052 34.7998 252.5 34.3518 252.5 33.7998C252.5 33.2488 252.052 32.7998 251.5 32.7998Z" fill="#D83755"/>
<path fill-rule="evenodd" clip-rule="evenodd" d="M253.561 82.5329C253.666 82.5329 253.766 82.4849 253.833 82.4019C253.9 82.3199 253.925 82.2109 253.902 82.1069L253.593 80.7069C253.557 80.5459 253.416 80.4319 253.251 80.4319H253.085H252.159H251.81C251.616 80.4319 251.459 80.5889 251.459 80.7819V82.1829C251.459 82.3769 251.616 82.5329 251.81 82.5329H252.159H253.561ZM250.41 82.5319C250.603 82.5319 250.76 82.3759 250.76 82.1819V80.7819C250.76 80.5889 250.603 80.4319 250.41 80.4319H248.31C248.116 80.4319 247.959 80.5889 247.959 80.7819V82.1819C247.959 82.3759 248.116 82.5319 248.31 82.5319H250.41ZM246.899 82.5319C247.092 82.5319 247.25 82.3759 247.25 82.1819V80.7819C247.25 80.5889 247.092 80.4319 246.899 80.4319H244.799C244.605 80.4319 244.449 80.5889 244.449 80.7819V82.1819C244.449 82.3759 244.605 82.5319 244.799 82.5319H246.899ZM243.4 82.5329C243.593 82.5329 243.75 82.3769 243.75 82.1819V80.7819C243.75 80.5889 243.593 80.4319 243.4 80.4319H243.187H242.659C242.495 80.4319 242.352 80.5459 242.317 80.7069L242.008 82.1069C241.985 82.2109 242.01 82.3199 242.077 82.4019C242.143 82.4849 242.244 82.5329 242.35 82.5329H243.034H243.035H243.4ZM253.721 78.9999C253.884 78.9999 254.026 79.1129 254.062 79.2729L254.991 83.3809C255.016 83.5029 254.989 83.6299 254.917 83.7319L254.105 84.8549C254.039 84.9449 253.934 84.9999 253.821 84.9999H247.577H247.086H246.414H242.179C242.066 84.9999 241.961 84.9449 241.895 84.8549L241.083 83.7319C241.011 83.6299 240.984 83.5029 241.009 83.3809L241.938 79.2729C241.974 79.1129 242.116 78.9999 242.279 78.9999H247.406L249.105 77.8339L247.404 76.3999H248.368L249.862 77.5789C249.943 77.6389 250.004 77.7299 250.004 77.8549C250.004 77.9769 249.955 78.0349 249.854 78.1099L248.566 78.9999H253.721ZM254 87.0002H242V86.0002H254V87.0002Z" fill="#9D79E1"/>
<path fill-rule="evenodd" clip-rule="evenodd" d="M253.561 134.533C253.666 134.533 253.766 134.485 253.833 134.402C253.9 134.32 253.925 134.211 253.902 134.107L253.593 132.707C253.557 132.546 253.416 132.432 253.251 132.432H253.085H252.159H251.81C251.616 132.432 251.459 132.589 251.459 132.782V134.183C251.459 134.377 251.616 134.533 251.81 134.533H252.159H253.561ZM250.41 134.532C250.603 134.532 250.76 134.376 250.76 134.182V132.782C250.76 132.589 250.603 132.432 250.41 132.432H248.31C248.116 132.432 247.959 132.589 247.959 132.782V134.182C247.959 134.376 248.116 134.532 248.31 134.532H250.41ZM246.899 134.532C247.092 134.532 247.25 134.376 247.25 134.182V132.782C247.25 132.589 247.092 132.432 246.899 132.432H244.799C244.605 132.432 244.449 132.589 244.449 132.782V134.182C244.449 134.376 244.605 134.532 244.799 134.532H246.899ZM243.4 134.533C243.593 134.533 243.75 134.377 243.75 134.182V132.782C243.75 132.589 243.593 132.432 243.4 132.432H243.187H242.659C242.495 132.432 242.352 132.546 242.317 132.707L242.008 134.107C241.985 134.211 242.01 134.32 242.077 134.402C242.143 134.485 242.244 134.533 242.35 134.533H243.034H243.035H243.4ZM253.721 131C253.884 131 254.026 131.113 254.062 131.273L254.991 135.381C255.016 135.503 254.989 135.63 254.917 135.732L254.105 136.855C254.039 136.945 253.934 137 253.821 137H247.577H247.086H246.414H242.179C242.066 137 241.961 136.945 241.895 136.855L241.083 135.732C241.011 135.63 240.984 135.503 241.009 135.381L241.938 131.273C241.974 131.113 242.116 131 242.279 131H247.406L249.105 129.834L247.404 128.4H248.368L249.862 129.579C249.943 129.639 250.004 129.73 250.004 129.855C250.004 129.977 249.955 130.035 249.854 130.11L248.566 131H253.721ZM254 139H242V138H254V139Z" fill="#9D79E1"/>
</svg>
