<svg width="344" height="212" viewBox="0 0 344 212" fill="none" xmlns="http://www.w3.org/2000/svg">
<rect width="344" height="212" rx="2" fill="#181C56"/>
<rect x="8" y="8" width="104" height="196" rx="2" fill="#292B6A"/>
<rect x="16" y="44" width="18" height="8" rx="1" fill="#54568C"/>
<rect x="16" y="96" width="18" height="8" rx="1" fill="#54568C"/>
<rect x="16" y="148" width="18" height="8" rx="1" fill="#54568C"/>
<rect x="39" y="44" width="18" height="8" rx="1" fill="#54568C"/>
<rect x="39" y="96" width="18" height="8" rx="1" fill="#54568C"/>
<rect x="39" y="148" width="18" height="8" rx="1" fill="#54568C"/>
<rect x="62" y="44" width="18" height="8" rx="1" fill="#54568C"/>
<rect x="62" y="96" width="18" height="8" rx="1" fill="#54568C"/>
<rect x="62" y="148" width="18" height="8" rx="1" fill="#54568C"/>
<rect x="85" y="44" width="18" height="8" rx="1" fill="#54568C"/>
<rect x="85" y="96" width="18" height="8" rx="1" fill="#54568C"/>
<rect x="85" y="148" width="18" height="8" rx="1" fill="#54568C"/>
<rect x="120" y="140" width="104" height="64" rx="2" fill="#292B6A"/>
<rect x="128" y="176" width="18" height="8" rx="1" fill="#54568C"/>
<rect x="151" y="176" width="18" height="8" rx="1" fill="#54568C"/>
<rect x="174" y="176" width="18" height="8" rx="1" fill="#54568C"/>
<rect x="197" y="176" width="18" height="8" rx="1" fill="#54568C"/>
<path d="M152.885 157.334C151.051 157.334 149.744 158.588 149.744 160.305V160.316C149.744 161.922 150.881 163.105 152.504 163.105C153.664 163.105 154.402 162.514 154.713 161.846H154.83C154.801 163.557 154.244 164.969 152.85 164.969C152.105 164.969 151.584 164.582 151.361 163.99L151.344 163.932H149.855L149.867 163.996C150.137 165.291 151.297 166.211 152.85 166.211C154.977 166.211 156.26 164.523 156.26 161.676V161.664C156.26 158.617 154.689 157.334 152.885 157.334ZM152.879 161.945C151.918 161.945 151.221 161.242 151.221 160.264V160.252C151.221 159.309 151.965 158.564 152.896 158.564C153.834 158.564 154.566 159.32 154.566 160.287V160.299C154.566 161.254 153.834 161.945 152.879 161.945ZM163.35 166H164.861V158.816H167.469V157.545H160.748V158.816H163.35V166ZM168.148 166H169.607V162.279C169.607 161.365 170.246 160.785 171.219 160.785C171.471 160.785 171.711 160.82 171.945 160.867V159.561C171.805 159.52 171.576 159.49 171.354 159.49C170.51 159.49 169.924 159.895 169.707 160.58H169.607V159.596H168.148V166ZM173.891 158.523C174.365 158.523 174.758 158.143 174.758 157.662C174.758 157.188 174.365 156.801 173.891 156.801C173.41 156.801 173.018 157.188 173.018 157.662C173.018 158.143 173.41 158.523 173.891 158.523ZM173.158 166H174.617V159.596H173.158V166ZM176.469 166H177.928V163.75L178.438 163.229L180.494 166H182.252L179.498 162.303L182.076 159.596H180.389L178.027 162.221H177.928V157.117H176.469V166ZM183.43 166H184.889V163.75L185.398 163.229L187.455 166H189.213L186.459 162.303L189.037 159.596H187.35L184.988 162.221H184.889V157.117H183.43V166ZM192.723 166.129C194.463 166.129 195.318 165.127 195.523 164.301L195.541 164.248H194.152L194.135 164.289C193.994 164.582 193.543 164.98 192.752 164.98C191.762 164.98 191.141 164.312 191.123 163.164H195.6V162.684C195.6 160.75 194.475 159.473 192.652 159.473C190.83 159.473 189.664 160.791 189.664 162.807V162.812C189.664 164.852 190.818 166.129 192.723 166.129ZM192.67 160.615C193.484 160.615 194.076 161.137 194.176 162.186H191.135C191.246 161.166 191.855 160.615 192.67 160.615ZM197.059 166H198.518V162.268C198.518 161.307 199.057 160.697 199.924 160.697C200.809 160.697 201.213 161.201 201.213 162.197V166H202.672V161.857C202.672 160.334 201.893 159.473 200.463 159.473C199.537 159.473 198.922 159.889 198.617 160.574H198.518V159.596H197.059V166Z" fill="white"/>
<path fill-rule="evenodd" clip-rule="evenodd" d="M141.561 161.533C141.666 161.533 141.766 161.485 141.833 161.402C141.9 161.32 141.925 161.211 141.902 161.107L141.593 159.707C141.557 159.546 141.416 159.432 141.251 159.432H141.085H140.159H139.81C139.616 159.432 139.459 159.589 139.459 159.782V161.183C139.459 161.377 139.616 161.533 139.81 161.533H140.159H141.561ZM138.41 161.532C138.603 161.532 138.76 161.376 138.76 161.182V159.782C138.76 159.589 138.603 159.432 138.41 159.432H136.31C136.116 159.432 135.959 159.589 135.959 159.782V161.182C135.959 161.376 136.116 161.532 136.31 161.532H138.41ZM134.899 161.532C135.092 161.532 135.25 161.376 135.25 161.182V159.782C135.25 159.589 135.092 159.432 134.899 159.432H132.799C132.605 159.432 132.449 159.589 132.449 159.782V161.182C132.449 161.376 132.605 161.532 132.799 161.532H134.899ZM131.4 161.533C131.593 161.533 131.75 161.377 131.75 161.182V159.782C131.75 159.589 131.593 159.432 131.4 159.432H131.187H130.659C130.495 159.432 130.352 159.546 130.317 159.707L130.008 161.107C129.985 161.211 130.01 161.32 130.077 161.402C130.143 161.485 130.244 161.533 130.35 161.533H131.034H131.035H131.4ZM141.721 158C141.884 158 142.026 158.113 142.062 158.273L142.991 162.381C143.016 162.503 142.989 162.63 142.917 162.732L142.105 163.855C142.039 163.945 141.934 164 141.821 164H135.577H135.086H134.414H130.179C130.066 164 129.961 163.945 129.895 163.855L129.083 162.732C129.011 162.63 128.984 162.503 129.009 162.381L129.938 158.273C129.974 158.113 130.116 158 130.279 158H135.406L137.105 156.834L135.404 155.4H136.368L137.862 156.579C137.943 156.639 138.004 156.73 138.004 156.855C138.004 156.977 137.955 157.035 137.854 157.11L136.566 158H141.721ZM142 166.001H130V165.001H142V166.001Z" fill="#9D79E1"/>
<rect x="120" y="8" width="104" height="124" rx="2" fill="#292B6A"/>
<rect x="128" y="44" width="18" height="8" rx="1" fill="#54568C"/>
<rect x="128" y="96" width="18" height="8" rx="1" fill="#54568C"/>
<rect x="151" y="44" width="18" height="8" rx="1" fill="#54568C"/>
<rect x="151" y="96" width="18" height="8" rx="1" fill="#54568C"/>
<rect x="174" y="44" width="18" height="8" rx="1" fill="#54568C"/>
<rect x="174" y="96" width="18" height="8" rx="1" fill="#54568C"/>
<rect x="197" y="44" width="18" height="8" rx="1" fill="#54568C"/>
<rect x="197" y="96" width="18" height="8" rx="1" fill="#54568C"/>
<path d="M156.043 34.1699C157.988 34.1699 159.342 33.1621 159.342 31.7148V31.7031C159.342 30.6191 158.557 29.7812 157.426 29.5527V29.5176C158.393 29.2598 159.037 28.5508 159.037 27.6426V27.6309C159.037 26.3301 157.795 25.375 156.043 25.375C154.291 25.375 153.049 26.3301 153.049 27.6309V27.6426C153.049 28.5508 153.693 29.2598 154.66 29.5176V29.5527C153.535 29.7812 152.744 30.6191 152.744 31.7031V31.7148C152.744 33.1621 154.098 34.1699 156.043 34.1699ZM156.043 29.0371C155.158 29.0371 154.543 28.5215 154.543 27.7832V27.7715C154.543 27.0332 155.158 26.5176 156.043 26.5176C156.928 26.5176 157.543 27.0332 157.543 27.7715V27.7832C157.543 28.5215 156.928 29.0371 156.043 29.0371ZM156.043 33.0156C155.029 33.0156 154.309 32.4297 154.309 31.6152V31.6035C154.309 30.7832 155.018 30.1914 156.043 30.1914C157.062 30.1914 157.777 30.7832 157.777 31.6035V31.6152C157.777 32.4297 157.057 33.0156 156.043 33.0156ZM164.035 34.2109C166.045 34.2109 167.264 32.5059 167.264 29.7754V29.7637C167.264 27.0332 166.045 25.334 164.035 25.334C162.025 25.334 160.818 27.0332 160.818 29.7637V29.7754C160.818 32.5059 162.025 34.2109 164.035 34.2109ZM164.035 32.9863C162.957 32.9863 162.342 31.7793 162.342 29.7754V29.7637C162.342 27.7598 162.957 26.5645 164.035 26.5645C165.113 26.5645 165.74 27.7598 165.74 29.7637V29.7754C165.74 31.7793 165.113 32.9863 164.035 32.9863ZM172.016 34.2109C174.025 34.2109 175.244 32.5059 175.244 29.7754V29.7637C175.244 27.0332 174.025 25.334 172.016 25.334C170.006 25.334 168.799 27.0332 168.799 29.7637V29.7754C168.799 32.5059 170.006 34.2109 172.016 34.2109ZM172.016 32.9863C170.938 32.9863 170.322 31.7793 170.322 29.7754V29.7637C170.322 27.7598 170.938 26.5645 172.016 26.5645C173.094 26.5645 173.721 27.7598 173.721 29.7637V29.7754C173.721 31.7793 173.094 32.9863 172.016 32.9863ZM180.254 34H183.869C185.674 34 186.775 33.0859 186.775 31.6035V31.5918C186.775 30.4961 185.99 29.6758 184.854 29.5703V29.4648C185.703 29.3301 186.359 28.5449 186.359 27.6602V27.6484C186.359 26.3535 185.393 25.5449 183.787 25.5449H180.254V34ZM183.418 26.7227C184.332 26.7227 184.865 27.1621 184.865 27.9121V27.9238C184.865 28.6914 184.297 29.1074 183.225 29.1074H181.766V26.7227H183.418ZM183.465 30.1797C184.619 30.1797 185.229 30.6309 185.229 31.4863V31.498C185.229 32.3594 184.637 32.8223 183.523 32.8223H181.766V30.1797H183.465ZM190.859 26.7285C191.633 26.7285 192.266 26.1309 192.266 25.375V25.3691C192.266 24.6133 191.633 24.0215 190.859 24.0215C190.08 24.0215 189.447 24.6133 189.447 25.3691V25.375C189.447 26.1309 190.08 26.7285 190.859 26.7285ZM190.859 26.0371C190.484 26.0371 190.18 25.7441 190.18 25.375V25.3691C190.18 25.0059 190.479 24.7188 190.859 24.7188C191.234 24.7188 191.539 25.0059 191.539 25.3691V25.375C191.539 25.7441 191.234 26.0371 190.859 26.0371ZM190.016 34.1055C190.859 34.1055 191.539 33.7422 191.891 33.1211H191.99V34H193.432V29.623C193.432 28.2695 192.506 27.4727 190.859 27.4727C189.336 27.4727 188.305 28.1875 188.164 29.2656L188.158 29.3184H189.535L189.541 29.2949C189.688 28.873 190.121 28.6328 190.789 28.6328C191.574 28.6328 191.99 28.9844 191.99 29.623V30.1738L190.344 30.2734C188.785 30.3672 187.912 31.0352 187.912 32.1777V32.1895C187.912 33.3555 188.797 34.1055 190.016 34.1055ZM189.354 32.1191V32.1074C189.354 31.5801 189.734 31.2812 190.549 31.2285L191.99 31.1348V31.6504C191.99 32.4121 191.34 32.9863 190.461 32.9863C189.816 32.9863 189.354 32.6641 189.354 32.1191ZM197.703 34.0293C197.984 34.0293 198.254 34.0059 198.465 33.9648V32.8398C198.289 32.8574 198.178 32.8633 197.973 32.8633C197.363 32.8633 197.111 32.5938 197.111 31.9551V28.7266H198.465V27.5957H197.111V26.0254H195.629V27.5957H194.633V28.7266H195.629V32.3008C195.629 33.5371 196.232 34.0293 197.703 34.0293ZM202.602 34.1289C204.342 34.1289 205.197 33.127 205.402 32.3008L205.42 32.248H204.031L204.014 32.2891C203.873 32.582 203.422 32.9805 202.631 32.9805C201.641 32.9805 201.02 32.3125 201.002 31.1641H205.479V30.6836C205.479 28.75 204.354 27.4727 202.531 27.4727C200.709 27.4727 199.543 28.791 199.543 30.8066V30.8125C199.543 32.8516 200.697 34.1289 202.602 34.1289ZM202.549 28.6152C203.363 28.6152 203.955 29.1367 204.055 30.1855H201.014C201.125 29.166 201.734 28.6152 202.549 28.6152ZM206.938 34H208.396V30.2676C208.396 29.3066 208.936 28.6973 209.803 28.6973C210.688 28.6973 211.092 29.2012 211.092 30.1973V34H212.551V29.8574C212.551 28.334 211.771 27.4727 210.342 27.4727C209.416 27.4727 208.801 27.8887 208.496 28.5742H208.396V27.5957H206.938V34Z" fill="white"/>
<path d="M156.043 86.1699C157.988 86.1699 159.342 85.1621 159.342 83.7148V83.7031C159.342 82.6191 158.557 81.7812 157.426 81.5527V81.5176C158.393 81.2598 159.037 80.5508 159.037 79.6426V79.6309C159.037 78.3301 157.795 77.375 156.043 77.375C154.291 77.375 153.049 78.3301 153.049 79.6309V79.6426C153.049 80.5508 153.693 81.2598 154.66 81.5176V81.5527C153.535 81.7812 152.744 82.6191 152.744 83.7031V83.7148C152.744 85.1621 154.098 86.1699 156.043 86.1699ZM156.043 81.0371C155.158 81.0371 154.543 80.5215 154.543 79.7832V79.7715C154.543 79.0332 155.158 78.5176 156.043 78.5176C156.928 78.5176 157.543 79.0332 157.543 79.7715V79.7832C157.543 80.5215 156.928 81.0371 156.043 81.0371ZM156.043 85.0156C155.029 85.0156 154.309 84.4297 154.309 83.6152V83.6035C154.309 82.7832 155.018 82.1914 156.043 82.1914C157.062 82.1914 157.777 82.7832 157.777 83.6035V83.6152C157.777 84.4297 157.057 85.0156 156.043 85.0156ZM163.039 86H164.551V77.5449H163.045L160.836 79.0977V80.5215L162.939 79.0332H163.039V86ZM170 86.2109C172.01 86.2109 173.229 84.5059 173.229 81.7754V81.7637C173.229 79.0332 172.01 77.334 170 77.334C167.99 77.334 166.783 79.0332 166.783 81.7637V81.7754C166.783 84.5059 167.99 86.2109 170 86.2109ZM170 84.9863C168.922 84.9863 168.307 83.7793 168.307 81.7754V81.7637C168.307 79.7598 168.922 78.5645 170 78.5645C171.078 78.5645 171.705 79.7598 171.705 81.7637V81.7754C171.705 83.7793 171.078 84.9863 170 84.9863ZM178.238 86H181.854C183.658 86 184.76 85.0859 184.76 83.6035V83.5918C184.76 82.4961 183.975 81.6758 182.838 81.5703V81.4648C183.688 81.3301 184.344 80.5449 184.344 79.6602V79.6484C184.344 78.3535 183.377 77.5449 181.771 77.5449H178.238V86ZM181.402 78.7227C182.316 78.7227 182.85 79.1621 182.85 79.9121V79.9238C182.85 80.6914 182.281 81.1074 181.209 81.1074H179.75V78.7227H181.402ZM181.449 82.1797C182.604 82.1797 183.213 82.6309 183.213 83.4863V83.498C183.213 84.3594 182.621 84.8223 181.508 84.8223H179.75V82.1797H181.449ZM188.844 78.7285C189.617 78.7285 190.25 78.1309 190.25 77.375V77.3691C190.25 76.6133 189.617 76.0215 188.844 76.0215C188.064 76.0215 187.432 76.6133 187.432 77.3691V77.375C187.432 78.1309 188.064 78.7285 188.844 78.7285ZM188.844 78.0371C188.469 78.0371 188.164 77.7441 188.164 77.375V77.3691C188.164 77.0059 188.463 76.7188 188.844 76.7188C189.219 76.7188 189.523 77.0059 189.523 77.3691V77.375C189.523 77.7441 189.219 78.0371 188.844 78.0371ZM188 86.1055C188.844 86.1055 189.523 85.7422 189.875 85.1211H189.975V86H191.416V81.623C191.416 80.2695 190.49 79.4727 188.844 79.4727C187.32 79.4727 186.289 80.1875 186.148 81.2656L186.143 81.3184H187.52L187.525 81.2949C187.672 80.873 188.105 80.6328 188.773 80.6328C189.559 80.6328 189.975 80.9844 189.975 81.623V82.1738L188.328 82.2734C186.77 82.3672 185.896 83.0352 185.896 84.1777V84.1895C185.896 85.3555 186.781 86.1055 188 86.1055ZM187.338 84.1191V84.1074C187.338 83.5801 187.719 83.2812 188.533 83.2285L189.975 83.1348V83.6504C189.975 84.4121 189.324 84.9863 188.445 84.9863C187.801 84.9863 187.338 84.6641 187.338 84.1191ZM195.688 86.0293C195.969 86.0293 196.238 86.0059 196.449 85.9648V84.8398C196.273 84.8574 196.162 84.8633 195.957 84.8633C195.348 84.8633 195.096 84.5938 195.096 83.9551V80.7266H196.449V79.5957H195.096V78.0254H193.613V79.5957H192.617V80.7266H193.613V84.3008C193.613 85.5371 194.217 86.0293 195.688 86.0293ZM200.586 86.1289C202.326 86.1289 203.182 85.127 203.387 84.3008L203.404 84.248H202.016L201.998 84.2891C201.857 84.582 201.406 84.9805 200.615 84.9805C199.625 84.9805 199.004 84.3125 198.986 83.1641H203.463V82.6836C203.463 80.75 202.338 79.4727 200.516 79.4727C198.693 79.4727 197.527 80.791 197.527 82.8066V82.8125C197.527 84.8516 198.682 86.1289 200.586 86.1289ZM200.533 80.6152C201.348 80.6152 201.939 81.1367 202.039 82.1855H198.998C199.109 81.166 199.719 80.6152 200.533 80.6152ZM204.922 86H206.381V82.2676C206.381 81.3066 206.92 80.6973 207.787 80.6973C208.672 80.6973 209.076 81.2012 209.076 82.1973V86H210.535V81.8574C210.535 80.334 209.756 79.4727 208.326 79.4727C207.4 79.4727 206.785 79.8887 206.48 80.5742H206.381V79.5957H204.922V86Z" fill="white"/>
<path fill-rule="evenodd" clip-rule="evenodd" d="M138.202 28.4593L140.135 28.4583C140.244 28.4583 140.346 28.3943 140.293 28.2293L140.1 27.4493C140.073 27.3373 139.971 27.2583 139.856 27.2583H138.202C138.091 27.2583 138 27.3483 138 27.4593V28.2583C138 28.3693 138.091 28.4593 138.202 28.4593ZM137.397 28.4583C137.509 28.4583 137.601 28.3673 137.601 28.2543V27.4613C137.601 27.3493 137.509 27.2583 137.397 27.2583H136.004C135.892 27.2583 135.8 27.3493 135.8 27.4613V28.2543C135.8 28.3673 135.892 28.4583 136.004 28.4583H137.397ZM135.197 28.4583C135.307 28.4583 135.397 28.3683 135.397 28.2583V27.4583C135.397 27.3473 135.307 27.2583 135.197 27.2583H133.747C133.651 27.2583 133.562 27.3123 133.519 27.3993L133.138 28.1793C133.035 28.3603 133.147 28.4583 133.271 28.4583H135.197ZM142.087 28.4583H142.749C142.939 28.4583 143.059 28.6613 142.968 28.8273L141.358 31.7903L141.348 31.7845C140.953 31.5689 140.403 31.2693 139.513 31.2693C138.814 31.2693 138.464 31.4525 138.113 31.6357C137.763 31.819 137.413 32.0023 136.712 32.0023C136.013 32.0023 135.663 31.8192 135.314 31.636C134.963 31.4527 134.613 31.2693 133.912 31.2693C133.213 31.2693 132.863 31.4525 132.513 31.6357C132.164 31.819 131.814 32.0023 131.113 32.0023C130.495 32.0023 130.151 31.8593 129.837 31.7003L131.333 28.6533C131.392 28.5343 131.514 28.4583 131.647 28.4583H131.75H131.986H132.315C132.336 28.4583 132.355 28.4443 132.362 28.4243L133.46 26.1993C133.52 26.0793 133.643 26.0023 133.778 26.0023H135.556H137.169C137.19 26.0023 137.215 25.9883 137.215 25.9483V25.4853C137.215 25.3153 137.31 25.1593 137.459 25.0833L138.672 24.3773C138.875 24.2773 139.016 24.3893 139.089 24.5753L139.43 25.3993C139.437 25.4203 139.455 25.4333 139.476 25.4343H140.031C140.18 25.4343 140.313 25.5313 140.361 25.6763L141.268 28.4213C141.275 28.4433 141.295 28.4583 141.318 28.4583H141.857H142.087ZM135.105 33.5775C135.483 33.7764 135.913 34.0022 136.736 34.0022C137.559 34.0022 137.989 33.7764 138.367 33.5775L138.368 33.5772C138.698 33.4042 138.959 33.2682 139.536 33.2682C139.948 33.2682 140.199 33.3372 140.429 33.4402L140.908 32.5602C140.582 32.4052 140.178 32.2682 139.536 32.2682C138.713 32.2682 138.282 32.4932 137.903 32.6922L137.902 32.6925C137.573 32.8653 137.312 33.0022 136.736 33.0022C136.16 33.0022 135.899 32.8653 135.57 32.6925L135.569 32.6922C135.19 32.4932 134.759 32.2682 133.936 32.2682C133.113 32.2682 132.683 32.4932 132.303 32.6922L132.301 32.6934C131.972 32.8658 131.712 33.0022 131.135 33.0022C130.395 33.0022 129.698 32.5672 129.644 32.5333L129.642 32.5322L129.446 32.4242L129 33.3172L129.129 33.3892C129.167 33.4142 130.084 34.0022 131.135 34.0022C131.956 34.0022 132.385 33.7776 132.764 33.579L132.768 33.5772C133.098 33.4042 133.359 33.2682 133.936 33.2682C134.513 33.2682 134.774 33.4042 135.104 33.5772L135.105 33.5775Z" fill="#8CDCFD"/>
<path fill-rule="evenodd" clip-rule="evenodd" d="M138.202 80.4593L140.135 80.4583C140.244 80.4583 140.346 80.3943 140.293 80.2293L140.1 79.4493C140.073 79.3373 139.971 79.2583 139.856 79.2583H138.202C138.091 79.2583 138 79.3483 138 79.4593V80.2583C138 80.3693 138.091 80.4593 138.202 80.4593ZM137.397 80.4583C137.509 80.4583 137.601 80.3673 137.601 80.2543V79.4613C137.601 79.3493 137.509 79.2583 137.397 79.2583H136.004C135.892 79.2583 135.8 79.3493 135.8 79.4613V80.2543C135.8 80.3673 135.892 80.4583 136.004 80.4583H137.397ZM135.197 80.4583C135.307 80.4583 135.397 80.3683 135.397 80.2583V79.4583C135.397 79.3473 135.307 79.2583 135.197 79.2583H133.747C133.651 79.2583 133.562 79.3123 133.519 79.3993L133.138 80.1793C133.035 80.3603 133.147 80.4583 133.271 80.4583H135.197ZM142.087 80.4583H142.749C142.939 80.4583 143.059 80.6613 142.968 80.8273L141.358 83.7903L141.348 83.7845C140.953 83.5689 140.403 83.2693 139.513 83.2693C138.814 83.2693 138.464 83.4525 138.113 83.6357C137.763 83.819 137.413 84.0023 136.712 84.0023C136.013 84.0023 135.663 83.8192 135.314 83.636C134.963 83.4527 134.613 83.2693 133.912 83.2693C133.213 83.2693 132.863 83.4525 132.513 83.6357C132.164 83.819 131.814 84.0023 131.113 84.0023C130.495 84.0023 130.151 83.8593 129.837 83.7003L131.333 80.6533C131.392 80.5343 131.514 80.4583 131.647 80.4583H131.75H131.986H132.315C132.336 80.4583 132.355 80.4443 132.362 80.4243L133.46 78.1993C133.52 78.0793 133.643 78.0023 133.778 78.0023H135.556H137.169C137.19 78.0023 137.215 77.9883 137.215 77.9483V77.4853C137.215 77.3153 137.31 77.1593 137.459 77.0833L138.672 76.3773C138.875 76.2773 139.016 76.3893 139.089 76.5753L139.43 77.3993C139.437 77.4203 139.455 77.4333 139.476 77.4343H140.031C140.18 77.4343 140.313 77.5313 140.361 77.6763L141.268 80.4213C141.275 80.4433 141.295 80.4583 141.318 80.4583H141.857H142.087ZM135.105 85.5775C135.483 85.7764 135.913 86.0022 136.736 86.0022C137.559 86.0022 137.989 85.7764 138.367 85.5775L138.368 85.5772C138.698 85.4042 138.959 85.2682 139.536 85.2682C139.948 85.2682 140.199 85.3372 140.429 85.4402L140.908 84.5602C140.582 84.4052 140.178 84.2682 139.536 84.2682C138.713 84.2682 138.282 84.4932 137.903 84.6922L137.902 84.6925C137.573 84.8653 137.312 85.0022 136.736 85.0022C136.16 85.0022 135.899 84.8653 135.57 84.6925L135.569 84.6922C135.19 84.4932 134.759 84.2682 133.936 84.2682C133.113 84.2682 132.683 84.4932 132.303 84.6922L132.301 84.6934C131.972 84.8658 131.712 85.0022 131.135 85.0022C130.395 85.0022 129.698 84.5672 129.644 84.5333L129.642 84.5322L129.446 84.4242L129 85.3172L129.129 85.3892C129.167 85.4142 130.084 86.0022 131.135 86.0022C131.956 86.0022 132.385 85.7776 132.764 85.579L132.768 85.5772C133.098 85.4042 133.359 85.2682 133.936 85.2682C134.513 85.2682 134.774 85.4042 135.104 85.5772L135.105 85.5775Z" fill="#8CDCFD"/>
<rect x="232" y="8" width="104" height="196" rx="2" fill="#292B6A"/>
<path d="M40.8848 34H46.7559V32.7461H42.9297V32.623L44.623 30.9824C46.1641 29.5 46.627 28.7383 46.627 27.7773V27.7598C46.627 26.3359 45.4434 25.334 43.7969 25.334C42.0332 25.334 40.8027 26.4355 40.8027 28.0117L40.8086 28.0293L42.2148 28.0352L42.2207 28.0117C42.2207 27.1387 42.8242 26.5469 43.7207 26.5469C44.5996 26.5469 45.1328 27.1094 45.1328 27.8887V27.9062C45.1328 28.5566 44.8105 28.9844 43.6621 30.1445L40.8848 32.9805V34ZM51.6602 34.2109C53.4941 34.2109 54.8008 32.957 54.8008 31.2402V31.2285C54.8008 29.623 53.6641 28.4395 52.041 28.4395C50.8809 28.4395 50.1426 29.0312 49.832 29.6992H49.7148C49.7441 27.9883 50.3008 26.5762 51.6953 26.5762C52.4395 26.5762 52.9609 26.9629 53.1836 27.5547L53.207 27.6133H54.6895L54.6777 27.5488C54.4082 26.2539 53.248 25.334 51.6953 25.334C49.5684 25.334 48.2852 27.0215 48.2852 29.8691V29.8809C48.2852 32.9277 49.8555 34.2109 51.6602 34.2109ZM49.9785 31.2578V31.2461C49.9785 30.291 50.7109 29.5996 51.666 29.5996C52.627 29.5996 53.3242 30.3027 53.3242 31.2812V31.293C53.3242 32.2363 52.5859 32.9805 51.6484 32.9805C50.7109 32.9805 49.9785 32.2246 49.9785 31.2578ZM61.8965 34H63.4082V26.8164H66.0156V25.5449H59.2949V26.8164H61.8965V34ZM69.0742 34.1289C70.9902 34.1289 72.1562 32.875 72.1562 30.8008V30.7891C72.1562 28.7266 70.9844 27.4727 69.0742 27.4727C67.1699 27.4727 65.9922 28.7324 65.9922 30.7891V30.8008C65.9922 32.875 67.1523 34.1289 69.0742 34.1289ZM69.0742 32.9453C68.0605 32.9453 67.4805 32.1543 67.4805 30.8066V30.7949C67.4805 29.4473 68.0605 28.6504 69.0742 28.6504C70.082 28.6504 70.6621 29.4473 70.6621 30.7949V30.8066C70.6621 32.1543 70.0879 32.9453 69.0742 32.9453ZM76.375 36.25C78.2441 36.25 79.4277 35.3184 79.4277 33.8418V27.5957H77.9688V28.6504H77.8926C77.5293 27.9238 76.8379 27.4902 75.9531 27.4902C74.3008 27.4902 73.293 28.7676 73.293 30.6191V30.6309C73.293 32.4473 74.3008 33.7012 75.9238 33.7012C76.8086 33.7012 77.5059 33.3262 77.875 32.6406H77.9746V33.8652C77.9746 34.6855 77.3945 35.1484 76.3984 35.1484C75.584 35.1484 75.0977 34.8613 74.998 34.4512L74.9922 34.4336H73.5332L73.5273 34.4512C73.6738 35.5293 74.6875 36.25 76.375 36.25ZM76.375 32.541C75.3613 32.541 74.7871 31.7617 74.7871 30.6309V30.6191C74.7871 29.4883 75.3613 28.7031 76.375 28.7031C77.3828 28.7031 77.998 29.4883 77.998 30.6191V30.6309C77.998 31.7617 77.3887 32.541 76.375 32.541ZM83.957 34.1289C85.6973 34.1289 86.5527 33.127 86.7578 32.3008L86.7754 32.248H85.3867L85.3691 32.2891C85.2285 32.582 84.7773 32.9805 83.9863 32.9805C82.9961 32.9805 82.375 32.3125 82.3574 31.1641H86.834V30.6836C86.834 28.75 85.709 27.4727 83.8867 27.4727C82.0645 27.4727 80.8984 28.791 80.8984 30.8066V30.8125C80.8984 32.8516 82.0527 34.1289 83.957 34.1289ZM83.9043 28.6152C84.7188 28.6152 85.3105 29.1367 85.4102 30.1855H82.3691C82.4805 29.166 83.0898 28.6152 83.9043 28.6152ZM90.8125 34.0293C91.0938 34.0293 91.3633 34.0059 91.5742 33.9648V32.8398C91.3984 32.8574 91.2871 32.8633 91.082 32.8633C90.4727 32.8633 90.2207 32.5938 90.2207 31.9551V28.7266H91.5742V27.5957H90.2207V26.0254H88.7383V27.5957H87.7422V28.7266H88.7383V32.3008C88.7383 33.5371 89.3418 34.0293 90.8125 34.0293Z" fill="white"/>
<path d="M40.8848 86H46.7559V84.7461H42.9297V84.623L44.623 82.9824C46.1641 81.5 46.627 80.7383 46.627 79.7773V79.7598C46.627 78.3359 45.4434 77.334 43.7969 77.334C42.0332 77.334 40.8027 78.4355 40.8027 80.0117L40.8086 80.0293L42.2148 80.0352L42.2207 80.0117C42.2207 79.1387 42.8242 78.5469 43.7207 78.5469C44.5996 78.5469 45.1328 79.1094 45.1328 79.8887V79.9062C45.1328 80.5566 44.8105 80.9844 43.6621 82.1445L40.8848 84.9805V86ZM50.5 86H52.0117V77.5449H50.5059L48.2969 79.0977V80.5215L50.4004 79.0332H50.5V86ZM59.8223 86H61.334V78.8164H63.9414V77.5449H57.2207V78.8164H59.8223V86ZM67 86.1289C68.916 86.1289 70.082 84.875 70.082 82.8008V82.7891C70.082 80.7266 68.9102 79.4727 67 79.4727C65.0957 79.4727 63.918 80.7324 63.918 82.7891V82.8008C63.918 84.875 65.0781 86.1289 67 86.1289ZM67 84.9453C65.9863 84.9453 65.4062 84.1543 65.4062 82.8066V82.7949C65.4062 81.4473 65.9863 80.6504 67 80.6504C68.0078 80.6504 68.5879 81.4473 68.5879 82.7949V82.8066C68.5879 84.1543 68.0137 84.9453 67 84.9453ZM74.3008 88.25C76.1699 88.25 77.3535 87.3184 77.3535 85.8418V79.5957H75.8945V80.6504H75.8184C75.4551 79.9238 74.7637 79.4902 73.8789 79.4902C72.2266 79.4902 71.2188 80.7676 71.2188 82.6191V82.6309C71.2188 84.4473 72.2266 85.7012 73.8496 85.7012C74.7344 85.7012 75.4316 85.3262 75.8008 84.6406H75.9004V85.8652C75.9004 86.6855 75.3203 87.1484 74.3242 87.1484C73.5098 87.1484 73.0234 86.8613 72.9238 86.4512L72.918 86.4336H71.459L71.4531 86.4512C71.5996 87.5293 72.6133 88.25 74.3008 88.25ZM74.3008 84.541C73.2871 84.541 72.7129 83.7617 72.7129 82.6309V82.6191C72.7129 81.4883 73.2871 80.7031 74.3008 80.7031C75.3086 80.7031 75.9238 81.4883 75.9238 82.6191V82.6309C75.9238 83.7617 75.3145 84.541 74.3008 84.541ZM81.8828 86.1289C83.623 86.1289 84.4785 85.127 84.6836 84.3008L84.7012 84.248H83.3125L83.2949 84.2891C83.1543 84.582 82.7031 84.9805 81.9121 84.9805C80.9219 84.9805 80.3008 84.3125 80.2832 83.1641H84.7598V82.6836C84.7598 80.75 83.6348 79.4727 81.8125 79.4727C79.9902 79.4727 78.8242 80.791 78.8242 82.8066V82.8125C78.8242 84.8516 79.9785 86.1289 81.8828 86.1289ZM81.8301 80.6152C82.6445 80.6152 83.2363 81.1367 83.3359 82.1855H80.2949C80.4062 81.166 81.0156 80.6152 81.8301 80.6152ZM88.7383 86.0293C89.0195 86.0293 89.2891 86.0059 89.5 85.9648V84.8398C89.3242 84.8574 89.2129 84.8633 89.0078 84.8633C88.3984 84.8633 88.1465 84.5938 88.1465 83.9551V80.7266H89.5V79.5957H88.1465V78.0254H86.6641V79.5957H85.668V80.7266H86.6641V84.3008C86.6641 85.5371 87.2676 86.0293 88.7383 86.0293Z" fill="white"/>
<path d="M40.8848 138H46.7559V136.746H42.9297V136.623L44.623 134.982C46.1641 133.5 46.627 132.738 46.627 131.777V131.76C46.627 130.336 45.4434 129.334 43.7969 129.334C42.0332 129.334 40.8027 130.436 40.8027 132.012L40.8086 132.029L42.2148 132.035L42.2207 132.012C42.2207 131.139 42.8242 130.547 43.7207 130.547C44.5996 130.547 45.1328 131.109 45.1328 131.889V131.906C45.1328 132.557 44.8105 132.984 43.6621 134.145L40.8848 136.98V138ZM51.4844 138.211C53.3125 138.211 54.5957 137.01 54.5957 135.252V135.24C54.5957 133.623 53.4531 132.451 51.877 132.451C51.0801 132.451 50.4238 132.791 50.0723 133.359H49.9727L50.207 130.787H54.1035V129.545H49.0293L48.6191 134.496H49.9141C50.0137 134.309 50.1543 134.145 50.3066 134.016C50.6172 133.734 51.0273 133.594 51.502 133.594C52.4688 133.594 53.1602 134.285 53.1602 135.27V135.281C53.1602 136.277 52.4805 136.975 51.4902 136.975C50.623 136.975 49.9844 136.424 49.873 135.732L49.8672 135.691H48.4727L48.4785 135.768C48.5898 137.156 49.7559 138.211 51.4844 138.211ZM61.6621 138H63.1738V130.816H65.7812V129.545H59.0605V130.816H61.6621V138ZM68.8398 138.129C70.7559 138.129 71.9219 136.875 71.9219 134.801V134.789C71.9219 132.727 70.75 131.473 68.8398 131.473C66.9355 131.473 65.7578 132.732 65.7578 134.789V134.801C65.7578 136.875 66.918 138.129 68.8398 138.129ZM68.8398 136.945C67.8262 136.945 67.2461 136.154 67.2461 134.807V134.795C67.2461 133.447 67.8262 132.65 68.8398 132.65C69.8477 132.65 70.4277 133.447 70.4277 134.795V134.807C70.4277 136.154 69.8535 136.945 68.8398 136.945ZM76.1406 140.25C78.0098 140.25 79.1934 139.318 79.1934 137.842V131.596H77.7344V132.65H77.6582C77.2949 131.924 76.6035 131.49 75.7188 131.49C74.0664 131.49 73.0586 132.768 73.0586 134.619V134.631C73.0586 136.447 74.0664 137.701 75.6895 137.701C76.5742 137.701 77.2715 137.326 77.6406 136.641H77.7402V137.865C77.7402 138.686 77.1602 139.148 76.1641 139.148C75.3496 139.148 74.8633 138.861 74.7637 138.451L74.7578 138.434H73.2988L73.293 138.451C73.4395 139.529 74.4531 140.25 76.1406 140.25ZM76.1406 136.541C75.127 136.541 74.5527 135.762 74.5527 134.631V134.619C74.5527 133.488 75.127 132.703 76.1406 132.703C77.1484 132.703 77.7637 133.488 77.7637 134.619V134.631C77.7637 135.762 77.1543 136.541 76.1406 136.541ZM83.7227 138.129C85.4629 138.129 86.3184 137.127 86.5234 136.301L86.541 136.248H85.1523L85.1348 136.289C84.9941 136.582 84.543 136.98 83.752 136.98C82.7617 136.98 82.1406 136.312 82.123 135.164H86.5996V134.684C86.5996 132.75 85.4746 131.473 83.6523 131.473C81.8301 131.473 80.6641 132.791 80.6641 134.807V134.812C80.6641 136.852 81.8184 138.129 83.7227 138.129ZM83.6699 132.615C84.4844 132.615 85.0762 133.137 85.1758 134.186H82.1348C82.2461 133.166 82.8555 132.615 83.6699 132.615ZM90.5781 138.029C90.8594 138.029 91.1289 138.006 91.3398 137.965V136.84C91.1641 136.857 91.0527 136.863 90.8477 136.863C90.2383 136.863 89.9863 136.594 89.9863 135.955V132.727H91.3398V131.596H89.9863V130.025H88.5039V131.596H87.5078V132.727H88.5039V136.301C88.5039 137.537 89.1074 138.029 90.5781 138.029Z" fill="white"/>
<path fill-rule="evenodd" clip-rule="evenodd" d="M27.896 28.7644C28.04 28.7644 28.168 28.7294 28.213 28.5934C28.258 28.4574 28.211 28.3644 28.097 28.2784L27.063 27.4994C27.004 27.4564 26.934 27.4324 26.862 27.4324H26.196C26.053 27.4324 25.926 27.5244 25.88 27.6594C25.835 27.7954 25.881 27.9454 25.996 28.0314L26.946 28.7014C27.0342 28.7673 27.1344 28.7658 27.2061 28.7647C27.2148 28.7645 27.2232 28.7644 27.231 28.7644H27.896ZM30.659 28.9914C30.698 29.0314 30.729 29.0654 30.75 29.1004C30.905 29.3064 31 29.5574 31 29.8344C31 30.3274 30.591 30.9814 30.1 31.7364C29.992 31.9014 29.809 32.0014 29.611 32.0014H17V26.0004H21.402L23.102 24.8334L21.4 23.4004H22.364L23.858 24.5794C23.939 24.6384 24 24.7294 24 24.8544C24 24.9774 23.952 25.0344 23.851 25.1104L22.557 26.0004H26.096C26.336 26.0004 26.736 26.0964 27.095 26.3324C28.192 27.0554 30.216 28.5464 30.531 28.8604C30.5477 28.8775 30.563 28.8931 30.5774 28.9078C30.5941 28.9247 30.6095 28.9403 30.624 28.9554C30.636 28.9664 30.648 28.9794 30.659 28.9914ZM30.0001 34.0007H17.0001V33.0007H30.0001V34.0007Z" fill="#5EA3F1"/>
<path fill-rule="evenodd" clip-rule="evenodd" d="M27.896 80.7644C28.04 80.7644 28.168 80.7294 28.213 80.5934C28.258 80.4574 28.211 80.3644 28.097 80.2784L27.063 79.4994C27.004 79.4564 26.934 79.4324 26.862 79.4324H26.196C26.053 79.4324 25.926 79.5244 25.88 79.6594C25.835 79.7954 25.881 79.9454 25.996 80.0314L26.946 80.7014C27.0342 80.7673 27.1344 80.7658 27.2061 80.7647C27.2148 80.7645 27.2232 80.7644 27.231 80.7644H27.896ZM30.659 80.9914C30.698 81.0314 30.729 81.0654 30.75 81.1004C30.905 81.3064 31 81.5574 31 81.8344C31 82.3274 30.591 82.9814 30.1 83.7364C29.992 83.9014 29.809 84.0014 29.611 84.0014H17V78.0004H21.402L23.102 76.8334L21.4 75.4004H22.364L23.858 76.5794C23.939 76.6384 24 76.7294 24 76.8544C24 76.9774 23.952 77.0344 23.851 77.1104L22.557 78.0004H26.096C26.336 78.0004 26.736 78.0964 27.095 78.3324C28.192 79.0554 30.216 80.5464 30.531 80.8604C30.5477 80.8775 30.563 80.8931 30.5774 80.9078C30.5941 80.9247 30.6095 80.9403 30.624 80.9554C30.636 80.9664 30.648 80.9794 30.659 80.9914ZM30.0001 86.0007H17.0001V85.0007H30.0001V86.0007Z" fill="#5EA3F1"/>
<path fill-rule="evenodd" clip-rule="evenodd" d="M27.896 132.764C28.04 132.764 28.168 132.729 28.213 132.593C28.258 132.457 28.211 132.364 28.097 132.278L27.063 131.499C27.004 131.456 26.934 131.432 26.862 131.432H26.196C26.053 131.432 25.926 131.524 25.88 131.659C25.835 131.795 25.881 131.945 25.996 132.031L26.946 132.701C27.0342 132.767 27.1344 132.766 27.2061 132.765C27.2148 132.765 27.2232 132.764 27.231 132.764H27.896ZM30.659 132.991C30.698 133.031 30.729 133.065 30.75 133.1C30.905 133.306 31 133.557 31 133.834C31 134.327 30.591 134.981 30.1 135.736C29.992 135.901 29.809 136.001 29.611 136.001H17V130H21.402L23.102 128.833L21.4 127.4H22.364L23.858 128.579C23.939 128.638 24 128.729 24 128.854C24 128.977 23.952 129.034 23.851 129.11L22.557 130H26.096C26.336 130 26.736 130.096 27.095 130.332C28.192 131.055 30.216 132.546 30.531 132.86C30.5477 132.878 30.563 132.893 30.5774 132.908C30.5941 132.925 30.6095 132.94 30.624 132.955C30.636 132.966 30.648 132.979 30.659 132.991ZM30.0001 138.001H17.0001V137.001H30.0001V138.001Z" fill="#5EA3F1"/>
<rect x="240" y="44" width="18" height="8" rx="1" fill="#54568C"/>
<rect x="240" y="97" width="18" height="8" rx="1" fill="#54568C"/>
<rect x="240" y="148" width="18" height="8" rx="1" fill="#54568C"/>
<rect x="263" y="44" width="18" height="8" rx="1" fill="#54568C"/>
<rect x="263" y="97" width="18" height="8" rx="1" fill="#54568C"/>
<rect x="263" y="148" width="18" height="8" rx="1" fill="#54568C"/>
<rect x="286" y="44" width="18" height="8" rx="1" fill="#54568C"/>
<rect x="286" y="97" width="18" height="8" rx="1" fill="#54568C"/>
<rect x="286" y="148" width="18" height="8" rx="1" fill="#54568C"/>
<rect x="309" y="44" width="18" height="8" rx="1" fill="#54568C"/>
<rect x="309" y="97" width="18" height="8" rx="1" fill="#54568C"/>
<rect x="309" y="148" width="18" height="8" rx="1" fill="#54568C"/>
<path d="M266.953 34H268.465V25.5449H266.959L264.75 27.0977V28.5215L266.854 27.0332H266.953V34ZM273.914 34.2109C275.924 34.2109 277.143 32.5059 277.143 29.7754V29.7637C277.143 27.0332 275.924 25.334 273.914 25.334C271.904 25.334 270.697 27.0332 270.697 29.7637V29.7754C270.697 32.5059 271.904 34.2109 273.914 34.2109ZM273.914 32.9863C272.836 32.9863 272.221 31.7793 272.221 29.7754V29.7637C272.221 27.7598 272.836 26.5645 273.914 26.5645C274.992 26.5645 275.619 27.7598 275.619 29.7637V29.7754C275.619 31.7793 274.992 32.9863 273.914 32.9863ZM282.152 34H285.768C287.572 34 288.674 33.0859 288.674 31.6035V31.5918C288.674 30.4961 287.889 29.6758 286.752 29.5703V29.4648C287.602 29.3301 288.258 28.5449 288.258 27.6602V27.6484C288.258 26.3535 287.291 25.5449 285.686 25.5449H282.152V34ZM285.316 26.7227C286.23 26.7227 286.764 27.1621 286.764 27.9121V27.9238C286.764 28.6914 286.195 29.1074 285.123 29.1074H283.664V26.7227H285.316ZM285.363 30.1797C286.518 30.1797 287.127 30.6309 287.127 31.4863V31.498C287.127 32.3594 286.535 32.8223 285.422 32.8223H283.664V30.1797H285.363ZM292.289 34.1289C293.215 34.1289 293.865 33.7129 294.164 33.0273H294.264V34H295.723V27.5957H294.264V31.3281C294.264 32.2891 293.76 32.8984 292.816 32.8984C291.938 32.8984 291.568 32.3945 291.568 31.4043V27.5957H290.109V31.7383C290.109 33.2617 290.848 34.1289 292.289 34.1289ZM299.924 34.1289C301.5 34.1289 302.643 33.3145 302.643 32.0957V32.084C302.643 31.1523 302.051 30.6191 300.797 30.3379L299.76 30.1094C299.068 29.9512 298.799 29.7227 298.799 29.3477V29.3418C298.799 28.8613 299.268 28.5449 299.918 28.5449C300.604 28.5449 301.025 28.873 301.131 29.2773L301.137 29.2949H302.508V29.2832C302.414 28.2461 301.482 27.4727 299.924 27.4727C298.412 27.4727 297.357 28.2695 297.357 29.4238V29.4297C297.357 30.373 297.938 30.9473 299.156 31.2168L300.193 31.4512C300.896 31.6094 301.178 31.8555 301.178 32.2305V32.2422C301.178 32.7227 300.674 33.0508 299.947 33.0508C299.221 33.0508 298.793 32.7402 298.641 32.2949L298.635 32.2832H297.188V32.2949C297.311 33.3789 298.295 34.1289 299.924 34.1289ZM306.416 34.1289C307.992 34.1289 309.135 33.3145 309.135 32.0957V32.084C309.135 31.1523 308.543 30.6191 307.289 30.3379L306.252 30.1094C305.561 29.9512 305.291 29.7227 305.291 29.3477V29.3418C305.291 28.8613 305.76 28.5449 306.41 28.5449C307.096 28.5449 307.518 28.873 307.623 29.2773L307.629 29.2949H309V29.2832C308.906 28.2461 307.975 27.4727 306.416 27.4727C304.904 27.4727 303.85 28.2695 303.85 29.4238V29.4297C303.85 30.373 304.43 30.9473 305.648 31.2168L306.686 31.4512C307.389 31.6094 307.67 31.8555 307.67 32.2305V32.2422C307.67 32.7227 307.166 33.0508 306.439 33.0508C305.713 33.0508 305.285 32.7402 305.133 32.2949L305.127 32.2832H303.68V32.2949C303.803 33.3789 304.787 34.1289 306.416 34.1289ZM313.348 34.1289C315.088 34.1289 315.943 33.127 316.148 32.3008L316.166 32.248H314.777L314.76 32.2891C314.619 32.582 314.168 32.9805 313.377 32.9805C312.387 32.9805 311.766 32.3125 311.748 31.1641H316.225V30.6836C316.225 28.75 315.1 27.4727 313.277 27.4727C311.455 27.4727 310.289 28.791 310.289 30.8066V30.8125C310.289 32.8516 311.443 34.1289 313.348 34.1289ZM313.295 28.6152C314.109 28.6152 314.701 29.1367 314.801 30.1855H311.76C311.871 29.166 312.48 28.6152 313.295 28.6152ZM317.684 34H319.143V30.2676C319.143 29.3066 319.682 28.6973 320.549 28.6973C321.434 28.6973 321.838 29.2012 321.838 30.1973V34H323.297V29.8574C323.297 28.334 322.518 27.4727 321.088 27.4727C320.162 27.4727 319.547 27.8887 319.242 28.5742H319.143V27.5957H317.684V34Z" fill="white"/>
<path d="M266.953 87H268.465V78.5449H266.959L264.75 80.0977V81.5215L266.854 80.0332H266.953V87ZM270.814 87H276.686V85.7461H272.859V85.623L274.553 83.9824C276.094 82.5 276.557 81.7383 276.557 80.7773V80.7598C276.557 79.3359 275.373 78.334 273.727 78.334C271.963 78.334 270.732 79.4355 270.732 81.0117L270.738 81.0293L272.145 81.0352L272.15 81.0117C272.15 80.1387 272.754 79.5469 273.65 79.5469C274.529 79.5469 275.062 80.1094 275.062 80.8887V80.9062C275.062 81.5566 274.74 81.9844 273.592 83.1445L270.814 85.9805V87ZM281.719 87H285.334C287.139 87 288.24 86.0859 288.24 84.6035V84.5918C288.24 83.4961 287.455 82.6758 286.318 82.5703V82.4648C287.168 82.3301 287.824 81.5449 287.824 80.6602V80.6484C287.824 79.3535 286.857 78.5449 285.252 78.5449H281.719V87ZM284.883 79.7227C285.797 79.7227 286.33 80.1621 286.33 80.9121V80.9238C286.33 81.6914 285.762 82.1074 284.689 82.1074H283.23V79.7227H284.883ZM284.93 83.1797C286.084 83.1797 286.693 83.6309 286.693 84.4863V84.498C286.693 85.3594 286.102 85.8223 284.988 85.8223H283.23V83.1797H284.93ZM291.855 87.1289C292.781 87.1289 293.432 86.7129 293.73 86.0273H293.83V87H295.289V80.5957H293.83V84.3281C293.83 85.2891 293.326 85.8984 292.383 85.8984C291.504 85.8984 291.135 85.3945 291.135 84.4043V80.5957H289.676V84.7383C289.676 86.2617 290.414 87.1289 291.855 87.1289ZM299.49 87.1289C301.066 87.1289 302.209 86.3145 302.209 85.0957V85.084C302.209 84.1523 301.617 83.6191 300.363 83.3379L299.326 83.1094C298.635 82.9512 298.365 82.7227 298.365 82.3477V82.3418C298.365 81.8613 298.834 81.5449 299.484 81.5449C300.17 81.5449 300.592 81.873 300.697 82.2773L300.703 82.2949H302.074V82.2832C301.98 81.2461 301.049 80.4727 299.49 80.4727C297.979 80.4727 296.924 81.2695 296.924 82.4238V82.4297C296.924 83.373 297.504 83.9473 298.723 84.2168L299.76 84.4512C300.463 84.6094 300.744 84.8555 300.744 85.2305V85.2422C300.744 85.7227 300.24 86.0508 299.514 86.0508C298.787 86.0508 298.359 85.7402 298.207 85.2949L298.201 85.2832H296.754V85.2949C296.877 86.3789 297.861 87.1289 299.49 87.1289ZM305.982 87.1289C307.559 87.1289 308.701 86.3145 308.701 85.0957V85.084C308.701 84.1523 308.109 83.6191 306.855 83.3379L305.818 83.1094C305.127 82.9512 304.857 82.7227 304.857 82.3477V82.3418C304.857 81.8613 305.326 81.5449 305.977 81.5449C306.662 81.5449 307.084 81.873 307.189 82.2773L307.195 82.2949H308.566V82.2832C308.473 81.2461 307.541 80.4727 305.982 80.4727C304.471 80.4727 303.416 81.2695 303.416 82.4238V82.4297C303.416 83.373 303.996 83.9473 305.215 84.2168L306.252 84.4512C306.955 84.6094 307.236 84.8555 307.236 85.2305V85.2422C307.236 85.7227 306.732 86.0508 306.006 86.0508C305.279 86.0508 304.852 85.7402 304.699 85.2949L304.693 85.2832H303.246V85.2949C303.369 86.3789 304.354 87.1289 305.982 87.1289ZM312.914 87.1289C314.654 87.1289 315.51 86.127 315.715 85.3008L315.732 85.248H314.344L314.326 85.2891C314.186 85.582 313.734 85.9805 312.943 85.9805C311.953 85.9805 311.332 85.3125 311.314 84.1641H315.791V83.6836C315.791 81.75 314.666 80.4727 312.844 80.4727C311.021 80.4727 309.855 81.791 309.855 83.8066V83.8125C309.855 85.8516 311.01 87.1289 312.914 87.1289ZM312.861 81.6152C313.676 81.6152 314.268 82.1367 314.367 83.1855H311.326C311.438 82.166 312.047 81.6152 312.861 81.6152ZM317.25 87H318.709V83.2676C318.709 82.3066 319.248 81.6973 320.115 81.6973C321 81.6973 321.404 82.2012 321.404 83.1973V87H322.863V82.8574C322.863 81.334 322.084 80.4727 320.654 80.4727C319.729 80.4727 319.113 80.8887 318.809 81.5742H318.709V80.5957H317.25V87Z" fill="white"/>
<path d="M266.953 138H268.465V129.545H266.959L264.75 131.098V132.521L266.854 131.033H266.953V138ZM274.172 138H277.787C279.592 138 280.693 137.086 280.693 135.604V135.592C280.693 134.496 279.908 133.676 278.771 133.57V133.465C279.621 133.33 280.277 132.545 280.277 131.66V131.648C280.277 130.354 279.311 129.545 277.705 129.545H274.172V138ZM277.336 130.723C278.25 130.723 278.783 131.162 278.783 131.912V131.924C278.783 132.691 278.215 133.107 277.143 133.107H275.684V130.723H277.336ZM277.383 134.18C278.537 134.18 279.146 134.631 279.146 135.486V135.498C279.146 136.359 278.555 136.822 277.441 136.822H275.684V134.18H277.383ZM284.309 138.129C285.234 138.129 285.885 137.713 286.184 137.027H286.283V138H287.742V131.596H286.283V135.328C286.283 136.289 285.779 136.898 284.836 136.898C283.957 136.898 283.588 136.395 283.588 135.404V131.596H282.129V135.738C282.129 137.262 282.867 138.129 284.309 138.129ZM291.943 138.129C293.52 138.129 294.662 137.314 294.662 136.096V136.084C294.662 135.152 294.07 134.619 292.816 134.338L291.779 134.109C291.088 133.951 290.818 133.723 290.818 133.348V133.342C290.818 132.861 291.287 132.545 291.938 132.545C292.623 132.545 293.045 132.873 293.15 133.277L293.156 133.295H294.527V133.283C294.434 132.246 293.502 131.473 291.943 131.473C290.432 131.473 289.377 132.27 289.377 133.424V133.43C289.377 134.373 289.957 134.947 291.176 135.217L292.213 135.451C292.916 135.609 293.197 135.855 293.197 136.23V136.242C293.197 136.723 292.693 137.051 291.967 137.051C291.24 137.051 290.812 136.74 290.66 136.295L290.654 136.283H289.207V136.295C289.33 137.379 290.314 138.129 291.943 138.129ZM298.436 138.129C300.012 138.129 301.154 137.314 301.154 136.096V136.084C301.154 135.152 300.562 134.619 299.309 134.338L298.271 134.109C297.58 133.951 297.311 133.723 297.311 133.348V133.342C297.311 132.861 297.779 132.545 298.43 132.545C299.115 132.545 299.537 132.873 299.643 133.277L299.648 133.295H301.02V133.283C300.926 132.246 299.994 131.473 298.436 131.473C296.924 131.473 295.869 132.27 295.869 133.424V133.43C295.869 134.373 296.449 134.947 297.668 135.217L298.705 135.451C299.408 135.609 299.689 135.855 299.689 136.23V136.242C299.689 136.723 299.186 137.051 298.459 137.051C297.732 137.051 297.305 136.74 297.152 136.295L297.146 136.283H295.699V136.295C295.822 137.379 296.807 138.129 298.436 138.129ZM305.367 138.129C307.107 138.129 307.963 137.127 308.168 136.301L308.186 136.248H306.797L306.779 136.289C306.639 136.582 306.188 136.98 305.396 136.98C304.406 136.98 303.785 136.312 303.768 135.164H308.244V134.684C308.244 132.75 307.119 131.473 305.297 131.473C303.475 131.473 302.309 132.791 302.309 134.807V134.812C302.309 136.852 303.463 138.129 305.367 138.129ZM305.314 132.615C306.129 132.615 306.721 133.137 306.82 134.186H303.779C303.891 133.166 304.5 132.615 305.314 132.615ZM309.703 138H311.162V134.268C311.162 133.307 311.701 132.697 312.568 132.697C313.453 132.697 313.857 133.201 313.857 134.197V138H315.316V133.857C315.316 132.334 314.537 131.473 313.107 131.473C312.182 131.473 311.566 131.889 311.262 132.574H311.162V131.596H309.703V138Z" fill="white"/>
<path fill-rule="evenodd" clip-rule="evenodd" d="M241.656 28.789C241.656 28.591 241.814 28.431 242.006 28.431H242.707C242.9 28.431 243.055 28.591 243.055 28.789V30.221C243.055 30.418 242.9 30.579 242.707 30.579H242.006C241.814 30.579 241.656 30.418 241.656 30.221V28.789ZM243.756 28.789C243.756 28.591 243.913 28.431 244.106 28.431H246.906C247.099 28.431 247.257 28.591 247.257 28.789V30.221C247.257 30.418 247.099 30.579 246.906 30.579H244.106C243.913 30.579 243.756 30.418 243.756 30.221V28.789ZM247.956 28.789C247.956 28.591 248.113 28.431 248.306 28.431H251.106C251.299 28.431 251.456 28.591 251.456 28.789V30.221C251.456 30.418 251.299 30.579 251.106 30.579H248.306C248.113 30.579 247.956 30.418 247.956 30.221V28.789ZM252.156 28.789C252.156 28.591 252.314 28.431 252.506 28.431H253.593C253.77 28.431 253.918 28.564 253.939 28.743L254.125 30.174C254.138 30.277 254.107 30.379 254.04 30.457C253.974 30.535 253.878 30.579 253.778 30.579H252.506C252.314 30.579 252.156 30.418 252.156 30.221V28.789ZM254.995 31.594L254.296 27.298C254.266 27.126 254.122 26.999 253.95 26.999H241.7C241.349 26.999 241 27.357 241 27.716V31.57V31.813V32.641C241 32.82 241.128 32.999 241.3 32.999H242.847C243.083 32.281 243.753 31.799 244.55 31.799C245.348 31.799 246.017 32.281 246.253 32.999H249.797C250.032 32.281 250.702 31.799 251.5 31.799C252.297 31.799 252.967 32.281 253.203 32.999H254.65C254.843 32.999 255 32.838 255 32.641V31.813V31.653C255 31.633 254.998 31.614 254.995 31.594ZM243.55 33.7993C243.55 33.2483 243.998 32.7993 244.55 32.7993C245.102 32.7993 245.55 33.2483 245.55 33.7993C245.55 34.3513 245.102 34.7993 244.55 34.7993C243.998 34.7993 243.55 34.3513 243.55 33.7993ZM251.5 32.7993C250.948 32.7993 250.5 33.2483 250.5 33.7993C250.5 34.3513 250.948 34.7993 251.5 34.7993C252.052 34.7993 252.5 34.3513 252.5 33.7993C252.5 33.2483 252.052 32.7993 251.5 32.7993Z" fill="#D83755"/>
<path fill-rule="evenodd" clip-rule="evenodd" d="M241.656 81.789C241.656 81.591 241.814 81.431 242.006 81.431H242.707C242.9 81.431 243.055 81.591 243.055 81.789V83.221C243.055 83.418 242.9 83.579 242.707 83.579H242.006C241.814 83.579 241.656 83.418 241.656 83.221V81.789ZM243.756 81.789C243.756 81.591 243.913 81.431 244.106 81.431H246.906C247.099 81.431 247.257 81.591 247.257 81.789V83.221C247.257 83.418 247.099 83.579 246.906 83.579H244.106C243.913 83.579 243.756 83.418 243.756 83.221V81.789ZM247.956 81.789C247.956 81.591 248.113 81.431 248.306 81.431H251.106C251.299 81.431 251.456 81.591 251.456 81.789V83.221C251.456 83.418 251.299 83.579 251.106 83.579H248.306C248.113 83.579 247.956 83.418 247.956 83.221V81.789ZM252.156 81.789C252.156 81.591 252.314 81.431 252.506 81.431H253.593C253.77 81.431 253.918 81.564 253.939 81.743L254.125 83.174C254.138 83.277 254.107 83.379 254.04 83.457C253.974 83.535 253.878 83.579 253.778 83.579H252.506C252.314 83.579 252.156 83.418 252.156 83.221V81.789ZM254.995 84.594L254.296 80.298C254.266 80.126 254.122 79.999 253.95 79.999H241.7C241.349 79.999 241 80.357 241 80.716V84.57V84.813V85.641C241 85.82 241.128 85.999 241.3 85.999H242.847C243.083 85.281 243.753 84.799 244.55 84.799C245.348 84.799 246.017 85.281 246.253 85.999H249.797C250.032 85.281 250.702 84.799 251.5 84.799C252.297 84.799 252.967 85.281 253.203 85.999H254.65C254.843 85.999 255 85.838 255 85.641V84.813V84.653C255 84.633 254.998 84.614 254.995 84.594ZM243.55 86.7993C243.55 86.2483 243.998 85.7993 244.55 85.7993C245.102 85.7993 245.55 86.2483 245.55 86.7993C245.55 87.3513 245.102 87.7993 244.55 87.7993C243.998 87.7993 243.55 87.3513 243.55 86.7993ZM251.5 85.7993C250.948 85.7993 250.5 86.2483 250.5 86.7993C250.5 87.3513 250.948 87.7993 251.5 87.7993C252.052 87.7993 252.5 87.3513 252.5 86.7993C252.5 86.2483 252.052 85.7993 251.5 85.7993Z" fill="#D83755"/>
<path fill-rule="evenodd" clip-rule="evenodd" d="M241.656 132.789C241.656 132.591 241.814 132.431 242.006 132.431H242.707C242.9 132.431 243.055 132.591 243.055 132.789V134.221C243.055 134.418 242.9 134.579 242.707 134.579H242.006C241.814 134.579 241.656 134.418 241.656 134.221V132.789ZM243.756 132.789C243.756 132.591 243.913 132.431 244.106 132.431H246.906C247.099 132.431 247.257 132.591 247.257 132.789V134.221C247.257 134.418 247.099 134.579 246.906 134.579H244.106C243.913 134.579 243.756 134.418 243.756 134.221V132.789ZM247.956 132.789C247.956 132.591 248.113 132.431 248.306 132.431H251.106C251.299 132.431 251.456 132.591 251.456 132.789V134.221C251.456 134.418 251.299 134.579 251.106 134.579H248.306C248.113 134.579 247.956 134.418 247.956 134.221V132.789ZM252.156 132.789C252.156 132.591 252.314 132.431 252.506 132.431H253.593C253.77 132.431 253.918 132.564 253.939 132.743L254.125 134.174C254.138 134.277 254.107 134.379 254.04 134.457C253.974 134.535 253.878 134.579 253.778 134.579H252.506C252.314 134.579 252.156 134.418 252.156 134.221V132.789ZM254.995 135.594L254.296 131.298C254.266 131.126 254.122 130.999 253.95 130.999H241.7C241.349 130.999 241 131.357 241 131.716V135.57V135.813V136.641C241 136.82 241.128 136.999 241.3 136.999H242.847C243.083 136.281 243.753 135.799 244.55 135.799C245.348 135.799 246.017 136.281 246.253 136.999H249.797C250.032 136.281 250.702 135.799 251.5 135.799C252.297 135.799 252.967 136.281 253.203 136.999H254.65C254.843 136.999 255 136.838 255 136.641V135.813V135.653C255 135.633 254.998 135.614 254.995 135.594ZM243.55 137.799C243.55 137.248 243.998 136.799 244.55 136.799C245.102 136.799 245.55 137.248 245.55 137.799C245.55 138.351 245.102 138.799 244.55 138.799C243.998 138.799 243.55 138.351 243.55 137.799ZM251.5 136.799C250.948 136.799 250.5 137.248 250.5 137.799C250.5 138.351 250.948 138.799 251.5 138.799C252.052 138.799 252.5 138.351 252.5 137.799C252.5 137.248 252.052 136.799 251.5 136.799Z" fill="#D83755"/>
</svg>
