<svg width="464" height="286" viewBox="0 0 464 286" fill="none" xmlns="http://www.w3.org/2000/svg">
<rect width="464" height="286" rx="2" fill="black"/>
<rect x="12" y="12" width="139" height="262" rx="2" fill="#1E1E1E"/>
<rect x="24" y="56" width="25" height="11" rx="1" fill="#404040"/>
<rect x="24" y="115" width="25" height="11" rx="1" fill="#404040"/>
<rect x="24" y="174" width="25" height="11" rx="1" fill="#404040"/>
<rect x="24" y="233" width="25" height="11" rx="1" fill="#404040"/>
<rect x="55" y="56" width="25" height="11" rx="1" fill="#404040"/>
<rect x="55" y="115" width="25" height="11" rx="1" fill="#404040"/>
<rect x="55" y="174" width="25" height="11" rx="1" fill="#404040"/>
<rect x="55" y="233" width="25" height="11" rx="1" fill="#404040"/>
<rect x="86" y="56" width="25" height="11" rx="1" fill="#404040"/>
<rect x="86" y="115" width="25" height="11" rx="1" fill="#404040"/>
<rect x="86" y="174" width="25" height="11" rx="1" fill="#404040"/>
<rect x="86" y="233" width="25" height="11" rx="1" fill="#404040"/>
<rect x="117" y="56" width="24" height="11" rx="1" fill="#404040"/>
<rect x="117" y="115" width="24" height="11" rx="1" fill="#404040"/>
<rect x="117" y="174" width="24" height="11" rx="1" fill="#404040"/>
<rect x="117" y="233" width="24" height="11" rx="1" fill="#404040"/>
<path d="M48.8848 42H54.7559V40.7461H50.9297V40.623L52.623 38.9824C54.1641 37.5 54.627 36.7383 54.627 35.7773V35.7598C54.627 34.3359 53.4434 33.334 51.7969 33.334C50.0332 33.334 48.8027 34.4355 48.8027 36.0117L48.8086 36.0293L50.2148 36.0352L50.2207 36.0117C50.2207 35.1387 50.8242 34.5469 51.7207 34.5469C52.5996 34.5469 53.1328 35.1094 53.1328 35.8887V35.9062C53.1328 36.5566 52.8105 36.9844 51.6621 38.1445L48.8848 40.9805V42ZM59.6602 42.2109C61.4941 42.2109 62.8008 40.957 62.8008 39.2402V39.2285C62.8008 37.623 61.6641 36.4395 60.041 36.4395C58.8809 36.4395 58.1426 37.0312 57.832 37.6992H57.7148C57.7441 35.9883 58.3008 34.5762 59.6953 34.5762C60.4395 34.5762 60.9609 34.9629 61.1836 35.5547L61.207 35.6133H62.6895L62.6777 35.5488C62.4082 34.2539 61.248 33.334 59.6953 33.334C57.5684 33.334 56.2852 35.0215 56.2852 37.8691V37.8809C56.2852 40.9277 57.8555 42.2109 59.6602 42.2109ZM57.9785 39.2578V39.2461C57.9785 38.291 58.7109 37.5996 59.666 37.5996C60.627 37.5996 61.3242 38.3027 61.3242 39.2812V39.293C61.3242 40.2363 60.5859 40.9805 59.6484 40.9805C58.7109 40.9805 57.9785 40.2246 57.9785 39.2578ZM69.8965 42H71.4082V34.8164H74.0156V33.5449H67.2949V34.8164H69.8965V42ZM77.0742 42.1289C78.9902 42.1289 80.1562 40.875 80.1562 38.8008V38.7891C80.1562 36.7266 78.9844 35.4727 77.0742 35.4727C75.1699 35.4727 73.9922 36.7324 73.9922 38.7891V38.8008C73.9922 40.875 75.1523 42.1289 77.0742 42.1289ZM77.0742 40.9453C76.0605 40.9453 75.4805 40.1543 75.4805 38.8066V38.7949C75.4805 37.4473 76.0605 36.6504 77.0742 36.6504C78.082 36.6504 78.6621 37.4473 78.6621 38.7949V38.8066C78.6621 40.1543 78.0879 40.9453 77.0742 40.9453ZM84.375 44.25C86.2441 44.25 87.4277 43.3184 87.4277 41.8418V35.5957H85.9688V36.6504H85.8926C85.5293 35.9238 84.8379 35.4902 83.9531 35.4902C82.3008 35.4902 81.293 36.7676 81.293 38.6191V38.6309C81.293 40.4473 82.3008 41.7012 83.9238 41.7012C84.8086 41.7012 85.5059 41.3262 85.875 40.6406H85.9746V41.8652C85.9746 42.6855 85.3945 43.1484 84.3984 43.1484C83.584 43.1484 83.0977 42.8613 82.998 42.4512L82.9922 42.4336H81.5332L81.5273 42.4512C81.6738 43.5293 82.6875 44.25 84.375 44.25ZM84.375 40.541C83.3613 40.541 82.7871 39.7617 82.7871 38.6309V38.6191C82.7871 37.4883 83.3613 36.7031 84.375 36.7031C85.3828 36.7031 85.998 37.4883 85.998 38.6191V38.6309C85.998 39.7617 85.3887 40.541 84.375 40.541ZM91.957 42.1289C93.6973 42.1289 94.5527 41.127 94.7578 40.3008L94.7754 40.248H93.3867L93.3691 40.2891C93.2285 40.582 92.7773 40.9805 91.9863 40.9805C90.9961 40.9805 90.375 40.3125 90.3574 39.1641H94.834V38.6836C94.834 36.75 93.709 35.4727 91.8867 35.4727C90.0645 35.4727 88.8984 36.791 88.8984 38.8066V38.8125C88.8984 40.8516 90.0527 42.1289 91.957 42.1289ZM91.9043 36.6152C92.7188 36.6152 93.3105 37.1367 93.4102 38.1855H90.3691C90.4805 37.166 91.0898 36.6152 91.9043 36.6152ZM98.8125 42.0293C99.0938 42.0293 99.3633 42.0059 99.5742 41.9648V40.8398C99.3984 40.8574 99.2871 40.8633 99.082 40.8633C98.4727 40.8633 98.2207 40.5938 98.2207 39.9551V36.7266H99.5742V35.5957H98.2207V34.0254H96.7383V35.5957H95.7422V36.7266H96.7383V40.3008C96.7383 41.5371 97.3418 42.0293 98.8125 42.0293Z" fill="white"/>
<path d="M48.8848 101H54.7559V99.7461H50.9297V99.623L52.623 97.9824C54.1641 96.5 54.627 95.7383 54.627 94.7773V94.7598C54.627 93.3359 53.4434 92.334 51.7969 92.334C50.0332 92.334 48.8027 93.4355 48.8027 95.0117L48.8086 95.0293L50.2148 95.0352L50.2207 95.0117C50.2207 94.1387 50.8242 93.5469 51.7207 93.5469C52.5996 93.5469 53.1328 94.1094 53.1328 94.8887V94.9062C53.1328 95.5566 52.8105 95.9844 51.6621 97.1445L48.8848 99.9805V101ZM58.5 101H60.0117V92.5449H58.5059L56.2969 94.0977V95.5215L58.4004 94.0332H58.5V101ZM67.8223 101H69.334V93.8164H71.9414V92.5449H65.2207V93.8164H67.8223V101ZM75 101.129C76.916 101.129 78.082 99.875 78.082 97.8008V97.7891C78.082 95.7266 76.9102 94.4727 75 94.4727C73.0957 94.4727 71.918 95.7324 71.918 97.7891V97.8008C71.918 99.875 73.0781 101.129 75 101.129ZM75 99.9453C73.9863 99.9453 73.4062 99.1543 73.4062 97.8066V97.7949C73.4062 96.4473 73.9863 95.6504 75 95.6504C76.0078 95.6504 76.5879 96.4473 76.5879 97.7949V97.8066C76.5879 99.1543 76.0137 99.9453 75 99.9453ZM82.3008 103.25C84.1699 103.25 85.3535 102.318 85.3535 100.842V94.5957H83.8945V95.6504H83.8184C83.4551 94.9238 82.7637 94.4902 81.8789 94.4902C80.2266 94.4902 79.2188 95.7676 79.2188 97.6191V97.6309C79.2188 99.4473 80.2266 100.701 81.8496 100.701C82.7344 100.701 83.4316 100.326 83.8008 99.6406H83.9004V100.865C83.9004 101.686 83.3203 102.148 82.3242 102.148C81.5098 102.148 81.0234 101.861 80.9238 101.451L80.918 101.434H79.459L79.4531 101.451C79.5996 102.529 80.6133 103.25 82.3008 103.25ZM82.3008 99.541C81.2871 99.541 80.7129 98.7617 80.7129 97.6309V97.6191C80.7129 96.4883 81.2871 95.7031 82.3008 95.7031C83.3086 95.7031 83.9238 96.4883 83.9238 97.6191V97.6309C83.9238 98.7617 83.3145 99.541 82.3008 99.541ZM89.8828 101.129C91.623 101.129 92.4785 100.127 92.6836 99.3008L92.7012 99.248H91.3125L91.2949 99.2891C91.1543 99.582 90.7031 99.9805 89.9121 99.9805C88.9219 99.9805 88.3008 99.3125 88.2832 98.1641H92.7598V97.6836C92.7598 95.75 91.6348 94.4727 89.8125 94.4727C87.9902 94.4727 86.8242 95.791 86.8242 97.8066V97.8125C86.8242 99.8516 87.9785 101.129 89.8828 101.129ZM89.8301 95.6152C90.6445 95.6152 91.2363 96.1367 91.3359 97.1855H88.2949C88.4062 96.166 89.0156 95.6152 89.8301 95.6152ZM96.7383 101.029C97.0195 101.029 97.2891 101.006 97.5 100.965V99.8398C97.3242 99.8574 97.2129 99.8633 97.0078 99.8633C96.3984 99.8633 96.1465 99.5938 96.1465 98.9551V95.7266H97.5V94.5957H96.1465V93.0254H94.6641V94.5957H93.668V95.7266H94.6641V99.3008C94.6641 100.537 95.2676 101.029 96.7383 101.029Z" fill="white"/>
<path d="M48.8848 160H54.7559V158.746H50.9297V158.623L52.623 156.982C54.1641 155.5 54.627 154.738 54.627 153.777V153.76C54.627 152.336 53.4434 151.334 51.7969 151.334C50.0332 151.334 48.8027 152.436 48.8027 154.012L48.8086 154.029L50.2148 154.035L50.2207 154.012C50.2207 153.139 50.8242 152.547 51.7207 152.547C52.5996 152.547 53.1328 153.109 53.1328 153.889V153.906C53.1328 154.557 52.8105 154.984 51.6621 156.145L48.8848 158.98V160ZM59.4844 160.211C61.3125 160.211 62.5957 159.01 62.5957 157.252V157.24C62.5957 155.623 61.4531 154.451 59.877 154.451C59.0801 154.451 58.4238 154.791 58.0723 155.359H57.9727L58.207 152.787H62.1035V151.545H57.0293L56.6191 156.496H57.9141C58.0137 156.309 58.1543 156.145 58.3066 156.016C58.6172 155.734 59.0273 155.594 59.502 155.594C60.4688 155.594 61.1602 156.285 61.1602 157.27V157.281C61.1602 158.277 60.4805 158.975 59.4902 158.975C58.623 158.975 57.9844 158.424 57.873 157.732L57.8672 157.691H56.4727L56.4785 157.768C56.5898 159.156 57.7559 160.211 59.4844 160.211ZM69.6621 160H71.1738V152.816H73.7812V151.545H67.0605V152.816H69.6621V160ZM76.8398 160.129C78.7559 160.129 79.9219 158.875 79.9219 156.801V156.789C79.9219 154.727 78.75 153.473 76.8398 153.473C74.9355 153.473 73.7578 154.732 73.7578 156.789V156.801C73.7578 158.875 74.918 160.129 76.8398 160.129ZM76.8398 158.945C75.8262 158.945 75.2461 158.154 75.2461 156.807V156.795C75.2461 155.447 75.8262 154.65 76.8398 154.65C77.8477 154.65 78.4277 155.447 78.4277 156.795V156.807C78.4277 158.154 77.8535 158.945 76.8398 158.945ZM84.1406 162.25C86.0098 162.25 87.1934 161.318 87.1934 159.842V153.596H85.7344V154.65H85.6582C85.2949 153.924 84.6035 153.49 83.7188 153.49C82.0664 153.49 81.0586 154.768 81.0586 156.619V156.631C81.0586 158.447 82.0664 159.701 83.6895 159.701C84.5742 159.701 85.2715 159.326 85.6406 158.641H85.7402V159.865C85.7402 160.686 85.1602 161.148 84.1641 161.148C83.3496 161.148 82.8633 160.861 82.7637 160.451L82.7578 160.434H81.2988L81.293 160.451C81.4395 161.529 82.4531 162.25 84.1406 162.25ZM84.1406 158.541C83.127 158.541 82.5527 157.762 82.5527 156.631V156.619C82.5527 155.488 83.127 154.703 84.1406 154.703C85.1484 154.703 85.7637 155.488 85.7637 156.619V156.631C85.7637 157.762 85.1543 158.541 84.1406 158.541ZM91.7227 160.129C93.4629 160.129 94.3184 159.127 94.5234 158.301L94.541 158.248H93.1523L93.1348 158.289C92.9941 158.582 92.543 158.98 91.752 158.98C90.7617 158.98 90.1406 158.312 90.123 157.164H94.5996V156.684C94.5996 154.75 93.4746 153.473 91.6523 153.473C89.8301 153.473 88.6641 154.791 88.6641 156.807V156.812C88.6641 158.852 89.8184 160.129 91.7227 160.129ZM91.6699 154.615C92.4844 154.615 93.0762 155.137 93.1758 156.186H90.1348C90.2461 155.166 90.8555 154.615 91.6699 154.615ZM98.5781 160.029C98.8594 160.029 99.1289 160.006 99.3398 159.965V158.84C99.1641 158.857 99.0527 158.863 98.8477 158.863C98.2383 158.863 97.9863 158.594 97.9863 157.955V154.727H99.3398V153.596H97.9863V152.025H96.5039V153.596H95.5078V154.727H96.5039V158.301C96.5039 159.537 97.1074 160.029 98.5781 160.029Z" fill="white"/>
<path d="M48.8848 219H54.7559V217.746H50.9297V217.623L52.623 215.982C54.1641 214.5 54.627 213.738 54.627 212.777V212.76C54.627 211.336 53.4434 210.334 51.7969 210.334C50.0332 210.334 48.8027 211.436 48.8027 213.012L48.8086 213.029L50.2148 213.035L50.2207 213.012C50.2207 212.139 50.8242 211.547 51.7207 211.547C52.5996 211.547 53.1328 212.109 53.1328 212.889V212.906C53.1328 213.557 52.8105 213.984 51.6621 215.145L48.8848 217.98V219ZM59.6602 219.211C61.4941 219.211 62.8008 217.957 62.8008 216.24V216.229C62.8008 214.623 61.6641 213.439 60.041 213.439C58.8809 213.439 58.1426 214.031 57.832 214.699H57.7148C57.7441 212.988 58.3008 211.576 59.6953 211.576C60.4395 211.576 60.9609 211.963 61.1836 212.555L61.207 212.613H62.6895L62.6777 212.549C62.4082 211.254 61.248 210.334 59.6953 210.334C57.5684 210.334 56.2852 212.021 56.2852 214.869V214.881C56.2852 217.928 57.8555 219.211 59.6602 219.211ZM57.9785 216.258V216.246C57.9785 215.291 58.7109 214.6 59.666 214.6C60.627 214.6 61.3242 215.303 61.3242 216.281V216.293C61.3242 217.236 60.5859 217.98 59.6484 217.98C58.7109 217.98 57.9785 217.225 57.9785 216.258ZM69.8965 219H71.4082V211.816H74.0156V210.545H67.2949V211.816H69.8965V219ZM77.0742 219.129C78.9902 219.129 80.1562 217.875 80.1562 215.801V215.789C80.1562 213.727 78.9844 212.473 77.0742 212.473C75.1699 212.473 73.9922 213.732 73.9922 215.789V215.801C73.9922 217.875 75.1523 219.129 77.0742 219.129ZM77.0742 217.945C76.0605 217.945 75.4805 217.154 75.4805 215.807V215.795C75.4805 214.447 76.0605 213.65 77.0742 213.65C78.082 213.65 78.6621 214.447 78.6621 215.795V215.807C78.6621 217.154 78.0879 217.945 77.0742 217.945ZM84.375 221.25C86.2441 221.25 87.4277 220.318 87.4277 218.842V212.596H85.9688V213.65H85.8926C85.5293 212.924 84.8379 212.49 83.9531 212.49C82.3008 212.49 81.293 213.768 81.293 215.619V215.631C81.293 217.447 82.3008 218.701 83.9238 218.701C84.8086 218.701 85.5059 218.326 85.875 217.641H85.9746V218.865C85.9746 219.686 85.3945 220.148 84.3984 220.148C83.584 220.148 83.0977 219.861 82.998 219.451L82.9922 219.434H81.5332L81.5273 219.451C81.6738 220.529 82.6875 221.25 84.375 221.25ZM84.375 217.541C83.3613 217.541 82.7871 216.762 82.7871 215.631V215.619C82.7871 214.488 83.3613 213.703 84.375 213.703C85.3828 213.703 85.998 214.488 85.998 215.619V215.631C85.998 216.762 85.3887 217.541 84.375 217.541ZM91.957 219.129C93.6973 219.129 94.5527 218.127 94.7578 217.301L94.7754 217.248H93.3867L93.3691 217.289C93.2285 217.582 92.7773 217.98 91.9863 217.98C90.9961 217.98 90.375 217.312 90.3574 216.164H94.834V215.684C94.834 213.75 93.709 212.473 91.8867 212.473C90.0645 212.473 88.8984 213.791 88.8984 215.807V215.812C88.8984 217.852 90.0527 219.129 91.957 219.129ZM91.9043 213.615C92.7188 213.615 93.3105 214.137 93.4102 215.186H90.3691C90.4805 214.166 91.0898 213.615 91.9043 213.615ZM98.8125 219.029C99.0938 219.029 99.3633 219.006 99.5742 218.965V217.84C99.3984 217.857 99.2871 217.863 99.082 217.863C98.4727 217.863 98.2207 217.594 98.2207 216.955V213.727H99.5742V212.596H98.2207V211.025H96.7383V212.596H95.7422V213.727H96.7383V217.301C96.7383 218.537 97.3418 219.029 98.8125 219.029Z" fill="white"/>
<path fill-rule="evenodd" clip-rule="evenodd" d="M35.896 36.7644C36.04 36.7644 36.168 36.7294 36.213 36.5934C36.258 36.4574 36.211 36.3644 36.097 36.2784L35.063 35.4994C35.004 35.4564 34.934 35.4324 34.862 35.4324H34.196C34.053 35.4324 33.926 35.5244 33.88 35.6594C33.835 35.7954 33.881 35.9454 33.996 36.0314L34.946 36.7014C35.0342 36.7673 35.1344 36.7658 35.2061 36.7647C35.2148 36.7645 35.2232 36.7644 35.231 36.7644H35.896ZM38.659 36.9914C38.698 37.0314 38.729 37.0654 38.75 37.1004C38.905 37.3064 39 37.5574 39 37.8344C39 38.3274 38.591 38.9814 38.1 39.7364C37.992 39.9014 37.809 40.0014 37.611 40.0014H25V34.0004H29.402L31.102 32.8334L29.4 31.4004H30.364L31.858 32.5794C31.939 32.6384 32 32.7294 32 32.8544C32 32.9774 31.952 33.0344 31.851 33.1104L30.557 34.0004H34.096C34.336 34.0004 34.736 34.0964 35.095 34.3324C36.192 35.0554 38.216 36.5464 38.531 36.8604C38.5477 36.8775 38.563 36.8931 38.5774 36.9078C38.5941 36.9247 38.6095 36.9403 38.624 36.9554C38.636 36.9664 38.648 36.9794 38.659 36.9914ZM38.0001 42.0007H25.0001V41.0007H38.0001V42.0007Z" fill="#5EA3F1"/>
<path fill-rule="evenodd" clip-rule="evenodd" d="M35.896 95.7644C36.04 95.7644 36.168 95.7294 36.213 95.5934C36.258 95.4574 36.211 95.3644 36.097 95.2784L35.063 94.4994C35.004 94.4564 34.934 94.4324 34.862 94.4324H34.196C34.053 94.4324 33.926 94.5244 33.88 94.6594C33.835 94.7954 33.881 94.9454 33.996 95.0314L34.946 95.7014C35.0342 95.7673 35.1344 95.7658 35.2061 95.7647C35.2148 95.7645 35.2232 95.7644 35.231 95.7644H35.896ZM38.659 95.9914C38.698 96.0314 38.729 96.0654 38.75 96.1004C38.905 96.3064 39 96.5574 39 96.8344C39 97.3274 38.591 97.9814 38.1 98.7364C37.992 98.9014 37.809 99.0014 37.611 99.0014H25V93.0004H29.402L31.102 91.8334L29.4 90.4004H30.364L31.858 91.5794C31.939 91.6384 32 91.7294 32 91.8544C32 91.9774 31.952 92.0344 31.851 92.1104L30.557 93.0004H34.096C34.336 93.0004 34.736 93.0964 35.095 93.3324C36.192 94.0554 38.216 95.5464 38.531 95.8604C38.5477 95.8775 38.563 95.8931 38.5774 95.9078C38.5941 95.9247 38.6095 95.9403 38.624 95.9554C38.636 95.9664 38.648 95.9794 38.659 95.9914ZM38.0001 101.001H25.0001V100.001H38.0001V101.001Z" fill="#5EA3F1"/>
<path fill-rule="evenodd" clip-rule="evenodd" d="M35.896 154.764C36.04 154.764 36.168 154.729 36.213 154.593C36.258 154.457 36.211 154.364 36.097 154.278L35.063 153.499C35.004 153.456 34.934 153.432 34.862 153.432H34.196C34.053 153.432 33.926 153.524 33.88 153.659C33.835 153.795 33.881 153.945 33.996 154.031L34.946 154.701C35.0342 154.767 35.1344 154.766 35.2061 154.765C35.2148 154.765 35.2232 154.764 35.231 154.764H35.896ZM38.659 154.991C38.698 155.031 38.729 155.065 38.75 155.1C38.905 155.306 39 155.557 39 155.834C39 156.327 38.591 156.981 38.1 157.736C37.992 157.901 37.809 158.001 37.611 158.001H25V152H29.402L31.102 150.833L29.4 149.4H30.364L31.858 150.579C31.939 150.638 32 150.729 32 150.854C32 150.977 31.952 151.034 31.851 151.11L30.557 152H34.096C34.336 152 34.736 152.096 35.095 152.332C36.192 153.055 38.216 154.546 38.531 154.86C38.5477 154.878 38.563 154.893 38.5774 154.908C38.5941 154.925 38.6095 154.94 38.624 154.955C38.636 154.966 38.648 154.979 38.659 154.991ZM38.0001 160.001H25.0001V159.001H38.0001V160.001Z" fill="#5EA3F1"/>
<path fill-rule="evenodd" clip-rule="evenodd" d="M35.896 213.764C36.04 213.764 36.168 213.729 36.213 213.593C36.258 213.457 36.211 213.364 36.097 213.278L35.063 212.499C35.004 212.456 34.934 212.432 34.862 212.432H34.196C34.053 212.432 33.926 212.524 33.88 212.659C33.835 212.795 33.881 212.945 33.996 213.031L34.946 213.701C35.0342 213.767 35.1344 213.766 35.2061 213.765C35.2148 213.765 35.2232 213.764 35.231 213.764H35.896ZM38.659 213.991C38.698 214.031 38.729 214.065 38.75 214.1C38.905 214.306 39 214.557 39 214.834C39 215.327 38.591 215.981 38.1 216.736C37.992 216.901 37.809 217.001 37.611 217.001H25V211H29.402L31.102 209.833L29.4 208.4H30.364L31.858 209.579C31.939 209.638 32 209.729 32 209.854C32 209.977 31.952 210.034 31.851 210.11L30.557 211H34.096C34.336 211 34.736 211.096 35.095 211.332C36.192 212.055 38.216 213.546 38.531 213.86C38.5477 213.878 38.563 213.893 38.5774 213.908C38.5941 213.925 38.6095 213.94 38.624 213.955C38.636 213.966 38.648 213.979 38.659 213.991ZM38.0001 219.001H25.0001V218.001H38.0001V219.001Z" fill="#5EA3F1"/>
<rect x="162" y="169" width="140" height="105" rx="2" fill="#1E1E1E"/>
<rect x="174" y="213" width="25" height="11" rx="1" fill="#404040"/>
<rect x="205" y="213" width="25" height="11" rx="1" fill="#404040"/>
<rect x="236" y="213" width="25" height="11" rx="1" fill="#404040"/>
<rect x="267" y="213" width="24" height="11" rx="1" fill="#404040"/>
<path d="M201.885 190.334C200.051 190.334 198.744 191.588 198.744 193.305V193.316C198.744 194.922 199.881 196.105 201.504 196.105C202.664 196.105 203.402 195.514 203.713 194.846H203.83C203.801 196.557 203.244 197.969 201.85 197.969C201.105 197.969 200.584 197.582 200.361 196.99L200.344 196.932H198.855L198.867 196.996C199.137 198.291 200.297 199.211 201.85 199.211C203.977 199.211 205.26 197.523 205.26 194.676V194.664C205.26 191.617 203.689 190.334 201.885 190.334ZM201.879 194.945C200.918 194.945 200.221 194.242 200.221 193.264V193.252C200.221 192.309 200.965 191.564 201.896 191.564C202.834 191.564 203.566 192.32 203.566 193.287V193.299C203.566 194.254 202.834 194.945 201.879 194.945ZM212.35 199H213.861V191.816H216.469V190.545H209.748V191.816H212.35V199ZM217.148 199H218.607V195.279C218.607 194.365 219.246 193.785 220.219 193.785C220.471 193.785 220.711 193.82 220.945 193.867V192.561C220.805 192.52 220.576 192.49 220.354 192.49C219.51 192.49 218.924 192.895 218.707 193.58H218.607V192.596H217.148V199ZM222.891 191.523C223.365 191.523 223.758 191.143 223.758 190.662C223.758 190.188 223.365 189.801 222.891 189.801C222.41 189.801 222.018 190.188 222.018 190.662C222.018 191.143 222.41 191.523 222.891 191.523ZM222.158 199H223.617V192.596H222.158V199ZM225.469 199H226.928V196.75L227.438 196.229L229.494 199H231.252L228.498 195.303L231.076 192.596H229.389L227.027 195.221H226.928V190.117H225.469V199ZM232.43 199H233.889V196.75L234.398 196.229L236.455 199H238.213L235.459 195.303L238.037 192.596H236.35L233.988 195.221H233.889V190.117H232.43V199ZM241.723 199.129C243.463 199.129 244.318 198.127 244.523 197.301L244.541 197.248H243.152L243.135 197.289C242.994 197.582 242.543 197.98 241.752 197.98C240.762 197.98 240.141 197.312 240.123 196.164H244.6V195.684C244.6 193.75 243.475 192.473 241.652 192.473C239.83 192.473 238.664 193.791 238.664 195.807V195.812C238.664 197.852 239.818 199.129 241.723 199.129ZM241.67 193.615C242.484 193.615 243.076 194.137 243.176 195.186H240.135C240.246 194.166 240.855 193.615 241.67 193.615ZM246.059 199H247.518V195.268C247.518 194.307 248.057 193.697 248.924 193.697C249.809 193.697 250.213 194.201 250.213 195.197V199H251.672V194.857C251.672 193.334 250.893 192.473 249.463 192.473C248.537 192.473 247.922 192.889 247.617 193.574H247.518V192.596H246.059V199Z" fill="white"/>
<path fill-rule="evenodd" clip-rule="evenodd" d="M187.561 194.533C187.666 194.533 187.766 194.485 187.833 194.402C187.9 194.32 187.925 194.211 187.902 194.107L187.593 192.707C187.557 192.546 187.416 192.432 187.251 192.432H187.085H186.159H185.81C185.616 192.432 185.459 192.589 185.459 192.782V194.183C185.459 194.377 185.616 194.533 185.81 194.533H186.159H187.561ZM184.41 194.532C184.603 194.532 184.76 194.376 184.76 194.182V192.782C184.76 192.589 184.603 192.432 184.41 192.432H182.31C182.116 192.432 181.959 192.589 181.959 192.782V194.182C181.959 194.376 182.116 194.532 182.31 194.532H184.41ZM180.899 194.532C181.092 194.532 181.25 194.376 181.25 194.182V192.782C181.25 192.589 181.092 192.432 180.899 192.432H178.799C178.605 192.432 178.449 192.589 178.449 192.782V194.182C178.449 194.376 178.605 194.532 178.799 194.532H180.899ZM177.4 194.533C177.593 194.533 177.75 194.377 177.75 194.182V192.782C177.75 192.589 177.593 192.432 177.4 192.432H177.187H176.659C176.495 192.432 176.352 192.546 176.317 192.707L176.008 194.107C175.985 194.211 176.01 194.32 176.077 194.402C176.143 194.485 176.244 194.533 176.35 194.533H177.034H177.035H177.4ZM187.721 191C187.884 191 188.026 191.113 188.062 191.273L188.991 195.381C189.016 195.503 188.989 195.63 188.917 195.732L188.105 196.855C188.039 196.945 187.934 197 187.821 197H181.577H181.086H180.414H176.179C176.066 197 175.961 196.945 175.895 196.855L175.083 195.732C175.011 195.63 174.984 195.503 175.009 195.381L175.938 191.273C175.974 191.113 176.116 191 176.279 191H181.406L183.105 189.834L181.404 188.4H182.368L183.862 189.579C183.943 189.639 184.004 189.73 184.004 189.855C184.004 189.977 183.955 190.035 183.854 190.11L182.566 191H187.721ZM188 199.001H176V198.001H188V199.001Z" fill="#9D79E1"/>
<rect x="162" y="12" width="140" height="146" rx="2" fill="#1E1E1E"/>
<rect x="174" y="56" width="25" height="11" rx="1" fill="#404040"/>
<rect x="174" y="115" width="25" height="11" rx="1" fill="#404040"/>
<rect x="205" y="56" width="25" height="11" rx="1" fill="#404040"/>
<rect x="205" y="115" width="25" height="11" rx="1" fill="#404040"/>
<rect x="236" y="56" width="25" height="11" rx="1" fill="#404040"/>
<rect x="236" y="115" width="25" height="11" rx="1" fill="#404040"/>
<rect x="267" y="56" width="24" height="11" rx="1" fill="#404040"/>
<rect x="267" y="115" width="24" height="11" rx="1" fill="#404040"/>
<path d="M202.043 42.1699C203.988 42.1699 205.342 41.1621 205.342 39.7148V39.7031C205.342 38.6191 204.557 37.7812 203.426 37.5527V37.5176C204.393 37.2598 205.037 36.5508 205.037 35.6426V35.6309C205.037 34.3301 203.795 33.375 202.043 33.375C200.291 33.375 199.049 34.3301 199.049 35.6309V35.6426C199.049 36.5508 199.693 37.2598 200.66 37.5176V37.5527C199.535 37.7812 198.744 38.6191 198.744 39.7031V39.7148C198.744 41.1621 200.098 42.1699 202.043 42.1699ZM202.043 37.0371C201.158 37.0371 200.543 36.5215 200.543 35.7832V35.7715C200.543 35.0332 201.158 34.5176 202.043 34.5176C202.928 34.5176 203.543 35.0332 203.543 35.7715V35.7832C203.543 36.5215 202.928 37.0371 202.043 37.0371ZM202.043 41.0156C201.029 41.0156 200.309 40.4297 200.309 39.6152V39.6035C200.309 38.7832 201.018 38.1914 202.043 38.1914C203.062 38.1914 203.777 38.7832 203.777 39.6035V39.6152C203.777 40.4297 203.057 41.0156 202.043 41.0156ZM210.035 42.2109C212.045 42.2109 213.264 40.5059 213.264 37.7754V37.7637C213.264 35.0332 212.045 33.334 210.035 33.334C208.025 33.334 206.818 35.0332 206.818 37.7637V37.7754C206.818 40.5059 208.025 42.2109 210.035 42.2109ZM210.035 40.9863C208.957 40.9863 208.342 39.7793 208.342 37.7754V37.7637C208.342 35.7598 208.957 34.5645 210.035 34.5645C211.113 34.5645 211.74 35.7598 211.74 37.7637V37.7754C211.74 39.7793 211.113 40.9863 210.035 40.9863ZM218.016 42.2109C220.025 42.2109 221.244 40.5059 221.244 37.7754V37.7637C221.244 35.0332 220.025 33.334 218.016 33.334C216.006 33.334 214.799 35.0332 214.799 37.7637V37.7754C214.799 40.5059 216.006 42.2109 218.016 42.2109ZM218.016 40.9863C216.938 40.9863 216.322 39.7793 216.322 37.7754V37.7637C216.322 35.7598 216.938 34.5645 218.016 34.5645C219.094 34.5645 219.721 35.7598 219.721 37.7637V37.7754C219.721 39.7793 219.094 40.9863 218.016 40.9863ZM226.254 42H229.869C231.674 42 232.775 41.0859 232.775 39.6035V39.5918C232.775 38.4961 231.99 37.6758 230.854 37.5703V37.4648C231.703 37.3301 232.359 36.5449 232.359 35.6602V35.6484C232.359 34.3535 231.393 33.5449 229.787 33.5449H226.254V42ZM229.418 34.7227C230.332 34.7227 230.865 35.1621 230.865 35.9121V35.9238C230.865 36.6914 230.297 37.1074 229.225 37.1074H227.766V34.7227H229.418ZM229.465 38.1797C230.619 38.1797 231.229 38.6309 231.229 39.4863V39.498C231.229 40.3594 230.637 40.8223 229.523 40.8223H227.766V38.1797H229.465ZM236.859 34.7285C237.633 34.7285 238.266 34.1309 238.266 33.375V33.3691C238.266 32.6133 237.633 32.0215 236.859 32.0215C236.08 32.0215 235.447 32.6133 235.447 33.3691V33.375C235.447 34.1309 236.08 34.7285 236.859 34.7285ZM236.859 34.0371C236.484 34.0371 236.18 33.7441 236.18 33.375V33.3691C236.18 33.0059 236.479 32.7188 236.859 32.7188C237.234 32.7188 237.539 33.0059 237.539 33.3691V33.375C237.539 33.7441 237.234 34.0371 236.859 34.0371ZM236.016 42.1055C236.859 42.1055 237.539 41.7422 237.891 41.1211H237.99V42H239.432V37.623C239.432 36.2695 238.506 35.4727 236.859 35.4727C235.336 35.4727 234.305 36.1875 234.164 37.2656L234.158 37.3184H235.535L235.541 37.2949C235.688 36.873 236.121 36.6328 236.789 36.6328C237.574 36.6328 237.99 36.9844 237.99 37.623V38.1738L236.344 38.2734C234.785 38.3672 233.912 39.0352 233.912 40.1777V40.1895C233.912 41.3555 234.797 42.1055 236.016 42.1055ZM235.354 40.1191V40.1074C235.354 39.5801 235.734 39.2812 236.549 39.2285L237.99 39.1348V39.6504C237.99 40.4121 237.34 40.9863 236.461 40.9863C235.816 40.9863 235.354 40.6641 235.354 40.1191ZM243.703 42.0293C243.984 42.0293 244.254 42.0059 244.465 41.9648V40.8398C244.289 40.8574 244.178 40.8633 243.973 40.8633C243.363 40.8633 243.111 40.5938 243.111 39.9551V36.7266H244.465V35.5957H243.111V34.0254H241.629V35.5957H240.633V36.7266H241.629V40.3008C241.629 41.5371 242.232 42.0293 243.703 42.0293ZM248.602 42.1289C250.342 42.1289 251.197 41.127 251.402 40.3008L251.42 40.248H250.031L250.014 40.2891C249.873 40.582 249.422 40.9805 248.631 40.9805C247.641 40.9805 247.02 40.3125 247.002 39.1641H251.479V38.6836C251.479 36.75 250.354 35.4727 248.531 35.4727C246.709 35.4727 245.543 36.791 245.543 38.8066V38.8125C245.543 40.8516 246.697 42.1289 248.602 42.1289ZM248.549 36.6152C249.363 36.6152 249.955 37.1367 250.055 38.1855H247.014C247.125 37.166 247.734 36.6152 248.549 36.6152ZM252.938 42H254.396V38.2676C254.396 37.3066 254.936 36.6973 255.803 36.6973C256.688 36.6973 257.092 37.2012 257.092 38.1973V42H258.551V37.8574C258.551 36.334 257.771 35.4727 256.342 35.4727C255.416 35.4727 254.801 35.8887 254.496 36.5742H254.396V35.5957H252.938V42Z" fill="white"/>
<path d="M202.043 101.17C203.988 101.17 205.342 100.162 205.342 98.7148V98.7031C205.342 97.6191 204.557 96.7812 203.426 96.5527V96.5176C204.393 96.2598 205.037 95.5508 205.037 94.6426V94.6309C205.037 93.3301 203.795 92.375 202.043 92.375C200.291 92.375 199.049 93.3301 199.049 94.6309V94.6426C199.049 95.5508 199.693 96.2598 200.66 96.5176V96.5527C199.535 96.7812 198.744 97.6191 198.744 98.7031V98.7148C198.744 100.162 200.098 101.17 202.043 101.17ZM202.043 96.0371C201.158 96.0371 200.543 95.5215 200.543 94.7832V94.7715C200.543 94.0332 201.158 93.5176 202.043 93.5176C202.928 93.5176 203.543 94.0332 203.543 94.7715V94.7832C203.543 95.5215 202.928 96.0371 202.043 96.0371ZM202.043 100.016C201.029 100.016 200.309 99.4297 200.309 98.6152V98.6035C200.309 97.7832 201.018 97.1914 202.043 97.1914C203.062 97.1914 203.777 97.7832 203.777 98.6035V98.6152C203.777 99.4297 203.057 100.016 202.043 100.016ZM209.039 101H210.551V92.5449H209.045L206.836 94.0977V95.5215L208.939 94.0332H209.039V101ZM216 101.211C218.01 101.211 219.229 99.5059 219.229 96.7754V96.7637C219.229 94.0332 218.01 92.334 216 92.334C213.99 92.334 212.783 94.0332 212.783 96.7637V96.7754C212.783 99.5059 213.99 101.211 216 101.211ZM216 99.9863C214.922 99.9863 214.307 98.7793 214.307 96.7754V96.7637C214.307 94.7598 214.922 93.5645 216 93.5645C217.078 93.5645 217.705 94.7598 217.705 96.7637V96.7754C217.705 98.7793 217.078 99.9863 216 99.9863ZM224.238 101H227.854C229.658 101 230.76 100.086 230.76 98.6035V98.5918C230.76 97.4961 229.975 96.6758 228.838 96.5703V96.4648C229.688 96.3301 230.344 95.5449 230.344 94.6602V94.6484C230.344 93.3535 229.377 92.5449 227.771 92.5449H224.238V101ZM227.402 93.7227C228.316 93.7227 228.85 94.1621 228.85 94.9121V94.9238C228.85 95.6914 228.281 96.1074 227.209 96.1074H225.75V93.7227H227.402ZM227.449 97.1797C228.604 97.1797 229.213 97.6309 229.213 98.4863V98.498C229.213 99.3594 228.621 99.8223 227.508 99.8223H225.75V97.1797H227.449ZM234.844 93.7285C235.617 93.7285 236.25 93.1309 236.25 92.375V92.3691C236.25 91.6133 235.617 91.0215 234.844 91.0215C234.064 91.0215 233.432 91.6133 233.432 92.3691V92.375C233.432 93.1309 234.064 93.7285 234.844 93.7285ZM234.844 93.0371C234.469 93.0371 234.164 92.7441 234.164 92.375V92.3691C234.164 92.0059 234.463 91.7188 234.844 91.7188C235.219 91.7188 235.523 92.0059 235.523 92.3691V92.375C235.523 92.7441 235.219 93.0371 234.844 93.0371ZM234 101.105C234.844 101.105 235.523 100.742 235.875 100.121H235.975V101H237.416V96.623C237.416 95.2695 236.49 94.4727 234.844 94.4727C233.32 94.4727 232.289 95.1875 232.148 96.2656L232.143 96.3184H233.52L233.525 96.2949C233.672 95.873 234.105 95.6328 234.773 95.6328C235.559 95.6328 235.975 95.9844 235.975 96.623V97.1738L234.328 97.2734C232.77 97.3672 231.896 98.0352 231.896 99.1777V99.1895C231.896 100.355 232.781 101.105 234 101.105ZM233.338 99.1191V99.1074C233.338 98.5801 233.719 98.2812 234.533 98.2285L235.975 98.1348V98.6504C235.975 99.4121 235.324 99.9863 234.445 99.9863C233.801 99.9863 233.338 99.6641 233.338 99.1191ZM241.688 101.029C241.969 101.029 242.238 101.006 242.449 100.965V99.8398C242.273 99.8574 242.162 99.8633 241.957 99.8633C241.348 99.8633 241.096 99.5938 241.096 98.9551V95.7266H242.449V94.5957H241.096V93.0254H239.613V94.5957H238.617V95.7266H239.613V99.3008C239.613 100.537 240.217 101.029 241.688 101.029ZM246.586 101.129C248.326 101.129 249.182 100.127 249.387 99.3008L249.404 99.248H248.016L247.998 99.2891C247.857 99.582 247.406 99.9805 246.615 99.9805C245.625 99.9805 245.004 99.3125 244.986 98.1641H249.463V97.6836C249.463 95.75 248.338 94.4727 246.516 94.4727C244.693 94.4727 243.527 95.791 243.527 97.8066V97.8125C243.527 99.8516 244.682 101.129 246.586 101.129ZM246.533 95.6152C247.348 95.6152 247.939 96.1367 248.039 97.1855H244.998C245.109 96.166 245.719 95.6152 246.533 95.6152ZM250.922 101H252.381V97.2676C252.381 96.3066 252.92 95.6973 253.787 95.6973C254.672 95.6973 255.076 96.2012 255.076 97.1973V101H256.535V96.8574C256.535 95.334 255.756 94.4727 254.326 94.4727C253.4 94.4727 252.785 94.8887 252.48 95.5742H252.381V94.5957H250.922V101Z" fill="white"/>
<path fill-rule="evenodd" clip-rule="evenodd" d="M184.202 36.4593L186.135 36.4583C186.244 36.4583 186.346 36.3943 186.293 36.2293L186.1 35.4493C186.073 35.3373 185.971 35.2583 185.856 35.2583H184.202C184.091 35.2583 184 35.3483 184 35.4593V36.2583C184 36.3693 184.091 36.4593 184.202 36.4593ZM183.397 36.4583C183.509 36.4583 183.601 36.3673 183.601 36.2543V35.4613C183.601 35.3493 183.509 35.2583 183.397 35.2583H182.004C181.892 35.2583 181.8 35.3493 181.8 35.4613V36.2543C181.8 36.3673 181.892 36.4583 182.004 36.4583H183.397ZM181.197 36.4583C181.307 36.4583 181.397 36.3683 181.397 36.2583V35.4583C181.397 35.3473 181.307 35.2583 181.197 35.2583H179.747C179.651 35.2583 179.562 35.3123 179.519 35.3993L179.138 36.1793C179.035 36.3603 179.147 36.4583 179.271 36.4583H181.197ZM188.087 36.4583H188.749C188.939 36.4583 189.059 36.6613 188.968 36.8273L187.358 39.7903L187.348 39.7845C186.953 39.5689 186.403 39.2693 185.513 39.2693C184.814 39.2693 184.464 39.4525 184.113 39.6357C183.763 39.819 183.413 40.0023 182.712 40.0023C182.013 40.0023 181.663 39.8192 181.314 39.636C180.963 39.4527 180.613 39.2693 179.912 39.2693C179.213 39.2693 178.863 39.4525 178.513 39.6357C178.164 39.819 177.814 40.0023 177.113 40.0023C176.495 40.0023 176.151 39.8593 175.837 39.7003L177.333 36.6533C177.392 36.5343 177.514 36.4583 177.647 36.4583H177.75H177.986H178.315C178.336 36.4583 178.355 36.4443 178.362 36.4243L179.46 34.1993C179.52 34.0793 179.643 34.0023 179.778 34.0023H181.556H183.169C183.19 34.0023 183.215 33.9883 183.215 33.9483V33.4853C183.215 33.3153 183.31 33.1593 183.459 33.0833L184.672 32.3773C184.875 32.2773 185.016 32.3893 185.089 32.5753L185.43 33.3993C185.437 33.4203 185.455 33.4333 185.476 33.4343H186.031C186.18 33.4343 186.313 33.5313 186.361 33.6763L187.268 36.4213C187.275 36.4433 187.295 36.4583 187.318 36.4583H187.857H188.087ZM181.105 41.5775C181.483 41.7764 181.913 42.0022 182.736 42.0022C183.559 42.0022 183.989 41.7764 184.367 41.5775L184.368 41.5772C184.698 41.4042 184.959 41.2682 185.536 41.2682C185.948 41.2682 186.199 41.3372 186.429 41.4402L186.908 40.5602C186.582 40.4052 186.178 40.2682 185.536 40.2682C184.713 40.2682 184.282 40.4932 183.903 40.6922L183.902 40.6925C183.573 40.8653 183.312 41.0022 182.736 41.0022C182.16 41.0022 181.899 40.8653 181.57 40.6925L181.569 40.6922C181.19 40.4932 180.759 40.2682 179.936 40.2682C179.113 40.2682 178.683 40.4932 178.303 40.6922L178.301 40.6934C177.972 40.8658 177.712 41.0022 177.135 41.0022C176.395 41.0022 175.698 40.5672 175.644 40.5333L175.642 40.5322L175.446 40.4242L175 41.3172L175.129 41.3892C175.167 41.4142 176.084 42.0022 177.135 42.0022C177.956 42.0022 178.385 41.7776 178.764 41.579L178.768 41.5772C179.098 41.4042 179.359 41.2682 179.936 41.2682C180.513 41.2682 180.774 41.4042 181.104 41.5772L181.105 41.5775Z" fill="#8CDCFD"/>
<path fill-rule="evenodd" clip-rule="evenodd" d="M184.202 95.4593L186.135 95.4583C186.244 95.4583 186.346 95.3943 186.293 95.2293L186.1 94.4493C186.073 94.3373 185.971 94.2583 185.856 94.2583H184.202C184.091 94.2583 184 94.3483 184 94.4593V95.2583C184 95.3693 184.091 95.4593 184.202 95.4593ZM183.397 95.4583C183.509 95.4583 183.601 95.3673 183.601 95.2543V94.4613C183.601 94.3493 183.509 94.2583 183.397 94.2583H182.004C181.892 94.2583 181.8 94.3493 181.8 94.4613V95.2543C181.8 95.3673 181.892 95.4583 182.004 95.4583H183.397ZM181.197 95.4583C181.307 95.4583 181.397 95.3683 181.397 95.2583V94.4583C181.397 94.3473 181.307 94.2583 181.197 94.2583H179.747C179.651 94.2583 179.562 94.3123 179.519 94.3993L179.138 95.1793C179.035 95.3603 179.147 95.4583 179.271 95.4583H181.197ZM188.087 95.4583H188.749C188.939 95.4583 189.059 95.6613 188.968 95.8273L187.358 98.7903L187.348 98.7845C186.953 98.5689 186.403 98.2693 185.513 98.2693C184.814 98.2693 184.464 98.4525 184.113 98.6357C183.763 98.819 183.413 99.0023 182.712 99.0023C182.013 99.0023 181.663 98.8192 181.314 98.636C180.963 98.4527 180.613 98.2693 179.912 98.2693C179.213 98.2693 178.863 98.4525 178.513 98.6357C178.164 98.819 177.814 99.0023 177.113 99.0023C176.495 99.0023 176.151 98.8593 175.837 98.7003L177.333 95.6533C177.392 95.5343 177.514 95.4583 177.647 95.4583H177.75H177.986H178.315C178.336 95.4583 178.355 95.4443 178.362 95.4243L179.46 93.1993C179.52 93.0793 179.643 93.0023 179.778 93.0023H181.556H183.169C183.19 93.0023 183.215 92.9883 183.215 92.9483V92.4853C183.215 92.3153 183.31 92.1593 183.459 92.0833L184.672 91.3773C184.875 91.2773 185.016 91.3893 185.089 91.5753L185.43 92.3993C185.437 92.4203 185.455 92.4333 185.476 92.4343H186.031C186.18 92.4343 186.313 92.5313 186.361 92.6763L187.268 95.4213C187.275 95.4433 187.295 95.4583 187.318 95.4583H187.857H188.087ZM181.105 100.577C181.483 100.776 181.913 101.002 182.736 101.002C183.559 101.002 183.989 100.776 184.367 100.577L184.368 100.577C184.698 100.404 184.959 100.268 185.536 100.268C185.948 100.268 186.199 100.337 186.429 100.44L186.908 99.5602C186.582 99.4052 186.178 99.2682 185.536 99.2682C184.713 99.2682 184.282 99.4932 183.903 99.6922L183.902 99.6925C183.573 99.8653 183.312 100.002 182.736 100.002C182.16 100.002 181.899 99.8653 181.57 99.6925L181.569 99.6922C181.19 99.4932 180.759 99.2682 179.936 99.2682C179.113 99.2682 178.683 99.4932 178.303 99.6922L178.301 99.6934C177.972 99.8658 177.712 100.002 177.135 100.002C176.395 100.002 175.698 99.5672 175.644 99.5333L175.642 99.5322L175.446 99.4242L175 100.317L175.129 100.389C175.167 100.414 176.084 101.002 177.135 101.002C177.956 101.002 178.385 100.778 178.764 100.579L178.768 100.577C179.098 100.404 179.359 100.268 179.936 100.268C180.513 100.268 180.774 100.404 181.104 100.577L181.105 100.577Z" fill="#8CDCFD"/>
<rect x="314" y="12" width="139" height="262" rx="2" fill="#1E1E1E"/>
<rect x="326" y="56" width="25" height="11" rx="1" fill="#404040"/>
<rect x="326" y="174" width="25" height="11" rx="1" fill="#404040"/>
<rect x="326" y="115" width="25" height="11" rx="1" fill="#404040"/>
<rect x="326" y="233" width="25" height="11" rx="1" fill="#404040"/>
<rect x="357" y="56" width="25" height="11" rx="1" fill="#404040"/>
<rect x="357" y="174" width="25" height="11" rx="1" fill="#404040"/>
<rect x="357" y="115" width="25" height="11" rx="1" fill="#404040"/>
<rect x="357" y="233" width="25" height="11" rx="1" fill="#404040"/>
<rect x="388" y="56" width="25" height="11" rx="1" fill="#404040"/>
<rect x="388" y="174" width="25" height="11" rx="1" fill="#404040"/>
<rect x="388" y="115" width="25" height="11" rx="1" fill="#404040"/>
<rect x="388" y="233" width="25" height="11" rx="1" fill="#404040"/>
<rect x="419" y="56" width="24" height="11" rx="1" fill="#404040"/>
<rect x="419" y="174" width="24" height="11" rx="1" fill="#404040"/>
<rect x="419" y="115" width="24" height="11" rx="1" fill="#404040"/>
<rect x="419" y="233" width="24" height="11" rx="1" fill="#404040"/>
<path d="M352.953 42H354.465V33.5449H352.959L350.75 35.0977V36.5215L352.854 35.0332H352.953V42ZM359.914 42.2109C361.924 42.2109 363.143 40.5059 363.143 37.7754V37.7637C363.143 35.0332 361.924 33.334 359.914 33.334C357.904 33.334 356.697 35.0332 356.697 37.7637V37.7754C356.697 40.5059 357.904 42.2109 359.914 42.2109ZM359.914 40.9863C358.836 40.9863 358.221 39.7793 358.221 37.7754V37.7637C358.221 35.7598 358.836 34.5645 359.914 34.5645C360.992 34.5645 361.619 35.7598 361.619 37.7637V37.7754C361.619 39.7793 360.992 40.9863 359.914 40.9863ZM368.152 42H371.768C373.572 42 374.674 41.0859 374.674 39.6035V39.5918C374.674 38.4961 373.889 37.6758 372.752 37.5703V37.4648C373.602 37.3301 374.258 36.5449 374.258 35.6602V35.6484C374.258 34.3535 373.291 33.5449 371.686 33.5449H368.152V42ZM371.316 34.7227C372.23 34.7227 372.764 35.1621 372.764 35.9121V35.9238C372.764 36.6914 372.195 37.1074 371.123 37.1074H369.664V34.7227H371.316ZM371.363 38.1797C372.518 38.1797 373.127 38.6309 373.127 39.4863V39.498C373.127 40.3594 372.535 40.8223 371.422 40.8223H369.664V38.1797H371.363ZM378.289 42.1289C379.215 42.1289 379.865 41.7129 380.164 41.0273H380.264V42H381.723V35.5957H380.264V39.3281C380.264 40.2891 379.76 40.8984 378.816 40.8984C377.938 40.8984 377.568 40.3945 377.568 39.4043V35.5957H376.109V39.7383C376.109 41.2617 376.848 42.1289 378.289 42.1289ZM385.924 42.1289C387.5 42.1289 388.643 41.3145 388.643 40.0957V40.084C388.643 39.1523 388.051 38.6191 386.797 38.3379L385.76 38.1094C385.068 37.9512 384.799 37.7227 384.799 37.3477V37.3418C384.799 36.8613 385.268 36.5449 385.918 36.5449C386.604 36.5449 387.025 36.873 387.131 37.2773L387.137 37.2949H388.508V37.2832C388.414 36.2461 387.482 35.4727 385.924 35.4727C384.412 35.4727 383.357 36.2695 383.357 37.4238V37.4297C383.357 38.373 383.938 38.9473 385.156 39.2168L386.193 39.4512C386.896 39.6094 387.178 39.8555 387.178 40.2305V40.2422C387.178 40.7227 386.674 41.0508 385.947 41.0508C385.221 41.0508 384.793 40.7402 384.641 40.2949L384.635 40.2832H383.188V40.2949C383.311 41.3789 384.295 42.1289 385.924 42.1289ZM392.416 42.1289C393.992 42.1289 395.135 41.3145 395.135 40.0957V40.084C395.135 39.1523 394.543 38.6191 393.289 38.3379L392.252 38.1094C391.561 37.9512 391.291 37.7227 391.291 37.3477V37.3418C391.291 36.8613 391.76 36.5449 392.41 36.5449C393.096 36.5449 393.518 36.873 393.623 37.2773L393.629 37.2949H395V37.2832C394.906 36.2461 393.975 35.4727 392.416 35.4727C390.904 35.4727 389.85 36.2695 389.85 37.4238V37.4297C389.85 38.373 390.43 38.9473 391.648 39.2168L392.686 39.4512C393.389 39.6094 393.67 39.8555 393.67 40.2305V40.2422C393.67 40.7227 393.166 41.0508 392.439 41.0508C391.713 41.0508 391.285 40.7402 391.133 40.2949L391.127 40.2832H389.68V40.2949C389.803 41.3789 390.787 42.1289 392.416 42.1289ZM399.348 42.1289C401.088 42.1289 401.943 41.127 402.148 40.3008L402.166 40.248H400.777L400.76 40.2891C400.619 40.582 400.168 40.9805 399.377 40.9805C398.387 40.9805 397.766 40.3125 397.748 39.1641H402.225V38.6836C402.225 36.75 401.1 35.4727 399.277 35.4727C397.455 35.4727 396.289 36.791 396.289 38.8066V38.8125C396.289 40.8516 397.443 42.1289 399.348 42.1289ZM399.295 36.6152C400.109 36.6152 400.701 37.1367 400.801 38.1855H397.76C397.871 37.166 398.48 36.6152 399.295 36.6152ZM403.684 42H405.143V38.2676C405.143 37.3066 405.682 36.6973 406.549 36.6973C407.434 36.6973 407.838 37.2012 407.838 38.1973V42H409.297V37.8574C409.297 36.334 408.518 35.4727 407.088 35.4727C406.162 35.4727 405.547 35.8887 405.242 36.5742H405.143V35.5957H403.684V42Z" fill="white"/>
<path d="M352.953 160H354.465V151.545H352.959L350.75 153.098V154.521L352.854 153.033H352.953V160ZM360.172 160H363.787C365.592 160 366.693 159.086 366.693 157.604V157.592C366.693 156.496 365.908 155.676 364.771 155.57V155.465C365.621 155.33 366.277 154.545 366.277 153.66V153.648C366.277 152.354 365.311 151.545 363.705 151.545H360.172V160ZM363.336 152.723C364.25 152.723 364.783 153.162 364.783 153.912V153.924C364.783 154.691 364.215 155.107 363.143 155.107H361.684V152.723H363.336ZM363.383 156.18C364.537 156.18 365.146 156.631 365.146 157.486V157.498C365.146 158.359 364.555 158.822 363.441 158.822H361.684V156.18H363.383ZM370.309 160.129C371.234 160.129 371.885 159.713 372.184 159.027H372.283V160H373.742V153.596H372.283V157.328C372.283 158.289 371.779 158.898 370.836 158.898C369.957 158.898 369.588 158.395 369.588 157.404V153.596H368.129V157.738C368.129 159.262 368.867 160.129 370.309 160.129ZM377.943 160.129C379.52 160.129 380.662 159.314 380.662 158.096V158.084C380.662 157.152 380.07 156.619 378.816 156.338L377.779 156.109C377.088 155.951 376.818 155.723 376.818 155.348V155.342C376.818 154.861 377.287 154.545 377.938 154.545C378.623 154.545 379.045 154.873 379.15 155.277L379.156 155.295H380.527V155.283C380.434 154.246 379.502 153.473 377.943 153.473C376.432 153.473 375.377 154.27 375.377 155.424V155.43C375.377 156.373 375.957 156.947 377.176 157.217L378.213 157.451C378.916 157.609 379.197 157.855 379.197 158.23V158.242C379.197 158.723 378.693 159.051 377.967 159.051C377.24 159.051 376.812 158.74 376.66 158.295L376.654 158.283H375.207V158.295C375.33 159.379 376.314 160.129 377.943 160.129ZM384.436 160.129C386.012 160.129 387.154 159.314 387.154 158.096V158.084C387.154 157.152 386.562 156.619 385.309 156.338L384.271 156.109C383.58 155.951 383.311 155.723 383.311 155.348V155.342C383.311 154.861 383.779 154.545 384.43 154.545C385.115 154.545 385.537 154.873 385.643 155.277L385.648 155.295H387.02V155.283C386.926 154.246 385.994 153.473 384.436 153.473C382.924 153.473 381.869 154.27 381.869 155.424V155.43C381.869 156.373 382.449 156.947 383.668 157.217L384.705 157.451C385.408 157.609 385.689 157.855 385.689 158.23V158.242C385.689 158.723 385.186 159.051 384.459 159.051C383.732 159.051 383.305 158.74 383.152 158.295L383.146 158.283H381.699V158.295C381.822 159.379 382.807 160.129 384.436 160.129ZM391.367 160.129C393.107 160.129 393.963 159.127 394.168 158.301L394.186 158.248H392.797L392.779 158.289C392.639 158.582 392.188 158.98 391.396 158.98C390.406 158.98 389.785 158.312 389.768 157.164H394.244V156.684C394.244 154.75 393.119 153.473 391.297 153.473C389.475 153.473 388.309 154.791 388.309 156.807V156.812C388.309 158.852 389.463 160.129 391.367 160.129ZM391.314 154.615C392.129 154.615 392.721 155.137 392.82 156.186H389.779C389.891 155.166 390.5 154.615 391.314 154.615ZM395.703 160H397.162V156.268C397.162 155.307 397.701 154.697 398.568 154.697C399.453 154.697 399.857 155.201 399.857 156.197V160H401.316V155.857C401.316 154.334 400.537 153.473 399.107 153.473C398.182 153.473 397.566 153.889 397.262 154.574H397.162V153.596H395.703V160Z" fill="white"/>
<path d="M352.953 101H354.465V92.5449H352.959L350.75 94.0977V95.5215L352.854 94.0332H352.953V101ZM356.814 101H362.686V99.7461H358.859V99.623L360.553 97.9824C362.094 96.5 362.557 95.7383 362.557 94.7773V94.7598C362.557 93.3359 361.373 92.334 359.727 92.334C357.963 92.334 356.732 93.4355 356.732 95.0117L356.738 95.0293L358.145 95.0352L358.15 95.0117C358.15 94.1387 358.754 93.5469 359.65 93.5469C360.529 93.5469 361.062 94.1094 361.062 94.8887V94.9062C361.062 95.5566 360.74 95.9844 359.592 97.1445L356.814 99.9805V101ZM367.719 101H371.334C373.139 101 374.24 100.086 374.24 98.6035V98.5918C374.24 97.4961 373.455 96.6758 372.318 96.5703V96.4648C373.168 96.3301 373.824 95.5449 373.824 94.6602V94.6484C373.824 93.3535 372.857 92.5449 371.252 92.5449H367.719V101ZM370.883 93.7227C371.797 93.7227 372.33 94.1621 372.33 94.9121V94.9238C372.33 95.6914 371.762 96.1074 370.689 96.1074H369.23V93.7227H370.883ZM370.93 97.1797C372.084 97.1797 372.693 97.6309 372.693 98.4863V98.498C372.693 99.3594 372.102 99.8223 370.988 99.8223H369.23V97.1797H370.93ZM377.855 101.129C378.781 101.129 379.432 100.713 379.73 100.027H379.83V101H381.289V94.5957H379.83V98.3281C379.83 99.2891 379.326 99.8984 378.383 99.8984C377.504 99.8984 377.135 99.3945 377.135 98.4043V94.5957H375.676V98.7383C375.676 100.262 376.414 101.129 377.855 101.129ZM385.49 101.129C387.066 101.129 388.209 100.314 388.209 99.0957V99.084C388.209 98.1523 387.617 97.6191 386.363 97.3379L385.326 97.1094C384.635 96.9512 384.365 96.7227 384.365 96.3477V96.3418C384.365 95.8613 384.834 95.5449 385.484 95.5449C386.17 95.5449 386.592 95.873 386.697 96.2773L386.703 96.2949H388.074V96.2832C387.98 95.2461 387.049 94.4727 385.49 94.4727C383.979 94.4727 382.924 95.2695 382.924 96.4238V96.4297C382.924 97.373 383.504 97.9473 384.723 98.2168L385.76 98.4512C386.463 98.6094 386.744 98.8555 386.744 99.2305V99.2422C386.744 99.7227 386.24 100.051 385.514 100.051C384.787 100.051 384.359 99.7402 384.207 99.2949L384.201 99.2832H382.754V99.2949C382.877 100.379 383.861 101.129 385.49 101.129ZM391.982 101.129C393.559 101.129 394.701 100.314 394.701 99.0957V99.084C394.701 98.1523 394.109 97.6191 392.855 97.3379L391.818 97.1094C391.127 96.9512 390.857 96.7227 390.857 96.3477V96.3418C390.857 95.8613 391.326 95.5449 391.977 95.5449C392.662 95.5449 393.084 95.873 393.189 96.2773L393.195 96.2949H394.566V96.2832C394.473 95.2461 393.541 94.4727 391.982 94.4727C390.471 94.4727 389.416 95.2695 389.416 96.4238V96.4297C389.416 97.373 389.996 97.9473 391.215 98.2168L392.252 98.4512C392.955 98.6094 393.236 98.8555 393.236 99.2305V99.2422C393.236 99.7227 392.732 100.051 392.006 100.051C391.279 100.051 390.852 99.7402 390.699 99.2949L390.693 99.2832H389.246V99.2949C389.369 100.379 390.354 101.129 391.982 101.129ZM398.914 101.129C400.654 101.129 401.51 100.127 401.715 99.3008L401.732 99.248H400.344L400.326 99.2891C400.186 99.582 399.734 99.9805 398.943 99.9805C397.953 99.9805 397.332 99.3125 397.314 98.1641H401.791V97.6836C401.791 95.75 400.666 94.4727 398.844 94.4727C397.021 94.4727 395.855 95.791 395.855 97.8066V97.8125C395.855 99.8516 397.01 101.129 398.914 101.129ZM398.861 95.6152C399.676 95.6152 400.268 96.1367 400.367 97.1855H397.326C397.438 96.166 398.047 95.6152 398.861 95.6152ZM403.25 101H404.709V97.2676C404.709 96.3066 405.248 95.6973 406.115 95.6973C407 95.6973 407.404 96.2012 407.404 97.1973V101H408.863V96.8574C408.863 95.334 408.084 94.4727 406.654 94.4727C405.729 94.4727 405.113 94.8887 404.809 95.5742H404.709V94.5957H403.25V101Z" fill="white"/>
<path d="M350.885 219H356.756V217.746H352.93V217.623L354.623 215.982C356.164 214.5 356.627 213.738 356.627 212.777V212.76C356.627 211.336 355.443 210.334 353.797 210.334C352.033 210.334 350.803 211.436 350.803 213.012L350.809 213.029L352.215 213.035L352.221 213.012C352.221 212.139 352.824 211.547 353.721 211.547C354.6 211.547 355.133 212.109 355.133 212.889V212.906C355.133 213.557 354.811 213.984 353.662 215.145L350.885 217.98V219ZM361.484 219.211C363.312 219.211 364.596 218.01 364.596 216.252V216.24C364.596 214.623 363.453 213.451 361.877 213.451C361.08 213.451 360.424 213.791 360.072 214.359H359.973L360.207 211.787H364.104V210.545H359.029L358.619 215.496H359.914C360.014 215.309 360.154 215.145 360.307 215.016C360.617 214.734 361.027 214.594 361.502 214.594C362.469 214.594 363.16 215.285 363.16 216.27V216.281C363.16 217.277 362.48 217.975 361.49 217.975C360.623 217.975 359.984 217.424 359.873 216.732L359.867 216.691H358.473L358.479 216.768C358.59 218.156 359.756 219.211 361.484 219.211ZM369.559 219H373.174C374.979 219 376.08 218.086 376.08 216.604V216.592C376.08 215.496 375.295 214.676 374.158 214.57V214.465C375.008 214.33 375.664 213.545 375.664 212.66V212.648C375.664 211.354 374.697 210.545 373.092 210.545H369.559V219ZM372.723 211.723C373.637 211.723 374.17 212.162 374.17 212.912V212.924C374.17 213.691 373.602 214.107 372.529 214.107H371.07V211.723H372.723ZM372.77 215.18C373.924 215.18 374.533 215.631 374.533 216.486V216.498C374.533 217.359 373.941 217.822 372.828 217.822H371.07V215.18H372.77ZM379.695 219.129C380.621 219.129 381.271 218.713 381.57 218.027H381.67V219H383.129V212.596H381.67V216.328C381.67 217.289 381.166 217.898 380.223 217.898C379.344 217.898 378.975 217.395 378.975 216.404V212.596H377.516V216.738C377.516 218.262 378.254 219.129 379.695 219.129ZM387.33 219.129C388.906 219.129 390.049 218.314 390.049 217.096V217.084C390.049 216.152 389.457 215.619 388.203 215.338L387.166 215.109C386.475 214.951 386.205 214.723 386.205 214.348V214.342C386.205 213.861 386.674 213.545 387.324 213.545C388.01 213.545 388.432 213.873 388.537 214.277L388.543 214.295H389.914V214.283C389.82 213.246 388.889 212.473 387.33 212.473C385.818 212.473 384.764 213.27 384.764 214.424V214.43C384.764 215.373 385.344 215.947 386.562 216.217L387.6 216.451C388.303 216.609 388.584 216.855 388.584 217.23V217.242C388.584 217.723 388.08 218.051 387.354 218.051C386.627 218.051 386.199 217.74 386.047 217.295L386.041 217.283H384.594V217.295C384.717 218.379 385.701 219.129 387.33 219.129ZM393.822 219.129C395.398 219.129 396.541 218.314 396.541 217.096V217.084C396.541 216.152 395.949 215.619 394.695 215.338L393.658 215.109C392.967 214.951 392.697 214.723 392.697 214.348V214.342C392.697 213.861 393.166 213.545 393.816 213.545C394.502 213.545 394.924 213.873 395.029 214.277L395.035 214.295H396.406V214.283C396.312 213.246 395.381 212.473 393.822 212.473C392.311 212.473 391.256 213.27 391.256 214.424V214.43C391.256 215.373 391.836 215.947 393.055 216.217L394.092 216.451C394.795 216.609 395.076 216.855 395.076 217.23V217.242C395.076 217.723 394.572 218.051 393.846 218.051C393.119 218.051 392.691 217.74 392.539 217.295L392.533 217.283H391.086V217.295C391.209 218.379 392.193 219.129 393.822 219.129ZM400.754 219.129C402.494 219.129 403.35 218.127 403.555 217.301L403.572 217.248H402.184L402.166 217.289C402.025 217.582 401.574 217.98 400.783 217.98C399.793 217.98 399.172 217.312 399.154 216.164H403.631V215.684C403.631 213.75 402.506 212.473 400.684 212.473C398.861 212.473 397.695 213.791 397.695 215.807V215.812C397.695 217.852 398.85 219.129 400.754 219.129ZM400.701 213.615C401.516 213.615 402.107 214.137 402.207 215.186H399.166C399.277 214.166 399.887 213.615 400.701 213.615ZM405.09 219H406.549V215.268C406.549 214.307 407.088 213.697 407.955 213.697C408.84 213.697 409.244 214.201 409.244 215.197V219H410.703V214.857C410.703 213.334 409.924 212.473 408.494 212.473C407.568 212.473 406.953 212.889 406.648 213.574H406.549V212.596H405.09V219Z" fill="white"/>
<path fill-rule="evenodd" clip-rule="evenodd" d="M327.656 36.79C327.656 36.592 327.814 36.432 328.006 36.432H328.707C328.9 36.432 329.055 36.592 329.055 36.79V38.222C329.055 38.419 328.9 38.58 328.707 38.58H328.006C327.814 38.58 327.656 38.419 327.656 38.222V36.79ZM329.756 36.79C329.756 36.592 329.913 36.432 330.106 36.432H332.906C333.099 36.432 333.257 36.592 333.257 36.79V38.222C333.257 38.419 333.099 38.58 332.906 38.58H330.106C329.913 38.58 329.756 38.419 329.756 38.222V36.79ZM333.956 36.79C333.956 36.592 334.113 36.432 334.306 36.432H337.106C337.299 36.432 337.456 36.592 337.456 36.79V38.222C337.456 38.419 337.299 38.58 337.106 38.58H334.306C334.113 38.58 333.956 38.419 333.956 38.222V36.79ZM338.156 36.79C338.156 36.592 338.314 36.432 338.506 36.432H339.593C339.77 36.432 339.918 36.565 339.939 36.744L340.125 38.175C340.138 38.278 340.107 38.38 340.04 38.458C339.974 38.536 339.878 38.58 339.778 38.58H338.506C338.314 38.58 338.156 38.419 338.156 38.222V36.79ZM340.995 39.595L340.296 35.299C340.266 35.127 340.122 35 339.95 35H327.7C327.349 35 327 35.358 327 35.717V39.571V39.814V40.642C327 40.821 327.128 41 327.3 41H328.847C329.083 40.282 329.753 39.8 330.55 39.8C331.348 39.8 332.017 40.282 332.253 41H335.797C336.032 40.282 336.702 39.8 337.5 39.8C338.297 39.8 338.967 40.282 339.203 41H340.65C340.843 41 341 40.839 341 40.642V39.814V39.654C341 39.634 340.998 39.615 340.995 39.595ZM329.55 41.8003C329.55 41.2493 329.998 40.8003 330.55 40.8003C331.102 40.8003 331.55 41.2493 331.55 41.8003C331.55 42.3523 331.102 42.8003 330.55 42.8003C329.998 42.8003 329.55 42.3523 329.55 41.8003ZM337.5 40.8003C336.948 40.8003 336.5 41.2493 336.5 41.8003C336.5 42.3523 336.948 42.8003 337.5 42.8003C338.052 42.8003 338.5 42.3523 338.5 41.8003C338.5 41.2493 338.052 40.8003 337.5 40.8003Z" fill="#D83755"/>
<path fill-rule="evenodd" clip-rule="evenodd" d="M327.656 154.79C327.656 154.592 327.814 154.432 328.006 154.432H328.707C328.9 154.432 329.055 154.592 329.055 154.79V156.222C329.055 156.419 328.9 156.58 328.707 156.58H328.006C327.814 156.58 327.656 156.419 327.656 156.222V154.79ZM329.756 154.79C329.756 154.592 329.913 154.432 330.106 154.432H332.906C333.099 154.432 333.257 154.592 333.257 154.79V156.222C333.257 156.419 333.099 156.58 332.906 156.58H330.106C329.913 156.58 329.756 156.419 329.756 156.222V154.79ZM333.956 154.79C333.956 154.592 334.113 154.432 334.306 154.432H337.106C337.299 154.432 337.456 154.592 337.456 154.79V156.222C337.456 156.419 337.299 156.58 337.106 156.58H334.306C334.113 156.58 333.956 156.419 333.956 156.222V154.79ZM338.156 154.79C338.156 154.592 338.314 154.432 338.506 154.432H339.593C339.77 154.432 339.918 154.565 339.939 154.744L340.125 156.175C340.138 156.278 340.107 156.38 340.04 156.458C339.974 156.536 339.878 156.58 339.778 156.58H338.506C338.314 156.58 338.156 156.419 338.156 156.222V154.79ZM340.995 157.595L340.296 153.299C340.266 153.127 340.122 153 339.95 153H327.7C327.349 153 327 153.358 327 153.717V157.571V157.814V158.642C327 158.821 327.128 159 327.3 159H328.847C329.083 158.282 329.753 157.8 330.55 157.8C331.348 157.8 332.017 158.282 332.253 159H335.797C336.032 158.282 336.702 157.8 337.5 157.8C338.297 157.8 338.967 158.282 339.203 159H340.65C340.843 159 341 158.839 341 158.642V157.814V157.654C341 157.634 340.998 157.615 340.995 157.595ZM329.55 159.8C329.55 159.249 329.998 158.8 330.55 158.8C331.102 158.8 331.55 159.249 331.55 159.8C331.55 160.352 331.102 160.8 330.55 160.8C329.998 160.8 329.55 160.352 329.55 159.8ZM337.5 158.8C336.948 158.8 336.5 159.249 336.5 159.8C336.5 160.352 336.948 160.8 337.5 160.8C338.052 160.8 338.5 160.352 338.5 159.8C338.5 159.249 338.052 158.8 337.5 158.8Z" fill="#D83755"/>
<path fill-rule="evenodd" clip-rule="evenodd" d="M327.656 95.79C327.656 95.592 327.814 95.432 328.006 95.432H328.707C328.9 95.432 329.055 95.592 329.055 95.79V97.222C329.055 97.419 328.9 97.58 328.707 97.58H328.006C327.814 97.58 327.656 97.419 327.656 97.222V95.79ZM329.756 95.79C329.756 95.592 329.913 95.432 330.106 95.432H332.906C333.099 95.432 333.257 95.592 333.257 95.79V97.222C333.257 97.419 333.099 97.58 332.906 97.58H330.106C329.913 97.58 329.756 97.419 329.756 97.222V95.79ZM333.956 95.79C333.956 95.592 334.113 95.432 334.306 95.432H337.106C337.299 95.432 337.456 95.592 337.456 95.79V97.222C337.456 97.419 337.299 97.58 337.106 97.58H334.306C334.113 97.58 333.956 97.419 333.956 97.222V95.79ZM338.156 95.79C338.156 95.592 338.314 95.432 338.506 95.432H339.593C339.77 95.432 339.918 95.565 339.939 95.744L340.125 97.175C340.138 97.278 340.107 97.38 340.04 97.458C339.974 97.536 339.878 97.58 339.778 97.58H338.506C338.314 97.58 338.156 97.419 338.156 97.222V95.79ZM340.995 98.595L340.296 94.299C340.266 94.127 340.122 94 339.95 94H327.7C327.349 94 327 94.358 327 94.717V98.571V98.814V99.642C327 99.821 327.128 100 327.3 100H328.847C329.083 99.282 329.753 98.8 330.55 98.8C331.348 98.8 332.017 99.282 332.253 100H335.797C336.032 99.282 336.702 98.8 337.5 98.8C338.297 98.8 338.967 99.282 339.203 100H340.65C340.843 100 341 99.839 341 99.642V98.814V98.654C341 98.634 340.998 98.615 340.995 98.595ZM329.55 100.8C329.55 100.249 329.998 99.8003 330.55 99.8003C331.102 99.8003 331.55 100.249 331.55 100.8C331.55 101.352 331.102 101.8 330.55 101.8C329.998 101.8 329.55 101.352 329.55 100.8ZM337.5 99.8003C336.948 99.8003 336.5 100.249 336.5 100.8C336.5 101.352 336.948 101.8 337.5 101.8C338.052 101.8 338.5 101.352 338.5 100.8C338.5 100.249 338.052 99.8003 337.5 99.8003Z" fill="#D83755"/>
<path fill-rule="evenodd" clip-rule="evenodd" d="M327.656 213.79C327.656 213.592 327.814 213.432 328.006 213.432H328.707C328.9 213.432 329.055 213.592 329.055 213.79V215.222C329.055 215.419 328.9 215.58 328.707 215.58H328.006C327.814 215.58 327.656 215.419 327.656 215.222V213.79ZM329.756 213.79C329.756 213.592 329.913 213.432 330.106 213.432H332.906C333.099 213.432 333.257 213.592 333.257 213.79V215.222C333.257 215.419 333.099 215.58 332.906 215.58H330.106C329.913 215.58 329.756 215.419 329.756 215.222V213.79ZM333.956 213.79C333.956 213.592 334.113 213.432 334.306 213.432H337.106C337.299 213.432 337.456 213.592 337.456 213.79V215.222C337.456 215.419 337.299 215.58 337.106 215.58H334.306C334.113 215.58 333.956 215.419 333.956 215.222V213.79ZM338.156 213.79C338.156 213.592 338.314 213.432 338.506 213.432H339.593C339.77 213.432 339.918 213.565 339.939 213.744L340.125 215.175C340.138 215.278 340.107 215.38 340.04 215.458C339.974 215.536 339.878 215.58 339.778 215.58H338.506C338.314 215.58 338.156 215.419 338.156 215.222V213.79ZM340.995 216.595L340.296 212.299C340.266 212.127 340.122 212 339.95 212H327.7C327.349 212 327 212.358 327 212.717V216.571V216.814V217.642C327 217.821 327.128 218 327.3 218H328.847C329.083 217.282 329.753 216.8 330.55 216.8C331.348 216.8 332.017 217.282 332.253 218H335.797C336.032 217.282 336.702 216.8 337.5 216.8C338.297 216.8 338.967 217.282 339.203 218H340.65C340.843 218 341 217.839 341 217.642V216.814V216.654C341 216.634 340.998 216.615 340.995 216.595ZM329.55 218.8C329.55 218.249 329.998 217.8 330.55 217.8C331.102 217.8 331.55 218.249 331.55 218.8C331.55 219.352 331.102 219.8 330.55 219.8C329.998 219.8 329.55 219.352 329.55 218.8ZM337.5 217.8C336.948 217.8 336.5 218.249 336.5 218.8C336.5 219.352 336.948 219.8 337.5 219.8C338.052 219.8 338.5 219.352 338.5 218.8C338.5 218.249 338.052 217.8 337.5 217.8Z" fill="#D83755"/>
</svg>
